%TF.GenerationSoftware,KiCad,Pcbnew,(5.0.2)-1*%
%TF.CreationDate,2019-03-22T12:12:08-04:00*%
%TF.ProjectId,Door_Lock,446f6f72-5f4c-46f6-936b-2e6b69636164,rev?*%
%TF.SameCoordinates,Original*%
%TF.FileFunction,Copper,L1,Top*%
%TF.FilePolarity,Positive*%
%FSLAX46Y46*%
G04 Gerber Fmt 4.6, Leading zero omitted, Abs format (unit mm)*
G04 Created by KiCad (PCBNEW (5.0.2)-1) date 3/22/2019 12:12:08 PM*
%MOMM*%
%LPD*%
G01*
G04 APERTURE LIST*
%ADD10C,0.150000*%
%ADD11C,1.600000*%
%ADD12O,1.600000X1.600000*%
%ADD13R,1.700000X1.700000*%
%ADD14O,1.700000X1.700000*%
%ADD15C,1.700000*%
%ADD16R,2.200000X2.200000*%
%ADD17O,2.200000X2.200000*%
%ADD18C,1.800000*%
%ADD19C,0.100000*%
%ADD20C,2.000000*%
%ADD21R,1.905000X2.000000*%
%ADD22O,1.905000X2.000000*%
%ADD23C,0.800000*%
%ADD24C,0.250000*%
%ADD25C,0.800000*%
%ADD26C,0.254000*%
G04 APERTURE END LIST*
D10*
X59436000Y-146050000D02*
G75*
G02X58674000Y-145288000I0J762000D01*
G01*
X116840000Y-145288000D02*
G75*
G02X116078000Y-146050000I-762000J0D01*
G01*
X58674000Y-32004000D02*
G75*
G02X59436000Y-31242000I762000J0D01*
G01*
X58674000Y-145288000D02*
X58674000Y-32004000D01*
X116078000Y-146050000D02*
X59436000Y-146050000D01*
X116840000Y-31242000D02*
X116840000Y-145288000D01*
X59436000Y-31242000D02*
X116840000Y-31242000D01*
D11*
X66167000Y-134239000D03*
D12*
X73787000Y-134239000D03*
D13*
X114412700Y-117729000D03*
D14*
X114412700Y-120269000D03*
D13*
X61087000Y-33528000D03*
D15*
X61087000Y-36068000D03*
X61087000Y-38608000D03*
X61087000Y-41148000D03*
X61087000Y-43688000D03*
X61087000Y-46228000D03*
X61087000Y-48768000D03*
X61087000Y-51308000D03*
X61087000Y-53848000D03*
X61087000Y-56388000D03*
X61087000Y-58928000D03*
X61087000Y-61468000D03*
X61087000Y-64008000D03*
X61087000Y-66548000D03*
X61087000Y-69088000D03*
X61087000Y-71628000D03*
X61087000Y-74168000D03*
X61087000Y-76708000D03*
X61087000Y-79248000D03*
X83947000Y-74168000D03*
X83947000Y-79248000D03*
X83947000Y-76708000D03*
X83947000Y-71628000D03*
X83947000Y-69088000D03*
X83947000Y-66548000D03*
X83947000Y-64008000D03*
X83947000Y-61468000D03*
X83947000Y-58928000D03*
X83947000Y-56388000D03*
X83947000Y-53848000D03*
X83947000Y-51308000D03*
X83947000Y-48768000D03*
X83947000Y-46228000D03*
X83947000Y-43688000D03*
X83947000Y-41148000D03*
X83947000Y-38608000D03*
X83947000Y-36068000D03*
X83947000Y-33528000D03*
D13*
X61341000Y-82740500D03*
X81841000Y-82740500D03*
X81841000Y-128240500D03*
X61341000Y-128240500D03*
X61023500Y-144272000D03*
D14*
X63563500Y-144272000D03*
X61023500Y-141732000D03*
X63563500Y-141732000D03*
X61023500Y-139192000D03*
X63563500Y-139192000D03*
D11*
X111887000Y-135509000D03*
D12*
X114427000Y-135509000D03*
D13*
X114412700Y-58039000D03*
D14*
X114412700Y-55499000D03*
X114412700Y-52959000D03*
X114412700Y-50419000D03*
X114412700Y-47879000D03*
X114412700Y-45339000D03*
X114412700Y-42799000D03*
X114412700Y-40259000D03*
D13*
X88912700Y-63290000D03*
D15*
X88912700Y-65830000D03*
D13*
X88912700Y-84330000D03*
D15*
X88912700Y-86870000D03*
D13*
X88912700Y-106870000D03*
D15*
X88912700Y-109410000D03*
X114412700Y-109410000D03*
D13*
X114412700Y-106870000D03*
D15*
X114412700Y-86870000D03*
D13*
X114412700Y-84330000D03*
D15*
X114412700Y-65830000D03*
D13*
X114412700Y-63290000D03*
D16*
X87210900Y-138722100D03*
D17*
X87210900Y-143802100D03*
D18*
X109664500Y-140881100D03*
X111188500Y-142405100D03*
X112712500Y-140881100D03*
D19*
G36*
X114984608Y-141507267D02*
X115028291Y-141513747D01*
X115071128Y-141524477D01*
X115112708Y-141539354D01*
X115152629Y-141558235D01*
X115190507Y-141580939D01*
X115225977Y-141607245D01*
X115258698Y-141636902D01*
X115288355Y-141669623D01*
X115314661Y-141705093D01*
X115337365Y-141742971D01*
X115356246Y-141782892D01*
X115371123Y-141824472D01*
X115381853Y-141867309D01*
X115388333Y-141910992D01*
X115390500Y-141955100D01*
X115390500Y-142855100D01*
X115388333Y-142899208D01*
X115381853Y-142942891D01*
X115371123Y-142985728D01*
X115356246Y-143027308D01*
X115337365Y-143067229D01*
X115314661Y-143105107D01*
X115288355Y-143140577D01*
X115258698Y-143173298D01*
X115225977Y-143202955D01*
X115190507Y-143229261D01*
X115152629Y-143251965D01*
X115112708Y-143270846D01*
X115071128Y-143285723D01*
X115028291Y-143296453D01*
X114984608Y-143302933D01*
X114940500Y-143305100D01*
X114040500Y-143305100D01*
X113996392Y-143302933D01*
X113952709Y-143296453D01*
X113909872Y-143285723D01*
X113868292Y-143270846D01*
X113828371Y-143251965D01*
X113790493Y-143229261D01*
X113755023Y-143202955D01*
X113722302Y-143173298D01*
X113692645Y-143140577D01*
X113666339Y-143105107D01*
X113643635Y-143067229D01*
X113624754Y-143027308D01*
X113609877Y-142985728D01*
X113599147Y-142942891D01*
X113592667Y-142899208D01*
X113590500Y-142855100D01*
X113590500Y-141955100D01*
X113592667Y-141910992D01*
X113599147Y-141867309D01*
X113609877Y-141824472D01*
X113624754Y-141782892D01*
X113643635Y-141742971D01*
X113666339Y-141705093D01*
X113692645Y-141669623D01*
X113722302Y-141636902D01*
X113755023Y-141607245D01*
X113790493Y-141580939D01*
X113828371Y-141558235D01*
X113868292Y-141539354D01*
X113909872Y-141524477D01*
X113952709Y-141513747D01*
X113996392Y-141507267D01*
X114040500Y-141505100D01*
X114940500Y-141505100D01*
X114984608Y-141507267D01*
X114984608Y-141507267D01*
G37*
D18*
X114490500Y-142405100D03*
D20*
X90731200Y-143573500D03*
X90731200Y-139073500D03*
X97231200Y-143573500D03*
X97231200Y-139073500D03*
X106870500Y-139073500D03*
X106870500Y-143573500D03*
X100370500Y-139073500D03*
X100370500Y-143573500D03*
D21*
X73406000Y-139700000D03*
D22*
X70866000Y-139700000D03*
X68326000Y-139700000D03*
D23*
X68008500Y-124142500D03*
X68389500Y-71691500D03*
X66802000Y-74549000D03*
D24*
X61936999Y-54697999D02*
X61087000Y-53848000D01*
X65468500Y-58229500D02*
X61936999Y-54697999D01*
X65468500Y-124396500D02*
X65468500Y-58229500D01*
X72987001Y-131915001D02*
X65468500Y-124396500D01*
X72987001Y-133439001D02*
X72987001Y-131915001D01*
X73787000Y-134239000D02*
X72987001Y-133439001D01*
D25*
X89789000Y-141224000D02*
X87210900Y-143802100D01*
X91948000Y-141224000D02*
X89789000Y-141224000D01*
X114412700Y-120269000D02*
X112903000Y-120269000D01*
X112903000Y-120269000D02*
X91948000Y-141224000D01*
X108204000Y-117729000D02*
X87210900Y-138722100D01*
X114412700Y-117729000D02*
X108204000Y-117729000D01*
X91694000Y-121666000D02*
X91694000Y-64421300D01*
X80899000Y-132461000D02*
X91694000Y-121666000D01*
X61023500Y-141732000D02*
X59573499Y-140281999D01*
X90562700Y-63290000D02*
X88912700Y-63290000D01*
X59573499Y-138102001D02*
X59933501Y-137741999D01*
X91694000Y-64421300D02*
X90562700Y-63290000D01*
X59933501Y-137741999D02*
X79936001Y-137741999D01*
X79936001Y-137741999D02*
X80899000Y-136779000D01*
X59573499Y-140281999D02*
X59573499Y-138102001D01*
X80899000Y-136779000D02*
X80899000Y-132461000D01*
X112762700Y-63290000D02*
X114412700Y-63290000D01*
X66421000Y-144589500D02*
X77470000Y-144589500D01*
X63563500Y-141732000D02*
X66421000Y-144589500D01*
X77470000Y-144589500D02*
X95135700Y-126923800D01*
X95135700Y-80556100D02*
X112401800Y-63290000D01*
X95135700Y-126923800D02*
X95135700Y-80556100D01*
X112401800Y-63290000D02*
X112762700Y-63290000D01*
D24*
X83947000Y-79248000D02*
X83947000Y-108204000D01*
X68408499Y-123742501D02*
X68008500Y-124142500D01*
X83947000Y-108204000D02*
X68408499Y-123742501D01*
X68389500Y-56070500D02*
X61087000Y-48768000D01*
X68389500Y-71691500D02*
X68389500Y-56070500D01*
X66802000Y-57023000D02*
X61087000Y-51308000D01*
X66802000Y-74549000D02*
X66802000Y-57023000D01*
D26*
G36*
X59517767Y-141689977D02*
X59509408Y-141732000D01*
X59624661Y-142311418D01*
X59952875Y-142802625D01*
X59971119Y-142814816D01*
X59925735Y-142823843D01*
X59715691Y-142964191D01*
X59575343Y-143174235D01*
X59526060Y-143422000D01*
X59526060Y-145122000D01*
X59569422Y-145340000D01*
X59505927Y-145340000D01*
X59421426Y-145323192D01*
X59409067Y-145314933D01*
X59400808Y-145302574D01*
X59384000Y-145218074D01*
X59384000Y-141556210D01*
X59517767Y-141689977D01*
X59517767Y-141689977D01*
G37*
X59517767Y-141689977D02*
X59509408Y-141732000D01*
X59624661Y-142311418D01*
X59952875Y-142802625D01*
X59971119Y-142814816D01*
X59925735Y-142823843D01*
X59715691Y-142964191D01*
X59575343Y-143174235D01*
X59526060Y-143422000D01*
X59526060Y-145122000D01*
X59569422Y-145340000D01*
X59505927Y-145340000D01*
X59421426Y-145323192D01*
X59409067Y-145314933D01*
X59400808Y-145302574D01*
X59384000Y-145218074D01*
X59384000Y-141556210D01*
X59517767Y-141689977D01*
G36*
X116130000Y-33784338D02*
X115828060Y-33055390D01*
X115818353Y-33050318D01*
X115807441Y-33023974D01*
X115178726Y-32395259D01*
X115152382Y-32384347D01*
X115147310Y-32374640D01*
X114750992Y-32218086D01*
X114357269Y-32055000D01*
X114338140Y-32055000D01*
X114320354Y-32047974D01*
X113894310Y-32055000D01*
X113468131Y-32055000D01*
X113450460Y-32062320D01*
X113431337Y-32062635D01*
X112678090Y-32374640D01*
X112673018Y-32384347D01*
X112646674Y-32395259D01*
X112017959Y-33023974D01*
X112007047Y-33050318D01*
X111997340Y-33055390D01*
X111840786Y-33451708D01*
X111677700Y-33845431D01*
X111677700Y-33864560D01*
X111670674Y-33882346D01*
X111677700Y-34308390D01*
X111677700Y-34734569D01*
X111685020Y-34752240D01*
X111685335Y-34771363D01*
X111997340Y-35524610D01*
X112007047Y-35529682D01*
X112017959Y-35556026D01*
X112646674Y-36184741D01*
X112673018Y-36195653D01*
X112678090Y-36205360D01*
X113074408Y-36361914D01*
X113468131Y-36525000D01*
X113487260Y-36525000D01*
X113505046Y-36532026D01*
X113931090Y-36525000D01*
X114357269Y-36525000D01*
X114374940Y-36517680D01*
X114394063Y-36517365D01*
X115147310Y-36205360D01*
X115152382Y-36195653D01*
X115178726Y-36184741D01*
X115807441Y-35556026D01*
X115818353Y-35529682D01*
X115828060Y-35524610D01*
X115984614Y-35128292D01*
X116130000Y-34777300D01*
X116130001Y-127904340D01*
X115828060Y-127175390D01*
X115818353Y-127170318D01*
X115807441Y-127143974D01*
X115178726Y-126515259D01*
X115152382Y-126504347D01*
X115147310Y-126494640D01*
X114750992Y-126338086D01*
X114357269Y-126175000D01*
X114338140Y-126175000D01*
X114320354Y-126167974D01*
X113894310Y-126175000D01*
X113468131Y-126175000D01*
X113450460Y-126182320D01*
X113431337Y-126182635D01*
X112678090Y-126494640D01*
X112673018Y-126504347D01*
X112646674Y-126515259D01*
X112017959Y-127143974D01*
X112007047Y-127170318D01*
X111997340Y-127175390D01*
X111840786Y-127571708D01*
X111677700Y-127965431D01*
X111677700Y-127984560D01*
X111670674Y-128002346D01*
X111677700Y-128428390D01*
X111677700Y-128854569D01*
X111685020Y-128872240D01*
X111685335Y-128891363D01*
X111997340Y-129644610D01*
X112007047Y-129649682D01*
X112017959Y-129676026D01*
X112646674Y-130304741D01*
X112673018Y-130315653D01*
X112678090Y-130325360D01*
X113074408Y-130481914D01*
X113468131Y-130645000D01*
X113487260Y-130645000D01*
X113505046Y-130652026D01*
X113931090Y-130645000D01*
X114357269Y-130645000D01*
X114374940Y-130637680D01*
X114394063Y-130637365D01*
X115147310Y-130325360D01*
X115152382Y-130315653D01*
X115178726Y-130304741D01*
X115807441Y-129676026D01*
X115818353Y-129649682D01*
X115828060Y-129644610D01*
X115984614Y-129248292D01*
X116130001Y-128897298D01*
X116130001Y-145218068D01*
X116113192Y-145302574D01*
X116104933Y-145314933D01*
X116092574Y-145323192D01*
X116008074Y-145340000D01*
X88032187Y-145340000D01*
X88461765Y-145052965D01*
X88845234Y-144479063D01*
X88979890Y-143802100D01*
X88929241Y-143547469D01*
X89096200Y-143380510D01*
X89096200Y-143898722D01*
X89345114Y-144499653D01*
X89805047Y-144959586D01*
X90405978Y-145208500D01*
X91056422Y-145208500D01*
X91657353Y-144959586D01*
X92117286Y-144499653D01*
X92366200Y-143898722D01*
X92366200Y-143248278D01*
X95596200Y-143248278D01*
X95596200Y-143898722D01*
X95845114Y-144499653D01*
X96305047Y-144959586D01*
X96905978Y-145208500D01*
X97556422Y-145208500D01*
X98157353Y-144959586D01*
X98617286Y-144499653D01*
X98800850Y-144056491D01*
X98984414Y-144499653D01*
X99444347Y-144959586D01*
X100045278Y-145208500D01*
X100695722Y-145208500D01*
X101296653Y-144959586D01*
X101756586Y-144499653D01*
X102005500Y-143898722D01*
X102005500Y-143248278D01*
X105235500Y-143248278D01*
X105235500Y-143898722D01*
X105484414Y-144499653D01*
X105944347Y-144959586D01*
X106545278Y-145208500D01*
X107195722Y-145208500D01*
X107796653Y-144959586D01*
X108256586Y-144499653D01*
X108505500Y-143898722D01*
X108505500Y-143248278D01*
X108256586Y-142647347D01*
X107796653Y-142187414D01*
X107195722Y-141938500D01*
X106545278Y-141938500D01*
X105944347Y-142187414D01*
X105484414Y-142647347D01*
X105235500Y-143248278D01*
X102005500Y-143248278D01*
X101756586Y-142647347D01*
X101296653Y-142187414D01*
X100695722Y-141938500D01*
X100045278Y-141938500D01*
X99444347Y-142187414D01*
X98984414Y-142647347D01*
X98800850Y-143090509D01*
X98617286Y-142647347D01*
X98157353Y-142187414D01*
X97556422Y-141938500D01*
X96905978Y-141938500D01*
X96305047Y-142187414D01*
X95845114Y-142647347D01*
X95596200Y-143248278D01*
X92366200Y-143248278D01*
X92117286Y-142647347D01*
X91728939Y-142259000D01*
X91846066Y-142259000D01*
X91948000Y-142279276D01*
X92049934Y-142259000D01*
X92049935Y-142259000D01*
X92351837Y-142198948D01*
X92694193Y-141970193D01*
X92751937Y-141883773D01*
X95596200Y-139039510D01*
X95596200Y-139398722D01*
X95845114Y-139999653D01*
X96305047Y-140459586D01*
X96905978Y-140708500D01*
X97556422Y-140708500D01*
X98157353Y-140459586D01*
X98617286Y-139999653D01*
X98800850Y-139556491D01*
X98984414Y-139999653D01*
X99444347Y-140459586D01*
X100045278Y-140708500D01*
X100695722Y-140708500D01*
X101296653Y-140459586D01*
X101756586Y-139999653D01*
X102005500Y-139398722D01*
X102005500Y-138748278D01*
X105235500Y-138748278D01*
X105235500Y-139398722D01*
X105484414Y-139999653D01*
X105944347Y-140459586D01*
X106545278Y-140708500D01*
X107195722Y-140708500D01*
X107516160Y-140575770D01*
X108129500Y-140575770D01*
X108129500Y-141186430D01*
X108363190Y-141750607D01*
X108794993Y-142182410D01*
X109359170Y-142416100D01*
X109653500Y-142416100D01*
X109653500Y-142710430D01*
X109887190Y-143274607D01*
X110318993Y-143706410D01*
X110883170Y-143940100D01*
X111493830Y-143940100D01*
X112058007Y-143706410D01*
X112489810Y-143274607D01*
X112723500Y-142710430D01*
X112723500Y-142416100D01*
X112943060Y-142416100D01*
X112943060Y-142855100D01*
X113026598Y-143275072D01*
X113264493Y-143631107D01*
X113620528Y-143869002D01*
X114040500Y-143952540D01*
X114940500Y-143952540D01*
X115360472Y-143869002D01*
X115716507Y-143631107D01*
X115954402Y-143275072D01*
X116037940Y-142855100D01*
X116037940Y-141955100D01*
X115954402Y-141535128D01*
X115716507Y-141179093D01*
X115360472Y-140941198D01*
X114940500Y-140857660D01*
X114247500Y-140857660D01*
X114247500Y-140575770D01*
X114013810Y-140011593D01*
X113582007Y-139579790D01*
X113017830Y-139346100D01*
X112407170Y-139346100D01*
X111842993Y-139579790D01*
X111411190Y-140011593D01*
X111188500Y-140549214D01*
X110965810Y-140011593D01*
X110534007Y-139579790D01*
X109969830Y-139346100D01*
X109359170Y-139346100D01*
X108794993Y-139579790D01*
X108363190Y-140011593D01*
X108129500Y-140575770D01*
X107516160Y-140575770D01*
X107796653Y-140459586D01*
X108256586Y-139999653D01*
X108505500Y-139398722D01*
X108505500Y-138748278D01*
X108256586Y-138147347D01*
X107796653Y-137687414D01*
X107195722Y-137438500D01*
X106545278Y-137438500D01*
X105944347Y-137687414D01*
X105484414Y-138147347D01*
X105235500Y-138748278D01*
X102005500Y-138748278D01*
X101756586Y-138147347D01*
X101296653Y-137687414D01*
X100695722Y-137438500D01*
X100045278Y-137438500D01*
X99444347Y-137687414D01*
X98984414Y-138147347D01*
X98800850Y-138590509D01*
X98617286Y-138147347D01*
X98157353Y-137687414D01*
X97556422Y-137438500D01*
X97197210Y-137438500D01*
X99412149Y-135223561D01*
X110452000Y-135223561D01*
X110452000Y-135794439D01*
X110670466Y-136321862D01*
X111074138Y-136725534D01*
X111601561Y-136944000D01*
X112172439Y-136944000D01*
X112699862Y-136725534D01*
X113103534Y-136321862D01*
X113157394Y-136191832D01*
X113392423Y-136543577D01*
X113867091Y-136860740D01*
X114285667Y-136944000D01*
X114568333Y-136944000D01*
X114986909Y-136860740D01*
X115461577Y-136543577D01*
X115778740Y-136068909D01*
X115890113Y-135509000D01*
X115778740Y-134949091D01*
X115461577Y-134474423D01*
X114986909Y-134157260D01*
X114568333Y-134074000D01*
X114285667Y-134074000D01*
X113867091Y-134157260D01*
X113392423Y-134474423D01*
X113157394Y-134826168D01*
X113103534Y-134696138D01*
X112699862Y-134292466D01*
X112172439Y-134074000D01*
X111601561Y-134074000D01*
X111074138Y-134292466D01*
X110670466Y-134696138D01*
X110452000Y-135223561D01*
X99412149Y-135223561D01*
X113323654Y-121312057D01*
X113342075Y-121339625D01*
X113833282Y-121667839D01*
X114266444Y-121754000D01*
X114558956Y-121754000D01*
X114992118Y-121667839D01*
X115483325Y-121339625D01*
X115811539Y-120848418D01*
X115926792Y-120269000D01*
X115811539Y-119689582D01*
X115483325Y-119198375D01*
X115465081Y-119186184D01*
X115510465Y-119177157D01*
X115720509Y-119036809D01*
X115860857Y-118826765D01*
X115910140Y-118579000D01*
X115910140Y-116879000D01*
X115860857Y-116631235D01*
X115720509Y-116421191D01*
X115510465Y-116280843D01*
X115262700Y-116231560D01*
X113562700Y-116231560D01*
X113314935Y-116280843D01*
X113104891Y-116421191D01*
X112964543Y-116631235D01*
X112952058Y-116694000D01*
X108305934Y-116694000D01*
X108204000Y-116673724D01*
X108102065Y-116694000D01*
X107800163Y-116754052D01*
X107457807Y-116982807D01*
X107400065Y-117069224D01*
X87494630Y-136974660D01*
X86548550Y-136974660D01*
X95795476Y-127727735D01*
X95881893Y-127669993D01*
X96110648Y-127327637D01*
X96170700Y-127025735D01*
X96170700Y-127025734D01*
X96190976Y-126923800D01*
X96170700Y-126821866D01*
X96170700Y-106020000D01*
X112915260Y-106020000D01*
X112915260Y-107720000D01*
X112964543Y-107967765D01*
X113104891Y-108177809D01*
X113314935Y-108318157D01*
X113389587Y-108333006D01*
X113153778Y-108568815D01*
X112927700Y-109114615D01*
X112927700Y-109705385D01*
X113153778Y-110251185D01*
X113571515Y-110668922D01*
X114117315Y-110895000D01*
X114708085Y-110895000D01*
X115253885Y-110668922D01*
X115671622Y-110251185D01*
X115897700Y-109705385D01*
X115897700Y-109114615D01*
X115671622Y-108568815D01*
X115435813Y-108333006D01*
X115510465Y-108318157D01*
X115720509Y-108177809D01*
X115860857Y-107967765D01*
X115910140Y-107720000D01*
X115910140Y-106020000D01*
X115860857Y-105772235D01*
X115720509Y-105562191D01*
X115510465Y-105421843D01*
X115262700Y-105372560D01*
X113562700Y-105372560D01*
X113314935Y-105421843D01*
X113104891Y-105562191D01*
X112964543Y-105772235D01*
X112915260Y-106020000D01*
X96170700Y-106020000D01*
X96170700Y-83480000D01*
X112915260Y-83480000D01*
X112915260Y-85180000D01*
X112964543Y-85427765D01*
X113104891Y-85637809D01*
X113314935Y-85778157D01*
X113389587Y-85793006D01*
X113153778Y-86028815D01*
X112927700Y-86574615D01*
X112927700Y-87165385D01*
X113153778Y-87711185D01*
X113571515Y-88128922D01*
X114117315Y-88355000D01*
X114708085Y-88355000D01*
X115253885Y-88128922D01*
X115671622Y-87711185D01*
X115897700Y-87165385D01*
X115897700Y-86574615D01*
X115671622Y-86028815D01*
X115435813Y-85793006D01*
X115510465Y-85778157D01*
X115720509Y-85637809D01*
X115860857Y-85427765D01*
X115910140Y-85180000D01*
X115910140Y-83480000D01*
X115860857Y-83232235D01*
X115720509Y-83022191D01*
X115510465Y-82881843D01*
X115262700Y-82832560D01*
X113562700Y-82832560D01*
X113314935Y-82881843D01*
X113104891Y-83022191D01*
X112964543Y-83232235D01*
X112915260Y-83480000D01*
X96170700Y-83480000D01*
X96170700Y-80984810D01*
X112830511Y-64325000D01*
X112952058Y-64325000D01*
X112964543Y-64387765D01*
X113104891Y-64597809D01*
X113314935Y-64738157D01*
X113389587Y-64753006D01*
X113153778Y-64988815D01*
X112927700Y-65534615D01*
X112927700Y-66125385D01*
X113153778Y-66671185D01*
X113571515Y-67088922D01*
X114117315Y-67315000D01*
X114708085Y-67315000D01*
X115253885Y-67088922D01*
X115671622Y-66671185D01*
X115897700Y-66125385D01*
X115897700Y-65534615D01*
X115671622Y-64988815D01*
X115435813Y-64753006D01*
X115510465Y-64738157D01*
X115720509Y-64597809D01*
X115860857Y-64387765D01*
X115910140Y-64140000D01*
X115910140Y-62440000D01*
X115860857Y-62192235D01*
X115720509Y-61982191D01*
X115510465Y-61841843D01*
X115262700Y-61792560D01*
X113562700Y-61792560D01*
X113314935Y-61841843D01*
X113104891Y-61982191D01*
X112964543Y-62192235D01*
X112952058Y-62255000D01*
X112503734Y-62255000D01*
X112401800Y-62234724D01*
X112299865Y-62255000D01*
X111997963Y-62315052D01*
X111655607Y-62543807D01*
X111597865Y-62630224D01*
X94475925Y-79752165D01*
X94389508Y-79809907D01*
X94331766Y-79896324D01*
X94160752Y-80152264D01*
X94080424Y-80556100D01*
X94100701Y-80658039D01*
X94100700Y-126495089D01*
X77041290Y-143554500D01*
X66849711Y-143554500D01*
X65069233Y-141774023D01*
X65077592Y-141732000D01*
X64962339Y-141152582D01*
X64634125Y-140661375D01*
X64335739Y-140462000D01*
X64634125Y-140262625D01*
X64962339Y-139771418D01*
X65077592Y-139192000D01*
X64995043Y-138776999D01*
X67001723Y-138776999D01*
X66830609Y-139033089D01*
X66738500Y-139496150D01*
X66738500Y-139903849D01*
X66830609Y-140366910D01*
X67181477Y-140892023D01*
X67706589Y-141242891D01*
X68326000Y-141366100D01*
X68945410Y-141242891D01*
X69470523Y-140892023D01*
X69596000Y-140704233D01*
X69721477Y-140892023D01*
X70246589Y-141242891D01*
X70866000Y-141366100D01*
X71485410Y-141242891D01*
X71877491Y-140980912D01*
X71995691Y-141157809D01*
X72205735Y-141298157D01*
X72453500Y-141347440D01*
X74358500Y-141347440D01*
X74606265Y-141298157D01*
X74816309Y-141157809D01*
X74956657Y-140947765D01*
X75005940Y-140700000D01*
X75005940Y-138776999D01*
X79834067Y-138776999D01*
X79936001Y-138797275D01*
X80037935Y-138776999D01*
X80037936Y-138776999D01*
X80339838Y-138716947D01*
X80682194Y-138488192D01*
X80739938Y-138401772D01*
X81558776Y-137582935D01*
X81645193Y-137525193D01*
X81873948Y-137182837D01*
X81934000Y-136880935D01*
X81934000Y-136880934D01*
X81954276Y-136779001D01*
X81934000Y-136677066D01*
X81934000Y-132889710D01*
X86673119Y-128150592D01*
X86677700Y-128428390D01*
X86677700Y-128854569D01*
X86685020Y-128872240D01*
X86685335Y-128891363D01*
X86997340Y-129644610D01*
X87007047Y-129649682D01*
X87017959Y-129676026D01*
X87646674Y-130304741D01*
X87673018Y-130315653D01*
X87678090Y-130325360D01*
X88074408Y-130481914D01*
X88468131Y-130645000D01*
X88487260Y-130645000D01*
X88505046Y-130652026D01*
X88931090Y-130645000D01*
X89357269Y-130645000D01*
X89374940Y-130637680D01*
X89394063Y-130637365D01*
X90147310Y-130325360D01*
X90152382Y-130315653D01*
X90178726Y-130304741D01*
X90807441Y-129676026D01*
X90818353Y-129649682D01*
X90828060Y-129644610D01*
X90984614Y-129248292D01*
X91147700Y-128854569D01*
X91147700Y-128835440D01*
X91154726Y-128817654D01*
X91147700Y-128391610D01*
X91147700Y-127965431D01*
X91140380Y-127947760D01*
X91140065Y-127928637D01*
X90828060Y-127175390D01*
X90818353Y-127170318D01*
X90807441Y-127143974D01*
X90178726Y-126515259D01*
X90152382Y-126504347D01*
X90147310Y-126494640D01*
X89750992Y-126338086D01*
X89357269Y-126175000D01*
X89338140Y-126175000D01*
X89320354Y-126167974D01*
X88894310Y-126175000D01*
X88648711Y-126175000D01*
X92353776Y-122469935D01*
X92440193Y-122412193D01*
X92668948Y-122069837D01*
X92729000Y-121767935D01*
X92729000Y-121767930D01*
X92749275Y-121666001D01*
X92729000Y-121564071D01*
X92729000Y-64523234D01*
X92749276Y-64421300D01*
X92668948Y-64017463D01*
X92497934Y-63761523D01*
X92440193Y-63675107D01*
X92353776Y-63617365D01*
X91366637Y-62630227D01*
X91308893Y-62543807D01*
X90966537Y-62315052D01*
X90664635Y-62255000D01*
X90664634Y-62255000D01*
X90562700Y-62234724D01*
X90460766Y-62255000D01*
X90373342Y-62255000D01*
X90360857Y-62192235D01*
X90220509Y-61982191D01*
X90010465Y-61841843D01*
X89762700Y-61792560D01*
X88062700Y-61792560D01*
X87814935Y-61841843D01*
X87604891Y-61982191D01*
X87464543Y-62192235D01*
X87415260Y-62440000D01*
X87415260Y-64140000D01*
X87464543Y-64387765D01*
X87604891Y-64597809D01*
X87814935Y-64738157D01*
X87889587Y-64753006D01*
X87653778Y-64988815D01*
X87427700Y-65534615D01*
X87427700Y-66125385D01*
X87653778Y-66671185D01*
X88071515Y-67088922D01*
X88617315Y-67315000D01*
X89208085Y-67315000D01*
X89753885Y-67088922D01*
X90171622Y-66671185D01*
X90397700Y-66125385D01*
X90397700Y-65534615D01*
X90171622Y-64988815D01*
X89935813Y-64753006D01*
X90010465Y-64738157D01*
X90220509Y-64597809D01*
X90295126Y-64486137D01*
X90659001Y-64850012D01*
X90659000Y-121237289D01*
X83338440Y-128557850D01*
X83338440Y-127390500D01*
X83289157Y-127142735D01*
X83148809Y-126932691D01*
X82938765Y-126792343D01*
X82691000Y-126743060D01*
X80991000Y-126743060D01*
X80743235Y-126792343D01*
X80533191Y-126932691D01*
X80392843Y-127142735D01*
X80343560Y-127390500D01*
X80343560Y-129090500D01*
X80392843Y-129338265D01*
X80533191Y-129548309D01*
X80743235Y-129688657D01*
X80991000Y-129737940D01*
X82158350Y-129737940D01*
X80239225Y-131657065D01*
X80152808Y-131714807D01*
X80095066Y-131801224D01*
X79924052Y-132057164D01*
X79843724Y-132461000D01*
X79864001Y-132562939D01*
X79864000Y-136350289D01*
X79507291Y-136706999D01*
X60035435Y-136706999D01*
X59933501Y-136686723D01*
X59831567Y-136706999D01*
X59831566Y-136706999D01*
X59529664Y-136767051D01*
X59384000Y-136864381D01*
X59384000Y-133953561D01*
X64732000Y-133953561D01*
X64732000Y-134524439D01*
X64950466Y-135051862D01*
X65354138Y-135455534D01*
X65881561Y-135674000D01*
X66452439Y-135674000D01*
X66979862Y-135455534D01*
X67383534Y-135051862D01*
X67602000Y-134524439D01*
X67602000Y-133953561D01*
X67383534Y-133426138D01*
X66979862Y-133022466D01*
X66452439Y-132804000D01*
X65881561Y-132804000D01*
X65354138Y-133022466D01*
X64950466Y-133426138D01*
X64732000Y-133953561D01*
X59384000Y-133953561D01*
X59384000Y-127390500D01*
X59843560Y-127390500D01*
X59843560Y-129090500D01*
X59892843Y-129338265D01*
X60033191Y-129548309D01*
X60243235Y-129688657D01*
X60491000Y-129737940D01*
X62191000Y-129737940D01*
X62438765Y-129688657D01*
X62648809Y-129548309D01*
X62789157Y-129338265D01*
X62838440Y-129090500D01*
X62838440Y-127390500D01*
X62789157Y-127142735D01*
X62648809Y-126932691D01*
X62438765Y-126792343D01*
X62191000Y-126743060D01*
X60491000Y-126743060D01*
X60243235Y-126792343D01*
X60033191Y-126932691D01*
X59892843Y-127142735D01*
X59843560Y-127390500D01*
X59384000Y-127390500D01*
X59384000Y-81890500D01*
X59843560Y-81890500D01*
X59843560Y-83590500D01*
X59892843Y-83838265D01*
X60033191Y-84048309D01*
X60243235Y-84188657D01*
X60491000Y-84237940D01*
X62191000Y-84237940D01*
X62438765Y-84188657D01*
X62648809Y-84048309D01*
X62789157Y-83838265D01*
X62838440Y-83590500D01*
X62838440Y-81890500D01*
X62789157Y-81642735D01*
X62648809Y-81432691D01*
X62438765Y-81292343D01*
X62191000Y-81243060D01*
X60491000Y-81243060D01*
X60243235Y-81292343D01*
X60033191Y-81432691D01*
X59892843Y-81642735D01*
X59843560Y-81890500D01*
X59384000Y-81890500D01*
X59384000Y-32678000D01*
X59589560Y-32678000D01*
X59589560Y-34378000D01*
X59638843Y-34625765D01*
X59779191Y-34835809D01*
X59989235Y-34976157D01*
X60063887Y-34991006D01*
X59828078Y-35226815D01*
X59602000Y-35772615D01*
X59602000Y-36363385D01*
X59828078Y-36909185D01*
X60245815Y-37326922D01*
X60272560Y-37338000D01*
X60245815Y-37349078D01*
X59828078Y-37766815D01*
X59602000Y-38312615D01*
X59602000Y-38903385D01*
X59828078Y-39449185D01*
X60245815Y-39866922D01*
X60272560Y-39878000D01*
X60245815Y-39889078D01*
X59828078Y-40306815D01*
X59602000Y-40852615D01*
X59602000Y-41443385D01*
X59828078Y-41989185D01*
X60245815Y-42406922D01*
X60272560Y-42418000D01*
X60245815Y-42429078D01*
X59828078Y-42846815D01*
X59602000Y-43392615D01*
X59602000Y-43983385D01*
X59828078Y-44529185D01*
X60245815Y-44946922D01*
X60272560Y-44958000D01*
X60245815Y-44969078D01*
X59828078Y-45386815D01*
X59602000Y-45932615D01*
X59602000Y-46523385D01*
X59828078Y-47069185D01*
X60245815Y-47486922D01*
X60272560Y-47498000D01*
X60245815Y-47509078D01*
X59828078Y-47926815D01*
X59602000Y-48472615D01*
X59602000Y-49063385D01*
X59828078Y-49609185D01*
X60245815Y-50026922D01*
X60272560Y-50038000D01*
X60245815Y-50049078D01*
X59828078Y-50466815D01*
X59602000Y-51012615D01*
X59602000Y-51603385D01*
X59828078Y-52149185D01*
X60245815Y-52566922D01*
X60272560Y-52578000D01*
X60245815Y-52589078D01*
X59828078Y-53006815D01*
X59602000Y-53552615D01*
X59602000Y-54143385D01*
X59828078Y-54689185D01*
X60245815Y-55106922D01*
X60272560Y-55118000D01*
X60245815Y-55129078D01*
X59828078Y-55546815D01*
X59602000Y-56092615D01*
X59602000Y-56683385D01*
X59828078Y-57229185D01*
X60245815Y-57646922D01*
X60272560Y-57658000D01*
X60245815Y-57669078D01*
X59828078Y-58086815D01*
X59602000Y-58632615D01*
X59602000Y-59223385D01*
X59828078Y-59769185D01*
X60245815Y-60186922D01*
X60272560Y-60198000D01*
X60245815Y-60209078D01*
X59828078Y-60626815D01*
X59602000Y-61172615D01*
X59602000Y-61763385D01*
X59828078Y-62309185D01*
X60245815Y-62726922D01*
X60272560Y-62738000D01*
X60245815Y-62749078D01*
X59828078Y-63166815D01*
X59602000Y-63712615D01*
X59602000Y-64303385D01*
X59828078Y-64849185D01*
X60245815Y-65266922D01*
X60272560Y-65278000D01*
X60245815Y-65289078D01*
X59828078Y-65706815D01*
X59602000Y-66252615D01*
X59602000Y-66843385D01*
X59828078Y-67389185D01*
X60245815Y-67806922D01*
X60272560Y-67818000D01*
X60245815Y-67829078D01*
X59828078Y-68246815D01*
X59602000Y-68792615D01*
X59602000Y-69383385D01*
X59828078Y-69929185D01*
X60245815Y-70346922D01*
X60272560Y-70358000D01*
X60245815Y-70369078D01*
X59828078Y-70786815D01*
X59602000Y-71332615D01*
X59602000Y-71923385D01*
X59828078Y-72469185D01*
X60245815Y-72886922D01*
X60272560Y-72898000D01*
X60245815Y-72909078D01*
X59828078Y-73326815D01*
X59602000Y-73872615D01*
X59602000Y-74463385D01*
X59828078Y-75009185D01*
X60245815Y-75426922D01*
X60272560Y-75438000D01*
X60245815Y-75449078D01*
X59828078Y-75866815D01*
X59602000Y-76412615D01*
X59602000Y-77003385D01*
X59828078Y-77549185D01*
X60245815Y-77966922D01*
X60272560Y-77978000D01*
X60245815Y-77989078D01*
X59828078Y-78406815D01*
X59602000Y-78952615D01*
X59602000Y-79543385D01*
X59828078Y-80089185D01*
X60245815Y-80506922D01*
X60791615Y-80733000D01*
X61382385Y-80733000D01*
X61928185Y-80506922D01*
X62345922Y-80089185D01*
X62572000Y-79543385D01*
X62572000Y-78952615D01*
X62345922Y-78406815D01*
X61928185Y-77989078D01*
X61901440Y-77978000D01*
X61928185Y-77966922D01*
X62345922Y-77549185D01*
X62572000Y-77003385D01*
X62572000Y-76412615D01*
X62345922Y-75866815D01*
X61928185Y-75449078D01*
X61901440Y-75438000D01*
X61928185Y-75426922D01*
X62345922Y-75009185D01*
X62572000Y-74463385D01*
X62572000Y-73872615D01*
X62345922Y-73326815D01*
X61928185Y-72909078D01*
X61901440Y-72898000D01*
X61928185Y-72886922D01*
X62345922Y-72469185D01*
X62572000Y-71923385D01*
X62572000Y-71332615D01*
X62345922Y-70786815D01*
X61928185Y-70369078D01*
X61901440Y-70358000D01*
X61928185Y-70346922D01*
X62345922Y-69929185D01*
X62572000Y-69383385D01*
X62572000Y-68792615D01*
X62345922Y-68246815D01*
X61928185Y-67829078D01*
X61901440Y-67818000D01*
X61928185Y-67806922D01*
X62345922Y-67389185D01*
X62572000Y-66843385D01*
X62572000Y-66252615D01*
X62345922Y-65706815D01*
X61928185Y-65289078D01*
X61901440Y-65278000D01*
X61928185Y-65266922D01*
X62345922Y-64849185D01*
X62572000Y-64303385D01*
X62572000Y-63712615D01*
X62345922Y-63166815D01*
X61928185Y-62749078D01*
X61901440Y-62738000D01*
X61928185Y-62726922D01*
X62345922Y-62309185D01*
X62572000Y-61763385D01*
X62572000Y-61172615D01*
X62345922Y-60626815D01*
X61928185Y-60209078D01*
X61901440Y-60198000D01*
X61928185Y-60186922D01*
X62345922Y-59769185D01*
X62572000Y-59223385D01*
X62572000Y-58632615D01*
X62345922Y-58086815D01*
X61928185Y-57669078D01*
X61901440Y-57658000D01*
X61928185Y-57646922D01*
X62345922Y-57229185D01*
X62572000Y-56683385D01*
X62572000Y-56407801D01*
X64708501Y-58544303D01*
X64708500Y-124321653D01*
X64693612Y-124396500D01*
X64708500Y-124471347D01*
X64708500Y-124471351D01*
X64752596Y-124693036D01*
X64920571Y-124944429D01*
X64984030Y-124986831D01*
X72227002Y-132229804D01*
X72227001Y-133364154D01*
X72212113Y-133439001D01*
X72227001Y-133513848D01*
X72227001Y-133513852D01*
X72271097Y-133735537D01*
X72388948Y-133911915D01*
X72323887Y-134239000D01*
X72435260Y-134798909D01*
X72752423Y-135273577D01*
X73227091Y-135590740D01*
X73645667Y-135674000D01*
X73928333Y-135674000D01*
X74346909Y-135590740D01*
X74821577Y-135273577D01*
X75138740Y-134798909D01*
X75250113Y-134239000D01*
X75138740Y-133679091D01*
X74821577Y-133204423D01*
X74346909Y-132887260D01*
X73928333Y-132804000D01*
X73747001Y-132804000D01*
X73747001Y-131989847D01*
X73761889Y-131915000D01*
X73747001Y-131840153D01*
X73747001Y-131840149D01*
X73702905Y-131618464D01*
X73534930Y-131367072D01*
X73471474Y-131324672D01*
X66228500Y-124081699D01*
X66228500Y-123936626D01*
X66973500Y-123936626D01*
X66973500Y-124348374D01*
X67131069Y-124728780D01*
X67422220Y-125019931D01*
X67802626Y-125177500D01*
X68214374Y-125177500D01*
X68594780Y-125019931D01*
X68885931Y-124728780D01*
X69043500Y-124348374D01*
X69043500Y-124182301D01*
X84431473Y-108794329D01*
X84494929Y-108751929D01*
X84617282Y-108568815D01*
X84662904Y-108500538D01*
X84672480Y-108452395D01*
X84707000Y-108278852D01*
X84707000Y-108278848D01*
X84721888Y-108204000D01*
X84707000Y-108129152D01*
X84707000Y-106020000D01*
X87415260Y-106020000D01*
X87415260Y-107720000D01*
X87464543Y-107967765D01*
X87604891Y-108177809D01*
X87814935Y-108318157D01*
X87889587Y-108333006D01*
X87653778Y-108568815D01*
X87427700Y-109114615D01*
X87427700Y-109705385D01*
X87653778Y-110251185D01*
X88071515Y-110668922D01*
X88617315Y-110895000D01*
X89208085Y-110895000D01*
X89753885Y-110668922D01*
X90171622Y-110251185D01*
X90397700Y-109705385D01*
X90397700Y-109114615D01*
X90171622Y-108568815D01*
X89935813Y-108333006D01*
X90010465Y-108318157D01*
X90220509Y-108177809D01*
X90360857Y-107967765D01*
X90410140Y-107720000D01*
X90410140Y-106020000D01*
X90360857Y-105772235D01*
X90220509Y-105562191D01*
X90010465Y-105421843D01*
X89762700Y-105372560D01*
X88062700Y-105372560D01*
X87814935Y-105421843D01*
X87604891Y-105562191D01*
X87464543Y-105772235D01*
X87415260Y-106020000D01*
X84707000Y-106020000D01*
X84707000Y-83480000D01*
X87415260Y-83480000D01*
X87415260Y-85180000D01*
X87464543Y-85427765D01*
X87604891Y-85637809D01*
X87814935Y-85778157D01*
X87889587Y-85793006D01*
X87653778Y-86028815D01*
X87427700Y-86574615D01*
X87427700Y-87165385D01*
X87653778Y-87711185D01*
X88071515Y-88128922D01*
X88617315Y-88355000D01*
X89208085Y-88355000D01*
X89753885Y-88128922D01*
X90171622Y-87711185D01*
X90397700Y-87165385D01*
X90397700Y-86574615D01*
X90171622Y-86028815D01*
X89935813Y-85793006D01*
X90010465Y-85778157D01*
X90220509Y-85637809D01*
X90360857Y-85427765D01*
X90410140Y-85180000D01*
X90410140Y-83480000D01*
X90360857Y-83232235D01*
X90220509Y-83022191D01*
X90010465Y-82881843D01*
X89762700Y-82832560D01*
X88062700Y-82832560D01*
X87814935Y-82881843D01*
X87604891Y-83022191D01*
X87464543Y-83232235D01*
X87415260Y-83480000D01*
X84707000Y-83480000D01*
X84707000Y-80540550D01*
X84788185Y-80506922D01*
X85205922Y-80089185D01*
X85432000Y-79543385D01*
X85432000Y-78952615D01*
X85205922Y-78406815D01*
X84788185Y-77989078D01*
X84761440Y-77978000D01*
X84788185Y-77966922D01*
X85205922Y-77549185D01*
X85432000Y-77003385D01*
X85432000Y-76412615D01*
X85205922Y-75866815D01*
X84788185Y-75449078D01*
X84761440Y-75438000D01*
X84788185Y-75426922D01*
X85205922Y-75009185D01*
X85432000Y-74463385D01*
X85432000Y-73872615D01*
X85205922Y-73326815D01*
X84788185Y-72909078D01*
X84761440Y-72898000D01*
X84788185Y-72886922D01*
X85205922Y-72469185D01*
X85432000Y-71923385D01*
X85432000Y-71332615D01*
X85205922Y-70786815D01*
X84788185Y-70369078D01*
X84761440Y-70358000D01*
X84788185Y-70346922D01*
X85205922Y-69929185D01*
X85432000Y-69383385D01*
X85432000Y-68792615D01*
X85205922Y-68246815D01*
X84788185Y-67829078D01*
X84761440Y-67818000D01*
X84788185Y-67806922D01*
X85205922Y-67389185D01*
X85432000Y-66843385D01*
X85432000Y-66252615D01*
X85205922Y-65706815D01*
X84788185Y-65289078D01*
X84761440Y-65278000D01*
X84788185Y-65266922D01*
X85205922Y-64849185D01*
X85432000Y-64303385D01*
X85432000Y-63712615D01*
X85205922Y-63166815D01*
X84788185Y-62749078D01*
X84761440Y-62738000D01*
X84788185Y-62726922D01*
X85205922Y-62309185D01*
X85432000Y-61763385D01*
X85432000Y-61172615D01*
X85205922Y-60626815D01*
X84788185Y-60209078D01*
X84761440Y-60198000D01*
X84788185Y-60186922D01*
X85205922Y-59769185D01*
X85432000Y-59223385D01*
X85432000Y-58632615D01*
X85205922Y-58086815D01*
X84788185Y-57669078D01*
X84761440Y-57658000D01*
X84788185Y-57646922D01*
X85205922Y-57229185D01*
X85432000Y-56683385D01*
X85432000Y-56092615D01*
X85205922Y-55546815D01*
X84788185Y-55129078D01*
X84761440Y-55118000D01*
X84788185Y-55106922D01*
X85205922Y-54689185D01*
X85432000Y-54143385D01*
X85432000Y-53552615D01*
X85205922Y-53006815D01*
X84788185Y-52589078D01*
X84761440Y-52578000D01*
X84788185Y-52566922D01*
X85205922Y-52149185D01*
X85432000Y-51603385D01*
X85432000Y-51012615D01*
X85205922Y-50466815D01*
X84788185Y-50049078D01*
X84761440Y-50038000D01*
X84788185Y-50026922D01*
X85205922Y-49609185D01*
X85432000Y-49063385D01*
X85432000Y-48472615D01*
X85205922Y-47926815D01*
X84788185Y-47509078D01*
X84761440Y-47498000D01*
X84788185Y-47486922D01*
X85205922Y-47069185D01*
X85432000Y-46523385D01*
X85432000Y-45932615D01*
X85205922Y-45386815D01*
X84788185Y-44969078D01*
X84761440Y-44958000D01*
X84788185Y-44946922D01*
X85205922Y-44529185D01*
X85432000Y-43983385D01*
X85432000Y-43392615D01*
X85205922Y-42846815D01*
X84788185Y-42429078D01*
X84761440Y-42418000D01*
X84788185Y-42406922D01*
X85205922Y-41989185D01*
X85432000Y-41443385D01*
X85432000Y-40852615D01*
X85205922Y-40306815D01*
X85158107Y-40259000D01*
X112898608Y-40259000D01*
X113013861Y-40838418D01*
X113342075Y-41329625D01*
X113640461Y-41529000D01*
X113342075Y-41728375D01*
X113013861Y-42219582D01*
X112898608Y-42799000D01*
X113013861Y-43378418D01*
X113342075Y-43869625D01*
X113640461Y-44069000D01*
X113342075Y-44268375D01*
X113013861Y-44759582D01*
X112898608Y-45339000D01*
X113013861Y-45918418D01*
X113342075Y-46409625D01*
X113640461Y-46609000D01*
X113342075Y-46808375D01*
X113013861Y-47299582D01*
X112898608Y-47879000D01*
X113013861Y-48458418D01*
X113342075Y-48949625D01*
X113640461Y-49149000D01*
X113342075Y-49348375D01*
X113013861Y-49839582D01*
X112898608Y-50419000D01*
X113013861Y-50998418D01*
X113342075Y-51489625D01*
X113640461Y-51689000D01*
X113342075Y-51888375D01*
X113013861Y-52379582D01*
X112898608Y-52959000D01*
X113013861Y-53538418D01*
X113342075Y-54029625D01*
X113640461Y-54229000D01*
X113342075Y-54428375D01*
X113013861Y-54919582D01*
X112898608Y-55499000D01*
X113013861Y-56078418D01*
X113342075Y-56569625D01*
X113360319Y-56581816D01*
X113314935Y-56590843D01*
X113104891Y-56731191D01*
X112964543Y-56941235D01*
X112915260Y-57189000D01*
X112915260Y-58889000D01*
X112964543Y-59136765D01*
X113104891Y-59346809D01*
X113314935Y-59487157D01*
X113562700Y-59536440D01*
X115262700Y-59536440D01*
X115510465Y-59487157D01*
X115720509Y-59346809D01*
X115860857Y-59136765D01*
X115910140Y-58889000D01*
X115910140Y-57189000D01*
X115860857Y-56941235D01*
X115720509Y-56731191D01*
X115510465Y-56590843D01*
X115465081Y-56581816D01*
X115483325Y-56569625D01*
X115811539Y-56078418D01*
X115926792Y-55499000D01*
X115811539Y-54919582D01*
X115483325Y-54428375D01*
X115184939Y-54229000D01*
X115483325Y-54029625D01*
X115811539Y-53538418D01*
X115926792Y-52959000D01*
X115811539Y-52379582D01*
X115483325Y-51888375D01*
X115184939Y-51689000D01*
X115483325Y-51489625D01*
X115811539Y-50998418D01*
X115926792Y-50419000D01*
X115811539Y-49839582D01*
X115483325Y-49348375D01*
X115184939Y-49149000D01*
X115483325Y-48949625D01*
X115811539Y-48458418D01*
X115926792Y-47879000D01*
X115811539Y-47299582D01*
X115483325Y-46808375D01*
X115184939Y-46609000D01*
X115483325Y-46409625D01*
X115811539Y-45918418D01*
X115926792Y-45339000D01*
X115811539Y-44759582D01*
X115483325Y-44268375D01*
X115184939Y-44069000D01*
X115483325Y-43869625D01*
X115811539Y-43378418D01*
X115926792Y-42799000D01*
X115811539Y-42219582D01*
X115483325Y-41728375D01*
X115184939Y-41529000D01*
X115483325Y-41329625D01*
X115811539Y-40838418D01*
X115926792Y-40259000D01*
X115811539Y-39679582D01*
X115483325Y-39188375D01*
X114992118Y-38860161D01*
X114558956Y-38774000D01*
X114266444Y-38774000D01*
X113833282Y-38860161D01*
X113342075Y-39188375D01*
X113013861Y-39679582D01*
X112898608Y-40259000D01*
X85158107Y-40259000D01*
X84788185Y-39889078D01*
X84761440Y-39878000D01*
X84788185Y-39866922D01*
X85205922Y-39449185D01*
X85432000Y-38903385D01*
X85432000Y-38312615D01*
X85205922Y-37766815D01*
X84788185Y-37349078D01*
X84761440Y-37338000D01*
X84788185Y-37326922D01*
X85205922Y-36909185D01*
X85432000Y-36363385D01*
X85432000Y-35772615D01*
X85205922Y-35226815D01*
X84788185Y-34809078D01*
X84761440Y-34798000D01*
X84788185Y-34786922D01*
X85205922Y-34369185D01*
X85407577Y-33882346D01*
X86670674Y-33882346D01*
X86677700Y-34308390D01*
X86677700Y-34734569D01*
X86685020Y-34752240D01*
X86685335Y-34771363D01*
X86997340Y-35524610D01*
X87007047Y-35529682D01*
X87017959Y-35556026D01*
X87646674Y-36184741D01*
X87673018Y-36195653D01*
X87678090Y-36205360D01*
X88074408Y-36361914D01*
X88468131Y-36525000D01*
X88487260Y-36525000D01*
X88505046Y-36532026D01*
X88931090Y-36525000D01*
X89357269Y-36525000D01*
X89374940Y-36517680D01*
X89394063Y-36517365D01*
X90147310Y-36205360D01*
X90152382Y-36195653D01*
X90178726Y-36184741D01*
X90807441Y-35556026D01*
X90818353Y-35529682D01*
X90828060Y-35524610D01*
X90984614Y-35128292D01*
X91147700Y-34734569D01*
X91147700Y-34715440D01*
X91154726Y-34697654D01*
X91147700Y-34271610D01*
X91147700Y-33845431D01*
X91140380Y-33827760D01*
X91140065Y-33808637D01*
X90828060Y-33055390D01*
X90818353Y-33050318D01*
X90807441Y-33023974D01*
X90178726Y-32395259D01*
X90152382Y-32384347D01*
X90147310Y-32374640D01*
X89750992Y-32218086D01*
X89357269Y-32055000D01*
X89338140Y-32055000D01*
X89320354Y-32047974D01*
X88894310Y-32055000D01*
X88468131Y-32055000D01*
X88450460Y-32062320D01*
X88431337Y-32062635D01*
X87678090Y-32374640D01*
X87673018Y-32384347D01*
X87646674Y-32395259D01*
X87017959Y-33023974D01*
X87007047Y-33050318D01*
X86997340Y-33055390D01*
X86840786Y-33451708D01*
X86677700Y-33845431D01*
X86677700Y-33864560D01*
X86670674Y-33882346D01*
X85407577Y-33882346D01*
X85432000Y-33823385D01*
X85432000Y-33232615D01*
X85205922Y-32686815D01*
X84788185Y-32269078D01*
X84242385Y-32043000D01*
X83651615Y-32043000D01*
X83105815Y-32269078D01*
X82688078Y-32686815D01*
X82462000Y-33232615D01*
X82462000Y-33823385D01*
X82688078Y-34369185D01*
X83105815Y-34786922D01*
X83132560Y-34798000D01*
X83105815Y-34809078D01*
X82688078Y-35226815D01*
X82462000Y-35772615D01*
X82462000Y-36363385D01*
X82688078Y-36909185D01*
X83105815Y-37326922D01*
X83132560Y-37338000D01*
X83105815Y-37349078D01*
X82688078Y-37766815D01*
X82462000Y-38312615D01*
X82462000Y-38903385D01*
X82688078Y-39449185D01*
X83105815Y-39866922D01*
X83132560Y-39878000D01*
X83105815Y-39889078D01*
X82688078Y-40306815D01*
X82462000Y-40852615D01*
X82462000Y-41443385D01*
X82688078Y-41989185D01*
X83105815Y-42406922D01*
X83132560Y-42418000D01*
X83105815Y-42429078D01*
X82688078Y-42846815D01*
X82462000Y-43392615D01*
X82462000Y-43983385D01*
X82688078Y-44529185D01*
X83105815Y-44946922D01*
X83132560Y-44958000D01*
X83105815Y-44969078D01*
X82688078Y-45386815D01*
X82462000Y-45932615D01*
X82462000Y-46523385D01*
X82688078Y-47069185D01*
X83105815Y-47486922D01*
X83132560Y-47498000D01*
X83105815Y-47509078D01*
X82688078Y-47926815D01*
X82462000Y-48472615D01*
X82462000Y-49063385D01*
X82688078Y-49609185D01*
X83105815Y-50026922D01*
X83132560Y-50038000D01*
X83105815Y-50049078D01*
X82688078Y-50466815D01*
X82462000Y-51012615D01*
X82462000Y-51603385D01*
X82688078Y-52149185D01*
X83105815Y-52566922D01*
X83132560Y-52578000D01*
X83105815Y-52589078D01*
X82688078Y-53006815D01*
X82462000Y-53552615D01*
X82462000Y-54143385D01*
X82688078Y-54689185D01*
X83105815Y-55106922D01*
X83132560Y-55118000D01*
X83105815Y-55129078D01*
X82688078Y-55546815D01*
X82462000Y-56092615D01*
X82462000Y-56683385D01*
X82688078Y-57229185D01*
X83105815Y-57646922D01*
X83132560Y-57658000D01*
X83105815Y-57669078D01*
X82688078Y-58086815D01*
X82462000Y-58632615D01*
X82462000Y-59223385D01*
X82688078Y-59769185D01*
X83105815Y-60186922D01*
X83132560Y-60198000D01*
X83105815Y-60209078D01*
X82688078Y-60626815D01*
X82462000Y-61172615D01*
X82462000Y-61763385D01*
X82688078Y-62309185D01*
X83105815Y-62726922D01*
X83132560Y-62738000D01*
X83105815Y-62749078D01*
X82688078Y-63166815D01*
X82462000Y-63712615D01*
X82462000Y-64303385D01*
X82688078Y-64849185D01*
X83105815Y-65266922D01*
X83132560Y-65278000D01*
X83105815Y-65289078D01*
X82688078Y-65706815D01*
X82462000Y-66252615D01*
X82462000Y-66843385D01*
X82688078Y-67389185D01*
X83105815Y-67806922D01*
X83132560Y-67818000D01*
X83105815Y-67829078D01*
X82688078Y-68246815D01*
X82462000Y-68792615D01*
X82462000Y-69383385D01*
X82688078Y-69929185D01*
X83105815Y-70346922D01*
X83132560Y-70358000D01*
X83105815Y-70369078D01*
X82688078Y-70786815D01*
X82462000Y-71332615D01*
X82462000Y-71923385D01*
X82688078Y-72469185D01*
X83105815Y-72886922D01*
X83132560Y-72898000D01*
X83105815Y-72909078D01*
X82688078Y-73326815D01*
X82462000Y-73872615D01*
X82462000Y-74463385D01*
X82688078Y-75009185D01*
X83105815Y-75426922D01*
X83132560Y-75438000D01*
X83105815Y-75449078D01*
X82688078Y-75866815D01*
X82462000Y-76412615D01*
X82462000Y-77003385D01*
X82688078Y-77549185D01*
X83105815Y-77966922D01*
X83132560Y-77978000D01*
X83105815Y-77989078D01*
X82688078Y-78406815D01*
X82462000Y-78952615D01*
X82462000Y-79543385D01*
X82688078Y-80089185D01*
X83105815Y-80506922D01*
X83187000Y-80540550D01*
X83187000Y-81489848D01*
X83148809Y-81432691D01*
X82938765Y-81292343D01*
X82691000Y-81243060D01*
X80991000Y-81243060D01*
X80743235Y-81292343D01*
X80533191Y-81432691D01*
X80392843Y-81642735D01*
X80343560Y-81890500D01*
X80343560Y-83590500D01*
X80392843Y-83838265D01*
X80533191Y-84048309D01*
X80743235Y-84188657D01*
X80991000Y-84237940D01*
X82691000Y-84237940D01*
X82938765Y-84188657D01*
X83148809Y-84048309D01*
X83187000Y-83991152D01*
X83187001Y-107889197D01*
X67968699Y-123107500D01*
X67802626Y-123107500D01*
X67422220Y-123265069D01*
X67131069Y-123556220D01*
X66973500Y-123936626D01*
X66228500Y-123936626D01*
X66228500Y-75431725D01*
X66596126Y-75584000D01*
X67007874Y-75584000D01*
X67388280Y-75426431D01*
X67679431Y-75135280D01*
X67837000Y-74754874D01*
X67837000Y-74343126D01*
X67679431Y-73962720D01*
X67562000Y-73845289D01*
X67562000Y-72327711D01*
X67803220Y-72568931D01*
X68183626Y-72726500D01*
X68595374Y-72726500D01*
X68975780Y-72568931D01*
X69266931Y-72277780D01*
X69424500Y-71897374D01*
X69424500Y-71485626D01*
X69266931Y-71105220D01*
X69149500Y-70987789D01*
X69149500Y-56145348D01*
X69164388Y-56070500D01*
X69149500Y-55995652D01*
X69149500Y-55995648D01*
X69105404Y-55773963D01*
X68937429Y-55522571D01*
X68873973Y-55480171D01*
X62538372Y-49144571D01*
X62572000Y-49063385D01*
X62572000Y-48472615D01*
X62345922Y-47926815D01*
X61928185Y-47509078D01*
X61901440Y-47498000D01*
X61928185Y-47486922D01*
X62345922Y-47069185D01*
X62572000Y-46523385D01*
X62572000Y-45932615D01*
X62345922Y-45386815D01*
X61928185Y-44969078D01*
X61901440Y-44958000D01*
X61928185Y-44946922D01*
X62345922Y-44529185D01*
X62572000Y-43983385D01*
X62572000Y-43392615D01*
X62345922Y-42846815D01*
X61928185Y-42429078D01*
X61901440Y-42418000D01*
X61928185Y-42406922D01*
X62345922Y-41989185D01*
X62572000Y-41443385D01*
X62572000Y-40852615D01*
X62345922Y-40306815D01*
X61928185Y-39889078D01*
X61901440Y-39878000D01*
X61928185Y-39866922D01*
X62345922Y-39449185D01*
X62572000Y-38903385D01*
X62572000Y-38312615D01*
X62345922Y-37766815D01*
X61928185Y-37349078D01*
X61901440Y-37338000D01*
X61928185Y-37326922D01*
X62345922Y-36909185D01*
X62572000Y-36363385D01*
X62572000Y-35772615D01*
X62345922Y-35226815D01*
X62110113Y-34991006D01*
X62184765Y-34976157D01*
X62394809Y-34835809D01*
X62535157Y-34625765D01*
X62584440Y-34378000D01*
X62584440Y-32678000D01*
X62535157Y-32430235D01*
X62394809Y-32220191D01*
X62184765Y-32079843D01*
X61937000Y-32030560D01*
X60237000Y-32030560D01*
X59989235Y-32079843D01*
X59779191Y-32220191D01*
X59638843Y-32430235D01*
X59589560Y-32678000D01*
X59384000Y-32678000D01*
X59384000Y-32073926D01*
X59400808Y-31989426D01*
X59409067Y-31977067D01*
X59421426Y-31968808D01*
X59505927Y-31952000D01*
X116130000Y-31952000D01*
X116130000Y-33784338D01*
X116130000Y-33784338D01*
G37*
X116130000Y-33784338D02*
X115828060Y-33055390D01*
X115818353Y-33050318D01*
X115807441Y-33023974D01*
X115178726Y-32395259D01*
X115152382Y-32384347D01*
X115147310Y-32374640D01*
X114750992Y-32218086D01*
X114357269Y-32055000D01*
X114338140Y-32055000D01*
X114320354Y-32047974D01*
X113894310Y-32055000D01*
X113468131Y-32055000D01*
X113450460Y-32062320D01*
X113431337Y-32062635D01*
X112678090Y-32374640D01*
X112673018Y-32384347D01*
X112646674Y-32395259D01*
X112017959Y-33023974D01*
X112007047Y-33050318D01*
X111997340Y-33055390D01*
X111840786Y-33451708D01*
X111677700Y-33845431D01*
X111677700Y-33864560D01*
X111670674Y-33882346D01*
X111677700Y-34308390D01*
X111677700Y-34734569D01*
X111685020Y-34752240D01*
X111685335Y-34771363D01*
X111997340Y-35524610D01*
X112007047Y-35529682D01*
X112017959Y-35556026D01*
X112646674Y-36184741D01*
X112673018Y-36195653D01*
X112678090Y-36205360D01*
X113074408Y-36361914D01*
X113468131Y-36525000D01*
X113487260Y-36525000D01*
X113505046Y-36532026D01*
X113931090Y-36525000D01*
X114357269Y-36525000D01*
X114374940Y-36517680D01*
X114394063Y-36517365D01*
X115147310Y-36205360D01*
X115152382Y-36195653D01*
X115178726Y-36184741D01*
X115807441Y-35556026D01*
X115818353Y-35529682D01*
X115828060Y-35524610D01*
X115984614Y-35128292D01*
X116130000Y-34777300D01*
X116130001Y-127904340D01*
X115828060Y-127175390D01*
X115818353Y-127170318D01*
X115807441Y-127143974D01*
X115178726Y-126515259D01*
X115152382Y-126504347D01*
X115147310Y-126494640D01*
X114750992Y-126338086D01*
X114357269Y-126175000D01*
X114338140Y-126175000D01*
X114320354Y-126167974D01*
X113894310Y-126175000D01*
X113468131Y-126175000D01*
X113450460Y-126182320D01*
X113431337Y-126182635D01*
X112678090Y-126494640D01*
X112673018Y-126504347D01*
X112646674Y-126515259D01*
X112017959Y-127143974D01*
X112007047Y-127170318D01*
X111997340Y-127175390D01*
X111840786Y-127571708D01*
X111677700Y-127965431D01*
X111677700Y-127984560D01*
X111670674Y-128002346D01*
X111677700Y-128428390D01*
X111677700Y-128854569D01*
X111685020Y-128872240D01*
X111685335Y-128891363D01*
X111997340Y-129644610D01*
X112007047Y-129649682D01*
X112017959Y-129676026D01*
X112646674Y-130304741D01*
X112673018Y-130315653D01*
X112678090Y-130325360D01*
X113074408Y-130481914D01*
X113468131Y-130645000D01*
X113487260Y-130645000D01*
X113505046Y-130652026D01*
X113931090Y-130645000D01*
X114357269Y-130645000D01*
X114374940Y-130637680D01*
X114394063Y-130637365D01*
X115147310Y-130325360D01*
X115152382Y-130315653D01*
X115178726Y-130304741D01*
X115807441Y-129676026D01*
X115818353Y-129649682D01*
X115828060Y-129644610D01*
X115984614Y-129248292D01*
X116130001Y-128897298D01*
X116130001Y-145218068D01*
X116113192Y-145302574D01*
X116104933Y-145314933D01*
X116092574Y-145323192D01*
X116008074Y-145340000D01*
X88032187Y-145340000D01*
X88461765Y-145052965D01*
X88845234Y-144479063D01*
X88979890Y-143802100D01*
X88929241Y-143547469D01*
X89096200Y-143380510D01*
X89096200Y-143898722D01*
X89345114Y-144499653D01*
X89805047Y-144959586D01*
X90405978Y-145208500D01*
X91056422Y-145208500D01*
X91657353Y-144959586D01*
X92117286Y-144499653D01*
X92366200Y-143898722D01*
X92366200Y-143248278D01*
X95596200Y-143248278D01*
X95596200Y-143898722D01*
X95845114Y-144499653D01*
X96305047Y-144959586D01*
X96905978Y-145208500D01*
X97556422Y-145208500D01*
X98157353Y-144959586D01*
X98617286Y-144499653D01*
X98800850Y-144056491D01*
X98984414Y-144499653D01*
X99444347Y-144959586D01*
X100045278Y-145208500D01*
X100695722Y-145208500D01*
X101296653Y-144959586D01*
X101756586Y-144499653D01*
X102005500Y-143898722D01*
X102005500Y-143248278D01*
X105235500Y-143248278D01*
X105235500Y-143898722D01*
X105484414Y-144499653D01*
X105944347Y-144959586D01*
X106545278Y-145208500D01*
X107195722Y-145208500D01*
X107796653Y-144959586D01*
X108256586Y-144499653D01*
X108505500Y-143898722D01*
X108505500Y-143248278D01*
X108256586Y-142647347D01*
X107796653Y-142187414D01*
X107195722Y-141938500D01*
X106545278Y-141938500D01*
X105944347Y-142187414D01*
X105484414Y-142647347D01*
X105235500Y-143248278D01*
X102005500Y-143248278D01*
X101756586Y-142647347D01*
X101296653Y-142187414D01*
X100695722Y-141938500D01*
X100045278Y-141938500D01*
X99444347Y-142187414D01*
X98984414Y-142647347D01*
X98800850Y-143090509D01*
X98617286Y-142647347D01*
X98157353Y-142187414D01*
X97556422Y-141938500D01*
X96905978Y-141938500D01*
X96305047Y-142187414D01*
X95845114Y-142647347D01*
X95596200Y-143248278D01*
X92366200Y-143248278D01*
X92117286Y-142647347D01*
X91728939Y-142259000D01*
X91846066Y-142259000D01*
X91948000Y-142279276D01*
X92049934Y-142259000D01*
X92049935Y-142259000D01*
X92351837Y-142198948D01*
X92694193Y-141970193D01*
X92751937Y-141883773D01*
X95596200Y-139039510D01*
X95596200Y-139398722D01*
X95845114Y-139999653D01*
X96305047Y-140459586D01*
X96905978Y-140708500D01*
X97556422Y-140708500D01*
X98157353Y-140459586D01*
X98617286Y-139999653D01*
X98800850Y-139556491D01*
X98984414Y-139999653D01*
X99444347Y-140459586D01*
X100045278Y-140708500D01*
X100695722Y-140708500D01*
X101296653Y-140459586D01*
X101756586Y-139999653D01*
X102005500Y-139398722D01*
X102005500Y-138748278D01*
X105235500Y-138748278D01*
X105235500Y-139398722D01*
X105484414Y-139999653D01*
X105944347Y-140459586D01*
X106545278Y-140708500D01*
X107195722Y-140708500D01*
X107516160Y-140575770D01*
X108129500Y-140575770D01*
X108129500Y-141186430D01*
X108363190Y-141750607D01*
X108794993Y-142182410D01*
X109359170Y-142416100D01*
X109653500Y-142416100D01*
X109653500Y-142710430D01*
X109887190Y-143274607D01*
X110318993Y-143706410D01*
X110883170Y-143940100D01*
X111493830Y-143940100D01*
X112058007Y-143706410D01*
X112489810Y-143274607D01*
X112723500Y-142710430D01*
X112723500Y-142416100D01*
X112943060Y-142416100D01*
X112943060Y-142855100D01*
X113026598Y-143275072D01*
X113264493Y-143631107D01*
X113620528Y-143869002D01*
X114040500Y-143952540D01*
X114940500Y-143952540D01*
X115360472Y-143869002D01*
X115716507Y-143631107D01*
X115954402Y-143275072D01*
X116037940Y-142855100D01*
X116037940Y-141955100D01*
X115954402Y-141535128D01*
X115716507Y-141179093D01*
X115360472Y-140941198D01*
X114940500Y-140857660D01*
X114247500Y-140857660D01*
X114247500Y-140575770D01*
X114013810Y-140011593D01*
X113582007Y-139579790D01*
X113017830Y-139346100D01*
X112407170Y-139346100D01*
X111842993Y-139579790D01*
X111411190Y-140011593D01*
X111188500Y-140549214D01*
X110965810Y-140011593D01*
X110534007Y-139579790D01*
X109969830Y-139346100D01*
X109359170Y-139346100D01*
X108794993Y-139579790D01*
X108363190Y-140011593D01*
X108129500Y-140575770D01*
X107516160Y-140575770D01*
X107796653Y-140459586D01*
X108256586Y-139999653D01*
X108505500Y-139398722D01*
X108505500Y-138748278D01*
X108256586Y-138147347D01*
X107796653Y-137687414D01*
X107195722Y-137438500D01*
X106545278Y-137438500D01*
X105944347Y-137687414D01*
X105484414Y-138147347D01*
X105235500Y-138748278D01*
X102005500Y-138748278D01*
X101756586Y-138147347D01*
X101296653Y-137687414D01*
X100695722Y-137438500D01*
X100045278Y-137438500D01*
X99444347Y-137687414D01*
X98984414Y-138147347D01*
X98800850Y-138590509D01*
X98617286Y-138147347D01*
X98157353Y-137687414D01*
X97556422Y-137438500D01*
X97197210Y-137438500D01*
X99412149Y-135223561D01*
X110452000Y-135223561D01*
X110452000Y-135794439D01*
X110670466Y-136321862D01*
X111074138Y-136725534D01*
X111601561Y-136944000D01*
X112172439Y-136944000D01*
X112699862Y-136725534D01*
X113103534Y-136321862D01*
X113157394Y-136191832D01*
X113392423Y-136543577D01*
X113867091Y-136860740D01*
X114285667Y-136944000D01*
X114568333Y-136944000D01*
X114986909Y-136860740D01*
X115461577Y-136543577D01*
X115778740Y-136068909D01*
X115890113Y-135509000D01*
X115778740Y-134949091D01*
X115461577Y-134474423D01*
X114986909Y-134157260D01*
X114568333Y-134074000D01*
X114285667Y-134074000D01*
X113867091Y-134157260D01*
X113392423Y-134474423D01*
X113157394Y-134826168D01*
X113103534Y-134696138D01*
X112699862Y-134292466D01*
X112172439Y-134074000D01*
X111601561Y-134074000D01*
X111074138Y-134292466D01*
X110670466Y-134696138D01*
X110452000Y-135223561D01*
X99412149Y-135223561D01*
X113323654Y-121312057D01*
X113342075Y-121339625D01*
X113833282Y-121667839D01*
X114266444Y-121754000D01*
X114558956Y-121754000D01*
X114992118Y-121667839D01*
X115483325Y-121339625D01*
X115811539Y-120848418D01*
X115926792Y-120269000D01*
X115811539Y-119689582D01*
X115483325Y-119198375D01*
X115465081Y-119186184D01*
X115510465Y-119177157D01*
X115720509Y-119036809D01*
X115860857Y-118826765D01*
X115910140Y-118579000D01*
X115910140Y-116879000D01*
X115860857Y-116631235D01*
X115720509Y-116421191D01*
X115510465Y-116280843D01*
X115262700Y-116231560D01*
X113562700Y-116231560D01*
X113314935Y-116280843D01*
X113104891Y-116421191D01*
X112964543Y-116631235D01*
X112952058Y-116694000D01*
X108305934Y-116694000D01*
X108204000Y-116673724D01*
X108102065Y-116694000D01*
X107800163Y-116754052D01*
X107457807Y-116982807D01*
X107400065Y-117069224D01*
X87494630Y-136974660D01*
X86548550Y-136974660D01*
X95795476Y-127727735D01*
X95881893Y-127669993D01*
X96110648Y-127327637D01*
X96170700Y-127025735D01*
X96170700Y-127025734D01*
X96190976Y-126923800D01*
X96170700Y-126821866D01*
X96170700Y-106020000D01*
X112915260Y-106020000D01*
X112915260Y-107720000D01*
X112964543Y-107967765D01*
X113104891Y-108177809D01*
X113314935Y-108318157D01*
X113389587Y-108333006D01*
X113153778Y-108568815D01*
X112927700Y-109114615D01*
X112927700Y-109705385D01*
X113153778Y-110251185D01*
X113571515Y-110668922D01*
X114117315Y-110895000D01*
X114708085Y-110895000D01*
X115253885Y-110668922D01*
X115671622Y-110251185D01*
X115897700Y-109705385D01*
X115897700Y-109114615D01*
X115671622Y-108568815D01*
X115435813Y-108333006D01*
X115510465Y-108318157D01*
X115720509Y-108177809D01*
X115860857Y-107967765D01*
X115910140Y-107720000D01*
X115910140Y-106020000D01*
X115860857Y-105772235D01*
X115720509Y-105562191D01*
X115510465Y-105421843D01*
X115262700Y-105372560D01*
X113562700Y-105372560D01*
X113314935Y-105421843D01*
X113104891Y-105562191D01*
X112964543Y-105772235D01*
X112915260Y-106020000D01*
X96170700Y-106020000D01*
X96170700Y-83480000D01*
X112915260Y-83480000D01*
X112915260Y-85180000D01*
X112964543Y-85427765D01*
X113104891Y-85637809D01*
X113314935Y-85778157D01*
X113389587Y-85793006D01*
X113153778Y-86028815D01*
X112927700Y-86574615D01*
X112927700Y-87165385D01*
X113153778Y-87711185D01*
X113571515Y-88128922D01*
X114117315Y-88355000D01*
X114708085Y-88355000D01*
X115253885Y-88128922D01*
X115671622Y-87711185D01*
X115897700Y-87165385D01*
X115897700Y-86574615D01*
X115671622Y-86028815D01*
X115435813Y-85793006D01*
X115510465Y-85778157D01*
X115720509Y-85637809D01*
X115860857Y-85427765D01*
X115910140Y-85180000D01*
X115910140Y-83480000D01*
X115860857Y-83232235D01*
X115720509Y-83022191D01*
X115510465Y-82881843D01*
X115262700Y-82832560D01*
X113562700Y-82832560D01*
X113314935Y-82881843D01*
X113104891Y-83022191D01*
X112964543Y-83232235D01*
X112915260Y-83480000D01*
X96170700Y-83480000D01*
X96170700Y-80984810D01*
X112830511Y-64325000D01*
X112952058Y-64325000D01*
X112964543Y-64387765D01*
X113104891Y-64597809D01*
X113314935Y-64738157D01*
X113389587Y-64753006D01*
X113153778Y-64988815D01*
X112927700Y-65534615D01*
X112927700Y-66125385D01*
X113153778Y-66671185D01*
X113571515Y-67088922D01*
X114117315Y-67315000D01*
X114708085Y-67315000D01*
X115253885Y-67088922D01*
X115671622Y-66671185D01*
X115897700Y-66125385D01*
X115897700Y-65534615D01*
X115671622Y-64988815D01*
X115435813Y-64753006D01*
X115510465Y-64738157D01*
X115720509Y-64597809D01*
X115860857Y-64387765D01*
X115910140Y-64140000D01*
X115910140Y-62440000D01*
X115860857Y-62192235D01*
X115720509Y-61982191D01*
X115510465Y-61841843D01*
X115262700Y-61792560D01*
X113562700Y-61792560D01*
X113314935Y-61841843D01*
X113104891Y-61982191D01*
X112964543Y-62192235D01*
X112952058Y-62255000D01*
X112503734Y-62255000D01*
X112401800Y-62234724D01*
X112299865Y-62255000D01*
X111997963Y-62315052D01*
X111655607Y-62543807D01*
X111597865Y-62630224D01*
X94475925Y-79752165D01*
X94389508Y-79809907D01*
X94331766Y-79896324D01*
X94160752Y-80152264D01*
X94080424Y-80556100D01*
X94100701Y-80658039D01*
X94100700Y-126495089D01*
X77041290Y-143554500D01*
X66849711Y-143554500D01*
X65069233Y-141774023D01*
X65077592Y-141732000D01*
X64962339Y-141152582D01*
X64634125Y-140661375D01*
X64335739Y-140462000D01*
X64634125Y-140262625D01*
X64962339Y-139771418D01*
X65077592Y-139192000D01*
X64995043Y-138776999D01*
X67001723Y-138776999D01*
X66830609Y-139033089D01*
X66738500Y-139496150D01*
X66738500Y-139903849D01*
X66830609Y-140366910D01*
X67181477Y-140892023D01*
X67706589Y-141242891D01*
X68326000Y-141366100D01*
X68945410Y-141242891D01*
X69470523Y-140892023D01*
X69596000Y-140704233D01*
X69721477Y-140892023D01*
X70246589Y-141242891D01*
X70866000Y-141366100D01*
X71485410Y-141242891D01*
X71877491Y-140980912D01*
X71995691Y-141157809D01*
X72205735Y-141298157D01*
X72453500Y-141347440D01*
X74358500Y-141347440D01*
X74606265Y-141298157D01*
X74816309Y-141157809D01*
X74956657Y-140947765D01*
X75005940Y-140700000D01*
X75005940Y-138776999D01*
X79834067Y-138776999D01*
X79936001Y-138797275D01*
X80037935Y-138776999D01*
X80037936Y-138776999D01*
X80339838Y-138716947D01*
X80682194Y-138488192D01*
X80739938Y-138401772D01*
X81558776Y-137582935D01*
X81645193Y-137525193D01*
X81873948Y-137182837D01*
X81934000Y-136880935D01*
X81934000Y-136880934D01*
X81954276Y-136779001D01*
X81934000Y-136677066D01*
X81934000Y-132889710D01*
X86673119Y-128150592D01*
X86677700Y-128428390D01*
X86677700Y-128854569D01*
X86685020Y-128872240D01*
X86685335Y-128891363D01*
X86997340Y-129644610D01*
X87007047Y-129649682D01*
X87017959Y-129676026D01*
X87646674Y-130304741D01*
X87673018Y-130315653D01*
X87678090Y-130325360D01*
X88074408Y-130481914D01*
X88468131Y-130645000D01*
X88487260Y-130645000D01*
X88505046Y-130652026D01*
X88931090Y-130645000D01*
X89357269Y-130645000D01*
X89374940Y-130637680D01*
X89394063Y-130637365D01*
X90147310Y-130325360D01*
X90152382Y-130315653D01*
X90178726Y-130304741D01*
X90807441Y-129676026D01*
X90818353Y-129649682D01*
X90828060Y-129644610D01*
X90984614Y-129248292D01*
X91147700Y-128854569D01*
X91147700Y-128835440D01*
X91154726Y-128817654D01*
X91147700Y-128391610D01*
X91147700Y-127965431D01*
X91140380Y-127947760D01*
X91140065Y-127928637D01*
X90828060Y-127175390D01*
X90818353Y-127170318D01*
X90807441Y-127143974D01*
X90178726Y-126515259D01*
X90152382Y-126504347D01*
X90147310Y-126494640D01*
X89750992Y-126338086D01*
X89357269Y-126175000D01*
X89338140Y-126175000D01*
X89320354Y-126167974D01*
X88894310Y-126175000D01*
X88648711Y-126175000D01*
X92353776Y-122469935D01*
X92440193Y-122412193D01*
X92668948Y-122069837D01*
X92729000Y-121767935D01*
X92729000Y-121767930D01*
X92749275Y-121666001D01*
X92729000Y-121564071D01*
X92729000Y-64523234D01*
X92749276Y-64421300D01*
X92668948Y-64017463D01*
X92497934Y-63761523D01*
X92440193Y-63675107D01*
X92353776Y-63617365D01*
X91366637Y-62630227D01*
X91308893Y-62543807D01*
X90966537Y-62315052D01*
X90664635Y-62255000D01*
X90664634Y-62255000D01*
X90562700Y-62234724D01*
X90460766Y-62255000D01*
X90373342Y-62255000D01*
X90360857Y-62192235D01*
X90220509Y-61982191D01*
X90010465Y-61841843D01*
X89762700Y-61792560D01*
X88062700Y-61792560D01*
X87814935Y-61841843D01*
X87604891Y-61982191D01*
X87464543Y-62192235D01*
X87415260Y-62440000D01*
X87415260Y-64140000D01*
X87464543Y-64387765D01*
X87604891Y-64597809D01*
X87814935Y-64738157D01*
X87889587Y-64753006D01*
X87653778Y-64988815D01*
X87427700Y-65534615D01*
X87427700Y-66125385D01*
X87653778Y-66671185D01*
X88071515Y-67088922D01*
X88617315Y-67315000D01*
X89208085Y-67315000D01*
X89753885Y-67088922D01*
X90171622Y-66671185D01*
X90397700Y-66125385D01*
X90397700Y-65534615D01*
X90171622Y-64988815D01*
X89935813Y-64753006D01*
X90010465Y-64738157D01*
X90220509Y-64597809D01*
X90295126Y-64486137D01*
X90659001Y-64850012D01*
X90659000Y-121237289D01*
X83338440Y-128557850D01*
X83338440Y-127390500D01*
X83289157Y-127142735D01*
X83148809Y-126932691D01*
X82938765Y-126792343D01*
X82691000Y-126743060D01*
X80991000Y-126743060D01*
X80743235Y-126792343D01*
X80533191Y-126932691D01*
X80392843Y-127142735D01*
X80343560Y-127390500D01*
X80343560Y-129090500D01*
X80392843Y-129338265D01*
X80533191Y-129548309D01*
X80743235Y-129688657D01*
X80991000Y-129737940D01*
X82158350Y-129737940D01*
X80239225Y-131657065D01*
X80152808Y-131714807D01*
X80095066Y-131801224D01*
X79924052Y-132057164D01*
X79843724Y-132461000D01*
X79864001Y-132562939D01*
X79864000Y-136350289D01*
X79507291Y-136706999D01*
X60035435Y-136706999D01*
X59933501Y-136686723D01*
X59831567Y-136706999D01*
X59831566Y-136706999D01*
X59529664Y-136767051D01*
X59384000Y-136864381D01*
X59384000Y-133953561D01*
X64732000Y-133953561D01*
X64732000Y-134524439D01*
X64950466Y-135051862D01*
X65354138Y-135455534D01*
X65881561Y-135674000D01*
X66452439Y-135674000D01*
X66979862Y-135455534D01*
X67383534Y-135051862D01*
X67602000Y-134524439D01*
X67602000Y-133953561D01*
X67383534Y-133426138D01*
X66979862Y-133022466D01*
X66452439Y-132804000D01*
X65881561Y-132804000D01*
X65354138Y-133022466D01*
X64950466Y-133426138D01*
X64732000Y-133953561D01*
X59384000Y-133953561D01*
X59384000Y-127390500D01*
X59843560Y-127390500D01*
X59843560Y-129090500D01*
X59892843Y-129338265D01*
X60033191Y-129548309D01*
X60243235Y-129688657D01*
X60491000Y-129737940D01*
X62191000Y-129737940D01*
X62438765Y-129688657D01*
X62648809Y-129548309D01*
X62789157Y-129338265D01*
X62838440Y-129090500D01*
X62838440Y-127390500D01*
X62789157Y-127142735D01*
X62648809Y-126932691D01*
X62438765Y-126792343D01*
X62191000Y-126743060D01*
X60491000Y-126743060D01*
X60243235Y-126792343D01*
X60033191Y-126932691D01*
X59892843Y-127142735D01*
X59843560Y-127390500D01*
X59384000Y-127390500D01*
X59384000Y-81890500D01*
X59843560Y-81890500D01*
X59843560Y-83590500D01*
X59892843Y-83838265D01*
X60033191Y-84048309D01*
X60243235Y-84188657D01*
X60491000Y-84237940D01*
X62191000Y-84237940D01*
X62438765Y-84188657D01*
X62648809Y-84048309D01*
X62789157Y-83838265D01*
X62838440Y-83590500D01*
X62838440Y-81890500D01*
X62789157Y-81642735D01*
X62648809Y-81432691D01*
X62438765Y-81292343D01*
X62191000Y-81243060D01*
X60491000Y-81243060D01*
X60243235Y-81292343D01*
X60033191Y-81432691D01*
X59892843Y-81642735D01*
X59843560Y-81890500D01*
X59384000Y-81890500D01*
X59384000Y-32678000D01*
X59589560Y-32678000D01*
X59589560Y-34378000D01*
X59638843Y-34625765D01*
X59779191Y-34835809D01*
X59989235Y-34976157D01*
X60063887Y-34991006D01*
X59828078Y-35226815D01*
X59602000Y-35772615D01*
X59602000Y-36363385D01*
X59828078Y-36909185D01*
X60245815Y-37326922D01*
X60272560Y-37338000D01*
X60245815Y-37349078D01*
X59828078Y-37766815D01*
X59602000Y-38312615D01*
X59602000Y-38903385D01*
X59828078Y-39449185D01*
X60245815Y-39866922D01*
X60272560Y-39878000D01*
X60245815Y-39889078D01*
X59828078Y-40306815D01*
X59602000Y-40852615D01*
X59602000Y-41443385D01*
X59828078Y-41989185D01*
X60245815Y-42406922D01*
X60272560Y-42418000D01*
X60245815Y-42429078D01*
X59828078Y-42846815D01*
X59602000Y-43392615D01*
X59602000Y-43983385D01*
X59828078Y-44529185D01*
X60245815Y-44946922D01*
X60272560Y-44958000D01*
X60245815Y-44969078D01*
X59828078Y-45386815D01*
X59602000Y-45932615D01*
X59602000Y-46523385D01*
X59828078Y-47069185D01*
X60245815Y-47486922D01*
X60272560Y-47498000D01*
X60245815Y-47509078D01*
X59828078Y-47926815D01*
X59602000Y-48472615D01*
X59602000Y-49063385D01*
X59828078Y-49609185D01*
X60245815Y-50026922D01*
X60272560Y-50038000D01*
X60245815Y-50049078D01*
X59828078Y-50466815D01*
X59602000Y-51012615D01*
X59602000Y-51603385D01*
X59828078Y-52149185D01*
X60245815Y-52566922D01*
X60272560Y-52578000D01*
X60245815Y-52589078D01*
X59828078Y-53006815D01*
X59602000Y-53552615D01*
X59602000Y-54143385D01*
X59828078Y-54689185D01*
X60245815Y-55106922D01*
X60272560Y-55118000D01*
X60245815Y-55129078D01*
X59828078Y-55546815D01*
X59602000Y-56092615D01*
X59602000Y-56683385D01*
X59828078Y-57229185D01*
X60245815Y-57646922D01*
X60272560Y-57658000D01*
X60245815Y-57669078D01*
X59828078Y-58086815D01*
X59602000Y-58632615D01*
X59602000Y-59223385D01*
X59828078Y-59769185D01*
X60245815Y-60186922D01*
X60272560Y-60198000D01*
X60245815Y-60209078D01*
X59828078Y-60626815D01*
X59602000Y-61172615D01*
X59602000Y-61763385D01*
X59828078Y-62309185D01*
X60245815Y-62726922D01*
X60272560Y-62738000D01*
X60245815Y-62749078D01*
X59828078Y-63166815D01*
X59602000Y-63712615D01*
X59602000Y-64303385D01*
X59828078Y-64849185D01*
X60245815Y-65266922D01*
X60272560Y-65278000D01*
X60245815Y-65289078D01*
X59828078Y-65706815D01*
X59602000Y-66252615D01*
X59602000Y-66843385D01*
X59828078Y-67389185D01*
X60245815Y-67806922D01*
X60272560Y-67818000D01*
X60245815Y-67829078D01*
X59828078Y-68246815D01*
X59602000Y-68792615D01*
X59602000Y-69383385D01*
X59828078Y-69929185D01*
X60245815Y-70346922D01*
X60272560Y-70358000D01*
X60245815Y-70369078D01*
X59828078Y-70786815D01*
X59602000Y-71332615D01*
X59602000Y-71923385D01*
X59828078Y-72469185D01*
X60245815Y-72886922D01*
X60272560Y-72898000D01*
X60245815Y-72909078D01*
X59828078Y-73326815D01*
X59602000Y-73872615D01*
X59602000Y-74463385D01*
X59828078Y-75009185D01*
X60245815Y-75426922D01*
X60272560Y-75438000D01*
X60245815Y-75449078D01*
X59828078Y-75866815D01*
X59602000Y-76412615D01*
X59602000Y-77003385D01*
X59828078Y-77549185D01*
X60245815Y-77966922D01*
X60272560Y-77978000D01*
X60245815Y-77989078D01*
X59828078Y-78406815D01*
X59602000Y-78952615D01*
X59602000Y-79543385D01*
X59828078Y-80089185D01*
X60245815Y-80506922D01*
X60791615Y-80733000D01*
X61382385Y-80733000D01*
X61928185Y-80506922D01*
X62345922Y-80089185D01*
X62572000Y-79543385D01*
X62572000Y-78952615D01*
X62345922Y-78406815D01*
X61928185Y-77989078D01*
X61901440Y-77978000D01*
X61928185Y-77966922D01*
X62345922Y-77549185D01*
X62572000Y-77003385D01*
X62572000Y-76412615D01*
X62345922Y-75866815D01*
X61928185Y-75449078D01*
X61901440Y-75438000D01*
X61928185Y-75426922D01*
X62345922Y-75009185D01*
X62572000Y-74463385D01*
X62572000Y-73872615D01*
X62345922Y-73326815D01*
X61928185Y-72909078D01*
X61901440Y-72898000D01*
X61928185Y-72886922D01*
X62345922Y-72469185D01*
X62572000Y-71923385D01*
X62572000Y-71332615D01*
X62345922Y-70786815D01*
X61928185Y-70369078D01*
X61901440Y-70358000D01*
X61928185Y-70346922D01*
X62345922Y-69929185D01*
X62572000Y-69383385D01*
X62572000Y-68792615D01*
X62345922Y-68246815D01*
X61928185Y-67829078D01*
X61901440Y-67818000D01*
X61928185Y-67806922D01*
X62345922Y-67389185D01*
X62572000Y-66843385D01*
X62572000Y-66252615D01*
X62345922Y-65706815D01*
X61928185Y-65289078D01*
X61901440Y-65278000D01*
X61928185Y-65266922D01*
X62345922Y-64849185D01*
X62572000Y-64303385D01*
X62572000Y-63712615D01*
X62345922Y-63166815D01*
X61928185Y-62749078D01*
X61901440Y-62738000D01*
X61928185Y-62726922D01*
X62345922Y-62309185D01*
X62572000Y-61763385D01*
X62572000Y-61172615D01*
X62345922Y-60626815D01*
X61928185Y-60209078D01*
X61901440Y-60198000D01*
X61928185Y-60186922D01*
X62345922Y-59769185D01*
X62572000Y-59223385D01*
X62572000Y-58632615D01*
X62345922Y-58086815D01*
X61928185Y-57669078D01*
X61901440Y-57658000D01*
X61928185Y-57646922D01*
X62345922Y-57229185D01*
X62572000Y-56683385D01*
X62572000Y-56407801D01*
X64708501Y-58544303D01*
X64708500Y-124321653D01*
X64693612Y-124396500D01*
X64708500Y-124471347D01*
X64708500Y-124471351D01*
X64752596Y-124693036D01*
X64920571Y-124944429D01*
X64984030Y-124986831D01*
X72227002Y-132229804D01*
X72227001Y-133364154D01*
X72212113Y-133439001D01*
X72227001Y-133513848D01*
X72227001Y-133513852D01*
X72271097Y-133735537D01*
X72388948Y-133911915D01*
X72323887Y-134239000D01*
X72435260Y-134798909D01*
X72752423Y-135273577D01*
X73227091Y-135590740D01*
X73645667Y-135674000D01*
X73928333Y-135674000D01*
X74346909Y-135590740D01*
X74821577Y-135273577D01*
X75138740Y-134798909D01*
X75250113Y-134239000D01*
X75138740Y-133679091D01*
X74821577Y-133204423D01*
X74346909Y-132887260D01*
X73928333Y-132804000D01*
X73747001Y-132804000D01*
X73747001Y-131989847D01*
X73761889Y-131915000D01*
X73747001Y-131840153D01*
X73747001Y-131840149D01*
X73702905Y-131618464D01*
X73534930Y-131367072D01*
X73471474Y-131324672D01*
X66228500Y-124081699D01*
X66228500Y-123936626D01*
X66973500Y-123936626D01*
X66973500Y-124348374D01*
X67131069Y-124728780D01*
X67422220Y-125019931D01*
X67802626Y-125177500D01*
X68214374Y-125177500D01*
X68594780Y-125019931D01*
X68885931Y-124728780D01*
X69043500Y-124348374D01*
X69043500Y-124182301D01*
X84431473Y-108794329D01*
X84494929Y-108751929D01*
X84617282Y-108568815D01*
X84662904Y-108500538D01*
X84672480Y-108452395D01*
X84707000Y-108278852D01*
X84707000Y-108278848D01*
X84721888Y-108204000D01*
X84707000Y-108129152D01*
X84707000Y-106020000D01*
X87415260Y-106020000D01*
X87415260Y-107720000D01*
X87464543Y-107967765D01*
X87604891Y-108177809D01*
X87814935Y-108318157D01*
X87889587Y-108333006D01*
X87653778Y-108568815D01*
X87427700Y-109114615D01*
X87427700Y-109705385D01*
X87653778Y-110251185D01*
X88071515Y-110668922D01*
X88617315Y-110895000D01*
X89208085Y-110895000D01*
X89753885Y-110668922D01*
X90171622Y-110251185D01*
X90397700Y-109705385D01*
X90397700Y-109114615D01*
X90171622Y-108568815D01*
X89935813Y-108333006D01*
X90010465Y-108318157D01*
X90220509Y-108177809D01*
X90360857Y-107967765D01*
X90410140Y-107720000D01*
X90410140Y-106020000D01*
X90360857Y-105772235D01*
X90220509Y-105562191D01*
X90010465Y-105421843D01*
X89762700Y-105372560D01*
X88062700Y-105372560D01*
X87814935Y-105421843D01*
X87604891Y-105562191D01*
X87464543Y-105772235D01*
X87415260Y-106020000D01*
X84707000Y-106020000D01*
X84707000Y-83480000D01*
X87415260Y-83480000D01*
X87415260Y-85180000D01*
X87464543Y-85427765D01*
X87604891Y-85637809D01*
X87814935Y-85778157D01*
X87889587Y-85793006D01*
X87653778Y-86028815D01*
X87427700Y-86574615D01*
X87427700Y-87165385D01*
X87653778Y-87711185D01*
X88071515Y-88128922D01*
X88617315Y-88355000D01*
X89208085Y-88355000D01*
X89753885Y-88128922D01*
X90171622Y-87711185D01*
X90397700Y-87165385D01*
X90397700Y-86574615D01*
X90171622Y-86028815D01*
X89935813Y-85793006D01*
X90010465Y-85778157D01*
X90220509Y-85637809D01*
X90360857Y-85427765D01*
X90410140Y-85180000D01*
X90410140Y-83480000D01*
X90360857Y-83232235D01*
X90220509Y-83022191D01*
X90010465Y-82881843D01*
X89762700Y-82832560D01*
X88062700Y-82832560D01*
X87814935Y-82881843D01*
X87604891Y-83022191D01*
X87464543Y-83232235D01*
X87415260Y-83480000D01*
X84707000Y-83480000D01*
X84707000Y-80540550D01*
X84788185Y-80506922D01*
X85205922Y-80089185D01*
X85432000Y-79543385D01*
X85432000Y-78952615D01*
X85205922Y-78406815D01*
X84788185Y-77989078D01*
X84761440Y-77978000D01*
X84788185Y-77966922D01*
X85205922Y-77549185D01*
X85432000Y-77003385D01*
X85432000Y-76412615D01*
X85205922Y-75866815D01*
X84788185Y-75449078D01*
X84761440Y-75438000D01*
X84788185Y-75426922D01*
X85205922Y-75009185D01*
X85432000Y-74463385D01*
X85432000Y-73872615D01*
X85205922Y-73326815D01*
X84788185Y-72909078D01*
X84761440Y-72898000D01*
X84788185Y-72886922D01*
X85205922Y-72469185D01*
X85432000Y-71923385D01*
X85432000Y-71332615D01*
X85205922Y-70786815D01*
X84788185Y-70369078D01*
X84761440Y-70358000D01*
X84788185Y-70346922D01*
X85205922Y-69929185D01*
X85432000Y-69383385D01*
X85432000Y-68792615D01*
X85205922Y-68246815D01*
X84788185Y-67829078D01*
X84761440Y-67818000D01*
X84788185Y-67806922D01*
X85205922Y-67389185D01*
X85432000Y-66843385D01*
X85432000Y-66252615D01*
X85205922Y-65706815D01*
X84788185Y-65289078D01*
X84761440Y-65278000D01*
X84788185Y-65266922D01*
X85205922Y-64849185D01*
X85432000Y-64303385D01*
X85432000Y-63712615D01*
X85205922Y-63166815D01*
X84788185Y-62749078D01*
X84761440Y-62738000D01*
X84788185Y-62726922D01*
X85205922Y-62309185D01*
X85432000Y-61763385D01*
X85432000Y-61172615D01*
X85205922Y-60626815D01*
X84788185Y-60209078D01*
X84761440Y-60198000D01*
X84788185Y-60186922D01*
X85205922Y-59769185D01*
X85432000Y-59223385D01*
X85432000Y-58632615D01*
X85205922Y-58086815D01*
X84788185Y-57669078D01*
X84761440Y-57658000D01*
X84788185Y-57646922D01*
X85205922Y-57229185D01*
X85432000Y-56683385D01*
X85432000Y-56092615D01*
X85205922Y-55546815D01*
X84788185Y-55129078D01*
X84761440Y-55118000D01*
X84788185Y-55106922D01*
X85205922Y-54689185D01*
X85432000Y-54143385D01*
X85432000Y-53552615D01*
X85205922Y-53006815D01*
X84788185Y-52589078D01*
X84761440Y-52578000D01*
X84788185Y-52566922D01*
X85205922Y-52149185D01*
X85432000Y-51603385D01*
X85432000Y-51012615D01*
X85205922Y-50466815D01*
X84788185Y-50049078D01*
X84761440Y-50038000D01*
X84788185Y-50026922D01*
X85205922Y-49609185D01*
X85432000Y-49063385D01*
X85432000Y-48472615D01*
X85205922Y-47926815D01*
X84788185Y-47509078D01*
X84761440Y-47498000D01*
X84788185Y-47486922D01*
X85205922Y-47069185D01*
X85432000Y-46523385D01*
X85432000Y-45932615D01*
X85205922Y-45386815D01*
X84788185Y-44969078D01*
X84761440Y-44958000D01*
X84788185Y-44946922D01*
X85205922Y-44529185D01*
X85432000Y-43983385D01*
X85432000Y-43392615D01*
X85205922Y-42846815D01*
X84788185Y-42429078D01*
X84761440Y-42418000D01*
X84788185Y-42406922D01*
X85205922Y-41989185D01*
X85432000Y-41443385D01*
X85432000Y-40852615D01*
X85205922Y-40306815D01*
X85158107Y-40259000D01*
X112898608Y-40259000D01*
X113013861Y-40838418D01*
X113342075Y-41329625D01*
X113640461Y-41529000D01*
X113342075Y-41728375D01*
X113013861Y-42219582D01*
X112898608Y-42799000D01*
X113013861Y-43378418D01*
X113342075Y-43869625D01*
X113640461Y-44069000D01*
X113342075Y-44268375D01*
X113013861Y-44759582D01*
X112898608Y-45339000D01*
X113013861Y-45918418D01*
X113342075Y-46409625D01*
X113640461Y-46609000D01*
X113342075Y-46808375D01*
X113013861Y-47299582D01*
X112898608Y-47879000D01*
X113013861Y-48458418D01*
X113342075Y-48949625D01*
X113640461Y-49149000D01*
X113342075Y-49348375D01*
X113013861Y-49839582D01*
X112898608Y-50419000D01*
X113013861Y-50998418D01*
X113342075Y-51489625D01*
X113640461Y-51689000D01*
X113342075Y-51888375D01*
X113013861Y-52379582D01*
X112898608Y-52959000D01*
X113013861Y-53538418D01*
X113342075Y-54029625D01*
X113640461Y-54229000D01*
X113342075Y-54428375D01*
X113013861Y-54919582D01*
X112898608Y-55499000D01*
X113013861Y-56078418D01*
X113342075Y-56569625D01*
X113360319Y-56581816D01*
X113314935Y-56590843D01*
X113104891Y-56731191D01*
X112964543Y-56941235D01*
X112915260Y-57189000D01*
X112915260Y-58889000D01*
X112964543Y-59136765D01*
X113104891Y-59346809D01*
X113314935Y-59487157D01*
X113562700Y-59536440D01*
X115262700Y-59536440D01*
X115510465Y-59487157D01*
X115720509Y-59346809D01*
X115860857Y-59136765D01*
X115910140Y-58889000D01*
X115910140Y-57189000D01*
X115860857Y-56941235D01*
X115720509Y-56731191D01*
X115510465Y-56590843D01*
X115465081Y-56581816D01*
X115483325Y-56569625D01*
X115811539Y-56078418D01*
X115926792Y-55499000D01*
X115811539Y-54919582D01*
X115483325Y-54428375D01*
X115184939Y-54229000D01*
X115483325Y-54029625D01*
X115811539Y-53538418D01*
X115926792Y-52959000D01*
X115811539Y-52379582D01*
X115483325Y-51888375D01*
X115184939Y-51689000D01*
X115483325Y-51489625D01*
X115811539Y-50998418D01*
X115926792Y-50419000D01*
X115811539Y-49839582D01*
X115483325Y-49348375D01*
X115184939Y-49149000D01*
X115483325Y-48949625D01*
X115811539Y-48458418D01*
X115926792Y-47879000D01*
X115811539Y-47299582D01*
X115483325Y-46808375D01*
X115184939Y-46609000D01*
X115483325Y-46409625D01*
X115811539Y-45918418D01*
X115926792Y-45339000D01*
X115811539Y-44759582D01*
X115483325Y-44268375D01*
X115184939Y-44069000D01*
X115483325Y-43869625D01*
X115811539Y-43378418D01*
X115926792Y-42799000D01*
X115811539Y-42219582D01*
X115483325Y-41728375D01*
X115184939Y-41529000D01*
X115483325Y-41329625D01*
X115811539Y-40838418D01*
X115926792Y-40259000D01*
X115811539Y-39679582D01*
X115483325Y-39188375D01*
X114992118Y-38860161D01*
X114558956Y-38774000D01*
X114266444Y-38774000D01*
X113833282Y-38860161D01*
X113342075Y-39188375D01*
X113013861Y-39679582D01*
X112898608Y-40259000D01*
X85158107Y-40259000D01*
X84788185Y-39889078D01*
X84761440Y-39878000D01*
X84788185Y-39866922D01*
X85205922Y-39449185D01*
X85432000Y-38903385D01*
X85432000Y-38312615D01*
X85205922Y-37766815D01*
X84788185Y-37349078D01*
X84761440Y-37338000D01*
X84788185Y-37326922D01*
X85205922Y-36909185D01*
X85432000Y-36363385D01*
X85432000Y-35772615D01*
X85205922Y-35226815D01*
X84788185Y-34809078D01*
X84761440Y-34798000D01*
X84788185Y-34786922D01*
X85205922Y-34369185D01*
X85407577Y-33882346D01*
X86670674Y-33882346D01*
X86677700Y-34308390D01*
X86677700Y-34734569D01*
X86685020Y-34752240D01*
X86685335Y-34771363D01*
X86997340Y-35524610D01*
X87007047Y-35529682D01*
X87017959Y-35556026D01*
X87646674Y-36184741D01*
X87673018Y-36195653D01*
X87678090Y-36205360D01*
X88074408Y-36361914D01*
X88468131Y-36525000D01*
X88487260Y-36525000D01*
X88505046Y-36532026D01*
X88931090Y-36525000D01*
X89357269Y-36525000D01*
X89374940Y-36517680D01*
X89394063Y-36517365D01*
X90147310Y-36205360D01*
X90152382Y-36195653D01*
X90178726Y-36184741D01*
X90807441Y-35556026D01*
X90818353Y-35529682D01*
X90828060Y-35524610D01*
X90984614Y-35128292D01*
X91147700Y-34734569D01*
X91147700Y-34715440D01*
X91154726Y-34697654D01*
X91147700Y-34271610D01*
X91147700Y-33845431D01*
X91140380Y-33827760D01*
X91140065Y-33808637D01*
X90828060Y-33055390D01*
X90818353Y-33050318D01*
X90807441Y-33023974D01*
X90178726Y-32395259D01*
X90152382Y-32384347D01*
X90147310Y-32374640D01*
X89750992Y-32218086D01*
X89357269Y-32055000D01*
X89338140Y-32055000D01*
X89320354Y-32047974D01*
X88894310Y-32055000D01*
X88468131Y-32055000D01*
X88450460Y-32062320D01*
X88431337Y-32062635D01*
X87678090Y-32374640D01*
X87673018Y-32384347D01*
X87646674Y-32395259D01*
X87017959Y-33023974D01*
X87007047Y-33050318D01*
X86997340Y-33055390D01*
X86840786Y-33451708D01*
X86677700Y-33845431D01*
X86677700Y-33864560D01*
X86670674Y-33882346D01*
X85407577Y-33882346D01*
X85432000Y-33823385D01*
X85432000Y-33232615D01*
X85205922Y-32686815D01*
X84788185Y-32269078D01*
X84242385Y-32043000D01*
X83651615Y-32043000D01*
X83105815Y-32269078D01*
X82688078Y-32686815D01*
X82462000Y-33232615D01*
X82462000Y-33823385D01*
X82688078Y-34369185D01*
X83105815Y-34786922D01*
X83132560Y-34798000D01*
X83105815Y-34809078D01*
X82688078Y-35226815D01*
X82462000Y-35772615D01*
X82462000Y-36363385D01*
X82688078Y-36909185D01*
X83105815Y-37326922D01*
X83132560Y-37338000D01*
X83105815Y-37349078D01*
X82688078Y-37766815D01*
X82462000Y-38312615D01*
X82462000Y-38903385D01*
X82688078Y-39449185D01*
X83105815Y-39866922D01*
X83132560Y-39878000D01*
X83105815Y-39889078D01*
X82688078Y-40306815D01*
X82462000Y-40852615D01*
X82462000Y-41443385D01*
X82688078Y-41989185D01*
X83105815Y-42406922D01*
X83132560Y-42418000D01*
X83105815Y-42429078D01*
X82688078Y-42846815D01*
X82462000Y-43392615D01*
X82462000Y-43983385D01*
X82688078Y-44529185D01*
X83105815Y-44946922D01*
X83132560Y-44958000D01*
X83105815Y-44969078D01*
X82688078Y-45386815D01*
X82462000Y-45932615D01*
X82462000Y-46523385D01*
X82688078Y-47069185D01*
X83105815Y-47486922D01*
X83132560Y-47498000D01*
X83105815Y-47509078D01*
X82688078Y-47926815D01*
X82462000Y-48472615D01*
X82462000Y-49063385D01*
X82688078Y-49609185D01*
X83105815Y-50026922D01*
X83132560Y-50038000D01*
X83105815Y-50049078D01*
X82688078Y-50466815D01*
X82462000Y-51012615D01*
X82462000Y-51603385D01*
X82688078Y-52149185D01*
X83105815Y-52566922D01*
X83132560Y-52578000D01*
X83105815Y-52589078D01*
X82688078Y-53006815D01*
X82462000Y-53552615D01*
X82462000Y-54143385D01*
X82688078Y-54689185D01*
X83105815Y-55106922D01*
X83132560Y-55118000D01*
X83105815Y-55129078D01*
X82688078Y-55546815D01*
X82462000Y-56092615D01*
X82462000Y-56683385D01*
X82688078Y-57229185D01*
X83105815Y-57646922D01*
X83132560Y-57658000D01*
X83105815Y-57669078D01*
X82688078Y-58086815D01*
X82462000Y-58632615D01*
X82462000Y-59223385D01*
X82688078Y-59769185D01*
X83105815Y-60186922D01*
X83132560Y-60198000D01*
X83105815Y-60209078D01*
X82688078Y-60626815D01*
X82462000Y-61172615D01*
X82462000Y-61763385D01*
X82688078Y-62309185D01*
X83105815Y-62726922D01*
X83132560Y-62738000D01*
X83105815Y-62749078D01*
X82688078Y-63166815D01*
X82462000Y-63712615D01*
X82462000Y-64303385D01*
X82688078Y-64849185D01*
X83105815Y-65266922D01*
X83132560Y-65278000D01*
X83105815Y-65289078D01*
X82688078Y-65706815D01*
X82462000Y-66252615D01*
X82462000Y-66843385D01*
X82688078Y-67389185D01*
X83105815Y-67806922D01*
X83132560Y-67818000D01*
X83105815Y-67829078D01*
X82688078Y-68246815D01*
X82462000Y-68792615D01*
X82462000Y-69383385D01*
X82688078Y-69929185D01*
X83105815Y-70346922D01*
X83132560Y-70358000D01*
X83105815Y-70369078D01*
X82688078Y-70786815D01*
X82462000Y-71332615D01*
X82462000Y-71923385D01*
X82688078Y-72469185D01*
X83105815Y-72886922D01*
X83132560Y-72898000D01*
X83105815Y-72909078D01*
X82688078Y-73326815D01*
X82462000Y-73872615D01*
X82462000Y-74463385D01*
X82688078Y-75009185D01*
X83105815Y-75426922D01*
X83132560Y-75438000D01*
X83105815Y-75449078D01*
X82688078Y-75866815D01*
X82462000Y-76412615D01*
X82462000Y-77003385D01*
X82688078Y-77549185D01*
X83105815Y-77966922D01*
X83132560Y-77978000D01*
X83105815Y-77989078D01*
X82688078Y-78406815D01*
X82462000Y-78952615D01*
X82462000Y-79543385D01*
X82688078Y-80089185D01*
X83105815Y-80506922D01*
X83187000Y-80540550D01*
X83187000Y-81489848D01*
X83148809Y-81432691D01*
X82938765Y-81292343D01*
X82691000Y-81243060D01*
X80991000Y-81243060D01*
X80743235Y-81292343D01*
X80533191Y-81432691D01*
X80392843Y-81642735D01*
X80343560Y-81890500D01*
X80343560Y-83590500D01*
X80392843Y-83838265D01*
X80533191Y-84048309D01*
X80743235Y-84188657D01*
X80991000Y-84237940D01*
X82691000Y-84237940D01*
X82938765Y-84188657D01*
X83148809Y-84048309D01*
X83187000Y-83991152D01*
X83187001Y-107889197D01*
X67968699Y-123107500D01*
X67802626Y-123107500D01*
X67422220Y-123265069D01*
X67131069Y-123556220D01*
X66973500Y-123936626D01*
X66228500Y-123936626D01*
X66228500Y-75431725D01*
X66596126Y-75584000D01*
X67007874Y-75584000D01*
X67388280Y-75426431D01*
X67679431Y-75135280D01*
X67837000Y-74754874D01*
X67837000Y-74343126D01*
X67679431Y-73962720D01*
X67562000Y-73845289D01*
X67562000Y-72327711D01*
X67803220Y-72568931D01*
X68183626Y-72726500D01*
X68595374Y-72726500D01*
X68975780Y-72568931D01*
X69266931Y-72277780D01*
X69424500Y-71897374D01*
X69424500Y-71485626D01*
X69266931Y-71105220D01*
X69149500Y-70987789D01*
X69149500Y-56145348D01*
X69164388Y-56070500D01*
X69149500Y-55995652D01*
X69149500Y-55995648D01*
X69105404Y-55773963D01*
X68937429Y-55522571D01*
X68873973Y-55480171D01*
X62538372Y-49144571D01*
X62572000Y-49063385D01*
X62572000Y-48472615D01*
X62345922Y-47926815D01*
X61928185Y-47509078D01*
X61901440Y-47498000D01*
X61928185Y-47486922D01*
X62345922Y-47069185D01*
X62572000Y-46523385D01*
X62572000Y-45932615D01*
X62345922Y-45386815D01*
X61928185Y-44969078D01*
X61901440Y-44958000D01*
X61928185Y-44946922D01*
X62345922Y-44529185D01*
X62572000Y-43983385D01*
X62572000Y-43392615D01*
X62345922Y-42846815D01*
X61928185Y-42429078D01*
X61901440Y-42418000D01*
X61928185Y-42406922D01*
X62345922Y-41989185D01*
X62572000Y-41443385D01*
X62572000Y-40852615D01*
X62345922Y-40306815D01*
X61928185Y-39889078D01*
X61901440Y-39878000D01*
X61928185Y-39866922D01*
X62345922Y-39449185D01*
X62572000Y-38903385D01*
X62572000Y-38312615D01*
X62345922Y-37766815D01*
X61928185Y-37349078D01*
X61901440Y-37338000D01*
X61928185Y-37326922D01*
X62345922Y-36909185D01*
X62572000Y-36363385D01*
X62572000Y-35772615D01*
X62345922Y-35226815D01*
X62110113Y-34991006D01*
X62184765Y-34976157D01*
X62394809Y-34835809D01*
X62535157Y-34625765D01*
X62584440Y-34378000D01*
X62584440Y-32678000D01*
X62535157Y-32430235D01*
X62394809Y-32220191D01*
X62184765Y-32079843D01*
X61937000Y-32030560D01*
X60237000Y-32030560D01*
X59989235Y-32079843D01*
X59779191Y-32220191D01*
X59638843Y-32430235D01*
X59589560Y-32678000D01*
X59384000Y-32678000D01*
X59384000Y-32073926D01*
X59400808Y-31989426D01*
X59409067Y-31977067D01*
X59421426Y-31968808D01*
X59505927Y-31952000D01*
X116130000Y-31952000D01*
X116130000Y-33784338D01*
G36*
X67629501Y-56385303D02*
X67629500Y-70987789D01*
X67562000Y-71055289D01*
X67562000Y-57097848D01*
X67576888Y-57023000D01*
X67562000Y-56948152D01*
X67562000Y-56948148D01*
X67517904Y-56726463D01*
X67349929Y-56475071D01*
X67286473Y-56432671D01*
X62538372Y-51684571D01*
X62572000Y-51603385D01*
X62572000Y-51327801D01*
X67629501Y-56385303D01*
X67629501Y-56385303D01*
G37*
X67629501Y-56385303D02*
X67629500Y-70987789D01*
X67562000Y-71055289D01*
X67562000Y-57097848D01*
X67576888Y-57023000D01*
X67562000Y-56948152D01*
X67562000Y-56948148D01*
X67517904Y-56726463D01*
X67349929Y-56475071D01*
X67286473Y-56432671D01*
X62538372Y-51684571D01*
X62572000Y-51603385D01*
X62572000Y-51327801D01*
X67629501Y-56385303D01*
G36*
X66042001Y-57337803D02*
X66042001Y-57719842D01*
X66016429Y-57681571D01*
X65952973Y-57639171D01*
X62538372Y-54224571D01*
X62572000Y-54143385D01*
X62572000Y-53867801D01*
X66042001Y-57337803D01*
X66042001Y-57337803D01*
G37*
X66042001Y-57337803D02*
X66042001Y-57719842D01*
X66016429Y-57681571D01*
X65952973Y-57639171D01*
X62538372Y-54224571D01*
X62572000Y-54143385D01*
X62572000Y-53867801D01*
X66042001Y-57337803D01*
G36*
X62491121Y-145340000D02*
X62477578Y-145340000D01*
X62480684Y-145324381D01*
X62491121Y-145340000D01*
X62491121Y-145340000D01*
G37*
X62491121Y-145340000D02*
X62477578Y-145340000D01*
X62480684Y-145324381D01*
X62491121Y-145340000D01*
G36*
X65617065Y-145249276D02*
X65674807Y-145335693D01*
X65681253Y-145340000D01*
X64635879Y-145340000D01*
X64962339Y-144851418D01*
X65004956Y-144637167D01*
X65617065Y-145249276D01*
X65617065Y-145249276D01*
G37*
X65617065Y-145249276D02*
X65674807Y-145335693D01*
X65681253Y-145340000D01*
X64635879Y-145340000D01*
X64962339Y-144851418D01*
X65004956Y-144637167D01*
X65617065Y-145249276D01*
G36*
X112964543Y-118826765D02*
X113104891Y-119036809D01*
X113314935Y-119177157D01*
X113360319Y-119186184D01*
X113342075Y-119198375D01*
X113318271Y-119234000D01*
X113004934Y-119234000D01*
X112902999Y-119213724D01*
X112801065Y-119234000D01*
X112499163Y-119294052D01*
X112156807Y-119522807D01*
X112099065Y-119609224D01*
X92366200Y-139342090D01*
X92366200Y-138748278D01*
X92117286Y-138147347D01*
X91657353Y-137687414D01*
X91056422Y-137438500D01*
X90405978Y-137438500D01*
X89805047Y-137687414D01*
X89345114Y-138147347D01*
X89096200Y-138748278D01*
X89096200Y-139398722D01*
X89345114Y-139999653D01*
X89559780Y-140214319D01*
X89385163Y-140249052D01*
X89042807Y-140477807D01*
X88985065Y-140564224D01*
X87465531Y-142083759D01*
X87381780Y-142067100D01*
X87040020Y-142067100D01*
X86533937Y-142167766D01*
X85960035Y-142551235D01*
X85576566Y-143125137D01*
X85441910Y-143802100D01*
X85576566Y-144479063D01*
X85960035Y-145052965D01*
X86389613Y-145340000D01*
X78209747Y-145340000D01*
X78216193Y-145335693D01*
X78273937Y-145249273D01*
X85463460Y-138059750D01*
X85463460Y-139822100D01*
X85512743Y-140069865D01*
X85653091Y-140279909D01*
X85863135Y-140420257D01*
X86110900Y-140469540D01*
X88310900Y-140469540D01*
X88558665Y-140420257D01*
X88768709Y-140279909D01*
X88909057Y-140069865D01*
X88958340Y-139822100D01*
X88958340Y-138438370D01*
X108632711Y-118764000D01*
X112952058Y-118764000D01*
X112964543Y-118826765D01*
X112964543Y-118826765D01*
G37*
X112964543Y-118826765D02*
X113104891Y-119036809D01*
X113314935Y-119177157D01*
X113360319Y-119186184D01*
X113342075Y-119198375D01*
X113318271Y-119234000D01*
X113004934Y-119234000D01*
X112902999Y-119213724D01*
X112801065Y-119234000D01*
X112499163Y-119294052D01*
X112156807Y-119522807D01*
X112099065Y-119609224D01*
X92366200Y-139342090D01*
X92366200Y-138748278D01*
X92117286Y-138147347D01*
X91657353Y-137687414D01*
X91056422Y-137438500D01*
X90405978Y-137438500D01*
X89805047Y-137687414D01*
X89345114Y-138147347D01*
X89096200Y-138748278D01*
X89096200Y-139398722D01*
X89345114Y-139999653D01*
X89559780Y-140214319D01*
X89385163Y-140249052D01*
X89042807Y-140477807D01*
X88985065Y-140564224D01*
X87465531Y-142083759D01*
X87381780Y-142067100D01*
X87040020Y-142067100D01*
X86533937Y-142167766D01*
X85960035Y-142551235D01*
X85576566Y-143125137D01*
X85441910Y-143802100D01*
X85576566Y-144479063D01*
X85960035Y-145052965D01*
X86389613Y-145340000D01*
X78209747Y-145340000D01*
X78216193Y-145335693D01*
X78273937Y-145249273D01*
X85463460Y-138059750D01*
X85463460Y-139822100D01*
X85512743Y-140069865D01*
X85653091Y-140279909D01*
X85863135Y-140420257D01*
X86110900Y-140469540D01*
X88310900Y-140469540D01*
X88558665Y-140420257D01*
X88768709Y-140279909D01*
X88909057Y-140069865D01*
X88958340Y-139822100D01*
X88958340Y-138438370D01*
X108632711Y-118764000D01*
X112952058Y-118764000D01*
X112964543Y-118826765D01*
G36*
X62492875Y-142802625D02*
X62791261Y-143002000D01*
X62492875Y-143201375D01*
X62480684Y-143219619D01*
X62471657Y-143174235D01*
X62331309Y-142964191D01*
X62121265Y-142823843D01*
X62075881Y-142814816D01*
X62094125Y-142802625D01*
X62293500Y-142504239D01*
X62492875Y-142802625D01*
X62492875Y-142802625D01*
G37*
X62492875Y-142802625D02*
X62791261Y-143002000D01*
X62492875Y-143201375D01*
X62480684Y-143219619D01*
X62471657Y-143174235D01*
X62331309Y-142964191D01*
X62121265Y-142823843D01*
X62075881Y-142814816D01*
X62094125Y-142802625D01*
X62293500Y-142504239D01*
X62492875Y-142802625D01*
G36*
X62492875Y-140262625D02*
X62791261Y-140462000D01*
X62492875Y-140661375D01*
X62293500Y-140959761D01*
X62094125Y-140661375D01*
X61795739Y-140462000D01*
X62094125Y-140262625D01*
X62293500Y-139964239D01*
X62492875Y-140262625D01*
X62492875Y-140262625D01*
G37*
X62492875Y-140262625D02*
X62791261Y-140462000D01*
X62492875Y-140661375D01*
X62293500Y-140959761D01*
X62094125Y-140661375D01*
X61795739Y-140462000D01*
X62094125Y-140262625D01*
X62293500Y-139964239D01*
X62492875Y-140262625D01*
M02*
