%TF.GenerationSoftware,KiCad,Pcbnew,(5.0.2)-1*%
%TF.CreationDate,2019-03-22T12:12:08-04:00*%
%TF.ProjectId,Door_Lock,446f6f72-5f4c-46f6-936b-2e6b69636164,rev?*%
%TF.SameCoordinates,Original*%
%TF.FileFunction,Legend,Bot*%
%TF.FilePolarity,Positive*%
%FSLAX46Y46*%
G04 Gerber Fmt 4.6, Leading zero omitted, Abs format (unit mm)*
G04 Created by KiCad (PCBNEW (5.0.2)-1) date 3/22/2019 12:12:08 PM*
%MOMM*%
%LPD*%
G01*
G04 APERTURE LIST*
%ADD10C,0.200000*%
%ADD11C,0.250000*%
%ADD12C,0.150000*%
%ADD13C,0.300000*%
%ADD14C,0.120000*%
G04 APERTURE END LIST*
D10*
X115722238Y-114750904D02*
X115569857Y-114750904D01*
X115493666Y-114789000D01*
X115417476Y-114865190D01*
X115379380Y-115017571D01*
X115379380Y-115284238D01*
X115417476Y-115436619D01*
X115493666Y-115512809D01*
X115569857Y-115550904D01*
X115722238Y-115550904D01*
X115798428Y-115512809D01*
X115874619Y-115436619D01*
X115912714Y-115284238D01*
X115912714Y-115017571D01*
X115874619Y-114865190D01*
X115798428Y-114789000D01*
X115722238Y-114750904D01*
X115036523Y-114750904D02*
X115036523Y-115398523D01*
X114998428Y-115474714D01*
X114960333Y-115512809D01*
X114884142Y-115550904D01*
X114731761Y-115550904D01*
X114655571Y-115512809D01*
X114617476Y-115474714D01*
X114579380Y-115398523D01*
X114579380Y-114750904D01*
X114312714Y-114750904D02*
X113855571Y-114750904D01*
X114084142Y-115550904D02*
X114084142Y-114750904D01*
X113588904Y-115246142D02*
X112979380Y-115246142D01*
X113284142Y-115550904D02*
X113284142Y-114941380D01*
D11*
X81200428Y-45728000D02*
X81295666Y-45680380D01*
X81438524Y-45680380D01*
X81581381Y-45728000D01*
X81676619Y-45823238D01*
X81724238Y-45918476D01*
X81771857Y-46108952D01*
X81771857Y-46251809D01*
X81724238Y-46442285D01*
X81676619Y-46537523D01*
X81581381Y-46632761D01*
X81438524Y-46680380D01*
X81343285Y-46680380D01*
X81200428Y-46632761D01*
X81152809Y-46585142D01*
X81152809Y-46251809D01*
X81343285Y-46251809D01*
X80724238Y-46680380D02*
X80724238Y-45680380D01*
X80152809Y-46680380D01*
X80152809Y-45680380D01*
X79676619Y-46680380D02*
X79676619Y-45680380D01*
X79438524Y-45680380D01*
X79295666Y-45728000D01*
X79200428Y-45823238D01*
X79152809Y-45918476D01*
X79105190Y-46108952D01*
X79105190Y-46251809D01*
X79152809Y-46442285D01*
X79200428Y-46537523D01*
X79295666Y-46632761D01*
X79438524Y-46680380D01*
X79676619Y-46680380D01*
X81120904Y-60968000D02*
X81216143Y-60920380D01*
X81359000Y-60920380D01*
X81501857Y-60968000D01*
X81597095Y-61063238D01*
X81644714Y-61158476D01*
X81692333Y-61348952D01*
X81692333Y-61491809D01*
X81644714Y-61682285D01*
X81597095Y-61777523D01*
X81501857Y-61872761D01*
X81359000Y-61920380D01*
X81263762Y-61920380D01*
X81120904Y-61872761D01*
X81073285Y-61825142D01*
X81073285Y-61491809D01*
X81263762Y-61491809D01*
X80644714Y-61920380D02*
X80644714Y-60920380D01*
X80263762Y-60920380D01*
X80168524Y-60968000D01*
X80120904Y-61015619D01*
X80073285Y-61110857D01*
X80073285Y-61253714D01*
X80120904Y-61348952D01*
X80168524Y-61396571D01*
X80263762Y-61444190D01*
X80644714Y-61444190D01*
X79644714Y-61920380D02*
X79644714Y-60920380D01*
X78978047Y-60920380D02*
X78787571Y-60920380D01*
X78692333Y-60968000D01*
X78597095Y-61063238D01*
X78549476Y-61253714D01*
X78549476Y-61587047D01*
X78597095Y-61777523D01*
X78692333Y-61872761D01*
X78787571Y-61920380D01*
X78978047Y-61920380D01*
X79073285Y-61872761D01*
X79168524Y-61777523D01*
X79216143Y-61587047D01*
X79216143Y-61253714D01*
X79168524Y-61063238D01*
X79073285Y-60968000D01*
X78978047Y-60920380D01*
X78216143Y-60920380D02*
X77597095Y-60920380D01*
X77930428Y-61301333D01*
X77787571Y-61301333D01*
X77692333Y-61348952D01*
X77644714Y-61396571D01*
X77597095Y-61491809D01*
X77597095Y-61729904D01*
X77644714Y-61825142D01*
X77692333Y-61872761D01*
X77787571Y-61920380D01*
X78073285Y-61920380D01*
X78168524Y-61872761D01*
X78216143Y-61825142D01*
X77263762Y-60920380D02*
X76644714Y-60920380D01*
X76978047Y-61301333D01*
X76835190Y-61301333D01*
X76739952Y-61348952D01*
X76692333Y-61396571D01*
X76644714Y-61491809D01*
X76644714Y-61729904D01*
X76692333Y-61825142D01*
X76739952Y-61872761D01*
X76835190Y-61920380D01*
X77120904Y-61920380D01*
X77216143Y-61872761D01*
X77263762Y-61825142D01*
X81120904Y-48268000D02*
X81216143Y-48220380D01*
X81359000Y-48220380D01*
X81501857Y-48268000D01*
X81597095Y-48363238D01*
X81644714Y-48458476D01*
X81692333Y-48648952D01*
X81692333Y-48791809D01*
X81644714Y-48982285D01*
X81597095Y-49077523D01*
X81501857Y-49172761D01*
X81359000Y-49220380D01*
X81263762Y-49220380D01*
X81120904Y-49172761D01*
X81073285Y-49125142D01*
X81073285Y-48791809D01*
X81263762Y-48791809D01*
X80644714Y-49220380D02*
X80644714Y-48220380D01*
X80263762Y-48220380D01*
X80168524Y-48268000D01*
X80120904Y-48315619D01*
X80073285Y-48410857D01*
X80073285Y-48553714D01*
X80120904Y-48648952D01*
X80168524Y-48696571D01*
X80263762Y-48744190D01*
X80644714Y-48744190D01*
X79644714Y-49220380D02*
X79644714Y-48220380D01*
X78978047Y-48220380D02*
X78787571Y-48220380D01*
X78692333Y-48268000D01*
X78597095Y-48363238D01*
X78549476Y-48553714D01*
X78549476Y-48887047D01*
X78597095Y-49077523D01*
X78692333Y-49172761D01*
X78787571Y-49220380D01*
X78978047Y-49220380D01*
X79073285Y-49172761D01*
X79168524Y-49077523D01*
X79216143Y-48887047D01*
X79216143Y-48553714D01*
X79168524Y-48363238D01*
X79073285Y-48268000D01*
X78978047Y-48220380D01*
X77597095Y-49220380D02*
X78168524Y-49220380D01*
X77882809Y-49220380D02*
X77882809Y-48220380D01*
X77978047Y-48363238D01*
X78073285Y-48458476D01*
X78168524Y-48506095D01*
X77216143Y-48315619D02*
X77168524Y-48268000D01*
X77073285Y-48220380D01*
X76835190Y-48220380D01*
X76739952Y-48268000D01*
X76692333Y-48315619D01*
X76644714Y-48410857D01*
X76644714Y-48506095D01*
X76692333Y-48648952D01*
X77263762Y-49220380D01*
X76644714Y-49220380D01*
X81120904Y-43188000D02*
X81216143Y-43140380D01*
X81359000Y-43140380D01*
X81501857Y-43188000D01*
X81597095Y-43283238D01*
X81644714Y-43378476D01*
X81692333Y-43568952D01*
X81692333Y-43711809D01*
X81644714Y-43902285D01*
X81597095Y-43997523D01*
X81501857Y-44092761D01*
X81359000Y-44140380D01*
X81263762Y-44140380D01*
X81120904Y-44092761D01*
X81073285Y-44045142D01*
X81073285Y-43711809D01*
X81263762Y-43711809D01*
X80644714Y-44140380D02*
X80644714Y-43140380D01*
X80263762Y-43140380D01*
X80168524Y-43188000D01*
X80120904Y-43235619D01*
X80073285Y-43330857D01*
X80073285Y-43473714D01*
X80120904Y-43568952D01*
X80168524Y-43616571D01*
X80263762Y-43664190D01*
X80644714Y-43664190D01*
X79644714Y-44140380D02*
X79644714Y-43140380D01*
X78978047Y-43140380D02*
X78787571Y-43140380D01*
X78692333Y-43188000D01*
X78597095Y-43283238D01*
X78549476Y-43473714D01*
X78549476Y-43807047D01*
X78597095Y-43997523D01*
X78692333Y-44092761D01*
X78787571Y-44140380D01*
X78978047Y-44140380D01*
X79073285Y-44092761D01*
X79168524Y-43997523D01*
X79216143Y-43807047D01*
X79216143Y-43473714D01*
X79168524Y-43283238D01*
X79073285Y-43188000D01*
X78978047Y-43140380D01*
X77597095Y-44140380D02*
X78168524Y-44140380D01*
X77882809Y-44140380D02*
X77882809Y-43140380D01*
X77978047Y-43283238D01*
X78073285Y-43378476D01*
X78168524Y-43426095D01*
X77263762Y-43140380D02*
X76644714Y-43140380D01*
X76978047Y-43521333D01*
X76835190Y-43521333D01*
X76739952Y-43568952D01*
X76692333Y-43616571D01*
X76644714Y-43711809D01*
X76644714Y-43949904D01*
X76692333Y-44045142D01*
X76739952Y-44092761D01*
X76835190Y-44140380D01*
X77120904Y-44140380D01*
X77216143Y-44092761D01*
X77263762Y-44045142D01*
X81120904Y-58428000D02*
X81216143Y-58380380D01*
X81359000Y-58380380D01*
X81501857Y-58428000D01*
X81597095Y-58523238D01*
X81644714Y-58618476D01*
X81692333Y-58808952D01*
X81692333Y-58951809D01*
X81644714Y-59142285D01*
X81597095Y-59237523D01*
X81501857Y-59332761D01*
X81359000Y-59380380D01*
X81263762Y-59380380D01*
X81120904Y-59332761D01*
X81073285Y-59285142D01*
X81073285Y-58951809D01*
X81263762Y-58951809D01*
X80644714Y-59380380D02*
X80644714Y-58380380D01*
X80263762Y-58380380D01*
X80168524Y-58428000D01*
X80120904Y-58475619D01*
X80073285Y-58570857D01*
X80073285Y-58713714D01*
X80120904Y-58808952D01*
X80168524Y-58856571D01*
X80263762Y-58904190D01*
X80644714Y-58904190D01*
X79644714Y-59380380D02*
X79644714Y-58380380D01*
X78978047Y-58380380D02*
X78787571Y-58380380D01*
X78692333Y-58428000D01*
X78597095Y-58523238D01*
X78549476Y-58713714D01*
X78549476Y-59047047D01*
X78597095Y-59237523D01*
X78692333Y-59332761D01*
X78787571Y-59380380D01*
X78978047Y-59380380D01*
X79073285Y-59332761D01*
X79168524Y-59237523D01*
X79216143Y-59047047D01*
X79216143Y-58713714D01*
X79168524Y-58523238D01*
X79073285Y-58428000D01*
X78978047Y-58380380D01*
X78168524Y-58475619D02*
X78120904Y-58428000D01*
X78025666Y-58380380D01*
X77787571Y-58380380D01*
X77692333Y-58428000D01*
X77644714Y-58475619D01*
X77597095Y-58570857D01*
X77597095Y-58666095D01*
X77644714Y-58808952D01*
X78216143Y-59380380D01*
X77597095Y-59380380D01*
X76692333Y-58380380D02*
X77168524Y-58380380D01*
X77216143Y-58856571D01*
X77168524Y-58808952D01*
X77073285Y-58761333D01*
X76835190Y-58761333D01*
X76739952Y-58808952D01*
X76692333Y-58856571D01*
X76644714Y-58951809D01*
X76644714Y-59189904D01*
X76692333Y-59285142D01*
X76739952Y-59332761D01*
X76835190Y-59380380D01*
X77073285Y-59380380D01*
X77168524Y-59332761D01*
X77216143Y-59285142D01*
X81120904Y-55888000D02*
X81216143Y-55840380D01*
X81359000Y-55840380D01*
X81501857Y-55888000D01*
X81597095Y-55983238D01*
X81644714Y-56078476D01*
X81692333Y-56268952D01*
X81692333Y-56411809D01*
X81644714Y-56602285D01*
X81597095Y-56697523D01*
X81501857Y-56792761D01*
X81359000Y-56840380D01*
X81263762Y-56840380D01*
X81120904Y-56792761D01*
X81073285Y-56745142D01*
X81073285Y-56411809D01*
X81263762Y-56411809D01*
X80644714Y-56840380D02*
X80644714Y-55840380D01*
X80263762Y-55840380D01*
X80168524Y-55888000D01*
X80120904Y-55935619D01*
X80073285Y-56030857D01*
X80073285Y-56173714D01*
X80120904Y-56268952D01*
X80168524Y-56316571D01*
X80263762Y-56364190D01*
X80644714Y-56364190D01*
X79644714Y-56840380D02*
X79644714Y-55840380D01*
X78978047Y-55840380D02*
X78787571Y-55840380D01*
X78692333Y-55888000D01*
X78597095Y-55983238D01*
X78549476Y-56173714D01*
X78549476Y-56507047D01*
X78597095Y-56697523D01*
X78692333Y-56792761D01*
X78787571Y-56840380D01*
X78978047Y-56840380D01*
X79073285Y-56792761D01*
X79168524Y-56697523D01*
X79216143Y-56507047D01*
X79216143Y-56173714D01*
X79168524Y-55983238D01*
X79073285Y-55888000D01*
X78978047Y-55840380D01*
X78168524Y-55935619D02*
X78120904Y-55888000D01*
X78025666Y-55840380D01*
X77787571Y-55840380D01*
X77692333Y-55888000D01*
X77644714Y-55935619D01*
X77597095Y-56030857D01*
X77597095Y-56126095D01*
X77644714Y-56268952D01*
X78216143Y-56840380D01*
X77597095Y-56840380D01*
X76739952Y-55840380D02*
X76930428Y-55840380D01*
X77025666Y-55888000D01*
X77073285Y-55935619D01*
X77168524Y-56078476D01*
X77216143Y-56268952D01*
X77216143Y-56649904D01*
X77168524Y-56745142D01*
X77120904Y-56792761D01*
X77025666Y-56840380D01*
X76835190Y-56840380D01*
X76739952Y-56792761D01*
X76692333Y-56745142D01*
X76644714Y-56649904D01*
X76644714Y-56411809D01*
X76692333Y-56316571D01*
X76739952Y-56268952D01*
X76835190Y-56221333D01*
X77025666Y-56221333D01*
X77120904Y-56268952D01*
X77168524Y-56316571D01*
X77216143Y-56411809D01*
X81120904Y-50808000D02*
X81216143Y-50760380D01*
X81359000Y-50760380D01*
X81501857Y-50808000D01*
X81597095Y-50903238D01*
X81644714Y-50998476D01*
X81692333Y-51188952D01*
X81692333Y-51331809D01*
X81644714Y-51522285D01*
X81597095Y-51617523D01*
X81501857Y-51712761D01*
X81359000Y-51760380D01*
X81263762Y-51760380D01*
X81120904Y-51712761D01*
X81073285Y-51665142D01*
X81073285Y-51331809D01*
X81263762Y-51331809D01*
X80644714Y-51760380D02*
X80644714Y-50760380D01*
X80263762Y-50760380D01*
X80168524Y-50808000D01*
X80120904Y-50855619D01*
X80073285Y-50950857D01*
X80073285Y-51093714D01*
X80120904Y-51188952D01*
X80168524Y-51236571D01*
X80263762Y-51284190D01*
X80644714Y-51284190D01*
X79644714Y-51760380D02*
X79644714Y-50760380D01*
X78978047Y-50760380D02*
X78787571Y-50760380D01*
X78692333Y-50808000D01*
X78597095Y-50903238D01*
X78549476Y-51093714D01*
X78549476Y-51427047D01*
X78597095Y-51617523D01*
X78692333Y-51712761D01*
X78787571Y-51760380D01*
X78978047Y-51760380D01*
X79073285Y-51712761D01*
X79168524Y-51617523D01*
X79216143Y-51427047D01*
X79216143Y-51093714D01*
X79168524Y-50903238D01*
X79073285Y-50808000D01*
X78978047Y-50760380D01*
X77597095Y-51760380D02*
X78168524Y-51760380D01*
X77882809Y-51760380D02*
X77882809Y-50760380D01*
X77978047Y-50903238D01*
X78073285Y-50998476D01*
X78168524Y-51046095D01*
X76739952Y-51093714D02*
X76739952Y-51760380D01*
X76978047Y-50712761D02*
X77216143Y-51427047D01*
X76597095Y-51427047D01*
X81120904Y-63508000D02*
X81216143Y-63460380D01*
X81359000Y-63460380D01*
X81501857Y-63508000D01*
X81597095Y-63603238D01*
X81644714Y-63698476D01*
X81692333Y-63888952D01*
X81692333Y-64031809D01*
X81644714Y-64222285D01*
X81597095Y-64317523D01*
X81501857Y-64412761D01*
X81359000Y-64460380D01*
X81263762Y-64460380D01*
X81120904Y-64412761D01*
X81073285Y-64365142D01*
X81073285Y-64031809D01*
X81263762Y-64031809D01*
X80644714Y-64460380D02*
X80644714Y-63460380D01*
X80263762Y-63460380D01*
X80168524Y-63508000D01*
X80120904Y-63555619D01*
X80073285Y-63650857D01*
X80073285Y-63793714D01*
X80120904Y-63888952D01*
X80168524Y-63936571D01*
X80263762Y-63984190D01*
X80644714Y-63984190D01*
X79644714Y-64460380D02*
X79644714Y-63460380D01*
X78978047Y-63460380D02*
X78787571Y-63460380D01*
X78692333Y-63508000D01*
X78597095Y-63603238D01*
X78549476Y-63793714D01*
X78549476Y-64127047D01*
X78597095Y-64317523D01*
X78692333Y-64412761D01*
X78787571Y-64460380D01*
X78978047Y-64460380D01*
X79073285Y-64412761D01*
X79168524Y-64317523D01*
X79216143Y-64127047D01*
X79216143Y-63793714D01*
X79168524Y-63603238D01*
X79073285Y-63508000D01*
X78978047Y-63460380D01*
X78216143Y-63460380D02*
X77597095Y-63460380D01*
X77930428Y-63841333D01*
X77787571Y-63841333D01*
X77692333Y-63888952D01*
X77644714Y-63936571D01*
X77597095Y-64031809D01*
X77597095Y-64269904D01*
X77644714Y-64365142D01*
X77692333Y-64412761D01*
X77787571Y-64460380D01*
X78073285Y-64460380D01*
X78168524Y-64412761D01*
X78216143Y-64365142D01*
X77216143Y-63555619D02*
X77168524Y-63508000D01*
X77073285Y-63460380D01*
X76835190Y-63460380D01*
X76739952Y-63508000D01*
X76692333Y-63555619D01*
X76644714Y-63650857D01*
X76644714Y-63746095D01*
X76692333Y-63888952D01*
X77263762Y-64460380D01*
X76644714Y-64460380D01*
X81120904Y-53348000D02*
X81216143Y-53300380D01*
X81359000Y-53300380D01*
X81501857Y-53348000D01*
X81597095Y-53443238D01*
X81644714Y-53538476D01*
X81692333Y-53728952D01*
X81692333Y-53871809D01*
X81644714Y-54062285D01*
X81597095Y-54157523D01*
X81501857Y-54252761D01*
X81359000Y-54300380D01*
X81263762Y-54300380D01*
X81120904Y-54252761D01*
X81073285Y-54205142D01*
X81073285Y-53871809D01*
X81263762Y-53871809D01*
X80644714Y-54300380D02*
X80644714Y-53300380D01*
X80263762Y-53300380D01*
X80168524Y-53348000D01*
X80120904Y-53395619D01*
X80073285Y-53490857D01*
X80073285Y-53633714D01*
X80120904Y-53728952D01*
X80168524Y-53776571D01*
X80263762Y-53824190D01*
X80644714Y-53824190D01*
X79644714Y-54300380D02*
X79644714Y-53300380D01*
X78978047Y-53300380D02*
X78787571Y-53300380D01*
X78692333Y-53348000D01*
X78597095Y-53443238D01*
X78549476Y-53633714D01*
X78549476Y-53967047D01*
X78597095Y-54157523D01*
X78692333Y-54252761D01*
X78787571Y-54300380D01*
X78978047Y-54300380D01*
X79073285Y-54252761D01*
X79168524Y-54157523D01*
X79216143Y-53967047D01*
X79216143Y-53633714D01*
X79168524Y-53443238D01*
X79073285Y-53348000D01*
X78978047Y-53300380D01*
X78168524Y-53395619D02*
X78120904Y-53348000D01*
X78025666Y-53300380D01*
X77787571Y-53300380D01*
X77692333Y-53348000D01*
X77644714Y-53395619D01*
X77597095Y-53490857D01*
X77597095Y-53586095D01*
X77644714Y-53728952D01*
X78216143Y-54300380D01*
X77597095Y-54300380D01*
X77263762Y-53300380D02*
X76597095Y-53300380D01*
X77025666Y-54300380D01*
X65404904Y-63635000D02*
X65500142Y-63587380D01*
X65643000Y-63587380D01*
X65785857Y-63635000D01*
X65881095Y-63730238D01*
X65928714Y-63825476D01*
X65976333Y-64015952D01*
X65976333Y-64158809D01*
X65928714Y-64349285D01*
X65881095Y-64444523D01*
X65785857Y-64539761D01*
X65643000Y-64587380D01*
X65547761Y-64587380D01*
X65404904Y-64539761D01*
X65357285Y-64492142D01*
X65357285Y-64158809D01*
X65547761Y-64158809D01*
X64928714Y-64587380D02*
X64928714Y-63587380D01*
X64357285Y-64587380D01*
X64357285Y-63587380D01*
X63881095Y-64587380D02*
X63881095Y-63587380D01*
X63643000Y-63587380D01*
X63500142Y-63635000D01*
X63404904Y-63730238D01*
X63357285Y-63825476D01*
X63309666Y-64015952D01*
X63309666Y-64158809D01*
X63357285Y-64349285D01*
X63404904Y-64444523D01*
X63500142Y-64539761D01*
X63643000Y-64587380D01*
X63881095Y-64587380D01*
X65404904Y-78748000D02*
X65500142Y-78700380D01*
X65643000Y-78700380D01*
X65785857Y-78748000D01*
X65881095Y-78843238D01*
X65928714Y-78938476D01*
X65976333Y-79128952D01*
X65976333Y-79271809D01*
X65928714Y-79462285D01*
X65881095Y-79557523D01*
X65785857Y-79652761D01*
X65643000Y-79700380D01*
X65547761Y-79700380D01*
X65404904Y-79652761D01*
X65357285Y-79605142D01*
X65357285Y-79271809D01*
X65547761Y-79271809D01*
X64928714Y-79700380D02*
X64928714Y-78700380D01*
X64357285Y-79700380D01*
X64357285Y-78700380D01*
X63881095Y-79700380D02*
X63881095Y-78700380D01*
X63643000Y-78700380D01*
X63500142Y-78748000D01*
X63404904Y-78843238D01*
X63357285Y-78938476D01*
X63309666Y-79128952D01*
X63309666Y-79271809D01*
X63357285Y-79462285D01*
X63404904Y-79557523D01*
X63500142Y-79652761D01*
X63643000Y-79700380D01*
X63881095Y-79700380D01*
X67785856Y-58428000D02*
X67881095Y-58380380D01*
X68023952Y-58380380D01*
X68166809Y-58428000D01*
X68262047Y-58523238D01*
X68309666Y-58618476D01*
X68357285Y-58808952D01*
X68357285Y-58951809D01*
X68309666Y-59142285D01*
X68262047Y-59237523D01*
X68166809Y-59332761D01*
X68023952Y-59380380D01*
X67928714Y-59380380D01*
X67785856Y-59332761D01*
X67738237Y-59285142D01*
X67738237Y-58951809D01*
X67928714Y-58951809D01*
X67309666Y-59380380D02*
X67309666Y-58380380D01*
X66928714Y-58380380D01*
X66833476Y-58428000D01*
X66785856Y-58475619D01*
X66738237Y-58570857D01*
X66738237Y-58713714D01*
X66785856Y-58808952D01*
X66833476Y-58856571D01*
X66928714Y-58904190D01*
X67309666Y-58904190D01*
X66309666Y-59380380D02*
X66309666Y-58380380D01*
X65642999Y-58380380D02*
X65452523Y-58380380D01*
X65357285Y-58428000D01*
X65262047Y-58523238D01*
X65214428Y-58713714D01*
X65214428Y-59047047D01*
X65262047Y-59237523D01*
X65357285Y-59332761D01*
X65452523Y-59380380D01*
X65642999Y-59380380D01*
X65738237Y-59332761D01*
X65833476Y-59237523D01*
X65881095Y-59047047D01*
X65881095Y-58713714D01*
X65833476Y-58523238D01*
X65738237Y-58428000D01*
X65642999Y-58380380D01*
X64262047Y-59380380D02*
X64833476Y-59380380D01*
X64547761Y-59380380D02*
X64547761Y-58380380D01*
X64642999Y-58523238D01*
X64738237Y-58618476D01*
X64833476Y-58666095D01*
X63690618Y-58808952D02*
X63785856Y-58761333D01*
X63833476Y-58713714D01*
X63881095Y-58618476D01*
X63881095Y-58570857D01*
X63833476Y-58475619D01*
X63785856Y-58428000D01*
X63690618Y-58380380D01*
X63500142Y-58380380D01*
X63404904Y-58428000D01*
X63357285Y-58475619D01*
X63309666Y-58570857D01*
X63309666Y-58618476D01*
X63357285Y-58713714D01*
X63404904Y-58761333D01*
X63500142Y-58808952D01*
X63690618Y-58808952D01*
X63785856Y-58856571D01*
X63833476Y-58904190D01*
X63881095Y-58999428D01*
X63881095Y-59189904D01*
X63833476Y-59285142D01*
X63785856Y-59332761D01*
X63690618Y-59380380D01*
X63500142Y-59380380D01*
X63404904Y-59332761D01*
X63357285Y-59285142D01*
X63309666Y-59189904D01*
X63309666Y-58999428D01*
X63357285Y-58904190D01*
X63404904Y-58856571D01*
X63500142Y-58808952D01*
X67785856Y-60968000D02*
X67881095Y-60920380D01*
X68023952Y-60920380D01*
X68166809Y-60968000D01*
X68262047Y-61063238D01*
X68309666Y-61158476D01*
X68357285Y-61348952D01*
X68357285Y-61491809D01*
X68309666Y-61682285D01*
X68262047Y-61777523D01*
X68166809Y-61872761D01*
X68023952Y-61920380D01*
X67928714Y-61920380D01*
X67785856Y-61872761D01*
X67738237Y-61825142D01*
X67738237Y-61491809D01*
X67928714Y-61491809D01*
X67309666Y-61920380D02*
X67309666Y-60920380D01*
X66928714Y-60920380D01*
X66833476Y-60968000D01*
X66785856Y-61015619D01*
X66738237Y-61110857D01*
X66738237Y-61253714D01*
X66785856Y-61348952D01*
X66833476Y-61396571D01*
X66928714Y-61444190D01*
X67309666Y-61444190D01*
X66309666Y-61920380D02*
X66309666Y-60920380D01*
X65642999Y-60920380D02*
X65452523Y-60920380D01*
X65357285Y-60968000D01*
X65262047Y-61063238D01*
X65214428Y-61253714D01*
X65214428Y-61587047D01*
X65262047Y-61777523D01*
X65357285Y-61872761D01*
X65452523Y-61920380D01*
X65642999Y-61920380D01*
X65738237Y-61872761D01*
X65833476Y-61777523D01*
X65881095Y-61587047D01*
X65881095Y-61253714D01*
X65833476Y-61063238D01*
X65738237Y-60968000D01*
X65642999Y-60920380D01*
X64262047Y-61920380D02*
X64833476Y-61920380D01*
X64547761Y-61920380D02*
X64547761Y-60920380D01*
X64642999Y-61063238D01*
X64738237Y-61158476D01*
X64833476Y-61206095D01*
X63785856Y-61920380D02*
X63595380Y-61920380D01*
X63500142Y-61872761D01*
X63452523Y-61825142D01*
X63357285Y-61682285D01*
X63309666Y-61491809D01*
X63309666Y-61110857D01*
X63357285Y-61015619D01*
X63404904Y-60968000D01*
X63500142Y-60920380D01*
X63690618Y-60920380D01*
X63785856Y-60968000D01*
X63833476Y-61015619D01*
X63881095Y-61110857D01*
X63881095Y-61348952D01*
X63833476Y-61444190D01*
X63785856Y-61491809D01*
X63690618Y-61539428D01*
X63500142Y-61539428D01*
X63404904Y-61491809D01*
X63357285Y-61444190D01*
X63309666Y-61348952D01*
X66833476Y-48268000D02*
X66928714Y-48220380D01*
X67071571Y-48220380D01*
X67214428Y-48268000D01*
X67309666Y-48363238D01*
X67357286Y-48458476D01*
X67404905Y-48648952D01*
X67404905Y-48791809D01*
X67357286Y-48982285D01*
X67309666Y-49077523D01*
X67214428Y-49172761D01*
X67071571Y-49220380D01*
X66976333Y-49220380D01*
X66833476Y-49172761D01*
X66785857Y-49125142D01*
X66785857Y-48791809D01*
X66976333Y-48791809D01*
X66357286Y-49220380D02*
X66357286Y-48220380D01*
X65976333Y-48220380D01*
X65881095Y-48268000D01*
X65833476Y-48315619D01*
X65785857Y-48410857D01*
X65785857Y-48553714D01*
X65833476Y-48648952D01*
X65881095Y-48696571D01*
X65976333Y-48744190D01*
X66357286Y-48744190D01*
X65357286Y-49220380D02*
X65357286Y-48220380D01*
X64690619Y-48220380D02*
X64500143Y-48220380D01*
X64404905Y-48268000D01*
X64309666Y-48363238D01*
X64262047Y-48553714D01*
X64262047Y-48887047D01*
X64309666Y-49077523D01*
X64404905Y-49172761D01*
X64500143Y-49220380D01*
X64690619Y-49220380D01*
X64785857Y-49172761D01*
X64881095Y-49077523D01*
X64928714Y-48887047D01*
X64928714Y-48553714D01*
X64881095Y-48363238D01*
X64785857Y-48268000D01*
X64690619Y-48220380D01*
X63404905Y-48553714D02*
X63404905Y-49220380D01*
X63643000Y-48172761D02*
X63881095Y-48887047D01*
X63262047Y-48887047D01*
X67785856Y-50808000D02*
X67881095Y-50760380D01*
X68023952Y-50760380D01*
X68166809Y-50808000D01*
X68262047Y-50903238D01*
X68309666Y-50998476D01*
X68357285Y-51188952D01*
X68357285Y-51331809D01*
X68309666Y-51522285D01*
X68262047Y-51617523D01*
X68166809Y-51712761D01*
X68023952Y-51760380D01*
X67928714Y-51760380D01*
X67785856Y-51712761D01*
X67738237Y-51665142D01*
X67738237Y-51331809D01*
X67928714Y-51331809D01*
X67309666Y-51760380D02*
X67309666Y-50760380D01*
X66928714Y-50760380D01*
X66833476Y-50808000D01*
X66785856Y-50855619D01*
X66738237Y-50950857D01*
X66738237Y-51093714D01*
X66785856Y-51188952D01*
X66833476Y-51236571D01*
X66928714Y-51284190D01*
X67309666Y-51284190D01*
X66309666Y-51760380D02*
X66309666Y-50760380D01*
X65642999Y-50760380D02*
X65452523Y-50760380D01*
X65357285Y-50808000D01*
X65262047Y-50903238D01*
X65214428Y-51093714D01*
X65214428Y-51427047D01*
X65262047Y-51617523D01*
X65357285Y-51712761D01*
X65452523Y-51760380D01*
X65642999Y-51760380D01*
X65738237Y-51712761D01*
X65833476Y-51617523D01*
X65881095Y-51427047D01*
X65881095Y-51093714D01*
X65833476Y-50903238D01*
X65738237Y-50808000D01*
X65642999Y-50760380D01*
X64262047Y-51760380D02*
X64833476Y-51760380D01*
X64547761Y-51760380D02*
X64547761Y-50760380D01*
X64642999Y-50903238D01*
X64738237Y-50998476D01*
X64833476Y-51046095D01*
X63404904Y-50760380D02*
X63595380Y-50760380D01*
X63690618Y-50808000D01*
X63738237Y-50855619D01*
X63833476Y-50998476D01*
X63881095Y-51188952D01*
X63881095Y-51569904D01*
X63833476Y-51665142D01*
X63785856Y-51712761D01*
X63690618Y-51760380D01*
X63500142Y-51760380D01*
X63404904Y-51712761D01*
X63357285Y-51665142D01*
X63309666Y-51569904D01*
X63309666Y-51331809D01*
X63357285Y-51236571D01*
X63404904Y-51188952D01*
X63500142Y-51141333D01*
X63690618Y-51141333D01*
X63785856Y-51188952D01*
X63833476Y-51236571D01*
X63881095Y-51331809D01*
X66833476Y-55888000D02*
X66928714Y-55840380D01*
X67071571Y-55840380D01*
X67214428Y-55888000D01*
X67309666Y-55983238D01*
X67357286Y-56078476D01*
X67404905Y-56268952D01*
X67404905Y-56411809D01*
X67357286Y-56602285D01*
X67309666Y-56697523D01*
X67214428Y-56792761D01*
X67071571Y-56840380D01*
X66976333Y-56840380D01*
X66833476Y-56792761D01*
X66785857Y-56745142D01*
X66785857Y-56411809D01*
X66976333Y-56411809D01*
X66357286Y-56840380D02*
X66357286Y-55840380D01*
X65976333Y-55840380D01*
X65881095Y-55888000D01*
X65833476Y-55935619D01*
X65785857Y-56030857D01*
X65785857Y-56173714D01*
X65833476Y-56268952D01*
X65881095Y-56316571D01*
X65976333Y-56364190D01*
X66357286Y-56364190D01*
X65357286Y-56840380D02*
X65357286Y-55840380D01*
X64690619Y-55840380D02*
X64500143Y-55840380D01*
X64404905Y-55888000D01*
X64309666Y-55983238D01*
X64262047Y-56173714D01*
X64262047Y-56507047D01*
X64309666Y-56697523D01*
X64404905Y-56792761D01*
X64500143Y-56840380D01*
X64690619Y-56840380D01*
X64785857Y-56792761D01*
X64881095Y-56697523D01*
X64928714Y-56507047D01*
X64928714Y-56173714D01*
X64881095Y-55983238D01*
X64785857Y-55888000D01*
X64690619Y-55840380D01*
X63357286Y-55840380D02*
X63833476Y-55840380D01*
X63881095Y-56316571D01*
X63833476Y-56268952D01*
X63738238Y-56221333D01*
X63500143Y-56221333D01*
X63404905Y-56268952D01*
X63357286Y-56316571D01*
X63309666Y-56411809D01*
X63309666Y-56649904D01*
X63357286Y-56745142D01*
X63404905Y-56792761D01*
X63500143Y-56840380D01*
X63738238Y-56840380D01*
X63833476Y-56792761D01*
X63881095Y-56745142D01*
X67785856Y-53348000D02*
X67881095Y-53300380D01*
X68023952Y-53300380D01*
X68166809Y-53348000D01*
X68262047Y-53443238D01*
X68309666Y-53538476D01*
X68357285Y-53728952D01*
X68357285Y-53871809D01*
X68309666Y-54062285D01*
X68262047Y-54157523D01*
X68166809Y-54252761D01*
X68023952Y-54300380D01*
X67928714Y-54300380D01*
X67785856Y-54252761D01*
X67738237Y-54205142D01*
X67738237Y-53871809D01*
X67928714Y-53871809D01*
X67309666Y-54300380D02*
X67309666Y-53300380D01*
X66928714Y-53300380D01*
X66833476Y-53348000D01*
X66785856Y-53395619D01*
X66738237Y-53490857D01*
X66738237Y-53633714D01*
X66785856Y-53728952D01*
X66833476Y-53776571D01*
X66928714Y-53824190D01*
X67309666Y-53824190D01*
X66309666Y-54300380D02*
X66309666Y-53300380D01*
X65642999Y-53300380D02*
X65452523Y-53300380D01*
X65357285Y-53348000D01*
X65262047Y-53443238D01*
X65214428Y-53633714D01*
X65214428Y-53967047D01*
X65262047Y-54157523D01*
X65357285Y-54252761D01*
X65452523Y-54300380D01*
X65642999Y-54300380D01*
X65738237Y-54252761D01*
X65833476Y-54157523D01*
X65881095Y-53967047D01*
X65881095Y-53633714D01*
X65833476Y-53443238D01*
X65738237Y-53348000D01*
X65642999Y-53300380D01*
X64262047Y-54300380D02*
X64833476Y-54300380D01*
X64547761Y-54300380D02*
X64547761Y-53300380D01*
X64642999Y-53443238D01*
X64738237Y-53538476D01*
X64833476Y-53586095D01*
X63928714Y-53300380D02*
X63262047Y-53300380D01*
X63690618Y-54300380D01*
X81739952Y-78700380D02*
X81120904Y-78700380D01*
X81454238Y-79081333D01*
X81311381Y-79081333D01*
X81216142Y-79128952D01*
X81168523Y-79176571D01*
X81120904Y-79271809D01*
X81120904Y-79509904D01*
X81168523Y-79605142D01*
X81216142Y-79652761D01*
X81311381Y-79700380D01*
X81597095Y-79700380D01*
X81692333Y-79652761D01*
X81739952Y-79605142D01*
X80692333Y-79605142D02*
X80644714Y-79652761D01*
X80692333Y-79700380D01*
X80739952Y-79652761D01*
X80692333Y-79605142D01*
X80692333Y-79700380D01*
X80311381Y-78700380D02*
X79692333Y-78700380D01*
X80025666Y-79081333D01*
X79882809Y-79081333D01*
X79787571Y-79128952D01*
X79739952Y-79176571D01*
X79692333Y-79271809D01*
X79692333Y-79509904D01*
X79739952Y-79605142D01*
X79787571Y-79652761D01*
X79882809Y-79700380D01*
X80168523Y-79700380D01*
X80263762Y-79652761D01*
X80311381Y-79605142D01*
X79406619Y-78700380D02*
X79073285Y-79700380D01*
X78739952Y-78700380D01*
D12*
X59436000Y-146050000D02*
G75*
G02X58674000Y-145288000I0J762000D01*
G01*
X116840000Y-145288000D02*
G75*
G02X116078000Y-146050000I-762000J0D01*
G01*
X58674000Y-32004000D02*
G75*
G02X59436000Y-31242000I762000J0D01*
G01*
X58674000Y-145288000D02*
X58674000Y-32004000D01*
X116078000Y-146050000D02*
X59436000Y-146050000D01*
X116840000Y-31242000D02*
X116840000Y-145288000D01*
X59436000Y-31242000D02*
X116840000Y-31242000D01*
D11*
X112847380Y-46260071D02*
X111847380Y-46260071D01*
X112847380Y-46831500D02*
X112275952Y-46402928D01*
X111847380Y-46831500D02*
X112418809Y-46260071D01*
X112323571Y-47260071D02*
X112323571Y-47593404D01*
X112847380Y-47736261D02*
X112847380Y-47260071D01*
X111847380Y-47260071D01*
X111847380Y-47736261D01*
X112371190Y-48355309D02*
X112847380Y-48355309D01*
X111847380Y-48021976D02*
X112371190Y-48355309D01*
X111847380Y-48688642D01*
X112847380Y-49021976D02*
X111847380Y-49021976D01*
X111847380Y-49402928D01*
X111895000Y-49498166D01*
X111942619Y-49545785D01*
X112037857Y-49593404D01*
X112180714Y-49593404D01*
X112275952Y-49545785D01*
X112323571Y-49498166D01*
X112371190Y-49402928D01*
X112371190Y-49021976D01*
X112561666Y-49974357D02*
X112561666Y-50450547D01*
X112847380Y-49879119D02*
X111847380Y-50212452D01*
X112847380Y-50545785D01*
X112847380Y-50879119D02*
X111847380Y-50879119D01*
X111847380Y-51117214D01*
X111895000Y-51260071D01*
X111990238Y-51355309D01*
X112085476Y-51402928D01*
X112275952Y-51450547D01*
X112418809Y-51450547D01*
X112609285Y-51402928D01*
X112704523Y-51355309D01*
X112799761Y-51260071D01*
X112847380Y-51117214D01*
X112847380Y-50879119D01*
D10*
X62382285Y-131235404D02*
X62382285Y-130435404D01*
X62001333Y-131235404D02*
X62001333Y-130435404D01*
X61544190Y-131235404D01*
X61544190Y-130435404D01*
X61163238Y-130930642D02*
X60553714Y-130930642D01*
X60858476Y-131235404D02*
X60858476Y-130625880D01*
X82829285Y-131235404D02*
X82829285Y-130435404D01*
X82448333Y-131235404D02*
X82448333Y-130435404D01*
X81991190Y-131235404D01*
X81991190Y-130435404D01*
X81610238Y-130930642D02*
X81000714Y-130930642D01*
X62509238Y-84905904D02*
X62356857Y-84905904D01*
X62280666Y-84944000D01*
X62204476Y-85020190D01*
X62166380Y-85172571D01*
X62166380Y-85439238D01*
X62204476Y-85591619D01*
X62280666Y-85667809D01*
X62356857Y-85705904D01*
X62509238Y-85705904D01*
X62585428Y-85667809D01*
X62661619Y-85591619D01*
X62699714Y-85439238D01*
X62699714Y-85172571D01*
X62661619Y-85020190D01*
X62585428Y-84944000D01*
X62509238Y-84905904D01*
X61823523Y-84905904D02*
X61823523Y-85553523D01*
X61785428Y-85629714D01*
X61747333Y-85667809D01*
X61671142Y-85705904D01*
X61518761Y-85705904D01*
X61442571Y-85667809D01*
X61404476Y-85629714D01*
X61366380Y-85553523D01*
X61366380Y-84905904D01*
X61099714Y-84905904D02*
X60642571Y-84905904D01*
X60871142Y-85705904D02*
X60871142Y-84905904D01*
X60375904Y-85401142D02*
X59766380Y-85401142D01*
X60071142Y-85705904D02*
X60071142Y-85096380D01*
X83273738Y-84969404D02*
X83121357Y-84969404D01*
X83045166Y-85007500D01*
X82968976Y-85083690D01*
X82930880Y-85236071D01*
X82930880Y-85502738D01*
X82968976Y-85655119D01*
X83045166Y-85731309D01*
X83121357Y-85769404D01*
X83273738Y-85769404D01*
X83349928Y-85731309D01*
X83426119Y-85655119D01*
X83464214Y-85502738D01*
X83464214Y-85236071D01*
X83426119Y-85083690D01*
X83349928Y-85007500D01*
X83273738Y-84969404D01*
X82588023Y-84969404D02*
X82588023Y-85617023D01*
X82549928Y-85693214D01*
X82511833Y-85731309D01*
X82435642Y-85769404D01*
X82283261Y-85769404D01*
X82207071Y-85731309D01*
X82168976Y-85693214D01*
X82130880Y-85617023D01*
X82130880Y-84969404D01*
X81864214Y-84969404D02*
X81407071Y-84969404D01*
X81635642Y-85769404D02*
X81635642Y-84969404D01*
X81140404Y-85464642D02*
X80530880Y-85464642D01*
X115341271Y-104451142D02*
X114731747Y-104451142D01*
X115036509Y-104755904D02*
X115036509Y-104146380D01*
X114426985Y-103955904D02*
X113931747Y-103955904D01*
X114198414Y-104260666D01*
X114084128Y-104260666D01*
X114007938Y-104298761D01*
X113969842Y-104336857D01*
X113931747Y-104413047D01*
X113931747Y-104603523D01*
X113969842Y-104679714D01*
X114007938Y-104717809D01*
X114084128Y-104755904D01*
X114312700Y-104755904D01*
X114388890Y-104717809D01*
X114426985Y-104679714D01*
X113703176Y-103955904D02*
X113436509Y-104755904D01*
X113169842Y-103955904D01*
X115049223Y-111741000D02*
X115125414Y-111702904D01*
X115239700Y-111702904D01*
X115353985Y-111741000D01*
X115430176Y-111817190D01*
X115468271Y-111893380D01*
X115506366Y-112045761D01*
X115506366Y-112160047D01*
X115468271Y-112312428D01*
X115430176Y-112388619D01*
X115353985Y-112464809D01*
X115239700Y-112502904D01*
X115163509Y-112502904D01*
X115049223Y-112464809D01*
X115011128Y-112426714D01*
X115011128Y-112160047D01*
X115163509Y-112160047D01*
X114668271Y-112502904D02*
X114668271Y-111702904D01*
X114211128Y-112502904D01*
X114211128Y-111702904D01*
X113830176Y-112502904D02*
X113830176Y-111702904D01*
X113639700Y-111702904D01*
X113525414Y-111741000D01*
X113449223Y-111817190D01*
X113411128Y-111893380D01*
X113373033Y-112045761D01*
X113373033Y-112160047D01*
X113411128Y-112312428D01*
X113449223Y-112388619D01*
X113525414Y-112464809D01*
X113639700Y-112502904D01*
X113830176Y-112502904D01*
X115341271Y-81845142D02*
X114731747Y-81845142D01*
X115036509Y-82149904D02*
X115036509Y-81540380D01*
X114426985Y-81349904D02*
X113931747Y-81349904D01*
X114198414Y-81654666D01*
X114084128Y-81654666D01*
X114007938Y-81692761D01*
X113969842Y-81730857D01*
X113931747Y-81807047D01*
X113931747Y-81997523D01*
X113969842Y-82073714D01*
X114007938Y-82111809D01*
X114084128Y-82149904D01*
X114312700Y-82149904D01*
X114388890Y-82111809D01*
X114426985Y-82073714D01*
X113703176Y-81349904D02*
X113436509Y-82149904D01*
X113169842Y-81349904D01*
X115049223Y-89008000D02*
X115125414Y-88969904D01*
X115239700Y-88969904D01*
X115353985Y-89008000D01*
X115430176Y-89084190D01*
X115468271Y-89160380D01*
X115506366Y-89312761D01*
X115506366Y-89427047D01*
X115468271Y-89579428D01*
X115430176Y-89655619D01*
X115353985Y-89731809D01*
X115239700Y-89769904D01*
X115163509Y-89769904D01*
X115049223Y-89731809D01*
X115011128Y-89693714D01*
X115011128Y-89427047D01*
X115163509Y-89427047D01*
X114668271Y-89769904D02*
X114668271Y-88969904D01*
X114211128Y-89769904D01*
X114211128Y-88969904D01*
X113830176Y-89769904D02*
X113830176Y-88969904D01*
X113639700Y-88969904D01*
X113525414Y-89008000D01*
X113449223Y-89084190D01*
X113411128Y-89160380D01*
X113373033Y-89312761D01*
X113373033Y-89427047D01*
X113411128Y-89579428D01*
X113449223Y-89655619D01*
X113525414Y-89731809D01*
X113639700Y-89769904D01*
X113830176Y-89769904D01*
X115049223Y-68053000D02*
X115125414Y-68014904D01*
X115239700Y-68014904D01*
X115353985Y-68053000D01*
X115430176Y-68129190D01*
X115468271Y-68205380D01*
X115506366Y-68357761D01*
X115506366Y-68472047D01*
X115468271Y-68624428D01*
X115430176Y-68700619D01*
X115353985Y-68776809D01*
X115239700Y-68814904D01*
X115163509Y-68814904D01*
X115049223Y-68776809D01*
X115011128Y-68738714D01*
X115011128Y-68472047D01*
X115163509Y-68472047D01*
X114668271Y-68814904D02*
X114668271Y-68014904D01*
X114211128Y-68814904D01*
X114211128Y-68014904D01*
X113830176Y-68814904D02*
X113830176Y-68014904D01*
X113639700Y-68014904D01*
X113525414Y-68053000D01*
X113449223Y-68129190D01*
X113411128Y-68205380D01*
X113373033Y-68357761D01*
X113373033Y-68472047D01*
X113411128Y-68624428D01*
X113449223Y-68700619D01*
X113525414Y-68776809D01*
X113639700Y-68814904D01*
X113830176Y-68814904D01*
X115341271Y-61017142D02*
X114731747Y-61017142D01*
X115036509Y-61321904D02*
X115036509Y-60712380D01*
X114426985Y-60521904D02*
X113931747Y-60521904D01*
X114198414Y-60826666D01*
X114084128Y-60826666D01*
X114007938Y-60864761D01*
X113969842Y-60902857D01*
X113931747Y-60979047D01*
X113931747Y-61169523D01*
X113969842Y-61245714D01*
X114007938Y-61283809D01*
X114084128Y-61321904D01*
X114312700Y-61321904D01*
X114388890Y-61283809D01*
X114426985Y-61245714D01*
X113703176Y-60521904D02*
X113436509Y-61321904D01*
X113169842Y-60521904D01*
X89941271Y-104451142D02*
X89331747Y-104451142D01*
X89636509Y-104755904D02*
X89636509Y-104146380D01*
X88569842Y-103955904D02*
X88950795Y-103955904D01*
X88988890Y-104336857D01*
X88950795Y-104298761D01*
X88874604Y-104260666D01*
X88684128Y-104260666D01*
X88607938Y-104298761D01*
X88569842Y-104336857D01*
X88531747Y-104413047D01*
X88531747Y-104603523D01*
X88569842Y-104679714D01*
X88607938Y-104717809D01*
X88684128Y-104755904D01*
X88874604Y-104755904D01*
X88950795Y-104717809D01*
X88988890Y-104679714D01*
X88303176Y-103955904D02*
X88036509Y-104755904D01*
X87769842Y-103955904D01*
X89522223Y-111741000D02*
X89598414Y-111702904D01*
X89712700Y-111702904D01*
X89826985Y-111741000D01*
X89903176Y-111817190D01*
X89941271Y-111893380D01*
X89979366Y-112045761D01*
X89979366Y-112160047D01*
X89941271Y-112312428D01*
X89903176Y-112388619D01*
X89826985Y-112464809D01*
X89712700Y-112502904D01*
X89636509Y-112502904D01*
X89522223Y-112464809D01*
X89484128Y-112426714D01*
X89484128Y-112160047D01*
X89636509Y-112160047D01*
X89141271Y-112502904D02*
X89141271Y-111702904D01*
X88684128Y-112502904D01*
X88684128Y-111702904D01*
X88303176Y-112502904D02*
X88303176Y-111702904D01*
X88112700Y-111702904D01*
X87998414Y-111741000D01*
X87922223Y-111817190D01*
X87884128Y-111893380D01*
X87846033Y-112045761D01*
X87846033Y-112160047D01*
X87884128Y-112312428D01*
X87922223Y-112388619D01*
X87998414Y-112464809D01*
X88112700Y-112502904D01*
X88303176Y-112502904D01*
X89522223Y-89008000D02*
X89598414Y-88969904D01*
X89712700Y-88969904D01*
X89826985Y-89008000D01*
X89903176Y-89084190D01*
X89941271Y-89160380D01*
X89979366Y-89312761D01*
X89979366Y-89427047D01*
X89941271Y-89579428D01*
X89903176Y-89655619D01*
X89826985Y-89731809D01*
X89712700Y-89769904D01*
X89636509Y-89769904D01*
X89522223Y-89731809D01*
X89484128Y-89693714D01*
X89484128Y-89427047D01*
X89636509Y-89427047D01*
X89141271Y-89769904D02*
X89141271Y-88969904D01*
X88684128Y-89769904D01*
X88684128Y-88969904D01*
X88303176Y-89769904D02*
X88303176Y-88969904D01*
X88112700Y-88969904D01*
X87998414Y-89008000D01*
X87922223Y-89084190D01*
X87884128Y-89160380D01*
X87846033Y-89312761D01*
X87846033Y-89427047D01*
X87884128Y-89579428D01*
X87922223Y-89655619D01*
X87998414Y-89731809D01*
X88112700Y-89769904D01*
X88303176Y-89769904D01*
X90068271Y-81845142D02*
X89458747Y-81845142D01*
X89763509Y-82149904D02*
X89763509Y-81540380D01*
X88696842Y-81349904D02*
X89077795Y-81349904D01*
X89115890Y-81730857D01*
X89077795Y-81692761D01*
X89001604Y-81654666D01*
X88811128Y-81654666D01*
X88734938Y-81692761D01*
X88696842Y-81730857D01*
X88658747Y-81807047D01*
X88658747Y-81997523D01*
X88696842Y-82073714D01*
X88734938Y-82111809D01*
X88811128Y-82149904D01*
X89001604Y-82149904D01*
X89077795Y-82111809D01*
X89115890Y-82073714D01*
X88430176Y-81349904D02*
X88163509Y-82149904D01*
X87896842Y-81349904D01*
X90068271Y-60890142D02*
X89458747Y-60890142D01*
X89763509Y-61194904D02*
X89763509Y-60585380D01*
X88696842Y-60394904D02*
X89077795Y-60394904D01*
X89115890Y-60775857D01*
X89077795Y-60737761D01*
X89001604Y-60699666D01*
X88811128Y-60699666D01*
X88734938Y-60737761D01*
X88696842Y-60775857D01*
X88658747Y-60852047D01*
X88658747Y-61042523D01*
X88696842Y-61118714D01*
X88734938Y-61156809D01*
X88811128Y-61194904D01*
X89001604Y-61194904D01*
X89077795Y-61156809D01*
X89115890Y-61118714D01*
X88430176Y-60394904D02*
X88163509Y-61194904D01*
X87896842Y-60394904D01*
X89522223Y-68053000D02*
X89598414Y-68014904D01*
X89712700Y-68014904D01*
X89826985Y-68053000D01*
X89903176Y-68129190D01*
X89941271Y-68205380D01*
X89979366Y-68357761D01*
X89979366Y-68472047D01*
X89941271Y-68624428D01*
X89903176Y-68700619D01*
X89826985Y-68776809D01*
X89712700Y-68814904D01*
X89636509Y-68814904D01*
X89522223Y-68776809D01*
X89484128Y-68738714D01*
X89484128Y-68472047D01*
X89636509Y-68472047D01*
X89141271Y-68814904D02*
X89141271Y-68014904D01*
X88684128Y-68814904D01*
X88684128Y-68014904D01*
X88303176Y-68814904D02*
X88303176Y-68014904D01*
X88112700Y-68014904D01*
X87998414Y-68053000D01*
X87922223Y-68129190D01*
X87884128Y-68205380D01*
X87846033Y-68357761D01*
X87846033Y-68472047D01*
X87884128Y-68624428D01*
X87922223Y-68700619D01*
X87998414Y-68776809D01*
X88112700Y-68814904D01*
X88303176Y-68814904D01*
D13*
X59900428Y-112128214D02*
X61400428Y-112128214D01*
X61400428Y-111771071D01*
X61329000Y-111556785D01*
X61186142Y-111413928D01*
X61043285Y-111342500D01*
X60757571Y-111271071D01*
X60543285Y-111271071D01*
X60257571Y-111342500D01*
X60114714Y-111413928D01*
X59971857Y-111556785D01*
X59900428Y-111771071D01*
X59900428Y-112128214D01*
X59900428Y-110628214D02*
X60900428Y-110628214D01*
X61400428Y-110628214D02*
X61329000Y-110699642D01*
X61257571Y-110628214D01*
X61329000Y-110556785D01*
X61400428Y-110628214D01*
X61257571Y-110628214D01*
X59971857Y-109342500D02*
X59900428Y-109485357D01*
X59900428Y-109771071D01*
X59971857Y-109913928D01*
X60114714Y-109985357D01*
X60686142Y-109985357D01*
X60829000Y-109913928D01*
X60900428Y-109771071D01*
X60900428Y-109485357D01*
X60829000Y-109342500D01*
X60686142Y-109271071D01*
X60543285Y-109271071D01*
X60400428Y-109985357D01*
X60900428Y-107985357D02*
X59686142Y-107985357D01*
X59543285Y-108056785D01*
X59471857Y-108128214D01*
X59400428Y-108271071D01*
X59400428Y-108485357D01*
X59471857Y-108628214D01*
X59971857Y-107985357D02*
X59900428Y-108128214D01*
X59900428Y-108413928D01*
X59971857Y-108556785D01*
X60043285Y-108628214D01*
X60186142Y-108699642D01*
X60614714Y-108699642D01*
X60757571Y-108628214D01*
X60829000Y-108556785D01*
X60900428Y-108413928D01*
X60900428Y-108128214D01*
X60829000Y-107985357D01*
X59900428Y-107056785D02*
X59971857Y-107199642D01*
X60043285Y-107271071D01*
X60186142Y-107342500D01*
X60614714Y-107342500D01*
X60757571Y-107271071D01*
X60829000Y-107199642D01*
X60900428Y-107056785D01*
X60900428Y-106842500D01*
X60829000Y-106699642D01*
X60757571Y-106628214D01*
X60614714Y-106556785D01*
X60186142Y-106556785D01*
X60043285Y-106628214D01*
X59971857Y-106699642D01*
X59900428Y-106842500D01*
X59900428Y-107056785D01*
X59900428Y-103913928D02*
X60614714Y-104413928D01*
X59900428Y-104771071D02*
X61400428Y-104771071D01*
X61400428Y-104199642D01*
X61329000Y-104056785D01*
X61257571Y-103985357D01*
X61114714Y-103913928D01*
X60900428Y-103913928D01*
X60757571Y-103985357D01*
X60686142Y-104056785D01*
X60614714Y-104199642D01*
X60614714Y-104771071D01*
X59900428Y-102628214D02*
X60686142Y-102628214D01*
X60829000Y-102699642D01*
X60900428Y-102842500D01*
X60900428Y-103128214D01*
X60829000Y-103271071D01*
X59971857Y-102628214D02*
X59900428Y-102771071D01*
X59900428Y-103128214D01*
X59971857Y-103271071D01*
X60114714Y-103342500D01*
X60257571Y-103342500D01*
X60400428Y-103271071D01*
X60471857Y-103128214D01*
X60471857Y-102771071D01*
X60543285Y-102628214D01*
X59900428Y-101913928D02*
X60900428Y-101913928D01*
X60757571Y-101913928D02*
X60829000Y-101842500D01*
X60900428Y-101699642D01*
X60900428Y-101485357D01*
X60829000Y-101342500D01*
X60686142Y-101271071D01*
X59900428Y-101271071D01*
X60686142Y-101271071D02*
X60829000Y-101199642D01*
X60900428Y-101056785D01*
X60900428Y-100842500D01*
X60829000Y-100699642D01*
X60686142Y-100628214D01*
X59900428Y-100628214D01*
X59900428Y-99699642D02*
X59971857Y-99842500D01*
X60043285Y-99913928D01*
X60186142Y-99985357D01*
X60614714Y-99985357D01*
X60757571Y-99913928D01*
X60829000Y-99842500D01*
X60900428Y-99699642D01*
X60900428Y-99485357D01*
X60829000Y-99342500D01*
X60757571Y-99271071D01*
X60614714Y-99199642D01*
X60186142Y-99199642D01*
X60043285Y-99271071D01*
X59971857Y-99342500D01*
X59900428Y-99485357D01*
X59900428Y-99699642D01*
X59971857Y-98628214D02*
X59900428Y-98485357D01*
X59900428Y-98199642D01*
X59971857Y-98056785D01*
X60114714Y-97985357D01*
X60186142Y-97985357D01*
X60329000Y-98056785D01*
X60400428Y-98199642D01*
X60400428Y-98413928D01*
X60471857Y-98556785D01*
X60614714Y-98628214D01*
X60686142Y-98628214D01*
X60829000Y-98556785D01*
X60900428Y-98413928D01*
X60900428Y-98199642D01*
X60829000Y-98056785D01*
D14*
X66707000Y-135279000D02*
X66707000Y-135609000D01*
X66707000Y-135609000D02*
X73247000Y-135609000D01*
X73247000Y-135609000D02*
X73247000Y-135279000D01*
X66707000Y-133199000D02*
X66707000Y-132869000D01*
X66707000Y-132869000D02*
X73247000Y-132869000D01*
X73247000Y-132869000D02*
X73247000Y-133199000D01*
X115742700Y-121599000D02*
X113082700Y-121599000D01*
X115742700Y-118999000D02*
X115742700Y-121599000D01*
X113082700Y-118999000D02*
X113082700Y-121599000D01*
X115742700Y-118999000D02*
X113082700Y-118999000D01*
X115742700Y-117729000D02*
X115742700Y-116399000D01*
X115742700Y-116399000D02*
X114412700Y-116399000D01*
X113082700Y-56769000D02*
X115742700Y-56769000D01*
X113082700Y-56769000D02*
X113082700Y-38929000D01*
X113082700Y-38929000D02*
X115742700Y-38929000D01*
X115742700Y-56769000D02*
X115742700Y-38929000D01*
X115742700Y-59369000D02*
X115742700Y-58039000D01*
X114412700Y-59369000D02*
X115742700Y-59369000D01*
D12*
X70143666Y-137061380D02*
X70477000Y-136585190D01*
X70715095Y-137061380D02*
X70715095Y-136061380D01*
X70334142Y-136061380D01*
X70238904Y-136109000D01*
X70191285Y-136156619D01*
X70143666Y-136251857D01*
X70143666Y-136394714D01*
X70191285Y-136489952D01*
X70238904Y-136537571D01*
X70334142Y-136585190D01*
X70715095Y-136585190D01*
X69191285Y-137061380D02*
X69762714Y-137061380D01*
X69477000Y-137061380D02*
X69477000Y-136061380D01*
X69572238Y-136204238D01*
X69667476Y-136299476D01*
X69762714Y-136347095D01*
M02*
