%TF.GenerationSoftware,KiCad,Pcbnew,(5.0.2)-1*%
%TF.CreationDate,2019-03-22T12:12:08-04:00*%
%TF.ProjectId,Door_Lock,446f6f72-5f4c-46f6-936b-2e6b69636164,rev?*%
%TF.SameCoordinates,Original*%
%TF.FileFunction,Legend,Top*%
%TF.FilePolarity,Positive*%
%FSLAX46Y46*%
G04 Gerber Fmt 4.6, Leading zero omitted, Abs format (unit mm)*
G04 Created by KiCad (PCBNEW (5.0.2)-1) date 3/22/2019 12:12:08 PM*
%MOMM*%
%LPD*%
G01*
G04 APERTURE LIST*
%ADD10C,0.200000*%
%ADD11C,0.250000*%
%ADD12C,0.150000*%
%ADD13C,0.300000*%
%ADD14C,0.120000*%
G04 APERTURE END LIST*
D10*
X113258761Y-114750904D02*
X113411142Y-114750904D01*
X113487333Y-114789000D01*
X113563523Y-114865190D01*
X113601619Y-115017571D01*
X113601619Y-115284238D01*
X113563523Y-115436619D01*
X113487333Y-115512809D01*
X113411142Y-115550904D01*
X113258761Y-115550904D01*
X113182571Y-115512809D01*
X113106380Y-115436619D01*
X113068285Y-115284238D01*
X113068285Y-115017571D01*
X113106380Y-114865190D01*
X113182571Y-114789000D01*
X113258761Y-114750904D01*
X113944476Y-114750904D02*
X113944476Y-115398523D01*
X113982571Y-115474714D01*
X114020666Y-115512809D01*
X114096857Y-115550904D01*
X114249238Y-115550904D01*
X114325428Y-115512809D01*
X114363523Y-115474714D01*
X114401619Y-115398523D01*
X114401619Y-114750904D01*
X114668285Y-114750904D02*
X115125428Y-114750904D01*
X114896857Y-115550904D02*
X114896857Y-114750904D01*
X115392095Y-115246142D02*
X116001619Y-115246142D01*
X115696857Y-115550904D02*
X115696857Y-114941380D01*
D11*
X63881095Y-60968000D02*
X63785856Y-60920380D01*
X63642999Y-60920380D01*
X63500142Y-60968000D01*
X63404904Y-61063238D01*
X63357285Y-61158476D01*
X63309666Y-61348952D01*
X63309666Y-61491809D01*
X63357285Y-61682285D01*
X63404904Y-61777523D01*
X63500142Y-61872761D01*
X63642999Y-61920380D01*
X63738237Y-61920380D01*
X63881095Y-61872761D01*
X63928714Y-61825142D01*
X63928714Y-61491809D01*
X63738237Y-61491809D01*
X64357285Y-61920380D02*
X64357285Y-60920380D01*
X64738237Y-60920380D01*
X64833476Y-60968000D01*
X64881095Y-61015619D01*
X64928714Y-61110857D01*
X64928714Y-61253714D01*
X64881095Y-61348952D01*
X64833476Y-61396571D01*
X64738237Y-61444190D01*
X64357285Y-61444190D01*
X65357285Y-61920380D02*
X65357285Y-60920380D01*
X66023952Y-60920380D02*
X66214428Y-60920380D01*
X66309666Y-60968000D01*
X66404904Y-61063238D01*
X66452523Y-61253714D01*
X66452523Y-61587047D01*
X66404904Y-61777523D01*
X66309666Y-61872761D01*
X66214428Y-61920380D01*
X66023952Y-61920380D01*
X65928714Y-61872761D01*
X65833476Y-61777523D01*
X65785856Y-61587047D01*
X65785856Y-61253714D01*
X65833476Y-61063238D01*
X65928714Y-60968000D01*
X66023952Y-60920380D01*
X67404904Y-61920380D02*
X66833476Y-61920380D01*
X67119190Y-61920380D02*
X67119190Y-60920380D01*
X67023952Y-61063238D01*
X66928714Y-61158476D01*
X66833476Y-61206095D01*
X67881095Y-61920380D02*
X68071571Y-61920380D01*
X68166809Y-61872761D01*
X68214428Y-61825142D01*
X68309666Y-61682285D01*
X68357285Y-61491809D01*
X68357285Y-61110857D01*
X68309666Y-61015619D01*
X68262047Y-60968000D01*
X68166809Y-60920380D01*
X67976333Y-60920380D01*
X67881095Y-60968000D01*
X67833476Y-61015619D01*
X67785856Y-61110857D01*
X67785856Y-61348952D01*
X67833476Y-61444190D01*
X67881095Y-61491809D01*
X67976333Y-61539428D01*
X68166809Y-61539428D01*
X68262047Y-61491809D01*
X68309666Y-61444190D01*
X68357285Y-61348952D01*
X63881095Y-48268000D02*
X63785857Y-48220380D01*
X63643000Y-48220380D01*
X63500143Y-48268000D01*
X63404905Y-48363238D01*
X63357286Y-48458476D01*
X63309666Y-48648952D01*
X63309666Y-48791809D01*
X63357286Y-48982285D01*
X63404905Y-49077523D01*
X63500143Y-49172761D01*
X63643000Y-49220380D01*
X63738238Y-49220380D01*
X63881095Y-49172761D01*
X63928714Y-49125142D01*
X63928714Y-48791809D01*
X63738238Y-48791809D01*
X64357286Y-49220380D02*
X64357286Y-48220380D01*
X64738238Y-48220380D01*
X64833476Y-48268000D01*
X64881095Y-48315619D01*
X64928714Y-48410857D01*
X64928714Y-48553714D01*
X64881095Y-48648952D01*
X64833476Y-48696571D01*
X64738238Y-48744190D01*
X64357286Y-48744190D01*
X65357286Y-49220380D02*
X65357286Y-48220380D01*
X66023952Y-48220380D02*
X66214428Y-48220380D01*
X66309666Y-48268000D01*
X66404905Y-48363238D01*
X66452524Y-48553714D01*
X66452524Y-48887047D01*
X66404905Y-49077523D01*
X66309666Y-49172761D01*
X66214428Y-49220380D01*
X66023952Y-49220380D01*
X65928714Y-49172761D01*
X65833476Y-49077523D01*
X65785857Y-48887047D01*
X65785857Y-48553714D01*
X65833476Y-48363238D01*
X65928714Y-48268000D01*
X66023952Y-48220380D01*
X67309666Y-48553714D02*
X67309666Y-49220380D01*
X67071571Y-48172761D02*
X66833476Y-48887047D01*
X67452524Y-48887047D01*
X63881095Y-58428000D02*
X63785856Y-58380380D01*
X63642999Y-58380380D01*
X63500142Y-58428000D01*
X63404904Y-58523238D01*
X63357285Y-58618476D01*
X63309666Y-58808952D01*
X63309666Y-58951809D01*
X63357285Y-59142285D01*
X63404904Y-59237523D01*
X63500142Y-59332761D01*
X63642999Y-59380380D01*
X63738237Y-59380380D01*
X63881095Y-59332761D01*
X63928714Y-59285142D01*
X63928714Y-58951809D01*
X63738237Y-58951809D01*
X64357285Y-59380380D02*
X64357285Y-58380380D01*
X64738237Y-58380380D01*
X64833476Y-58428000D01*
X64881095Y-58475619D01*
X64928714Y-58570857D01*
X64928714Y-58713714D01*
X64881095Y-58808952D01*
X64833476Y-58856571D01*
X64738237Y-58904190D01*
X64357285Y-58904190D01*
X65357285Y-59380380D02*
X65357285Y-58380380D01*
X66023952Y-58380380D02*
X66214428Y-58380380D01*
X66309666Y-58428000D01*
X66404904Y-58523238D01*
X66452523Y-58713714D01*
X66452523Y-59047047D01*
X66404904Y-59237523D01*
X66309666Y-59332761D01*
X66214428Y-59380380D01*
X66023952Y-59380380D01*
X65928714Y-59332761D01*
X65833476Y-59237523D01*
X65785856Y-59047047D01*
X65785856Y-58713714D01*
X65833476Y-58523238D01*
X65928714Y-58428000D01*
X66023952Y-58380380D01*
X67404904Y-59380380D02*
X66833476Y-59380380D01*
X67119190Y-59380380D02*
X67119190Y-58380380D01*
X67023952Y-58523238D01*
X66928714Y-58618476D01*
X66833476Y-58666095D01*
X67976333Y-58808952D02*
X67881095Y-58761333D01*
X67833476Y-58713714D01*
X67785856Y-58618476D01*
X67785856Y-58570857D01*
X67833476Y-58475619D01*
X67881095Y-58428000D01*
X67976333Y-58380380D01*
X68166809Y-58380380D01*
X68262047Y-58428000D01*
X68309666Y-58475619D01*
X68357285Y-58570857D01*
X68357285Y-58618476D01*
X68309666Y-58713714D01*
X68262047Y-58761333D01*
X68166809Y-58808952D01*
X67976333Y-58808952D01*
X67881095Y-58856571D01*
X67833476Y-58904190D01*
X67785856Y-58999428D01*
X67785856Y-59189904D01*
X67833476Y-59285142D01*
X67881095Y-59332761D01*
X67976333Y-59380380D01*
X68166809Y-59380380D01*
X68262047Y-59332761D01*
X68309666Y-59285142D01*
X68357285Y-59189904D01*
X68357285Y-58999428D01*
X68309666Y-58904190D01*
X68262047Y-58856571D01*
X68166809Y-58808952D01*
X63881095Y-55888000D02*
X63785857Y-55840380D01*
X63643000Y-55840380D01*
X63500143Y-55888000D01*
X63404905Y-55983238D01*
X63357286Y-56078476D01*
X63309666Y-56268952D01*
X63309666Y-56411809D01*
X63357286Y-56602285D01*
X63404905Y-56697523D01*
X63500143Y-56792761D01*
X63643000Y-56840380D01*
X63738238Y-56840380D01*
X63881095Y-56792761D01*
X63928714Y-56745142D01*
X63928714Y-56411809D01*
X63738238Y-56411809D01*
X64357286Y-56840380D02*
X64357286Y-55840380D01*
X64738238Y-55840380D01*
X64833476Y-55888000D01*
X64881095Y-55935619D01*
X64928714Y-56030857D01*
X64928714Y-56173714D01*
X64881095Y-56268952D01*
X64833476Y-56316571D01*
X64738238Y-56364190D01*
X64357286Y-56364190D01*
X65357286Y-56840380D02*
X65357286Y-55840380D01*
X66023952Y-55840380D02*
X66214428Y-55840380D01*
X66309666Y-55888000D01*
X66404905Y-55983238D01*
X66452524Y-56173714D01*
X66452524Y-56507047D01*
X66404905Y-56697523D01*
X66309666Y-56792761D01*
X66214428Y-56840380D01*
X66023952Y-56840380D01*
X65928714Y-56792761D01*
X65833476Y-56697523D01*
X65785857Y-56507047D01*
X65785857Y-56173714D01*
X65833476Y-55983238D01*
X65928714Y-55888000D01*
X66023952Y-55840380D01*
X67357286Y-55840380D02*
X66881095Y-55840380D01*
X66833476Y-56316571D01*
X66881095Y-56268952D01*
X66976333Y-56221333D01*
X67214428Y-56221333D01*
X67309666Y-56268952D01*
X67357286Y-56316571D01*
X67404905Y-56411809D01*
X67404905Y-56649904D01*
X67357286Y-56745142D01*
X67309666Y-56792761D01*
X67214428Y-56840380D01*
X66976333Y-56840380D01*
X66881095Y-56792761D01*
X66833476Y-56745142D01*
X63881095Y-50808000D02*
X63785856Y-50760380D01*
X63642999Y-50760380D01*
X63500142Y-50808000D01*
X63404904Y-50903238D01*
X63357285Y-50998476D01*
X63309666Y-51188952D01*
X63309666Y-51331809D01*
X63357285Y-51522285D01*
X63404904Y-51617523D01*
X63500142Y-51712761D01*
X63642999Y-51760380D01*
X63738237Y-51760380D01*
X63881095Y-51712761D01*
X63928714Y-51665142D01*
X63928714Y-51331809D01*
X63738237Y-51331809D01*
X64357285Y-51760380D02*
X64357285Y-50760380D01*
X64738237Y-50760380D01*
X64833476Y-50808000D01*
X64881095Y-50855619D01*
X64928714Y-50950857D01*
X64928714Y-51093714D01*
X64881095Y-51188952D01*
X64833476Y-51236571D01*
X64738237Y-51284190D01*
X64357285Y-51284190D01*
X65357285Y-51760380D02*
X65357285Y-50760380D01*
X66023952Y-50760380D02*
X66214428Y-50760380D01*
X66309666Y-50808000D01*
X66404904Y-50903238D01*
X66452523Y-51093714D01*
X66452523Y-51427047D01*
X66404904Y-51617523D01*
X66309666Y-51712761D01*
X66214428Y-51760380D01*
X66023952Y-51760380D01*
X65928714Y-51712761D01*
X65833476Y-51617523D01*
X65785856Y-51427047D01*
X65785856Y-51093714D01*
X65833476Y-50903238D01*
X65928714Y-50808000D01*
X66023952Y-50760380D01*
X67404904Y-51760380D02*
X66833476Y-51760380D01*
X67119190Y-51760380D02*
X67119190Y-50760380D01*
X67023952Y-50903238D01*
X66928714Y-50998476D01*
X66833476Y-51046095D01*
X68262047Y-50760380D02*
X68071571Y-50760380D01*
X67976333Y-50808000D01*
X67928714Y-50855619D01*
X67833476Y-50998476D01*
X67785856Y-51188952D01*
X67785856Y-51569904D01*
X67833476Y-51665142D01*
X67881095Y-51712761D01*
X67976333Y-51760380D01*
X68166809Y-51760380D01*
X68262047Y-51712761D01*
X68309666Y-51665142D01*
X68357285Y-51569904D01*
X68357285Y-51331809D01*
X68309666Y-51236571D01*
X68262047Y-51188952D01*
X68166809Y-51141333D01*
X67976333Y-51141333D01*
X67881095Y-51188952D01*
X67833476Y-51236571D01*
X67785856Y-51331809D01*
X63881095Y-53348000D02*
X63785856Y-53300380D01*
X63642999Y-53300380D01*
X63500142Y-53348000D01*
X63404904Y-53443238D01*
X63357285Y-53538476D01*
X63309666Y-53728952D01*
X63309666Y-53871809D01*
X63357285Y-54062285D01*
X63404904Y-54157523D01*
X63500142Y-54252761D01*
X63642999Y-54300380D01*
X63738237Y-54300380D01*
X63881095Y-54252761D01*
X63928714Y-54205142D01*
X63928714Y-53871809D01*
X63738237Y-53871809D01*
X64357285Y-54300380D02*
X64357285Y-53300380D01*
X64738237Y-53300380D01*
X64833476Y-53348000D01*
X64881095Y-53395619D01*
X64928714Y-53490857D01*
X64928714Y-53633714D01*
X64881095Y-53728952D01*
X64833476Y-53776571D01*
X64738237Y-53824190D01*
X64357285Y-53824190D01*
X65357285Y-54300380D02*
X65357285Y-53300380D01*
X66023952Y-53300380D02*
X66214428Y-53300380D01*
X66309666Y-53348000D01*
X66404904Y-53443238D01*
X66452523Y-53633714D01*
X66452523Y-53967047D01*
X66404904Y-54157523D01*
X66309666Y-54252761D01*
X66214428Y-54300380D01*
X66023952Y-54300380D01*
X65928714Y-54252761D01*
X65833476Y-54157523D01*
X65785856Y-53967047D01*
X65785856Y-53633714D01*
X65833476Y-53443238D01*
X65928714Y-53348000D01*
X66023952Y-53300380D01*
X67404904Y-54300380D02*
X66833476Y-54300380D01*
X67119190Y-54300380D02*
X67119190Y-53300380D01*
X67023952Y-53443238D01*
X66928714Y-53538476D01*
X66833476Y-53586095D01*
X67738237Y-53300380D02*
X68404904Y-53300380D01*
X67976333Y-54300380D01*
X77216143Y-63508000D02*
X77120904Y-63460380D01*
X76978047Y-63460380D01*
X76835190Y-63508000D01*
X76739952Y-63603238D01*
X76692333Y-63698476D01*
X76644714Y-63888952D01*
X76644714Y-64031809D01*
X76692333Y-64222285D01*
X76739952Y-64317523D01*
X76835190Y-64412761D01*
X76978047Y-64460380D01*
X77073285Y-64460380D01*
X77216143Y-64412761D01*
X77263762Y-64365142D01*
X77263762Y-64031809D01*
X77073285Y-64031809D01*
X77692333Y-64460380D02*
X77692333Y-63460380D01*
X78073285Y-63460380D01*
X78168524Y-63508000D01*
X78216143Y-63555619D01*
X78263762Y-63650857D01*
X78263762Y-63793714D01*
X78216143Y-63888952D01*
X78168524Y-63936571D01*
X78073285Y-63984190D01*
X77692333Y-63984190D01*
X78692333Y-64460380D02*
X78692333Y-63460380D01*
X79359000Y-63460380D02*
X79549476Y-63460380D01*
X79644714Y-63508000D01*
X79739952Y-63603238D01*
X79787571Y-63793714D01*
X79787571Y-64127047D01*
X79739952Y-64317523D01*
X79644714Y-64412761D01*
X79549476Y-64460380D01*
X79359000Y-64460380D01*
X79263762Y-64412761D01*
X79168524Y-64317523D01*
X79120904Y-64127047D01*
X79120904Y-63793714D01*
X79168524Y-63603238D01*
X79263762Y-63508000D01*
X79359000Y-63460380D01*
X80120904Y-63460380D02*
X80739952Y-63460380D01*
X80406619Y-63841333D01*
X80549476Y-63841333D01*
X80644714Y-63888952D01*
X80692333Y-63936571D01*
X80739952Y-64031809D01*
X80739952Y-64269904D01*
X80692333Y-64365142D01*
X80644714Y-64412761D01*
X80549476Y-64460380D01*
X80263762Y-64460380D01*
X80168524Y-64412761D01*
X80120904Y-64365142D01*
X81120904Y-63555619D02*
X81168524Y-63508000D01*
X81263762Y-63460380D01*
X81501857Y-63460380D01*
X81597095Y-63508000D01*
X81644714Y-63555619D01*
X81692333Y-63650857D01*
X81692333Y-63746095D01*
X81644714Y-63888952D01*
X81073285Y-64460380D01*
X81692333Y-64460380D01*
X77216143Y-60968000D02*
X77120904Y-60920380D01*
X76978047Y-60920380D01*
X76835190Y-60968000D01*
X76739952Y-61063238D01*
X76692333Y-61158476D01*
X76644714Y-61348952D01*
X76644714Y-61491809D01*
X76692333Y-61682285D01*
X76739952Y-61777523D01*
X76835190Y-61872761D01*
X76978047Y-61920380D01*
X77073285Y-61920380D01*
X77216143Y-61872761D01*
X77263762Y-61825142D01*
X77263762Y-61491809D01*
X77073285Y-61491809D01*
X77692333Y-61920380D02*
X77692333Y-60920380D01*
X78073285Y-60920380D01*
X78168524Y-60968000D01*
X78216143Y-61015619D01*
X78263762Y-61110857D01*
X78263762Y-61253714D01*
X78216143Y-61348952D01*
X78168524Y-61396571D01*
X78073285Y-61444190D01*
X77692333Y-61444190D01*
X78692333Y-61920380D02*
X78692333Y-60920380D01*
X79359000Y-60920380D02*
X79549476Y-60920380D01*
X79644714Y-60968000D01*
X79739952Y-61063238D01*
X79787571Y-61253714D01*
X79787571Y-61587047D01*
X79739952Y-61777523D01*
X79644714Y-61872761D01*
X79549476Y-61920380D01*
X79359000Y-61920380D01*
X79263762Y-61872761D01*
X79168524Y-61777523D01*
X79120904Y-61587047D01*
X79120904Y-61253714D01*
X79168524Y-61063238D01*
X79263762Y-60968000D01*
X79359000Y-60920380D01*
X80120904Y-60920380D02*
X80739952Y-60920380D01*
X80406619Y-61301333D01*
X80549476Y-61301333D01*
X80644714Y-61348952D01*
X80692333Y-61396571D01*
X80739952Y-61491809D01*
X80739952Y-61729904D01*
X80692333Y-61825142D01*
X80644714Y-61872761D01*
X80549476Y-61920380D01*
X80263762Y-61920380D01*
X80168524Y-61872761D01*
X80120904Y-61825142D01*
X81073285Y-60920380D02*
X81692333Y-60920380D01*
X81359000Y-61301333D01*
X81501857Y-61301333D01*
X81597095Y-61348952D01*
X81644714Y-61396571D01*
X81692333Y-61491809D01*
X81692333Y-61729904D01*
X81644714Y-61825142D01*
X81597095Y-61872761D01*
X81501857Y-61920380D01*
X81216143Y-61920380D01*
X81120904Y-61872761D01*
X81073285Y-61825142D01*
X77216143Y-58428000D02*
X77120904Y-58380380D01*
X76978047Y-58380380D01*
X76835190Y-58428000D01*
X76739952Y-58523238D01*
X76692333Y-58618476D01*
X76644714Y-58808952D01*
X76644714Y-58951809D01*
X76692333Y-59142285D01*
X76739952Y-59237523D01*
X76835190Y-59332761D01*
X76978047Y-59380380D01*
X77073285Y-59380380D01*
X77216143Y-59332761D01*
X77263762Y-59285142D01*
X77263762Y-58951809D01*
X77073285Y-58951809D01*
X77692333Y-59380380D02*
X77692333Y-58380380D01*
X78073285Y-58380380D01*
X78168524Y-58428000D01*
X78216143Y-58475619D01*
X78263762Y-58570857D01*
X78263762Y-58713714D01*
X78216143Y-58808952D01*
X78168524Y-58856571D01*
X78073285Y-58904190D01*
X77692333Y-58904190D01*
X78692333Y-59380380D02*
X78692333Y-58380380D01*
X79359000Y-58380380D02*
X79549476Y-58380380D01*
X79644714Y-58428000D01*
X79739952Y-58523238D01*
X79787571Y-58713714D01*
X79787571Y-59047047D01*
X79739952Y-59237523D01*
X79644714Y-59332761D01*
X79549476Y-59380380D01*
X79359000Y-59380380D01*
X79263762Y-59332761D01*
X79168524Y-59237523D01*
X79120904Y-59047047D01*
X79120904Y-58713714D01*
X79168524Y-58523238D01*
X79263762Y-58428000D01*
X79359000Y-58380380D01*
X80168524Y-58475619D02*
X80216143Y-58428000D01*
X80311381Y-58380380D01*
X80549476Y-58380380D01*
X80644714Y-58428000D01*
X80692333Y-58475619D01*
X80739952Y-58570857D01*
X80739952Y-58666095D01*
X80692333Y-58808952D01*
X80120904Y-59380380D01*
X80739952Y-59380380D01*
X81644714Y-58380380D02*
X81168524Y-58380380D01*
X81120904Y-58856571D01*
X81168524Y-58808952D01*
X81263762Y-58761333D01*
X81501857Y-58761333D01*
X81597095Y-58808952D01*
X81644714Y-58856571D01*
X81692333Y-58951809D01*
X81692333Y-59189904D01*
X81644714Y-59285142D01*
X81597095Y-59332761D01*
X81501857Y-59380380D01*
X81263762Y-59380380D01*
X81168524Y-59332761D01*
X81120904Y-59285142D01*
X77216143Y-55888000D02*
X77120904Y-55840380D01*
X76978047Y-55840380D01*
X76835190Y-55888000D01*
X76739952Y-55983238D01*
X76692333Y-56078476D01*
X76644714Y-56268952D01*
X76644714Y-56411809D01*
X76692333Y-56602285D01*
X76739952Y-56697523D01*
X76835190Y-56792761D01*
X76978047Y-56840380D01*
X77073285Y-56840380D01*
X77216143Y-56792761D01*
X77263762Y-56745142D01*
X77263762Y-56411809D01*
X77073285Y-56411809D01*
X77692333Y-56840380D02*
X77692333Y-55840380D01*
X78073285Y-55840380D01*
X78168524Y-55888000D01*
X78216143Y-55935619D01*
X78263762Y-56030857D01*
X78263762Y-56173714D01*
X78216143Y-56268952D01*
X78168524Y-56316571D01*
X78073285Y-56364190D01*
X77692333Y-56364190D01*
X78692333Y-56840380D02*
X78692333Y-55840380D01*
X79359000Y-55840380D02*
X79549476Y-55840380D01*
X79644714Y-55888000D01*
X79739952Y-55983238D01*
X79787571Y-56173714D01*
X79787571Y-56507047D01*
X79739952Y-56697523D01*
X79644714Y-56792761D01*
X79549476Y-56840380D01*
X79359000Y-56840380D01*
X79263762Y-56792761D01*
X79168524Y-56697523D01*
X79120904Y-56507047D01*
X79120904Y-56173714D01*
X79168524Y-55983238D01*
X79263762Y-55888000D01*
X79359000Y-55840380D01*
X80168524Y-55935619D02*
X80216143Y-55888000D01*
X80311381Y-55840380D01*
X80549476Y-55840380D01*
X80644714Y-55888000D01*
X80692333Y-55935619D01*
X80739952Y-56030857D01*
X80739952Y-56126095D01*
X80692333Y-56268952D01*
X80120904Y-56840380D01*
X80739952Y-56840380D01*
X81597095Y-55840380D02*
X81406619Y-55840380D01*
X81311381Y-55888000D01*
X81263762Y-55935619D01*
X81168524Y-56078476D01*
X81120904Y-56268952D01*
X81120904Y-56649904D01*
X81168524Y-56745142D01*
X81216143Y-56792761D01*
X81311381Y-56840380D01*
X81501857Y-56840380D01*
X81597095Y-56792761D01*
X81644714Y-56745142D01*
X81692333Y-56649904D01*
X81692333Y-56411809D01*
X81644714Y-56316571D01*
X81597095Y-56268952D01*
X81501857Y-56221333D01*
X81311381Y-56221333D01*
X81216143Y-56268952D01*
X81168524Y-56316571D01*
X81120904Y-56411809D01*
X77216143Y-53348000D02*
X77120904Y-53300380D01*
X76978047Y-53300380D01*
X76835190Y-53348000D01*
X76739952Y-53443238D01*
X76692333Y-53538476D01*
X76644714Y-53728952D01*
X76644714Y-53871809D01*
X76692333Y-54062285D01*
X76739952Y-54157523D01*
X76835190Y-54252761D01*
X76978047Y-54300380D01*
X77073285Y-54300380D01*
X77216143Y-54252761D01*
X77263762Y-54205142D01*
X77263762Y-53871809D01*
X77073285Y-53871809D01*
X77692333Y-54300380D02*
X77692333Y-53300380D01*
X78073285Y-53300380D01*
X78168524Y-53348000D01*
X78216143Y-53395619D01*
X78263762Y-53490857D01*
X78263762Y-53633714D01*
X78216143Y-53728952D01*
X78168524Y-53776571D01*
X78073285Y-53824190D01*
X77692333Y-53824190D01*
X78692333Y-54300380D02*
X78692333Y-53300380D01*
X79359000Y-53300380D02*
X79549476Y-53300380D01*
X79644714Y-53348000D01*
X79739952Y-53443238D01*
X79787571Y-53633714D01*
X79787571Y-53967047D01*
X79739952Y-54157523D01*
X79644714Y-54252761D01*
X79549476Y-54300380D01*
X79359000Y-54300380D01*
X79263762Y-54252761D01*
X79168524Y-54157523D01*
X79120904Y-53967047D01*
X79120904Y-53633714D01*
X79168524Y-53443238D01*
X79263762Y-53348000D01*
X79359000Y-53300380D01*
X80168524Y-53395619D02*
X80216143Y-53348000D01*
X80311381Y-53300380D01*
X80549476Y-53300380D01*
X80644714Y-53348000D01*
X80692333Y-53395619D01*
X80739952Y-53490857D01*
X80739952Y-53586095D01*
X80692333Y-53728952D01*
X80120904Y-54300380D01*
X80739952Y-54300380D01*
X81073285Y-53300380D02*
X81739952Y-53300380D01*
X81311381Y-54300380D01*
X77216143Y-50808000D02*
X77120904Y-50760380D01*
X76978047Y-50760380D01*
X76835190Y-50808000D01*
X76739952Y-50903238D01*
X76692333Y-50998476D01*
X76644714Y-51188952D01*
X76644714Y-51331809D01*
X76692333Y-51522285D01*
X76739952Y-51617523D01*
X76835190Y-51712761D01*
X76978047Y-51760380D01*
X77073285Y-51760380D01*
X77216143Y-51712761D01*
X77263762Y-51665142D01*
X77263762Y-51331809D01*
X77073285Y-51331809D01*
X77692333Y-51760380D02*
X77692333Y-50760380D01*
X78073285Y-50760380D01*
X78168524Y-50808000D01*
X78216143Y-50855619D01*
X78263762Y-50950857D01*
X78263762Y-51093714D01*
X78216143Y-51188952D01*
X78168524Y-51236571D01*
X78073285Y-51284190D01*
X77692333Y-51284190D01*
X78692333Y-51760380D02*
X78692333Y-50760380D01*
X79359000Y-50760380D02*
X79549476Y-50760380D01*
X79644714Y-50808000D01*
X79739952Y-50903238D01*
X79787571Y-51093714D01*
X79787571Y-51427047D01*
X79739952Y-51617523D01*
X79644714Y-51712761D01*
X79549476Y-51760380D01*
X79359000Y-51760380D01*
X79263762Y-51712761D01*
X79168524Y-51617523D01*
X79120904Y-51427047D01*
X79120904Y-51093714D01*
X79168524Y-50903238D01*
X79263762Y-50808000D01*
X79359000Y-50760380D01*
X80739952Y-51760380D02*
X80168524Y-51760380D01*
X80454238Y-51760380D02*
X80454238Y-50760380D01*
X80359000Y-50903238D01*
X80263762Y-50998476D01*
X80168524Y-51046095D01*
X81597095Y-51093714D02*
X81597095Y-51760380D01*
X81359000Y-50712761D02*
X81120904Y-51427047D01*
X81739952Y-51427047D01*
X77216143Y-48268000D02*
X77120904Y-48220380D01*
X76978047Y-48220380D01*
X76835190Y-48268000D01*
X76739952Y-48363238D01*
X76692333Y-48458476D01*
X76644714Y-48648952D01*
X76644714Y-48791809D01*
X76692333Y-48982285D01*
X76739952Y-49077523D01*
X76835190Y-49172761D01*
X76978047Y-49220380D01*
X77073285Y-49220380D01*
X77216143Y-49172761D01*
X77263762Y-49125142D01*
X77263762Y-48791809D01*
X77073285Y-48791809D01*
X77692333Y-49220380D02*
X77692333Y-48220380D01*
X78073285Y-48220380D01*
X78168524Y-48268000D01*
X78216143Y-48315619D01*
X78263762Y-48410857D01*
X78263762Y-48553714D01*
X78216143Y-48648952D01*
X78168524Y-48696571D01*
X78073285Y-48744190D01*
X77692333Y-48744190D01*
X78692333Y-49220380D02*
X78692333Y-48220380D01*
X79359000Y-48220380D02*
X79549476Y-48220380D01*
X79644714Y-48268000D01*
X79739952Y-48363238D01*
X79787571Y-48553714D01*
X79787571Y-48887047D01*
X79739952Y-49077523D01*
X79644714Y-49172761D01*
X79549476Y-49220380D01*
X79359000Y-49220380D01*
X79263762Y-49172761D01*
X79168524Y-49077523D01*
X79120904Y-48887047D01*
X79120904Y-48553714D01*
X79168524Y-48363238D01*
X79263762Y-48268000D01*
X79359000Y-48220380D01*
X80739952Y-49220380D02*
X80168524Y-49220380D01*
X80454238Y-49220380D02*
X80454238Y-48220380D01*
X80359000Y-48363238D01*
X80263762Y-48458476D01*
X80168524Y-48506095D01*
X81120904Y-48315619D02*
X81168524Y-48268000D01*
X81263762Y-48220380D01*
X81501857Y-48220380D01*
X81597095Y-48268000D01*
X81644714Y-48315619D01*
X81692333Y-48410857D01*
X81692333Y-48506095D01*
X81644714Y-48648952D01*
X81073285Y-49220380D01*
X81692333Y-49220380D01*
X77216143Y-43188000D02*
X77120904Y-43140380D01*
X76978047Y-43140380D01*
X76835190Y-43188000D01*
X76739952Y-43283238D01*
X76692333Y-43378476D01*
X76644714Y-43568952D01*
X76644714Y-43711809D01*
X76692333Y-43902285D01*
X76739952Y-43997523D01*
X76835190Y-44092761D01*
X76978047Y-44140380D01*
X77073285Y-44140380D01*
X77216143Y-44092761D01*
X77263762Y-44045142D01*
X77263762Y-43711809D01*
X77073285Y-43711809D01*
X77692333Y-44140380D02*
X77692333Y-43140380D01*
X78073285Y-43140380D01*
X78168524Y-43188000D01*
X78216143Y-43235619D01*
X78263762Y-43330857D01*
X78263762Y-43473714D01*
X78216143Y-43568952D01*
X78168524Y-43616571D01*
X78073285Y-43664190D01*
X77692333Y-43664190D01*
X78692333Y-44140380D02*
X78692333Y-43140380D01*
X79359000Y-43140380D02*
X79549476Y-43140380D01*
X79644714Y-43188000D01*
X79739952Y-43283238D01*
X79787571Y-43473714D01*
X79787571Y-43807047D01*
X79739952Y-43997523D01*
X79644714Y-44092761D01*
X79549476Y-44140380D01*
X79359000Y-44140380D01*
X79263762Y-44092761D01*
X79168524Y-43997523D01*
X79120904Y-43807047D01*
X79120904Y-43473714D01*
X79168524Y-43283238D01*
X79263762Y-43188000D01*
X79359000Y-43140380D01*
X80739952Y-44140380D02*
X80168524Y-44140380D01*
X80454238Y-44140380D02*
X80454238Y-43140380D01*
X80359000Y-43283238D01*
X80263762Y-43378476D01*
X80168524Y-43426095D01*
X81073285Y-43140380D02*
X81692333Y-43140380D01*
X81359000Y-43521333D01*
X81501857Y-43521333D01*
X81597095Y-43568952D01*
X81644714Y-43616571D01*
X81692333Y-43711809D01*
X81692333Y-43949904D01*
X81644714Y-44045142D01*
X81597095Y-44092761D01*
X81501857Y-44140380D01*
X81216143Y-44140380D01*
X81120904Y-44092761D01*
X81073285Y-44045142D01*
X79676619Y-45728000D02*
X79581381Y-45680380D01*
X79438524Y-45680380D01*
X79295666Y-45728000D01*
X79200428Y-45823238D01*
X79152809Y-45918476D01*
X79105190Y-46108952D01*
X79105190Y-46251809D01*
X79152809Y-46442285D01*
X79200428Y-46537523D01*
X79295666Y-46632761D01*
X79438524Y-46680380D01*
X79533762Y-46680380D01*
X79676619Y-46632761D01*
X79724238Y-46585142D01*
X79724238Y-46251809D01*
X79533762Y-46251809D01*
X80152809Y-46680380D02*
X80152809Y-45680380D01*
X80724238Y-46680380D01*
X80724238Y-45680380D01*
X81200428Y-46680380D02*
X81200428Y-45680380D01*
X81438524Y-45680380D01*
X81581381Y-45728000D01*
X81676619Y-45823238D01*
X81724238Y-45918476D01*
X81771857Y-46108952D01*
X81771857Y-46251809D01*
X81724238Y-46442285D01*
X81676619Y-46537523D01*
X81581381Y-46632761D01*
X81438524Y-46680380D01*
X81200428Y-46680380D01*
X78787571Y-78700380D02*
X79406619Y-78700380D01*
X79073285Y-79081333D01*
X79216142Y-79081333D01*
X79311381Y-79128952D01*
X79359000Y-79176571D01*
X79406619Y-79271809D01*
X79406619Y-79509904D01*
X79359000Y-79605142D01*
X79311381Y-79652761D01*
X79216142Y-79700380D01*
X78930428Y-79700380D01*
X78835190Y-79652761D01*
X78787571Y-79605142D01*
X79835190Y-79605142D02*
X79882809Y-79652761D01*
X79835190Y-79700380D01*
X79787571Y-79652761D01*
X79835190Y-79605142D01*
X79835190Y-79700380D01*
X80216142Y-78700380D02*
X80835190Y-78700380D01*
X80501857Y-79081333D01*
X80644714Y-79081333D01*
X80739952Y-79128952D01*
X80787571Y-79176571D01*
X80835190Y-79271809D01*
X80835190Y-79509904D01*
X80787571Y-79605142D01*
X80739952Y-79652761D01*
X80644714Y-79700380D01*
X80359000Y-79700380D01*
X80263762Y-79652761D01*
X80216142Y-79605142D01*
X81120904Y-78700380D02*
X81454238Y-79700380D01*
X81787571Y-78700380D01*
X63881095Y-78748000D02*
X63785857Y-78700380D01*
X63643000Y-78700380D01*
X63500142Y-78748000D01*
X63404904Y-78843238D01*
X63357285Y-78938476D01*
X63309666Y-79128952D01*
X63309666Y-79271809D01*
X63357285Y-79462285D01*
X63404904Y-79557523D01*
X63500142Y-79652761D01*
X63643000Y-79700380D01*
X63738238Y-79700380D01*
X63881095Y-79652761D01*
X63928714Y-79605142D01*
X63928714Y-79271809D01*
X63738238Y-79271809D01*
X64357285Y-79700380D02*
X64357285Y-78700380D01*
X64928714Y-79700380D01*
X64928714Y-78700380D01*
X65404904Y-79700380D02*
X65404904Y-78700380D01*
X65643000Y-78700380D01*
X65785857Y-78748000D01*
X65881095Y-78843238D01*
X65928714Y-78938476D01*
X65976333Y-79128952D01*
X65976333Y-79271809D01*
X65928714Y-79462285D01*
X65881095Y-79557523D01*
X65785857Y-79652761D01*
X65643000Y-79700380D01*
X65404904Y-79700380D01*
X63881095Y-63635000D02*
X63785857Y-63587380D01*
X63643000Y-63587380D01*
X63500142Y-63635000D01*
X63404904Y-63730238D01*
X63357285Y-63825476D01*
X63309666Y-64015952D01*
X63309666Y-64158809D01*
X63357285Y-64349285D01*
X63404904Y-64444523D01*
X63500142Y-64539761D01*
X63643000Y-64587380D01*
X63738238Y-64587380D01*
X63881095Y-64539761D01*
X63928714Y-64492142D01*
X63928714Y-64158809D01*
X63738238Y-64158809D01*
X64357285Y-64587380D02*
X64357285Y-63587380D01*
X64928714Y-64587380D01*
X64928714Y-63587380D01*
X65404904Y-64587380D02*
X65404904Y-63587380D01*
X65643000Y-63587380D01*
X65785857Y-63635000D01*
X65881095Y-63730238D01*
X65928714Y-63825476D01*
X65976333Y-64015952D01*
X65976333Y-64158809D01*
X65928714Y-64349285D01*
X65881095Y-64444523D01*
X65785857Y-64539761D01*
X65643000Y-64587380D01*
X65404904Y-64587380D01*
D12*
X59436000Y-146050000D02*
G75*
G02X58674000Y-145288000I0J762000D01*
G01*
X116840000Y-145288000D02*
G75*
G02X116078000Y-146050000I-762000J0D01*
G01*
X58674000Y-32004000D02*
G75*
G02X59436000Y-31242000I762000J0D01*
G01*
X58674000Y-145288000D02*
X58674000Y-32004000D01*
X116078000Y-146050000D02*
X59436000Y-146050000D01*
X116840000Y-31242000D02*
X116840000Y-145288000D01*
X59436000Y-31242000D02*
X116840000Y-31242000D01*
D11*
X112847380Y-51402928D02*
X111847380Y-51402928D01*
X112847380Y-50831500D02*
X112275952Y-51260071D01*
X111847380Y-50831500D02*
X112418809Y-51402928D01*
X112323571Y-50402928D02*
X112323571Y-50069595D01*
X112847380Y-49926738D02*
X112847380Y-50402928D01*
X111847380Y-50402928D01*
X111847380Y-49926738D01*
X112371190Y-49307690D02*
X112847380Y-49307690D01*
X111847380Y-49641023D02*
X112371190Y-49307690D01*
X111847380Y-48974357D01*
X112847380Y-48641023D02*
X111847380Y-48641023D01*
X111847380Y-48260071D01*
X111895000Y-48164833D01*
X111942619Y-48117214D01*
X112037857Y-48069595D01*
X112180714Y-48069595D01*
X112275952Y-48117214D01*
X112323571Y-48164833D01*
X112371190Y-48260071D01*
X112371190Y-48641023D01*
X112561666Y-47688642D02*
X112561666Y-47212452D01*
X112847380Y-47783880D02*
X111847380Y-47450547D01*
X112847380Y-47117214D01*
X112847380Y-46783880D02*
X111847380Y-46783880D01*
X111847380Y-46545785D01*
X111895000Y-46402928D01*
X111990238Y-46307690D01*
X112085476Y-46260071D01*
X112275952Y-46212452D01*
X112418809Y-46212452D01*
X112609285Y-46260071D01*
X112704523Y-46307690D01*
X112799761Y-46402928D01*
X112847380Y-46545785D01*
X112847380Y-46783880D01*
D10*
X113830176Y-111741000D02*
X113753985Y-111702904D01*
X113639700Y-111702904D01*
X113525414Y-111741000D01*
X113449223Y-111817190D01*
X113411128Y-111893380D01*
X113373033Y-112045761D01*
X113373033Y-112160047D01*
X113411128Y-112312428D01*
X113449223Y-112388619D01*
X113525414Y-112464809D01*
X113639700Y-112502904D01*
X113715890Y-112502904D01*
X113830176Y-112464809D01*
X113868271Y-112426714D01*
X113868271Y-112160047D01*
X113715890Y-112160047D01*
X114211128Y-112502904D02*
X114211128Y-111702904D01*
X114668271Y-112502904D01*
X114668271Y-111702904D01*
X115049223Y-112502904D02*
X115049223Y-111702904D01*
X115239700Y-111702904D01*
X115353985Y-111741000D01*
X115430176Y-111817190D01*
X115468271Y-111893380D01*
X115506366Y-112045761D01*
X115506366Y-112160047D01*
X115468271Y-112312428D01*
X115430176Y-112388619D01*
X115353985Y-112464809D01*
X115239700Y-112502904D01*
X115049223Y-112502904D01*
X113284128Y-104451142D02*
X113893652Y-104451142D01*
X113588890Y-104755904D02*
X113588890Y-104146380D01*
X114198414Y-103955904D02*
X114693652Y-103955904D01*
X114426985Y-104260666D01*
X114541271Y-104260666D01*
X114617461Y-104298761D01*
X114655557Y-104336857D01*
X114693652Y-104413047D01*
X114693652Y-104603523D01*
X114655557Y-104679714D01*
X114617461Y-104717809D01*
X114541271Y-104755904D01*
X114312700Y-104755904D01*
X114236509Y-104717809D01*
X114198414Y-104679714D01*
X114922223Y-103955904D02*
X115188890Y-104755904D01*
X115455557Y-103955904D01*
X113830176Y-89008000D02*
X113753985Y-88969904D01*
X113639700Y-88969904D01*
X113525414Y-89008000D01*
X113449223Y-89084190D01*
X113411128Y-89160380D01*
X113373033Y-89312761D01*
X113373033Y-89427047D01*
X113411128Y-89579428D01*
X113449223Y-89655619D01*
X113525414Y-89731809D01*
X113639700Y-89769904D01*
X113715890Y-89769904D01*
X113830176Y-89731809D01*
X113868271Y-89693714D01*
X113868271Y-89427047D01*
X113715890Y-89427047D01*
X114211128Y-89769904D02*
X114211128Y-88969904D01*
X114668271Y-89769904D01*
X114668271Y-88969904D01*
X115049223Y-89769904D02*
X115049223Y-88969904D01*
X115239700Y-88969904D01*
X115353985Y-89008000D01*
X115430176Y-89084190D01*
X115468271Y-89160380D01*
X115506366Y-89312761D01*
X115506366Y-89427047D01*
X115468271Y-89579428D01*
X115430176Y-89655619D01*
X115353985Y-89731809D01*
X115239700Y-89769904D01*
X115049223Y-89769904D01*
X113284128Y-81845142D02*
X113893652Y-81845142D01*
X113588890Y-82149904D02*
X113588890Y-81540380D01*
X114198414Y-81349904D02*
X114693652Y-81349904D01*
X114426985Y-81654666D01*
X114541271Y-81654666D01*
X114617461Y-81692761D01*
X114655557Y-81730857D01*
X114693652Y-81807047D01*
X114693652Y-81997523D01*
X114655557Y-82073714D01*
X114617461Y-82111809D01*
X114541271Y-82149904D01*
X114312700Y-82149904D01*
X114236509Y-82111809D01*
X114198414Y-82073714D01*
X114922223Y-81349904D02*
X115188890Y-82149904D01*
X115455557Y-81349904D01*
X113830176Y-68053000D02*
X113753985Y-68014904D01*
X113639700Y-68014904D01*
X113525414Y-68053000D01*
X113449223Y-68129190D01*
X113411128Y-68205380D01*
X113373033Y-68357761D01*
X113373033Y-68472047D01*
X113411128Y-68624428D01*
X113449223Y-68700619D01*
X113525414Y-68776809D01*
X113639700Y-68814904D01*
X113715890Y-68814904D01*
X113830176Y-68776809D01*
X113868271Y-68738714D01*
X113868271Y-68472047D01*
X113715890Y-68472047D01*
X114211128Y-68814904D02*
X114211128Y-68014904D01*
X114668271Y-68814904D01*
X114668271Y-68014904D01*
X115049223Y-68814904D02*
X115049223Y-68014904D01*
X115239700Y-68014904D01*
X115353985Y-68053000D01*
X115430176Y-68129190D01*
X115468271Y-68205380D01*
X115506366Y-68357761D01*
X115506366Y-68472047D01*
X115468271Y-68624428D01*
X115430176Y-68700619D01*
X115353985Y-68776809D01*
X115239700Y-68814904D01*
X115049223Y-68814904D01*
X113284128Y-61017142D02*
X113893652Y-61017142D01*
X113588890Y-61321904D02*
X113588890Y-60712380D01*
X114198414Y-60521904D02*
X114693652Y-60521904D01*
X114426985Y-60826666D01*
X114541271Y-60826666D01*
X114617461Y-60864761D01*
X114655557Y-60902857D01*
X114693652Y-60979047D01*
X114693652Y-61169523D01*
X114655557Y-61245714D01*
X114617461Y-61283809D01*
X114541271Y-61321904D01*
X114312700Y-61321904D01*
X114236509Y-61283809D01*
X114198414Y-61245714D01*
X114922223Y-60521904D02*
X115188890Y-61321904D01*
X115455557Y-60521904D01*
X87884128Y-104451142D02*
X88493652Y-104451142D01*
X88188890Y-104755904D02*
X88188890Y-104146380D01*
X89255557Y-103955904D02*
X88874604Y-103955904D01*
X88836509Y-104336857D01*
X88874604Y-104298761D01*
X88950795Y-104260666D01*
X89141271Y-104260666D01*
X89217461Y-104298761D01*
X89255557Y-104336857D01*
X89293652Y-104413047D01*
X89293652Y-104603523D01*
X89255557Y-104679714D01*
X89217461Y-104717809D01*
X89141271Y-104755904D01*
X88950795Y-104755904D01*
X88874604Y-104717809D01*
X88836509Y-104679714D01*
X89522223Y-103955904D02*
X89788890Y-104755904D01*
X90055557Y-103955904D01*
X88303176Y-111741000D02*
X88226985Y-111702904D01*
X88112700Y-111702904D01*
X87998414Y-111741000D01*
X87922223Y-111817190D01*
X87884128Y-111893380D01*
X87846033Y-112045761D01*
X87846033Y-112160047D01*
X87884128Y-112312428D01*
X87922223Y-112388619D01*
X87998414Y-112464809D01*
X88112700Y-112502904D01*
X88188890Y-112502904D01*
X88303176Y-112464809D01*
X88341271Y-112426714D01*
X88341271Y-112160047D01*
X88188890Y-112160047D01*
X88684128Y-112502904D02*
X88684128Y-111702904D01*
X89141271Y-112502904D01*
X89141271Y-111702904D01*
X89522223Y-112502904D02*
X89522223Y-111702904D01*
X89712700Y-111702904D01*
X89826985Y-111741000D01*
X89903176Y-111817190D01*
X89941271Y-111893380D01*
X89979366Y-112045761D01*
X89979366Y-112160047D01*
X89941271Y-112312428D01*
X89903176Y-112388619D01*
X89826985Y-112464809D01*
X89712700Y-112502904D01*
X89522223Y-112502904D01*
X88303176Y-89008000D02*
X88226985Y-88969904D01*
X88112700Y-88969904D01*
X87998414Y-89008000D01*
X87922223Y-89084190D01*
X87884128Y-89160380D01*
X87846033Y-89312761D01*
X87846033Y-89427047D01*
X87884128Y-89579428D01*
X87922223Y-89655619D01*
X87998414Y-89731809D01*
X88112700Y-89769904D01*
X88188890Y-89769904D01*
X88303176Y-89731809D01*
X88341271Y-89693714D01*
X88341271Y-89427047D01*
X88188890Y-89427047D01*
X88684128Y-89769904D02*
X88684128Y-88969904D01*
X89141271Y-89769904D01*
X89141271Y-88969904D01*
X89522223Y-89769904D02*
X89522223Y-88969904D01*
X89712700Y-88969904D01*
X89826985Y-89008000D01*
X89903176Y-89084190D01*
X89941271Y-89160380D01*
X89979366Y-89312761D01*
X89979366Y-89427047D01*
X89941271Y-89579428D01*
X89903176Y-89655619D01*
X89826985Y-89731809D01*
X89712700Y-89769904D01*
X89522223Y-89769904D01*
X88011128Y-81845142D02*
X88620652Y-81845142D01*
X88315890Y-82149904D02*
X88315890Y-81540380D01*
X89382557Y-81349904D02*
X89001604Y-81349904D01*
X88963509Y-81730857D01*
X89001604Y-81692761D01*
X89077795Y-81654666D01*
X89268271Y-81654666D01*
X89344461Y-81692761D01*
X89382557Y-81730857D01*
X89420652Y-81807047D01*
X89420652Y-81997523D01*
X89382557Y-82073714D01*
X89344461Y-82111809D01*
X89268271Y-82149904D01*
X89077795Y-82149904D01*
X89001604Y-82111809D01*
X88963509Y-82073714D01*
X89649223Y-81349904D02*
X89915890Y-82149904D01*
X90182557Y-81349904D01*
X88303176Y-68053000D02*
X88226985Y-68014904D01*
X88112700Y-68014904D01*
X87998414Y-68053000D01*
X87922223Y-68129190D01*
X87884128Y-68205380D01*
X87846033Y-68357761D01*
X87846033Y-68472047D01*
X87884128Y-68624428D01*
X87922223Y-68700619D01*
X87998414Y-68776809D01*
X88112700Y-68814904D01*
X88188890Y-68814904D01*
X88303176Y-68776809D01*
X88341271Y-68738714D01*
X88341271Y-68472047D01*
X88188890Y-68472047D01*
X88684128Y-68814904D02*
X88684128Y-68014904D01*
X89141271Y-68814904D01*
X89141271Y-68014904D01*
X89522223Y-68814904D02*
X89522223Y-68014904D01*
X89712700Y-68014904D01*
X89826985Y-68053000D01*
X89903176Y-68129190D01*
X89941271Y-68205380D01*
X89979366Y-68357761D01*
X89979366Y-68472047D01*
X89941271Y-68624428D01*
X89903176Y-68700619D01*
X89826985Y-68776809D01*
X89712700Y-68814904D01*
X89522223Y-68814904D01*
X88011128Y-60890142D02*
X88620652Y-60890142D01*
X88315890Y-61194904D02*
X88315890Y-60585380D01*
X89382557Y-60394904D02*
X89001604Y-60394904D01*
X88963509Y-60775857D01*
X89001604Y-60737761D01*
X89077795Y-60699666D01*
X89268271Y-60699666D01*
X89344461Y-60737761D01*
X89382557Y-60775857D01*
X89420652Y-60852047D01*
X89420652Y-61042523D01*
X89382557Y-61118714D01*
X89344461Y-61156809D01*
X89268271Y-61194904D01*
X89077795Y-61194904D01*
X89001604Y-61156809D01*
X88963509Y-61118714D01*
X89649223Y-60394904D02*
X89915890Y-61194904D01*
X90182557Y-60394904D01*
D13*
X59900428Y-98056785D02*
X61400428Y-98056785D01*
X61400428Y-98413928D01*
X61329000Y-98628214D01*
X61186142Y-98771071D01*
X61043285Y-98842500D01*
X60757571Y-98913928D01*
X60543285Y-98913928D01*
X60257571Y-98842500D01*
X60114714Y-98771071D01*
X59971857Y-98628214D01*
X59900428Y-98413928D01*
X59900428Y-98056785D01*
X59900428Y-99556785D02*
X60900428Y-99556785D01*
X61400428Y-99556785D02*
X61329000Y-99485357D01*
X61257571Y-99556785D01*
X61329000Y-99628214D01*
X61400428Y-99556785D01*
X61257571Y-99556785D01*
X59971857Y-100842500D02*
X59900428Y-100699642D01*
X59900428Y-100413928D01*
X59971857Y-100271071D01*
X60114714Y-100199642D01*
X60686142Y-100199642D01*
X60829000Y-100271071D01*
X60900428Y-100413928D01*
X60900428Y-100699642D01*
X60829000Y-100842500D01*
X60686142Y-100913928D01*
X60543285Y-100913928D01*
X60400428Y-100199642D01*
X60900428Y-102199642D02*
X59686142Y-102199642D01*
X59543285Y-102128214D01*
X59471857Y-102056785D01*
X59400428Y-101913928D01*
X59400428Y-101699642D01*
X59471857Y-101556785D01*
X59971857Y-102199642D02*
X59900428Y-102056785D01*
X59900428Y-101771071D01*
X59971857Y-101628214D01*
X60043285Y-101556785D01*
X60186142Y-101485357D01*
X60614714Y-101485357D01*
X60757571Y-101556785D01*
X60829000Y-101628214D01*
X60900428Y-101771071D01*
X60900428Y-102056785D01*
X60829000Y-102199642D01*
X59900428Y-103128214D02*
X59971857Y-102985357D01*
X60043285Y-102913928D01*
X60186142Y-102842500D01*
X60614714Y-102842500D01*
X60757571Y-102913928D01*
X60829000Y-102985357D01*
X60900428Y-103128214D01*
X60900428Y-103342500D01*
X60829000Y-103485357D01*
X60757571Y-103556785D01*
X60614714Y-103628214D01*
X60186142Y-103628214D01*
X60043285Y-103556785D01*
X59971857Y-103485357D01*
X59900428Y-103342500D01*
X59900428Y-103128214D01*
X59900428Y-106271071D02*
X60614714Y-105771071D01*
X59900428Y-105413928D02*
X61400428Y-105413928D01*
X61400428Y-105985357D01*
X61329000Y-106128214D01*
X61257571Y-106199642D01*
X61114714Y-106271071D01*
X60900428Y-106271071D01*
X60757571Y-106199642D01*
X60686142Y-106128214D01*
X60614714Y-105985357D01*
X60614714Y-105413928D01*
X59900428Y-107556785D02*
X60686142Y-107556785D01*
X60829000Y-107485357D01*
X60900428Y-107342500D01*
X60900428Y-107056785D01*
X60829000Y-106913928D01*
X59971857Y-107556785D02*
X59900428Y-107413928D01*
X59900428Y-107056785D01*
X59971857Y-106913928D01*
X60114714Y-106842500D01*
X60257571Y-106842500D01*
X60400428Y-106913928D01*
X60471857Y-107056785D01*
X60471857Y-107413928D01*
X60543285Y-107556785D01*
X59900428Y-108271071D02*
X60900428Y-108271071D01*
X60757571Y-108271071D02*
X60829000Y-108342500D01*
X60900428Y-108485357D01*
X60900428Y-108699642D01*
X60829000Y-108842500D01*
X60686142Y-108913928D01*
X59900428Y-108913928D01*
X60686142Y-108913928D02*
X60829000Y-108985357D01*
X60900428Y-109128214D01*
X60900428Y-109342500D01*
X60829000Y-109485357D01*
X60686142Y-109556785D01*
X59900428Y-109556785D01*
X59900428Y-110485357D02*
X59971857Y-110342500D01*
X60043285Y-110271071D01*
X60186142Y-110199642D01*
X60614714Y-110199642D01*
X60757571Y-110271071D01*
X60829000Y-110342500D01*
X60900428Y-110485357D01*
X60900428Y-110699642D01*
X60829000Y-110842500D01*
X60757571Y-110913928D01*
X60614714Y-110985357D01*
X60186142Y-110985357D01*
X60043285Y-110913928D01*
X59971857Y-110842500D01*
X59900428Y-110699642D01*
X59900428Y-110485357D01*
X59971857Y-111556785D02*
X59900428Y-111699642D01*
X59900428Y-111985357D01*
X59971857Y-112128214D01*
X60114714Y-112199642D01*
X60186142Y-112199642D01*
X60329000Y-112128214D01*
X60400428Y-111985357D01*
X60400428Y-111771071D01*
X60471857Y-111628214D01*
X60614714Y-111556785D01*
X60686142Y-111556785D01*
X60829000Y-111628214D01*
X60900428Y-111771071D01*
X60900428Y-111985357D01*
X60829000Y-112128214D01*
D10*
X81000714Y-131235404D02*
X81000714Y-130435404D01*
X81381666Y-131235404D02*
X81381666Y-130435404D01*
X81838809Y-131235404D01*
X81838809Y-130435404D01*
X82219761Y-130930642D02*
X82829285Y-130930642D01*
X60553714Y-131235404D02*
X60553714Y-130435404D01*
X60934666Y-131235404D02*
X60934666Y-130435404D01*
X61391809Y-131235404D01*
X61391809Y-130435404D01*
X61772761Y-130930642D02*
X62382285Y-130930642D01*
X62077523Y-131235404D02*
X62077523Y-130625880D01*
X80683261Y-84969404D02*
X80835642Y-84969404D01*
X80911833Y-85007500D01*
X80988023Y-85083690D01*
X81026119Y-85236071D01*
X81026119Y-85502738D01*
X80988023Y-85655119D01*
X80911833Y-85731309D01*
X80835642Y-85769404D01*
X80683261Y-85769404D01*
X80607071Y-85731309D01*
X80530880Y-85655119D01*
X80492785Y-85502738D01*
X80492785Y-85236071D01*
X80530880Y-85083690D01*
X80607071Y-85007500D01*
X80683261Y-84969404D01*
X81368976Y-84969404D02*
X81368976Y-85617023D01*
X81407071Y-85693214D01*
X81445166Y-85731309D01*
X81521357Y-85769404D01*
X81673738Y-85769404D01*
X81749928Y-85731309D01*
X81788023Y-85693214D01*
X81826119Y-85617023D01*
X81826119Y-84969404D01*
X82092785Y-84969404D02*
X82549928Y-84969404D01*
X82321357Y-85769404D02*
X82321357Y-84969404D01*
X82816595Y-85464642D02*
X83426119Y-85464642D01*
X60490261Y-84969404D02*
X60642642Y-84969404D01*
X60718833Y-85007500D01*
X60795023Y-85083690D01*
X60833119Y-85236071D01*
X60833119Y-85502738D01*
X60795023Y-85655119D01*
X60718833Y-85731309D01*
X60642642Y-85769404D01*
X60490261Y-85769404D01*
X60414071Y-85731309D01*
X60337880Y-85655119D01*
X60299785Y-85502738D01*
X60299785Y-85236071D01*
X60337880Y-85083690D01*
X60414071Y-85007500D01*
X60490261Y-84969404D01*
X61175976Y-84969404D02*
X61175976Y-85617023D01*
X61214071Y-85693214D01*
X61252166Y-85731309D01*
X61328357Y-85769404D01*
X61480738Y-85769404D01*
X61556928Y-85731309D01*
X61595023Y-85693214D01*
X61633119Y-85617023D01*
X61633119Y-84969404D01*
X61899785Y-84969404D02*
X62356928Y-84969404D01*
X62128357Y-85769404D02*
X62128357Y-84969404D01*
X62623595Y-85464642D02*
X63233119Y-85464642D01*
X62928357Y-85769404D02*
X62928357Y-85159880D01*
D14*
X64893500Y-145602000D02*
X62293500Y-145602000D01*
X64893500Y-145602000D02*
X64893500Y-137862000D01*
X64893500Y-137862000D02*
X59693500Y-137862000D01*
X59693500Y-143002000D02*
X59693500Y-137862000D01*
X62293500Y-143002000D02*
X59693500Y-143002000D01*
X62293500Y-145602000D02*
X62293500Y-143002000D01*
X59693500Y-145602000D02*
X59693500Y-144272000D01*
X61023500Y-145602000D02*
X59693500Y-145602000D01*
X113257000Y-135509000D02*
G75*
G03X113257000Y-135509000I-1370000J0D01*
G01*
X113257000Y-135509000D02*
X113327000Y-135509000D01*
X88961535Y-138722100D02*
G75*
G03X88961535Y-138722100I-1750635J0D01*
G01*
X87210900Y-140472735D02*
X87210900Y-142402100D01*
X114637500Y-141343912D02*
X114637500Y-140098100D01*
X110118414Y-140090044D02*
G75*
G02X114332184Y-140563100I1959086J-1553056D01*
G01*
X109686166Y-139848213D02*
G75*
G02X114637500Y-140098270I2391334J-1794887D01*
G01*
X109100664Y-141901316D02*
G75*
G03X114462500Y-143443100I2976836J258216D01*
G01*
X109597410Y-141929521D02*
G75*
G03X113830099Y-143421099I2480090J286421D01*
G01*
X90481200Y-140573500D02*
X90481200Y-142073500D01*
X91731200Y-144573500D02*
X96231200Y-144573500D01*
X97481200Y-142073500D02*
X97481200Y-140573500D01*
X96231200Y-138073500D02*
X91731200Y-138073500D01*
X105870500Y-138073500D02*
X101370500Y-138073500D01*
X107120500Y-142073500D02*
X107120500Y-140573500D01*
X101370500Y-144573500D02*
X105870500Y-144573500D01*
X100120500Y-140573500D02*
X100120500Y-142073500D01*
X75986000Y-142970000D02*
X65746000Y-142970000D01*
X75986000Y-138329000D02*
X65746000Y-138329000D01*
X75986000Y-142970000D02*
X75986000Y-138329000D01*
X65746000Y-142970000D02*
X65746000Y-138329000D01*
X75986000Y-141460000D02*
X65746000Y-141460000D01*
X72716000Y-142970000D02*
X72716000Y-141460000D01*
X69015000Y-142970000D02*
X69015000Y-141460000D01*
D12*
X61023666Y-137183761D02*
X61166523Y-137231380D01*
X61404619Y-137231380D01*
X61499857Y-137183761D01*
X61547476Y-137136142D01*
X61595095Y-137040904D01*
X61595095Y-136945666D01*
X61547476Y-136850428D01*
X61499857Y-136802809D01*
X61404619Y-136755190D01*
X61214142Y-136707571D01*
X61118904Y-136659952D01*
X61071285Y-136612333D01*
X61023666Y-136517095D01*
X61023666Y-136421857D01*
X61071285Y-136326619D01*
X61118904Y-136279000D01*
X61214142Y-136231380D01*
X61452238Y-136231380D01*
X61595095Y-136279000D01*
X61928428Y-136231380D02*
X62166523Y-137231380D01*
X62357000Y-136517095D01*
X62547476Y-137231380D01*
X62785571Y-136231380D01*
X63690333Y-137231380D02*
X63118904Y-137231380D01*
X63404619Y-137231380D02*
X63404619Y-136231380D01*
X63309380Y-136374238D01*
X63214142Y-136469476D01*
X63118904Y-136517095D01*
X112990333Y-133484880D02*
X112657000Y-133008690D01*
X112418904Y-133484880D02*
X112418904Y-132484880D01*
X112799857Y-132484880D01*
X112895095Y-132532500D01*
X112942714Y-132580119D01*
X112990333Y-132675357D01*
X112990333Y-132818214D01*
X112942714Y-132913452D01*
X112895095Y-132961071D01*
X112799857Y-133008690D01*
X112418904Y-133008690D01*
X113371285Y-132580119D02*
X113418904Y-132532500D01*
X113514142Y-132484880D01*
X113752238Y-132484880D01*
X113847476Y-132532500D01*
X113895095Y-132580119D01*
X113942714Y-132675357D01*
X113942714Y-132770595D01*
X113895095Y-132913452D01*
X113323666Y-133484880D01*
X113942714Y-133484880D01*
X88590380Y-141962095D02*
X87590380Y-141962095D01*
X87590380Y-141724000D01*
X87638000Y-141581142D01*
X87733238Y-141485904D01*
X87828476Y-141438285D01*
X88018952Y-141390666D01*
X88161809Y-141390666D01*
X88352285Y-141438285D01*
X88447523Y-141485904D01*
X88542761Y-141581142D01*
X88590380Y-141724000D01*
X88590380Y-141962095D01*
X88590380Y-140438285D02*
X88590380Y-141009714D01*
X88590380Y-140724000D02*
X87590380Y-140724000D01*
X87733238Y-140819238D01*
X87828476Y-140914476D01*
X87876095Y-141009714D01*
X111275904Y-138120380D02*
X111275904Y-137120380D01*
X111514000Y-137120380D01*
X111656857Y-137168000D01*
X111752095Y-137263238D01*
X111799714Y-137358476D01*
X111847333Y-137548952D01*
X111847333Y-137691809D01*
X111799714Y-137882285D01*
X111752095Y-137977523D01*
X111656857Y-138072761D01*
X111514000Y-138120380D01*
X111275904Y-138120380D01*
X112228285Y-137215619D02*
X112275904Y-137168000D01*
X112371142Y-137120380D01*
X112609238Y-137120380D01*
X112704476Y-137168000D01*
X112752095Y-137215619D01*
X112799714Y-137310857D01*
X112799714Y-137406095D01*
X112752095Y-137548952D01*
X112180666Y-138120380D01*
X112799714Y-138120380D01*
X93370566Y-137336161D02*
X93513423Y-137383780D01*
X93751519Y-137383780D01*
X93846757Y-137336161D01*
X93894376Y-137288542D01*
X93941995Y-137193304D01*
X93941995Y-137098066D01*
X93894376Y-137002828D01*
X93846757Y-136955209D01*
X93751519Y-136907590D01*
X93561042Y-136859971D01*
X93465804Y-136812352D01*
X93418185Y-136764733D01*
X93370566Y-136669495D01*
X93370566Y-136574257D01*
X93418185Y-136479019D01*
X93465804Y-136431400D01*
X93561042Y-136383780D01*
X93799138Y-136383780D01*
X93941995Y-136431400D01*
X94275328Y-136383780D02*
X94513423Y-137383780D01*
X94703900Y-136669495D01*
X94894376Y-137383780D01*
X95132471Y-136383780D01*
X95418185Y-136383780D02*
X96037233Y-136383780D01*
X95703900Y-136764733D01*
X95846757Y-136764733D01*
X95941995Y-136812352D01*
X95989614Y-136859971D01*
X96037233Y-136955209D01*
X96037233Y-137193304D01*
X95989614Y-137288542D01*
X95941995Y-137336161D01*
X95846757Y-137383780D01*
X95561042Y-137383780D01*
X95465804Y-137336161D01*
X95418185Y-137288542D01*
X102222466Y-137310761D02*
X102365323Y-137358380D01*
X102603419Y-137358380D01*
X102698657Y-137310761D01*
X102746276Y-137263142D01*
X102793895Y-137167904D01*
X102793895Y-137072666D01*
X102746276Y-136977428D01*
X102698657Y-136929809D01*
X102603419Y-136882190D01*
X102412942Y-136834571D01*
X102317704Y-136786952D01*
X102270085Y-136739333D01*
X102222466Y-136644095D01*
X102222466Y-136548857D01*
X102270085Y-136453619D01*
X102317704Y-136406000D01*
X102412942Y-136358380D01*
X102651038Y-136358380D01*
X102793895Y-136406000D01*
X103127228Y-136358380D02*
X103365323Y-137358380D01*
X103555800Y-136644095D01*
X103746276Y-137358380D01*
X103984371Y-136358380D01*
X104317704Y-136453619D02*
X104365323Y-136406000D01*
X104460561Y-136358380D01*
X104698657Y-136358380D01*
X104793895Y-136406000D01*
X104841514Y-136453619D01*
X104889133Y-136548857D01*
X104889133Y-136644095D01*
X104841514Y-136786952D01*
X104270085Y-137358380D01*
X104889133Y-137358380D01*
X69564261Y-138088619D02*
X69469023Y-138041000D01*
X69373785Y-137945761D01*
X69230928Y-137802904D01*
X69135690Y-137755285D01*
X69040452Y-137755285D01*
X69088071Y-137993380D02*
X68992833Y-137945761D01*
X68897595Y-137850523D01*
X68849976Y-137660047D01*
X68849976Y-137326714D01*
X68897595Y-137136238D01*
X68992833Y-137041000D01*
X69088071Y-136993380D01*
X69278547Y-136993380D01*
X69373785Y-137041000D01*
X69469023Y-137136238D01*
X69516642Y-137326714D01*
X69516642Y-137660047D01*
X69469023Y-137850523D01*
X69373785Y-137945761D01*
X69278547Y-137993380D01*
X69088071Y-137993380D01*
X70469023Y-137993380D02*
X69897595Y-137993380D01*
X70183309Y-137993380D02*
X70183309Y-136993380D01*
X70088071Y-137136238D01*
X69992833Y-137231476D01*
X69897595Y-137279095D01*
M02*
