%TF.GenerationSoftware,KiCad,Pcbnew,(5.0.2)-1*%
%TF.CreationDate,2019-03-22T12:12:08-04:00*%
%TF.ProjectId,Door_Lock,446f6f72-5f4c-46f6-936b-2e6b69636164,rev?*%
%TF.SameCoordinates,Original*%
%TF.FileFunction,Copper,L2,Bot*%
%TF.FilePolarity,Positive*%
%FSLAX46Y46*%
G04 Gerber Fmt 4.6, Leading zero omitted, Abs format (unit mm)*
G04 Created by KiCad (PCBNEW (5.0.2)-1) date 3/22/2019 12:12:08 PM*
%MOMM*%
%LPD*%
G01*
G04 APERTURE LIST*
%ADD10C,0.150000*%
%ADD11C,1.600000*%
%ADD12O,1.600000X1.600000*%
%ADD13R,1.700000X1.700000*%
%ADD14O,1.700000X1.700000*%
%ADD15C,1.700000*%
%ADD16R,1.000000X3.500000*%
%ADD17R,1.500000X3.400000*%
%ADD18R,2.200000X2.200000*%
%ADD19O,2.200000X2.200000*%
%ADD20C,1.800000*%
%ADD21C,0.100000*%
%ADD22C,2.000000*%
%ADD23R,1.905000X2.000000*%
%ADD24O,1.905000X2.000000*%
%ADD25C,0.800000*%
%ADD26C,0.800000*%
%ADD27C,0.250000*%
%ADD28C,0.254000*%
G04 APERTURE END LIST*
D10*
X59436000Y-146050000D02*
G75*
G02X58674000Y-145288000I0J762000D01*
G01*
X116840000Y-145288000D02*
G75*
G02X116078000Y-146050000I-762000J0D01*
G01*
X58674000Y-32004000D02*
G75*
G02X59436000Y-31242000I762000J0D01*
G01*
X58674000Y-145288000D02*
X58674000Y-32004000D01*
X116078000Y-146050000D02*
X59436000Y-146050000D01*
X116840000Y-31242000D02*
X116840000Y-145288000D01*
X59436000Y-31242000D02*
X116840000Y-31242000D01*
D11*
X66167000Y-134239000D03*
D12*
X73787000Y-134239000D03*
D13*
X114412700Y-117729000D03*
D14*
X114412700Y-120269000D03*
D13*
X61087000Y-33528000D03*
D15*
X61087000Y-36068000D03*
X61087000Y-38608000D03*
X61087000Y-41148000D03*
X61087000Y-43688000D03*
X61087000Y-46228000D03*
X61087000Y-48768000D03*
X61087000Y-51308000D03*
X61087000Y-53848000D03*
X61087000Y-56388000D03*
X61087000Y-58928000D03*
X61087000Y-61468000D03*
X61087000Y-64008000D03*
X61087000Y-66548000D03*
X61087000Y-69088000D03*
X61087000Y-71628000D03*
X61087000Y-74168000D03*
X61087000Y-76708000D03*
X61087000Y-79248000D03*
X83947000Y-74168000D03*
X83947000Y-79248000D03*
X83947000Y-76708000D03*
X83947000Y-71628000D03*
X83947000Y-69088000D03*
X83947000Y-66548000D03*
X83947000Y-64008000D03*
X83947000Y-61468000D03*
X83947000Y-58928000D03*
X83947000Y-56388000D03*
X83947000Y-53848000D03*
X83947000Y-51308000D03*
X83947000Y-48768000D03*
X83947000Y-46228000D03*
X83947000Y-43688000D03*
X83947000Y-41148000D03*
X83947000Y-38608000D03*
X83947000Y-36068000D03*
X83947000Y-33528000D03*
D13*
X61341000Y-82740500D03*
X81841000Y-82740500D03*
X81841000Y-128240500D03*
X61341000Y-128240500D03*
D16*
X80677000Y-138291000D03*
X78677000Y-138291000D03*
D17*
X83027000Y-143891000D03*
X76327000Y-143891000D03*
D13*
X61023500Y-144272000D03*
D14*
X63563500Y-144272000D03*
X61023500Y-141732000D03*
X63563500Y-141732000D03*
X61023500Y-139192000D03*
X63563500Y-139192000D03*
D11*
X111887000Y-135509000D03*
D12*
X114427000Y-135509000D03*
D13*
X114412700Y-58039000D03*
D14*
X114412700Y-55499000D03*
X114412700Y-52959000D03*
X114412700Y-50419000D03*
X114412700Y-47879000D03*
X114412700Y-45339000D03*
X114412700Y-42799000D03*
X114412700Y-40259000D03*
D13*
X88912700Y-63290000D03*
D15*
X88912700Y-65830000D03*
D13*
X88912700Y-84330000D03*
D15*
X88912700Y-86870000D03*
D13*
X88912700Y-106870000D03*
D15*
X88912700Y-109410000D03*
X114412700Y-109410000D03*
D13*
X114412700Y-106870000D03*
D15*
X114412700Y-86870000D03*
D13*
X114412700Y-84330000D03*
D15*
X114412700Y-65830000D03*
D13*
X114412700Y-63290000D03*
D18*
X87210900Y-138722100D03*
D19*
X87210900Y-143802100D03*
D20*
X109664500Y-140881100D03*
X111188500Y-142405100D03*
X112712500Y-140881100D03*
D21*
G36*
X114984608Y-141507267D02*
X115028291Y-141513747D01*
X115071128Y-141524477D01*
X115112708Y-141539354D01*
X115152629Y-141558235D01*
X115190507Y-141580939D01*
X115225977Y-141607245D01*
X115258698Y-141636902D01*
X115288355Y-141669623D01*
X115314661Y-141705093D01*
X115337365Y-141742971D01*
X115356246Y-141782892D01*
X115371123Y-141824472D01*
X115381853Y-141867309D01*
X115388333Y-141910992D01*
X115390500Y-141955100D01*
X115390500Y-142855100D01*
X115388333Y-142899208D01*
X115381853Y-142942891D01*
X115371123Y-142985728D01*
X115356246Y-143027308D01*
X115337365Y-143067229D01*
X115314661Y-143105107D01*
X115288355Y-143140577D01*
X115258698Y-143173298D01*
X115225977Y-143202955D01*
X115190507Y-143229261D01*
X115152629Y-143251965D01*
X115112708Y-143270846D01*
X115071128Y-143285723D01*
X115028291Y-143296453D01*
X114984608Y-143302933D01*
X114940500Y-143305100D01*
X114040500Y-143305100D01*
X113996392Y-143302933D01*
X113952709Y-143296453D01*
X113909872Y-143285723D01*
X113868292Y-143270846D01*
X113828371Y-143251965D01*
X113790493Y-143229261D01*
X113755023Y-143202955D01*
X113722302Y-143173298D01*
X113692645Y-143140577D01*
X113666339Y-143105107D01*
X113643635Y-143067229D01*
X113624754Y-143027308D01*
X113609877Y-142985728D01*
X113599147Y-142942891D01*
X113592667Y-142899208D01*
X113590500Y-142855100D01*
X113590500Y-141955100D01*
X113592667Y-141910992D01*
X113599147Y-141867309D01*
X113609877Y-141824472D01*
X113624754Y-141782892D01*
X113643635Y-141742971D01*
X113666339Y-141705093D01*
X113692645Y-141669623D01*
X113722302Y-141636902D01*
X113755023Y-141607245D01*
X113790493Y-141580939D01*
X113828371Y-141558235D01*
X113868292Y-141539354D01*
X113909872Y-141524477D01*
X113952709Y-141513747D01*
X113996392Y-141507267D01*
X114040500Y-141505100D01*
X114940500Y-141505100D01*
X114984608Y-141507267D01*
X114984608Y-141507267D01*
G37*
D20*
X114490500Y-142405100D03*
D22*
X90731200Y-143573500D03*
X90731200Y-139073500D03*
X97231200Y-143573500D03*
X97231200Y-139073500D03*
X106870500Y-139073500D03*
X106870500Y-143573500D03*
X100370500Y-139073500D03*
X100370500Y-143573500D03*
D23*
X73406000Y-139700000D03*
D24*
X70866000Y-139700000D03*
X68326000Y-139700000D03*
D25*
X68008500Y-124142500D03*
X68389500Y-71691500D03*
X66802000Y-74549000D03*
D26*
X73406000Y-141500000D02*
X73406000Y-139700000D01*
X72475500Y-142430500D02*
X73406000Y-141500000D01*
X67246500Y-142430500D02*
X72475500Y-142430500D01*
X66230500Y-141414500D02*
X67246500Y-142430500D01*
X66230500Y-135826500D02*
X66230500Y-141414500D01*
X66167000Y-135763000D02*
X66230500Y-135826500D01*
X66167000Y-134239000D02*
X66167000Y-135763000D01*
X77377000Y-138291000D02*
X75611000Y-136525000D01*
X78677000Y-138291000D02*
X77377000Y-138291000D01*
X70866000Y-137900000D02*
X70866000Y-139700000D01*
X72241000Y-136525000D02*
X70866000Y-137900000D01*
X75611000Y-136525000D02*
X72241000Y-136525000D01*
X85852000Y-142443200D02*
X87210900Y-143802100D01*
X85852000Y-141287500D02*
X85852000Y-142443200D01*
X85661500Y-141097000D02*
X85852000Y-141287500D01*
X80152998Y-141097000D02*
X85661500Y-141097000D01*
X78677000Y-138291000D02*
X78677000Y-139621002D01*
X78677000Y-139621002D02*
X80152998Y-141097000D01*
D27*
X61936999Y-62317999D02*
X61087000Y-61468000D01*
X109664500Y-140881100D02*
X109664500Y-137162822D01*
X69723000Y-70104000D02*
X61936999Y-62317999D01*
X69723000Y-97221322D02*
X69723000Y-70104000D01*
X109664500Y-137162822D02*
X69723000Y-97221322D01*
X111188500Y-138050411D02*
X70288989Y-97150900D01*
X70288989Y-97150900D02*
X70288989Y-68129989D01*
X70288989Y-68129989D02*
X61936999Y-59777999D01*
X111188500Y-142405100D02*
X111188500Y-138050411D01*
X61936999Y-59777999D02*
X61087000Y-58928000D01*
X70739000Y-66040000D02*
X61087000Y-56388000D01*
X70739000Y-96964500D02*
X70739000Y-66040000D01*
X114490500Y-137476090D02*
X113157000Y-136142590D01*
X114490500Y-142405100D02*
X114490500Y-137476090D01*
X113157000Y-136142590D02*
X113157000Y-134429500D01*
X113157000Y-134429500D02*
X111887000Y-133159500D01*
X111887000Y-133159500D02*
X106934000Y-133159500D01*
X106934000Y-133159500D02*
X70739000Y-96964500D01*
D26*
X86779800Y-138291000D02*
X87210900Y-138722100D01*
X80677000Y-138291000D02*
X86779800Y-138291000D01*
X63373000Y-84772500D02*
X61341000Y-82740500D01*
X63373000Y-115824000D02*
X63373000Y-84772500D01*
X80677000Y-138291000D02*
X80677000Y-133128000D01*
X80677000Y-133128000D02*
X63373000Y-115824000D01*
X61341000Y-136461500D02*
X61341000Y-128240500D01*
X59349010Y-138453490D02*
X61341000Y-136461500D01*
X61023500Y-144272000D02*
X59349010Y-142597510D01*
X59349010Y-142597510D02*
X59349010Y-138453490D01*
D27*
X113144300Y-140449300D02*
X112712500Y-140881100D01*
X112712500Y-136334500D02*
X111887000Y-135509000D01*
X112712500Y-140881100D02*
X112712500Y-136334500D01*
X64738501Y-143096999D02*
X64738501Y-127412499D01*
X64738501Y-127412499D02*
X67608501Y-124542499D01*
X63563500Y-144272000D02*
X64738501Y-143096999D01*
X67608501Y-124542499D02*
X68008500Y-124142500D01*
X89916000Y-58039000D02*
X83947000Y-64008000D01*
X114412700Y-58039000D02*
X89916000Y-58039000D01*
X89916000Y-55499000D02*
X83947000Y-61468000D01*
X89916000Y-55499000D02*
X114412700Y-55499000D01*
X89916000Y-52959000D02*
X83947000Y-58928000D01*
X89916000Y-52959000D02*
X114412700Y-52959000D01*
X89916000Y-50419000D02*
X83947000Y-56388000D01*
X89916000Y-50419000D02*
X114412700Y-50419000D01*
X89916000Y-47879000D02*
X83947000Y-53848000D01*
X89916000Y-47879000D02*
X114412700Y-47879000D01*
X89916000Y-45339000D02*
X83947000Y-51308000D01*
X89916000Y-45339000D02*
X114412700Y-45339000D01*
X89916000Y-42799000D02*
X83947000Y-48768000D01*
X89916000Y-42799000D02*
X114412700Y-42799000D01*
X87376000Y-40259000D02*
X83947000Y-43688000D01*
X87376000Y-40259000D02*
X114412700Y-40259000D01*
X106870500Y-139073500D02*
X100370500Y-139073500D01*
X68389500Y-96524232D02*
X68389500Y-71691500D01*
X100370500Y-139073500D02*
X100370500Y-128505232D01*
X100370500Y-128505232D02*
X68389500Y-96524232D01*
X97231200Y-139073500D02*
X90731200Y-139073500D01*
X66802000Y-95631000D02*
X66802000Y-74549000D01*
X92964000Y-121793000D02*
X66802000Y-95631000D01*
X90731200Y-139073500D02*
X92964000Y-136840700D01*
X92964000Y-136840700D02*
X92964000Y-121793000D01*
D28*
G36*
X116130000Y-33802700D02*
X115807441Y-33023974D01*
X115178726Y-32395259D01*
X114357269Y-32055000D01*
X113468131Y-32055000D01*
X112646674Y-32395259D01*
X112017959Y-33023974D01*
X111677700Y-33845431D01*
X111677700Y-34734569D01*
X112017959Y-35556026D01*
X112646674Y-36184741D01*
X113468131Y-36525000D01*
X114357269Y-36525000D01*
X115178726Y-36184741D01*
X115807441Y-35556026D01*
X116130000Y-34777300D01*
X116130001Y-127922702D01*
X115807441Y-127143974D01*
X115178726Y-126515259D01*
X114357269Y-126175000D01*
X113468131Y-126175000D01*
X112646674Y-126515259D01*
X112017959Y-127143974D01*
X111677700Y-127965431D01*
X111677700Y-128854569D01*
X112017959Y-129676026D01*
X112646674Y-130304741D01*
X113468131Y-130645000D01*
X114357269Y-130645000D01*
X115178726Y-130304741D01*
X115807441Y-129676026D01*
X116130001Y-128897298D01*
X116130001Y-145218068D01*
X116113192Y-145302574D01*
X116104933Y-145314933D01*
X116092574Y-145323192D01*
X116008074Y-145340000D01*
X88032187Y-145340000D01*
X88461765Y-145052965D01*
X88680214Y-144726032D01*
X89758273Y-144726032D01*
X89856936Y-144992887D01*
X90466661Y-145219408D01*
X91116660Y-145195356D01*
X91605464Y-144992887D01*
X91704127Y-144726032D01*
X96258273Y-144726032D01*
X96356936Y-144992887D01*
X96966661Y-145219408D01*
X97616660Y-145195356D01*
X98105464Y-144992887D01*
X98204127Y-144726032D01*
X99397573Y-144726032D01*
X99496236Y-144992887D01*
X100105961Y-145219408D01*
X100755960Y-145195356D01*
X101244764Y-144992887D01*
X101343427Y-144726032D01*
X105897573Y-144726032D01*
X105996236Y-144992887D01*
X106605961Y-145219408D01*
X107255960Y-145195356D01*
X107744764Y-144992887D01*
X107843427Y-144726032D01*
X106870500Y-143753105D01*
X105897573Y-144726032D01*
X101343427Y-144726032D01*
X100370500Y-143753105D01*
X99397573Y-144726032D01*
X98204127Y-144726032D01*
X97231200Y-143753105D01*
X96258273Y-144726032D01*
X91704127Y-144726032D01*
X90731200Y-143753105D01*
X89758273Y-144726032D01*
X88680214Y-144726032D01*
X88845234Y-144479063D01*
X88979890Y-143802100D01*
X88881799Y-143308961D01*
X89085292Y-143308961D01*
X89109344Y-143958960D01*
X89311813Y-144447764D01*
X89578668Y-144546427D01*
X90551595Y-143573500D01*
X90910805Y-143573500D01*
X91883732Y-144546427D01*
X92150587Y-144447764D01*
X92377108Y-143838039D01*
X92357531Y-143308961D01*
X95585292Y-143308961D01*
X95609344Y-143958960D01*
X95811813Y-144447764D01*
X96078668Y-144546427D01*
X97051595Y-143573500D01*
X97410805Y-143573500D01*
X98383732Y-144546427D01*
X98650587Y-144447764D01*
X98792684Y-144065282D01*
X98951113Y-144447764D01*
X99217968Y-144546427D01*
X100190895Y-143573500D01*
X100550105Y-143573500D01*
X101523032Y-144546427D01*
X101789887Y-144447764D01*
X102016408Y-143838039D01*
X101996831Y-143308961D01*
X105224592Y-143308961D01*
X105248644Y-143958960D01*
X105451113Y-144447764D01*
X105717968Y-144546427D01*
X106690895Y-143573500D01*
X107050105Y-143573500D01*
X108023032Y-144546427D01*
X108289887Y-144447764D01*
X108516408Y-143838039D01*
X108492356Y-143188040D01*
X108289887Y-142699236D01*
X108023032Y-142600573D01*
X107050105Y-143573500D01*
X106690895Y-143573500D01*
X105717968Y-142600573D01*
X105451113Y-142699236D01*
X105224592Y-143308961D01*
X101996831Y-143308961D01*
X101992356Y-143188040D01*
X101789887Y-142699236D01*
X101523032Y-142600573D01*
X100550105Y-143573500D01*
X100190895Y-143573500D01*
X99217968Y-142600573D01*
X98951113Y-142699236D01*
X98809016Y-143081718D01*
X98650587Y-142699236D01*
X98383732Y-142600573D01*
X97410805Y-143573500D01*
X97051595Y-143573500D01*
X96078668Y-142600573D01*
X95811813Y-142699236D01*
X95585292Y-143308961D01*
X92357531Y-143308961D01*
X92353056Y-143188040D01*
X92150587Y-142699236D01*
X91883732Y-142600573D01*
X90910805Y-143573500D01*
X90551595Y-143573500D01*
X89578668Y-142600573D01*
X89311813Y-142699236D01*
X89085292Y-143308961D01*
X88881799Y-143308961D01*
X88845234Y-143125137D01*
X88461765Y-142551235D01*
X88266807Y-142420968D01*
X89758273Y-142420968D01*
X90731200Y-143393895D01*
X91704127Y-142420968D01*
X96258273Y-142420968D01*
X97231200Y-143393895D01*
X98204127Y-142420968D01*
X99397573Y-142420968D01*
X100370500Y-143393895D01*
X101343427Y-142420968D01*
X105897573Y-142420968D01*
X106870500Y-143393895D01*
X107843427Y-142420968D01*
X107744764Y-142154113D01*
X107135039Y-141927592D01*
X106485040Y-141951644D01*
X105996236Y-142154113D01*
X105897573Y-142420968D01*
X101343427Y-142420968D01*
X101244764Y-142154113D01*
X100635039Y-141927592D01*
X99985040Y-141951644D01*
X99496236Y-142154113D01*
X99397573Y-142420968D01*
X98204127Y-142420968D01*
X98105464Y-142154113D01*
X97495739Y-141927592D01*
X96845740Y-141951644D01*
X96356936Y-142154113D01*
X96258273Y-142420968D01*
X91704127Y-142420968D01*
X91605464Y-142154113D01*
X90995739Y-141927592D01*
X90345740Y-141951644D01*
X89856936Y-142154113D01*
X89758273Y-142420968D01*
X88266807Y-142420968D01*
X87887863Y-142167766D01*
X87381780Y-142067100D01*
X87040020Y-142067100D01*
X86956269Y-142083759D01*
X86887000Y-142014490D01*
X86887000Y-141389434D01*
X86907276Y-141287500D01*
X86841327Y-140955951D01*
X86826948Y-140883663D01*
X86598193Y-140541307D01*
X86511773Y-140483563D01*
X86497750Y-140469540D01*
X88310900Y-140469540D01*
X88558665Y-140420257D01*
X88768709Y-140279909D01*
X88909057Y-140069865D01*
X88958340Y-139822100D01*
X88958340Y-137622100D01*
X88909057Y-137374335D01*
X88768709Y-137164291D01*
X88558665Y-137023943D01*
X88310900Y-136974660D01*
X86110900Y-136974660D01*
X85863135Y-137023943D01*
X85653091Y-137164291D01*
X85591813Y-137256000D01*
X81824440Y-137256000D01*
X81824440Y-136541000D01*
X81775157Y-136293235D01*
X81712000Y-136198715D01*
X81712000Y-133229929D01*
X81732275Y-133127999D01*
X81712000Y-133026070D01*
X81712000Y-133026065D01*
X81651948Y-132724163D01*
X81423193Y-132381807D01*
X81336776Y-132324065D01*
X77538961Y-128526250D01*
X80356000Y-128526250D01*
X80356000Y-129216810D01*
X80452673Y-129450199D01*
X80631302Y-129628827D01*
X80864691Y-129725500D01*
X81555250Y-129725500D01*
X81714000Y-129566750D01*
X81714000Y-128367500D01*
X81968000Y-128367500D01*
X81968000Y-129566750D01*
X82126750Y-129725500D01*
X82817309Y-129725500D01*
X83050698Y-129628827D01*
X83229327Y-129450199D01*
X83326000Y-129216810D01*
X83326000Y-128526250D01*
X83167250Y-128367500D01*
X81968000Y-128367500D01*
X81714000Y-128367500D01*
X80514750Y-128367500D01*
X80356000Y-128526250D01*
X77538961Y-128526250D01*
X76276901Y-127264190D01*
X80356000Y-127264190D01*
X80356000Y-127954750D01*
X80514750Y-128113500D01*
X81714000Y-128113500D01*
X81714000Y-126914250D01*
X81968000Y-126914250D01*
X81968000Y-128113500D01*
X83167250Y-128113500D01*
X83315319Y-127965431D01*
X86677700Y-127965431D01*
X86677700Y-128854569D01*
X87017959Y-129676026D01*
X87646674Y-130304741D01*
X88468131Y-130645000D01*
X89357269Y-130645000D01*
X90178726Y-130304741D01*
X90807441Y-129676026D01*
X91147700Y-128854569D01*
X91147700Y-127965431D01*
X90807441Y-127143974D01*
X90178726Y-126515259D01*
X89357269Y-126175000D01*
X88468131Y-126175000D01*
X87646674Y-126515259D01*
X87017959Y-127143974D01*
X86677700Y-127965431D01*
X83315319Y-127965431D01*
X83326000Y-127954750D01*
X83326000Y-127264190D01*
X83229327Y-127030801D01*
X83050698Y-126852173D01*
X82817309Y-126755500D01*
X82126750Y-126755500D01*
X81968000Y-126914250D01*
X81714000Y-126914250D01*
X81555250Y-126755500D01*
X80864691Y-126755500D01*
X80631302Y-126852173D01*
X80452673Y-127030801D01*
X80356000Y-127264190D01*
X76276901Y-127264190D01*
X64408000Y-115395290D01*
X64408000Y-84874434D01*
X64428276Y-84772500D01*
X64347948Y-84368663D01*
X64260602Y-84237940D01*
X64119193Y-84026307D01*
X64032776Y-83968565D01*
X62838440Y-82774230D01*
X62838440Y-81890500D01*
X62789157Y-81642735D01*
X62648809Y-81432691D01*
X62438765Y-81292343D01*
X62191000Y-81243060D01*
X60491000Y-81243060D01*
X60243235Y-81292343D01*
X60033191Y-81432691D01*
X59892843Y-81642735D01*
X59843560Y-81890500D01*
X59843560Y-83590500D01*
X59892843Y-83838265D01*
X60033191Y-84048309D01*
X60243235Y-84188657D01*
X60491000Y-84237940D01*
X61374730Y-84237940D01*
X62338001Y-85201212D01*
X62338000Y-115722066D01*
X62317724Y-115824000D01*
X62338000Y-115925934D01*
X62398052Y-116227836D01*
X62626807Y-116570193D01*
X62713227Y-116627937D01*
X79642001Y-133556712D01*
X79642000Y-136093954D01*
X79634809Y-136083191D01*
X79424765Y-135942843D01*
X79177000Y-135893560D01*
X78177000Y-135893560D01*
X77929235Y-135942843D01*
X77719191Y-136083191D01*
X77578843Y-136293235D01*
X77529560Y-136541000D01*
X77529560Y-136979849D01*
X76414937Y-135865227D01*
X76357193Y-135778807D01*
X76014837Y-135550052D01*
X75712935Y-135490000D01*
X75712934Y-135490000D01*
X75611000Y-135469724D01*
X75509066Y-135490000D01*
X74497677Y-135490000D01*
X74821577Y-135273577D01*
X75138740Y-134798909D01*
X75250113Y-134239000D01*
X75138740Y-133679091D01*
X74821577Y-133204423D01*
X74346909Y-132887260D01*
X73928333Y-132804000D01*
X73645667Y-132804000D01*
X73227091Y-132887260D01*
X72752423Y-133204423D01*
X72435260Y-133679091D01*
X72323887Y-134239000D01*
X72435260Y-134798909D01*
X72752423Y-135273577D01*
X73076323Y-135490000D01*
X72342934Y-135490000D01*
X72241000Y-135469724D01*
X72139065Y-135490000D01*
X71837163Y-135550052D01*
X71494807Y-135778807D01*
X71437065Y-135865224D01*
X70206227Y-137096063D01*
X70119807Y-137153807D01*
X69930953Y-137436448D01*
X69891052Y-137496164D01*
X69810724Y-137900000D01*
X69831000Y-138001935D01*
X69831000Y-138434796D01*
X69721477Y-138507977D01*
X69586841Y-138709474D01*
X69192924Y-138324027D01*
X68698980Y-138109437D01*
X68453000Y-138229406D01*
X68453000Y-139573000D01*
X68473000Y-139573000D01*
X68473000Y-139827000D01*
X68453000Y-139827000D01*
X68453000Y-141170594D01*
X68698980Y-141290563D01*
X69192924Y-141075973D01*
X69586841Y-140690526D01*
X69721477Y-140892023D01*
X70246589Y-141242891D01*
X70866000Y-141366100D01*
X71485410Y-141242891D01*
X71877491Y-140980912D01*
X71995691Y-141157809D01*
X72168807Y-141273482D01*
X72046790Y-141395500D01*
X67675211Y-141395500D01*
X67265500Y-140985790D01*
X67265500Y-140886559D01*
X67459076Y-141075973D01*
X67953020Y-141290563D01*
X68199000Y-141170594D01*
X68199000Y-139827000D01*
X68179000Y-139827000D01*
X68179000Y-139573000D01*
X68199000Y-139573000D01*
X68199000Y-138229406D01*
X67953020Y-138109437D01*
X67459076Y-138324027D01*
X67265500Y-138513441D01*
X67265500Y-135928434D01*
X67285776Y-135826500D01*
X67244421Y-135618596D01*
X67205448Y-135422663D01*
X67202000Y-135417503D01*
X67202000Y-135233396D01*
X67383534Y-135051862D01*
X67602000Y-134524439D01*
X67602000Y-133953561D01*
X67383534Y-133426138D01*
X66979862Y-133022466D01*
X66452439Y-132804000D01*
X65881561Y-132804000D01*
X65498501Y-132962669D01*
X65498501Y-127727300D01*
X68048302Y-125177500D01*
X68214374Y-125177500D01*
X68594780Y-125019931D01*
X68885931Y-124728780D01*
X69043500Y-124348374D01*
X69043500Y-123936626D01*
X68885931Y-123556220D01*
X68594780Y-123265069D01*
X68214374Y-123107500D01*
X67802626Y-123107500D01*
X67422220Y-123265069D01*
X67131069Y-123556220D01*
X66973500Y-123936626D01*
X66973500Y-124102698D01*
X64254029Y-126822170D01*
X64190573Y-126864570D01*
X64148173Y-126928026D01*
X64148172Y-126928027D01*
X64022598Y-127115962D01*
X63963613Y-127412499D01*
X63978502Y-127487351D01*
X63978501Y-137760457D01*
X63709756Y-137707000D01*
X63417244Y-137707000D01*
X62984082Y-137793161D01*
X62492875Y-138121375D01*
X62293500Y-138419761D01*
X62094125Y-138121375D01*
X61602918Y-137793161D01*
X61494596Y-137771615D01*
X62000776Y-137265435D01*
X62087193Y-137207693D01*
X62315948Y-136865337D01*
X62365764Y-136614893D01*
X62396276Y-136461501D01*
X62376000Y-136359566D01*
X62376000Y-129701142D01*
X62438765Y-129688657D01*
X62648809Y-129548309D01*
X62789157Y-129338265D01*
X62838440Y-129090500D01*
X62838440Y-127390500D01*
X62789157Y-127142735D01*
X62648809Y-126932691D01*
X62438765Y-126792343D01*
X62191000Y-126743060D01*
X60491000Y-126743060D01*
X60243235Y-126792343D01*
X60033191Y-126932691D01*
X59892843Y-127142735D01*
X59843560Y-127390500D01*
X59843560Y-129090500D01*
X59892843Y-129338265D01*
X60033191Y-129548309D01*
X60243235Y-129688657D01*
X60306001Y-129701142D01*
X60306000Y-136032789D01*
X59384000Y-136954790D01*
X59384000Y-80291958D01*
X60222647Y-80291958D01*
X60302920Y-80543259D01*
X60858279Y-80744718D01*
X61448458Y-80718315D01*
X61871080Y-80543259D01*
X61951353Y-80291958D01*
X61087000Y-79427605D01*
X60222647Y-80291958D01*
X59384000Y-80291958D01*
X59384000Y-79019279D01*
X59590282Y-79019279D01*
X59616685Y-79609458D01*
X59791741Y-80032080D01*
X60043042Y-80112353D01*
X60907395Y-79248000D01*
X61266605Y-79248000D01*
X62130958Y-80112353D01*
X62382259Y-80032080D01*
X62583718Y-79476721D01*
X62557315Y-78886542D01*
X62382259Y-78463920D01*
X62130958Y-78383647D01*
X61266605Y-79248000D01*
X60907395Y-79248000D01*
X60043042Y-78383647D01*
X59791741Y-78463920D01*
X59590282Y-79019279D01*
X59384000Y-79019279D01*
X59384000Y-66252615D01*
X59602000Y-66252615D01*
X59602000Y-66843385D01*
X59828078Y-67389185D01*
X60245815Y-67806922D01*
X60272560Y-67818000D01*
X60245815Y-67829078D01*
X59828078Y-68246815D01*
X59602000Y-68792615D01*
X59602000Y-69383385D01*
X59828078Y-69929185D01*
X60245815Y-70346922D01*
X60272560Y-70358000D01*
X60245815Y-70369078D01*
X59828078Y-70786815D01*
X59602000Y-71332615D01*
X59602000Y-71923385D01*
X59828078Y-72469185D01*
X60245815Y-72886922D01*
X60272560Y-72898000D01*
X60245815Y-72909078D01*
X59828078Y-73326815D01*
X59602000Y-73872615D01*
X59602000Y-74463385D01*
X59828078Y-75009185D01*
X60245815Y-75426922D01*
X60272560Y-75438000D01*
X60245815Y-75449078D01*
X59828078Y-75866815D01*
X59602000Y-76412615D01*
X59602000Y-77003385D01*
X59828078Y-77549185D01*
X60245815Y-77966922D01*
X60292247Y-77986155D01*
X60222647Y-78204042D01*
X61087000Y-79068395D01*
X61951353Y-78204042D01*
X61881753Y-77986155D01*
X61928185Y-77966922D01*
X62345922Y-77549185D01*
X62572000Y-77003385D01*
X62572000Y-76412615D01*
X62345922Y-75866815D01*
X61928185Y-75449078D01*
X61901440Y-75438000D01*
X61928185Y-75426922D01*
X62345922Y-75009185D01*
X62572000Y-74463385D01*
X62572000Y-73872615D01*
X62345922Y-73326815D01*
X61928185Y-72909078D01*
X61901440Y-72898000D01*
X61928185Y-72886922D01*
X62345922Y-72469185D01*
X62572000Y-71923385D01*
X62572000Y-71332615D01*
X62345922Y-70786815D01*
X61928185Y-70369078D01*
X61901440Y-70358000D01*
X61928185Y-70346922D01*
X62345922Y-69929185D01*
X62572000Y-69383385D01*
X62572000Y-68792615D01*
X62345922Y-68246815D01*
X61928185Y-67829078D01*
X61901440Y-67818000D01*
X61928185Y-67806922D01*
X62345922Y-67389185D01*
X62572000Y-66843385D01*
X62572000Y-66252615D01*
X62345922Y-65706815D01*
X61928185Y-65289078D01*
X61881753Y-65269845D01*
X61951353Y-65051958D01*
X61087000Y-64187605D01*
X60222647Y-65051958D01*
X60292247Y-65269845D01*
X60245815Y-65289078D01*
X59828078Y-65706815D01*
X59602000Y-66252615D01*
X59384000Y-66252615D01*
X59384000Y-63779279D01*
X59590282Y-63779279D01*
X59616685Y-64369458D01*
X59791741Y-64792080D01*
X60043042Y-64872353D01*
X60907395Y-64008000D01*
X60043042Y-63143647D01*
X59791741Y-63223920D01*
X59590282Y-63779279D01*
X59384000Y-63779279D01*
X59384000Y-32678000D01*
X59589560Y-32678000D01*
X59589560Y-34378000D01*
X59638843Y-34625765D01*
X59779191Y-34835809D01*
X59989235Y-34976157D01*
X60063887Y-34991006D01*
X59828078Y-35226815D01*
X59602000Y-35772615D01*
X59602000Y-36363385D01*
X59828078Y-36909185D01*
X60245815Y-37326922D01*
X60272560Y-37338000D01*
X60245815Y-37349078D01*
X59828078Y-37766815D01*
X59602000Y-38312615D01*
X59602000Y-38903385D01*
X59828078Y-39449185D01*
X60245815Y-39866922D01*
X60272560Y-39878000D01*
X60245815Y-39889078D01*
X59828078Y-40306815D01*
X59602000Y-40852615D01*
X59602000Y-41443385D01*
X59828078Y-41989185D01*
X60245815Y-42406922D01*
X60272560Y-42418000D01*
X60245815Y-42429078D01*
X59828078Y-42846815D01*
X59602000Y-43392615D01*
X59602000Y-43983385D01*
X59828078Y-44529185D01*
X60245815Y-44946922D01*
X60272560Y-44958000D01*
X60245815Y-44969078D01*
X59828078Y-45386815D01*
X59602000Y-45932615D01*
X59602000Y-46523385D01*
X59828078Y-47069185D01*
X60245815Y-47486922D01*
X60272560Y-47498000D01*
X60245815Y-47509078D01*
X59828078Y-47926815D01*
X59602000Y-48472615D01*
X59602000Y-49063385D01*
X59828078Y-49609185D01*
X60245815Y-50026922D01*
X60272560Y-50038000D01*
X60245815Y-50049078D01*
X59828078Y-50466815D01*
X59602000Y-51012615D01*
X59602000Y-51603385D01*
X59828078Y-52149185D01*
X60245815Y-52566922D01*
X60272560Y-52578000D01*
X60245815Y-52589078D01*
X59828078Y-53006815D01*
X59602000Y-53552615D01*
X59602000Y-54143385D01*
X59828078Y-54689185D01*
X60245815Y-55106922D01*
X60272560Y-55118000D01*
X60245815Y-55129078D01*
X59828078Y-55546815D01*
X59602000Y-56092615D01*
X59602000Y-56683385D01*
X59828078Y-57229185D01*
X60245815Y-57646922D01*
X60272560Y-57658000D01*
X60245815Y-57669078D01*
X59828078Y-58086815D01*
X59602000Y-58632615D01*
X59602000Y-59223385D01*
X59828078Y-59769185D01*
X60245815Y-60186922D01*
X60272560Y-60198000D01*
X60245815Y-60209078D01*
X59828078Y-60626815D01*
X59602000Y-61172615D01*
X59602000Y-61763385D01*
X59828078Y-62309185D01*
X60245815Y-62726922D01*
X60292247Y-62746155D01*
X60222647Y-62964042D01*
X61087000Y-63828395D01*
X61101143Y-63814253D01*
X61280748Y-63993858D01*
X61266605Y-64008000D01*
X62130958Y-64872353D01*
X62382259Y-64792080D01*
X62583718Y-64236721D01*
X62574483Y-64030284D01*
X68963001Y-70418803D01*
X68963001Y-70808776D01*
X68595374Y-70656500D01*
X68183626Y-70656500D01*
X67803220Y-70814069D01*
X67512069Y-71105220D01*
X67354500Y-71485626D01*
X67354500Y-71897374D01*
X67512069Y-72277780D01*
X67629501Y-72395212D01*
X67629501Y-73912790D01*
X67388280Y-73671569D01*
X67007874Y-73514000D01*
X66596126Y-73514000D01*
X66215720Y-73671569D01*
X65924569Y-73962720D01*
X65767000Y-74343126D01*
X65767000Y-74754874D01*
X65924569Y-75135280D01*
X66042001Y-75252712D01*
X66042000Y-95556153D01*
X66027112Y-95631000D01*
X66042000Y-95705847D01*
X66042000Y-95705851D01*
X66086096Y-95927536D01*
X66254071Y-96178929D01*
X66317530Y-96221331D01*
X92204001Y-122107803D01*
X92204000Y-136525898D01*
X91222575Y-137507323D01*
X91056422Y-137438500D01*
X90405978Y-137438500D01*
X89805047Y-137687414D01*
X89345114Y-138147347D01*
X89096200Y-138748278D01*
X89096200Y-139398722D01*
X89345114Y-139999653D01*
X89805047Y-140459586D01*
X90405978Y-140708500D01*
X91056422Y-140708500D01*
X91657353Y-140459586D01*
X92117286Y-139999653D01*
X92186109Y-139833500D01*
X95776291Y-139833500D01*
X95845114Y-139999653D01*
X96305047Y-140459586D01*
X96905978Y-140708500D01*
X97556422Y-140708500D01*
X98157353Y-140459586D01*
X98617286Y-139999653D01*
X98800850Y-139556491D01*
X98984414Y-139999653D01*
X99444347Y-140459586D01*
X100045278Y-140708500D01*
X100695722Y-140708500D01*
X101296653Y-140459586D01*
X101756586Y-139999653D01*
X101825409Y-139833500D01*
X105415591Y-139833500D01*
X105484414Y-139999653D01*
X105944347Y-140459586D01*
X106545278Y-140708500D01*
X107195722Y-140708500D01*
X107796653Y-140459586D01*
X108256586Y-139999653D01*
X108505500Y-139398722D01*
X108505500Y-138748278D01*
X108256586Y-138147347D01*
X107796653Y-137687414D01*
X107195722Y-137438500D01*
X106545278Y-137438500D01*
X105944347Y-137687414D01*
X105484414Y-138147347D01*
X105415591Y-138313500D01*
X101825409Y-138313500D01*
X101756586Y-138147347D01*
X101296653Y-137687414D01*
X101130500Y-137618591D01*
X101130500Y-129703624D01*
X108904501Y-137477625D01*
X108904500Y-139534431D01*
X108794993Y-139579790D01*
X108363190Y-140011593D01*
X108129500Y-140575770D01*
X108129500Y-141186430D01*
X108363190Y-141750607D01*
X108794993Y-142182410D01*
X109359170Y-142416100D01*
X109653500Y-142416100D01*
X109653500Y-142710430D01*
X109887190Y-143274607D01*
X110318993Y-143706410D01*
X110883170Y-143940100D01*
X111493830Y-143940100D01*
X112058007Y-143706410D01*
X112489810Y-143274607D01*
X112723500Y-142710430D01*
X112723500Y-142416100D01*
X112943060Y-142416100D01*
X112943060Y-142855100D01*
X113026598Y-143275072D01*
X113264493Y-143631107D01*
X113620528Y-143869002D01*
X114040500Y-143952540D01*
X114940500Y-143952540D01*
X115360472Y-143869002D01*
X115716507Y-143631107D01*
X115954402Y-143275072D01*
X116037940Y-142855100D01*
X116037940Y-141955100D01*
X115954402Y-141535128D01*
X115716507Y-141179093D01*
X115360472Y-140941198D01*
X115250500Y-140919323D01*
X115250500Y-137550938D01*
X115265388Y-137476090D01*
X115250500Y-137401242D01*
X115250500Y-137401238D01*
X115206404Y-137179553D01*
X115206404Y-137179552D01*
X115080829Y-136991617D01*
X115038429Y-136928161D01*
X114974973Y-136885761D01*
X114921352Y-136832141D01*
X115282134Y-136661389D01*
X115658041Y-136246423D01*
X115818904Y-135858039D01*
X115696915Y-135636000D01*
X114554000Y-135636000D01*
X114554000Y-135656000D01*
X114300000Y-135656000D01*
X114300000Y-135636000D01*
X114280000Y-135636000D01*
X114280000Y-135382000D01*
X114300000Y-135382000D01*
X114300000Y-134238371D01*
X114554000Y-134238371D01*
X114554000Y-135382000D01*
X115696915Y-135382000D01*
X115818904Y-135159961D01*
X115658041Y-134771577D01*
X115282134Y-134356611D01*
X114776041Y-134117086D01*
X114554000Y-134238371D01*
X114300000Y-134238371D01*
X114077959Y-134117086D01*
X113887661Y-134207151D01*
X113872904Y-134132963D01*
X113704929Y-133881571D01*
X113641473Y-133839171D01*
X112477331Y-132675030D01*
X112434929Y-132611571D01*
X112183537Y-132443596D01*
X111961852Y-132399500D01*
X111961847Y-132399500D01*
X111887000Y-132384612D01*
X111812153Y-132399500D01*
X107248802Y-132399500D01*
X95118302Y-120269000D01*
X112898608Y-120269000D01*
X113013861Y-120848418D01*
X113342075Y-121339625D01*
X113833282Y-121667839D01*
X114266444Y-121754000D01*
X114558956Y-121754000D01*
X114992118Y-121667839D01*
X115483325Y-121339625D01*
X115811539Y-120848418D01*
X115926792Y-120269000D01*
X115811539Y-119689582D01*
X115483325Y-119198375D01*
X115465081Y-119186184D01*
X115510465Y-119177157D01*
X115720509Y-119036809D01*
X115860857Y-118826765D01*
X115910140Y-118579000D01*
X115910140Y-116879000D01*
X115860857Y-116631235D01*
X115720509Y-116421191D01*
X115510465Y-116280843D01*
X115262700Y-116231560D01*
X113562700Y-116231560D01*
X113314935Y-116280843D01*
X113104891Y-116421191D01*
X112964543Y-116631235D01*
X112915260Y-116879000D01*
X112915260Y-118579000D01*
X112964543Y-118826765D01*
X113104891Y-119036809D01*
X113314935Y-119177157D01*
X113360319Y-119186184D01*
X113342075Y-119198375D01*
X113013861Y-119689582D01*
X112898608Y-120269000D01*
X95118302Y-120269000D01*
X85303260Y-110453958D01*
X88048347Y-110453958D01*
X88128620Y-110705259D01*
X88683979Y-110906718D01*
X89274158Y-110880315D01*
X89696780Y-110705259D01*
X89777053Y-110453958D01*
X113548347Y-110453958D01*
X113628620Y-110705259D01*
X114183979Y-110906718D01*
X114774158Y-110880315D01*
X115196780Y-110705259D01*
X115277053Y-110453958D01*
X114412700Y-109589605D01*
X113548347Y-110453958D01*
X89777053Y-110453958D01*
X88912700Y-109589605D01*
X88048347Y-110453958D01*
X85303260Y-110453958D01*
X84030581Y-109181279D01*
X87415982Y-109181279D01*
X87442385Y-109771458D01*
X87617441Y-110194080D01*
X87868742Y-110274353D01*
X88733095Y-109410000D01*
X89092305Y-109410000D01*
X89956658Y-110274353D01*
X90207959Y-110194080D01*
X90409418Y-109638721D01*
X90388954Y-109181279D01*
X112915982Y-109181279D01*
X112942385Y-109771458D01*
X113117441Y-110194080D01*
X113368742Y-110274353D01*
X114233095Y-109410000D01*
X114592305Y-109410000D01*
X115456658Y-110274353D01*
X115707959Y-110194080D01*
X115909418Y-109638721D01*
X115883015Y-109048542D01*
X115707959Y-108625920D01*
X115456658Y-108545647D01*
X114592305Y-109410000D01*
X114233095Y-109410000D01*
X113368742Y-108545647D01*
X113117441Y-108625920D01*
X112915982Y-109181279D01*
X90388954Y-109181279D01*
X90383015Y-109048542D01*
X90207959Y-108625920D01*
X89956658Y-108545647D01*
X89092305Y-109410000D01*
X88733095Y-109410000D01*
X87868742Y-108545647D01*
X87617441Y-108625920D01*
X87415982Y-109181279D01*
X84030581Y-109181279D01*
X80869302Y-106020000D01*
X87415260Y-106020000D01*
X87415260Y-107720000D01*
X87464543Y-107967765D01*
X87604891Y-108177809D01*
X87814935Y-108318157D01*
X88048785Y-108364672D01*
X88048347Y-108366042D01*
X88912700Y-109230395D01*
X89777053Y-108366042D01*
X89776615Y-108364672D01*
X90010465Y-108318157D01*
X90220509Y-108177809D01*
X90360857Y-107967765D01*
X90410140Y-107720000D01*
X90410140Y-106020000D01*
X112915260Y-106020000D01*
X112915260Y-107720000D01*
X112964543Y-107967765D01*
X113104891Y-108177809D01*
X113314935Y-108318157D01*
X113548785Y-108364672D01*
X113548347Y-108366042D01*
X114412700Y-109230395D01*
X115277053Y-108366042D01*
X115276615Y-108364672D01*
X115510465Y-108318157D01*
X115720509Y-108177809D01*
X115860857Y-107967765D01*
X115910140Y-107720000D01*
X115910140Y-106020000D01*
X115860857Y-105772235D01*
X115720509Y-105562191D01*
X115510465Y-105421843D01*
X115262700Y-105372560D01*
X113562700Y-105372560D01*
X113314935Y-105421843D01*
X113104891Y-105562191D01*
X112964543Y-105772235D01*
X112915260Y-106020000D01*
X90410140Y-106020000D01*
X90360857Y-105772235D01*
X90220509Y-105562191D01*
X90010465Y-105421843D01*
X89762700Y-105372560D01*
X88062700Y-105372560D01*
X87814935Y-105421843D01*
X87604891Y-105562191D01*
X87464543Y-105772235D01*
X87415260Y-106020000D01*
X80869302Y-106020000D01*
X71499000Y-96649699D01*
X71499000Y-87913958D01*
X88048347Y-87913958D01*
X88128620Y-88165259D01*
X88683979Y-88366718D01*
X89274158Y-88340315D01*
X89696780Y-88165259D01*
X89777053Y-87913958D01*
X113548347Y-87913958D01*
X113628620Y-88165259D01*
X114183979Y-88366718D01*
X114774158Y-88340315D01*
X115196780Y-88165259D01*
X115277053Y-87913958D01*
X114412700Y-87049605D01*
X113548347Y-87913958D01*
X89777053Y-87913958D01*
X88912700Y-87049605D01*
X88048347Y-87913958D01*
X71499000Y-87913958D01*
X71499000Y-86641279D01*
X87415982Y-86641279D01*
X87442385Y-87231458D01*
X87617441Y-87654080D01*
X87868742Y-87734353D01*
X88733095Y-86870000D01*
X89092305Y-86870000D01*
X89956658Y-87734353D01*
X90207959Y-87654080D01*
X90409418Y-87098721D01*
X90388954Y-86641279D01*
X112915982Y-86641279D01*
X112942385Y-87231458D01*
X113117441Y-87654080D01*
X113368742Y-87734353D01*
X114233095Y-86870000D01*
X114592305Y-86870000D01*
X115456658Y-87734353D01*
X115707959Y-87654080D01*
X115909418Y-87098721D01*
X115883015Y-86508542D01*
X115707959Y-86085920D01*
X115456658Y-86005647D01*
X114592305Y-86870000D01*
X114233095Y-86870000D01*
X113368742Y-86005647D01*
X113117441Y-86085920D01*
X112915982Y-86641279D01*
X90388954Y-86641279D01*
X90383015Y-86508542D01*
X90207959Y-86085920D01*
X89956658Y-86005647D01*
X89092305Y-86870000D01*
X88733095Y-86870000D01*
X87868742Y-86005647D01*
X87617441Y-86085920D01*
X87415982Y-86641279D01*
X71499000Y-86641279D01*
X71499000Y-83026250D01*
X80356000Y-83026250D01*
X80356000Y-83716810D01*
X80452673Y-83950199D01*
X80631302Y-84128827D01*
X80864691Y-84225500D01*
X81555250Y-84225500D01*
X81714000Y-84066750D01*
X81714000Y-82867500D01*
X81968000Y-82867500D01*
X81968000Y-84066750D01*
X82126750Y-84225500D01*
X82817309Y-84225500D01*
X83050698Y-84128827D01*
X83229327Y-83950199D01*
X83326000Y-83716810D01*
X83326000Y-83480000D01*
X87415260Y-83480000D01*
X87415260Y-85180000D01*
X87464543Y-85427765D01*
X87604891Y-85637809D01*
X87814935Y-85778157D01*
X88048785Y-85824672D01*
X88048347Y-85826042D01*
X88912700Y-86690395D01*
X89777053Y-85826042D01*
X89776615Y-85824672D01*
X90010465Y-85778157D01*
X90220509Y-85637809D01*
X90360857Y-85427765D01*
X90410140Y-85180000D01*
X90410140Y-83480000D01*
X112915260Y-83480000D01*
X112915260Y-85180000D01*
X112964543Y-85427765D01*
X113104891Y-85637809D01*
X113314935Y-85778157D01*
X113548785Y-85824672D01*
X113548347Y-85826042D01*
X114412700Y-86690395D01*
X115277053Y-85826042D01*
X115276615Y-85824672D01*
X115510465Y-85778157D01*
X115720509Y-85637809D01*
X115860857Y-85427765D01*
X115910140Y-85180000D01*
X115910140Y-83480000D01*
X115860857Y-83232235D01*
X115720509Y-83022191D01*
X115510465Y-82881843D01*
X115262700Y-82832560D01*
X113562700Y-82832560D01*
X113314935Y-82881843D01*
X113104891Y-83022191D01*
X112964543Y-83232235D01*
X112915260Y-83480000D01*
X90410140Y-83480000D01*
X90360857Y-83232235D01*
X90220509Y-83022191D01*
X90010465Y-82881843D01*
X89762700Y-82832560D01*
X88062700Y-82832560D01*
X87814935Y-82881843D01*
X87604891Y-83022191D01*
X87464543Y-83232235D01*
X87415260Y-83480000D01*
X83326000Y-83480000D01*
X83326000Y-83026250D01*
X83167250Y-82867500D01*
X81968000Y-82867500D01*
X81714000Y-82867500D01*
X80514750Y-82867500D01*
X80356000Y-83026250D01*
X71499000Y-83026250D01*
X71499000Y-81764190D01*
X80356000Y-81764190D01*
X80356000Y-82454750D01*
X80514750Y-82613500D01*
X81714000Y-82613500D01*
X81714000Y-81414250D01*
X81968000Y-81414250D01*
X81968000Y-82613500D01*
X83167250Y-82613500D01*
X83326000Y-82454750D01*
X83326000Y-81764190D01*
X83229327Y-81530801D01*
X83050698Y-81352173D01*
X82817309Y-81255500D01*
X82126750Y-81255500D01*
X81968000Y-81414250D01*
X81714000Y-81414250D01*
X81555250Y-81255500D01*
X80864691Y-81255500D01*
X80631302Y-81352173D01*
X80452673Y-81530801D01*
X80356000Y-81764190D01*
X71499000Y-81764190D01*
X71499000Y-66114846D01*
X71513888Y-66039999D01*
X71499000Y-65965152D01*
X71499000Y-65965148D01*
X71454904Y-65743463D01*
X71359900Y-65601279D01*
X71329329Y-65555526D01*
X71329327Y-65555524D01*
X71286929Y-65492071D01*
X71223476Y-65449673D01*
X62538372Y-56764571D01*
X62572000Y-56683385D01*
X62572000Y-56092615D01*
X62345922Y-55546815D01*
X61928185Y-55129078D01*
X61901440Y-55118000D01*
X61928185Y-55106922D01*
X62345922Y-54689185D01*
X62572000Y-54143385D01*
X62572000Y-53552615D01*
X62345922Y-53006815D01*
X61928185Y-52589078D01*
X61901440Y-52578000D01*
X61928185Y-52566922D01*
X62345922Y-52149185D01*
X62572000Y-51603385D01*
X62572000Y-51012615D01*
X62345922Y-50466815D01*
X61928185Y-50049078D01*
X61901440Y-50038000D01*
X61928185Y-50026922D01*
X62345922Y-49609185D01*
X62572000Y-49063385D01*
X62572000Y-48472615D01*
X62345922Y-47926815D01*
X61928185Y-47509078D01*
X61901440Y-47498000D01*
X61928185Y-47486922D01*
X62345922Y-47069185D01*
X62572000Y-46523385D01*
X62572000Y-45999279D01*
X82450282Y-45999279D01*
X82476685Y-46589458D01*
X82651741Y-47012080D01*
X82903042Y-47092353D01*
X83767395Y-46228000D01*
X82903042Y-45363647D01*
X82651741Y-45443920D01*
X82450282Y-45999279D01*
X62572000Y-45999279D01*
X62572000Y-45932615D01*
X62345922Y-45386815D01*
X61928185Y-44969078D01*
X61901440Y-44958000D01*
X61928185Y-44946922D01*
X62345922Y-44529185D01*
X62572000Y-43983385D01*
X62572000Y-43392615D01*
X62345922Y-42846815D01*
X61928185Y-42429078D01*
X61901440Y-42418000D01*
X61928185Y-42406922D01*
X62345922Y-41989185D01*
X62572000Y-41443385D01*
X62572000Y-40852615D01*
X62345922Y-40306815D01*
X61928185Y-39889078D01*
X61901440Y-39878000D01*
X61928185Y-39866922D01*
X62345922Y-39449185D01*
X62572000Y-38903385D01*
X62572000Y-38312615D01*
X62345922Y-37766815D01*
X61928185Y-37349078D01*
X61901440Y-37338000D01*
X61928185Y-37326922D01*
X62345922Y-36909185D01*
X62572000Y-36363385D01*
X62572000Y-35772615D01*
X62345922Y-35226815D01*
X62110113Y-34991006D01*
X62184765Y-34976157D01*
X62394809Y-34835809D01*
X62535157Y-34625765D01*
X62584440Y-34378000D01*
X62584440Y-33232615D01*
X82462000Y-33232615D01*
X82462000Y-33823385D01*
X82688078Y-34369185D01*
X83105815Y-34786922D01*
X83132560Y-34798000D01*
X83105815Y-34809078D01*
X82688078Y-35226815D01*
X82462000Y-35772615D01*
X82462000Y-36363385D01*
X82688078Y-36909185D01*
X83105815Y-37326922D01*
X83132560Y-37338000D01*
X83105815Y-37349078D01*
X82688078Y-37766815D01*
X82462000Y-38312615D01*
X82462000Y-38903385D01*
X82688078Y-39449185D01*
X83105815Y-39866922D01*
X83132560Y-39878000D01*
X83105815Y-39889078D01*
X82688078Y-40306815D01*
X82462000Y-40852615D01*
X82462000Y-41443385D01*
X82688078Y-41989185D01*
X83105815Y-42406922D01*
X83132560Y-42418000D01*
X83105815Y-42429078D01*
X82688078Y-42846815D01*
X82462000Y-43392615D01*
X82462000Y-43983385D01*
X82688078Y-44529185D01*
X83105815Y-44946922D01*
X83152247Y-44966155D01*
X83082647Y-45184042D01*
X83947000Y-46048395D01*
X84811353Y-45184042D01*
X84741753Y-44966155D01*
X84788185Y-44946922D01*
X85205922Y-44529185D01*
X85432000Y-43983385D01*
X85432000Y-43392615D01*
X85398372Y-43311430D01*
X87690803Y-41019000D01*
X113134522Y-41019000D01*
X113342075Y-41329625D01*
X113640461Y-41529000D01*
X113342075Y-41728375D01*
X113134522Y-42039000D01*
X89990848Y-42039000D01*
X89916000Y-42024112D01*
X89841152Y-42039000D01*
X89841148Y-42039000D01*
X89667605Y-42073520D01*
X89619462Y-42083096D01*
X89440014Y-42203000D01*
X89368071Y-42251071D01*
X89325671Y-42314527D01*
X85432574Y-46207625D01*
X85417315Y-45866542D01*
X85242259Y-45443920D01*
X84990958Y-45363647D01*
X84126605Y-46228000D01*
X84140748Y-46242143D01*
X83961143Y-46421748D01*
X83947000Y-46407605D01*
X83082647Y-47271958D01*
X83152247Y-47489845D01*
X83105815Y-47509078D01*
X82688078Y-47926815D01*
X82462000Y-48472615D01*
X82462000Y-49063385D01*
X82688078Y-49609185D01*
X83105815Y-50026922D01*
X83132560Y-50038000D01*
X83105815Y-50049078D01*
X82688078Y-50466815D01*
X82462000Y-51012615D01*
X82462000Y-51603385D01*
X82688078Y-52149185D01*
X83105815Y-52566922D01*
X83132560Y-52578000D01*
X83105815Y-52589078D01*
X82688078Y-53006815D01*
X82462000Y-53552615D01*
X82462000Y-54143385D01*
X82688078Y-54689185D01*
X83105815Y-55106922D01*
X83132560Y-55118000D01*
X83105815Y-55129078D01*
X82688078Y-55546815D01*
X82462000Y-56092615D01*
X82462000Y-56683385D01*
X82688078Y-57229185D01*
X83105815Y-57646922D01*
X83132560Y-57658000D01*
X83105815Y-57669078D01*
X82688078Y-58086815D01*
X82462000Y-58632615D01*
X82462000Y-59223385D01*
X82688078Y-59769185D01*
X83105815Y-60186922D01*
X83132560Y-60198000D01*
X83105815Y-60209078D01*
X82688078Y-60626815D01*
X82462000Y-61172615D01*
X82462000Y-61763385D01*
X82688078Y-62309185D01*
X83105815Y-62726922D01*
X83132560Y-62738000D01*
X83105815Y-62749078D01*
X82688078Y-63166815D01*
X82462000Y-63712615D01*
X82462000Y-64303385D01*
X82688078Y-64849185D01*
X83105815Y-65266922D01*
X83132560Y-65278000D01*
X83105815Y-65289078D01*
X82688078Y-65706815D01*
X82462000Y-66252615D01*
X82462000Y-66843385D01*
X82688078Y-67389185D01*
X83105815Y-67806922D01*
X83132560Y-67818000D01*
X83105815Y-67829078D01*
X82688078Y-68246815D01*
X82462000Y-68792615D01*
X82462000Y-69383385D01*
X82688078Y-69929185D01*
X83105815Y-70346922D01*
X83132560Y-70358000D01*
X83105815Y-70369078D01*
X82688078Y-70786815D01*
X82462000Y-71332615D01*
X82462000Y-71923385D01*
X82688078Y-72469185D01*
X83105815Y-72886922D01*
X83132560Y-72898000D01*
X83105815Y-72909078D01*
X82688078Y-73326815D01*
X82462000Y-73872615D01*
X82462000Y-74463385D01*
X82688078Y-75009185D01*
X83105815Y-75426922D01*
X83132560Y-75438000D01*
X83105815Y-75449078D01*
X82688078Y-75866815D01*
X82462000Y-76412615D01*
X82462000Y-77003385D01*
X82688078Y-77549185D01*
X83105815Y-77966922D01*
X83132560Y-77978000D01*
X83105815Y-77989078D01*
X82688078Y-78406815D01*
X82462000Y-78952615D01*
X82462000Y-79543385D01*
X82688078Y-80089185D01*
X83105815Y-80506922D01*
X83651615Y-80733000D01*
X84242385Y-80733000D01*
X84788185Y-80506922D01*
X85205922Y-80089185D01*
X85432000Y-79543385D01*
X85432000Y-78952615D01*
X85205922Y-78406815D01*
X84788185Y-77989078D01*
X84761440Y-77978000D01*
X84788185Y-77966922D01*
X85205922Y-77549185D01*
X85432000Y-77003385D01*
X85432000Y-76412615D01*
X85205922Y-75866815D01*
X84788185Y-75449078D01*
X84761440Y-75438000D01*
X84788185Y-75426922D01*
X85205922Y-75009185D01*
X85432000Y-74463385D01*
X85432000Y-73872615D01*
X85205922Y-73326815D01*
X84788185Y-72909078D01*
X84761440Y-72898000D01*
X84788185Y-72886922D01*
X85205922Y-72469185D01*
X85432000Y-71923385D01*
X85432000Y-71332615D01*
X85205922Y-70786815D01*
X84788185Y-70369078D01*
X84761440Y-70358000D01*
X84788185Y-70346922D01*
X85205922Y-69929185D01*
X85432000Y-69383385D01*
X85432000Y-68792615D01*
X85205922Y-68246815D01*
X84788185Y-67829078D01*
X84761440Y-67818000D01*
X84788185Y-67806922D01*
X85205922Y-67389185D01*
X85419336Y-66873958D01*
X88048347Y-66873958D01*
X88128620Y-67125259D01*
X88683979Y-67326718D01*
X89274158Y-67300315D01*
X89696780Y-67125259D01*
X89777053Y-66873958D01*
X113548347Y-66873958D01*
X113628620Y-67125259D01*
X114183979Y-67326718D01*
X114774158Y-67300315D01*
X115196780Y-67125259D01*
X115277053Y-66873958D01*
X114412700Y-66009605D01*
X113548347Y-66873958D01*
X89777053Y-66873958D01*
X88912700Y-66009605D01*
X88048347Y-66873958D01*
X85419336Y-66873958D01*
X85432000Y-66843385D01*
X85432000Y-66252615D01*
X85205922Y-65706815D01*
X85100386Y-65601279D01*
X87415982Y-65601279D01*
X87442385Y-66191458D01*
X87617441Y-66614080D01*
X87868742Y-66694353D01*
X88733095Y-65830000D01*
X89092305Y-65830000D01*
X89956658Y-66694353D01*
X90207959Y-66614080D01*
X90409418Y-66058721D01*
X90388954Y-65601279D01*
X112915982Y-65601279D01*
X112942385Y-66191458D01*
X113117441Y-66614080D01*
X113368742Y-66694353D01*
X114233095Y-65830000D01*
X114592305Y-65830000D01*
X115456658Y-66694353D01*
X115707959Y-66614080D01*
X115909418Y-66058721D01*
X115883015Y-65468542D01*
X115707959Y-65045920D01*
X115456658Y-64965647D01*
X114592305Y-65830000D01*
X114233095Y-65830000D01*
X113368742Y-64965647D01*
X113117441Y-65045920D01*
X112915982Y-65601279D01*
X90388954Y-65601279D01*
X90383015Y-65468542D01*
X90207959Y-65045920D01*
X89956658Y-64965647D01*
X89092305Y-65830000D01*
X88733095Y-65830000D01*
X87868742Y-64965647D01*
X87617441Y-65045920D01*
X87415982Y-65601279D01*
X85100386Y-65601279D01*
X84788185Y-65289078D01*
X84761440Y-65278000D01*
X84788185Y-65266922D01*
X85205922Y-64849185D01*
X85432000Y-64303385D01*
X85432000Y-63712615D01*
X85398372Y-63631429D01*
X86589801Y-62440000D01*
X87415260Y-62440000D01*
X87415260Y-64140000D01*
X87464543Y-64387765D01*
X87604891Y-64597809D01*
X87814935Y-64738157D01*
X88048785Y-64784672D01*
X88048347Y-64786042D01*
X88912700Y-65650395D01*
X89777053Y-64786042D01*
X89776615Y-64784672D01*
X90010465Y-64738157D01*
X90220509Y-64597809D01*
X90360857Y-64387765D01*
X90410140Y-64140000D01*
X90410140Y-62440000D01*
X112915260Y-62440000D01*
X112915260Y-64140000D01*
X112964543Y-64387765D01*
X113104891Y-64597809D01*
X113314935Y-64738157D01*
X113548785Y-64784672D01*
X113548347Y-64786042D01*
X114412700Y-65650395D01*
X115277053Y-64786042D01*
X115276615Y-64784672D01*
X115510465Y-64738157D01*
X115720509Y-64597809D01*
X115860857Y-64387765D01*
X115910140Y-64140000D01*
X115910140Y-62440000D01*
X115860857Y-62192235D01*
X115720509Y-61982191D01*
X115510465Y-61841843D01*
X115262700Y-61792560D01*
X113562700Y-61792560D01*
X113314935Y-61841843D01*
X113104891Y-61982191D01*
X112964543Y-62192235D01*
X112915260Y-62440000D01*
X90410140Y-62440000D01*
X90360857Y-62192235D01*
X90220509Y-61982191D01*
X90010465Y-61841843D01*
X89762700Y-61792560D01*
X88062700Y-61792560D01*
X87814935Y-61841843D01*
X87604891Y-61982191D01*
X87464543Y-62192235D01*
X87415260Y-62440000D01*
X86589801Y-62440000D01*
X90230802Y-58799000D01*
X112915260Y-58799000D01*
X112915260Y-58889000D01*
X112964543Y-59136765D01*
X113104891Y-59346809D01*
X113314935Y-59487157D01*
X113562700Y-59536440D01*
X115262700Y-59536440D01*
X115510465Y-59487157D01*
X115720509Y-59346809D01*
X115860857Y-59136765D01*
X115910140Y-58889000D01*
X115910140Y-57189000D01*
X115860857Y-56941235D01*
X115720509Y-56731191D01*
X115510465Y-56590843D01*
X115465081Y-56581816D01*
X115483325Y-56569625D01*
X115811539Y-56078418D01*
X115926792Y-55499000D01*
X115811539Y-54919582D01*
X115483325Y-54428375D01*
X115184939Y-54229000D01*
X115483325Y-54029625D01*
X115811539Y-53538418D01*
X115926792Y-52959000D01*
X115811539Y-52379582D01*
X115483325Y-51888375D01*
X115184939Y-51689000D01*
X115483325Y-51489625D01*
X115811539Y-50998418D01*
X115926792Y-50419000D01*
X115811539Y-49839582D01*
X115483325Y-49348375D01*
X115184939Y-49149000D01*
X115483325Y-48949625D01*
X115811539Y-48458418D01*
X115926792Y-47879000D01*
X115811539Y-47299582D01*
X115483325Y-46808375D01*
X115184939Y-46609000D01*
X115483325Y-46409625D01*
X115811539Y-45918418D01*
X115926792Y-45339000D01*
X115811539Y-44759582D01*
X115483325Y-44268375D01*
X115184939Y-44069000D01*
X115483325Y-43869625D01*
X115811539Y-43378418D01*
X115926792Y-42799000D01*
X115811539Y-42219582D01*
X115483325Y-41728375D01*
X115184939Y-41529000D01*
X115483325Y-41329625D01*
X115811539Y-40838418D01*
X115926792Y-40259000D01*
X115811539Y-39679582D01*
X115483325Y-39188375D01*
X114992118Y-38860161D01*
X114558956Y-38774000D01*
X114266444Y-38774000D01*
X113833282Y-38860161D01*
X113342075Y-39188375D01*
X113134522Y-39499000D01*
X87450846Y-39499000D01*
X87375999Y-39484112D01*
X87301152Y-39499000D01*
X87301148Y-39499000D01*
X87079463Y-39543096D01*
X87079461Y-39543097D01*
X87079462Y-39543097D01*
X86891526Y-39668671D01*
X86891524Y-39668673D01*
X86828071Y-39711071D01*
X86785673Y-39774524D01*
X85432000Y-41128198D01*
X85432000Y-40852615D01*
X85205922Y-40306815D01*
X84788185Y-39889078D01*
X84761440Y-39878000D01*
X84788185Y-39866922D01*
X85205922Y-39449185D01*
X85432000Y-38903385D01*
X85432000Y-38312615D01*
X85205922Y-37766815D01*
X84788185Y-37349078D01*
X84761440Y-37338000D01*
X84788185Y-37326922D01*
X85205922Y-36909185D01*
X85432000Y-36363385D01*
X85432000Y-35772615D01*
X85205922Y-35226815D01*
X84788185Y-34809078D01*
X84761440Y-34798000D01*
X84788185Y-34786922D01*
X85205922Y-34369185D01*
X85422868Y-33845431D01*
X86677700Y-33845431D01*
X86677700Y-34734569D01*
X87017959Y-35556026D01*
X87646674Y-36184741D01*
X88468131Y-36525000D01*
X89357269Y-36525000D01*
X90178726Y-36184741D01*
X90807441Y-35556026D01*
X91147700Y-34734569D01*
X91147700Y-33845431D01*
X90807441Y-33023974D01*
X90178726Y-32395259D01*
X89357269Y-32055000D01*
X88468131Y-32055000D01*
X87646674Y-32395259D01*
X87017959Y-33023974D01*
X86677700Y-33845431D01*
X85422868Y-33845431D01*
X85432000Y-33823385D01*
X85432000Y-33232615D01*
X85205922Y-32686815D01*
X84788185Y-32269078D01*
X84242385Y-32043000D01*
X83651615Y-32043000D01*
X83105815Y-32269078D01*
X82688078Y-32686815D01*
X82462000Y-33232615D01*
X62584440Y-33232615D01*
X62584440Y-32678000D01*
X62535157Y-32430235D01*
X62394809Y-32220191D01*
X62184765Y-32079843D01*
X61937000Y-32030560D01*
X60237000Y-32030560D01*
X59989235Y-32079843D01*
X59779191Y-32220191D01*
X59638843Y-32430235D01*
X59589560Y-32678000D01*
X59384000Y-32678000D01*
X59384000Y-32073926D01*
X59400808Y-31989426D01*
X59409067Y-31977067D01*
X59421426Y-31968808D01*
X59505927Y-31952000D01*
X116130000Y-31952000D01*
X116130000Y-33802700D01*
X116130000Y-33802700D01*
G37*
X116130000Y-33802700D02*
X115807441Y-33023974D01*
X115178726Y-32395259D01*
X114357269Y-32055000D01*
X113468131Y-32055000D01*
X112646674Y-32395259D01*
X112017959Y-33023974D01*
X111677700Y-33845431D01*
X111677700Y-34734569D01*
X112017959Y-35556026D01*
X112646674Y-36184741D01*
X113468131Y-36525000D01*
X114357269Y-36525000D01*
X115178726Y-36184741D01*
X115807441Y-35556026D01*
X116130000Y-34777300D01*
X116130001Y-127922702D01*
X115807441Y-127143974D01*
X115178726Y-126515259D01*
X114357269Y-126175000D01*
X113468131Y-126175000D01*
X112646674Y-126515259D01*
X112017959Y-127143974D01*
X111677700Y-127965431D01*
X111677700Y-128854569D01*
X112017959Y-129676026D01*
X112646674Y-130304741D01*
X113468131Y-130645000D01*
X114357269Y-130645000D01*
X115178726Y-130304741D01*
X115807441Y-129676026D01*
X116130001Y-128897298D01*
X116130001Y-145218068D01*
X116113192Y-145302574D01*
X116104933Y-145314933D01*
X116092574Y-145323192D01*
X116008074Y-145340000D01*
X88032187Y-145340000D01*
X88461765Y-145052965D01*
X88680214Y-144726032D01*
X89758273Y-144726032D01*
X89856936Y-144992887D01*
X90466661Y-145219408D01*
X91116660Y-145195356D01*
X91605464Y-144992887D01*
X91704127Y-144726032D01*
X96258273Y-144726032D01*
X96356936Y-144992887D01*
X96966661Y-145219408D01*
X97616660Y-145195356D01*
X98105464Y-144992887D01*
X98204127Y-144726032D01*
X99397573Y-144726032D01*
X99496236Y-144992887D01*
X100105961Y-145219408D01*
X100755960Y-145195356D01*
X101244764Y-144992887D01*
X101343427Y-144726032D01*
X105897573Y-144726032D01*
X105996236Y-144992887D01*
X106605961Y-145219408D01*
X107255960Y-145195356D01*
X107744764Y-144992887D01*
X107843427Y-144726032D01*
X106870500Y-143753105D01*
X105897573Y-144726032D01*
X101343427Y-144726032D01*
X100370500Y-143753105D01*
X99397573Y-144726032D01*
X98204127Y-144726032D01*
X97231200Y-143753105D01*
X96258273Y-144726032D01*
X91704127Y-144726032D01*
X90731200Y-143753105D01*
X89758273Y-144726032D01*
X88680214Y-144726032D01*
X88845234Y-144479063D01*
X88979890Y-143802100D01*
X88881799Y-143308961D01*
X89085292Y-143308961D01*
X89109344Y-143958960D01*
X89311813Y-144447764D01*
X89578668Y-144546427D01*
X90551595Y-143573500D01*
X90910805Y-143573500D01*
X91883732Y-144546427D01*
X92150587Y-144447764D01*
X92377108Y-143838039D01*
X92357531Y-143308961D01*
X95585292Y-143308961D01*
X95609344Y-143958960D01*
X95811813Y-144447764D01*
X96078668Y-144546427D01*
X97051595Y-143573500D01*
X97410805Y-143573500D01*
X98383732Y-144546427D01*
X98650587Y-144447764D01*
X98792684Y-144065282D01*
X98951113Y-144447764D01*
X99217968Y-144546427D01*
X100190895Y-143573500D01*
X100550105Y-143573500D01*
X101523032Y-144546427D01*
X101789887Y-144447764D01*
X102016408Y-143838039D01*
X101996831Y-143308961D01*
X105224592Y-143308961D01*
X105248644Y-143958960D01*
X105451113Y-144447764D01*
X105717968Y-144546427D01*
X106690895Y-143573500D01*
X107050105Y-143573500D01*
X108023032Y-144546427D01*
X108289887Y-144447764D01*
X108516408Y-143838039D01*
X108492356Y-143188040D01*
X108289887Y-142699236D01*
X108023032Y-142600573D01*
X107050105Y-143573500D01*
X106690895Y-143573500D01*
X105717968Y-142600573D01*
X105451113Y-142699236D01*
X105224592Y-143308961D01*
X101996831Y-143308961D01*
X101992356Y-143188040D01*
X101789887Y-142699236D01*
X101523032Y-142600573D01*
X100550105Y-143573500D01*
X100190895Y-143573500D01*
X99217968Y-142600573D01*
X98951113Y-142699236D01*
X98809016Y-143081718D01*
X98650587Y-142699236D01*
X98383732Y-142600573D01*
X97410805Y-143573500D01*
X97051595Y-143573500D01*
X96078668Y-142600573D01*
X95811813Y-142699236D01*
X95585292Y-143308961D01*
X92357531Y-143308961D01*
X92353056Y-143188040D01*
X92150587Y-142699236D01*
X91883732Y-142600573D01*
X90910805Y-143573500D01*
X90551595Y-143573500D01*
X89578668Y-142600573D01*
X89311813Y-142699236D01*
X89085292Y-143308961D01*
X88881799Y-143308961D01*
X88845234Y-143125137D01*
X88461765Y-142551235D01*
X88266807Y-142420968D01*
X89758273Y-142420968D01*
X90731200Y-143393895D01*
X91704127Y-142420968D01*
X96258273Y-142420968D01*
X97231200Y-143393895D01*
X98204127Y-142420968D01*
X99397573Y-142420968D01*
X100370500Y-143393895D01*
X101343427Y-142420968D01*
X105897573Y-142420968D01*
X106870500Y-143393895D01*
X107843427Y-142420968D01*
X107744764Y-142154113D01*
X107135039Y-141927592D01*
X106485040Y-141951644D01*
X105996236Y-142154113D01*
X105897573Y-142420968D01*
X101343427Y-142420968D01*
X101244764Y-142154113D01*
X100635039Y-141927592D01*
X99985040Y-141951644D01*
X99496236Y-142154113D01*
X99397573Y-142420968D01*
X98204127Y-142420968D01*
X98105464Y-142154113D01*
X97495739Y-141927592D01*
X96845740Y-141951644D01*
X96356936Y-142154113D01*
X96258273Y-142420968D01*
X91704127Y-142420968D01*
X91605464Y-142154113D01*
X90995739Y-141927592D01*
X90345740Y-141951644D01*
X89856936Y-142154113D01*
X89758273Y-142420968D01*
X88266807Y-142420968D01*
X87887863Y-142167766D01*
X87381780Y-142067100D01*
X87040020Y-142067100D01*
X86956269Y-142083759D01*
X86887000Y-142014490D01*
X86887000Y-141389434D01*
X86907276Y-141287500D01*
X86841327Y-140955951D01*
X86826948Y-140883663D01*
X86598193Y-140541307D01*
X86511773Y-140483563D01*
X86497750Y-140469540D01*
X88310900Y-140469540D01*
X88558665Y-140420257D01*
X88768709Y-140279909D01*
X88909057Y-140069865D01*
X88958340Y-139822100D01*
X88958340Y-137622100D01*
X88909057Y-137374335D01*
X88768709Y-137164291D01*
X88558665Y-137023943D01*
X88310900Y-136974660D01*
X86110900Y-136974660D01*
X85863135Y-137023943D01*
X85653091Y-137164291D01*
X85591813Y-137256000D01*
X81824440Y-137256000D01*
X81824440Y-136541000D01*
X81775157Y-136293235D01*
X81712000Y-136198715D01*
X81712000Y-133229929D01*
X81732275Y-133127999D01*
X81712000Y-133026070D01*
X81712000Y-133026065D01*
X81651948Y-132724163D01*
X81423193Y-132381807D01*
X81336776Y-132324065D01*
X77538961Y-128526250D01*
X80356000Y-128526250D01*
X80356000Y-129216810D01*
X80452673Y-129450199D01*
X80631302Y-129628827D01*
X80864691Y-129725500D01*
X81555250Y-129725500D01*
X81714000Y-129566750D01*
X81714000Y-128367500D01*
X81968000Y-128367500D01*
X81968000Y-129566750D01*
X82126750Y-129725500D01*
X82817309Y-129725500D01*
X83050698Y-129628827D01*
X83229327Y-129450199D01*
X83326000Y-129216810D01*
X83326000Y-128526250D01*
X83167250Y-128367500D01*
X81968000Y-128367500D01*
X81714000Y-128367500D01*
X80514750Y-128367500D01*
X80356000Y-128526250D01*
X77538961Y-128526250D01*
X76276901Y-127264190D01*
X80356000Y-127264190D01*
X80356000Y-127954750D01*
X80514750Y-128113500D01*
X81714000Y-128113500D01*
X81714000Y-126914250D01*
X81968000Y-126914250D01*
X81968000Y-128113500D01*
X83167250Y-128113500D01*
X83315319Y-127965431D01*
X86677700Y-127965431D01*
X86677700Y-128854569D01*
X87017959Y-129676026D01*
X87646674Y-130304741D01*
X88468131Y-130645000D01*
X89357269Y-130645000D01*
X90178726Y-130304741D01*
X90807441Y-129676026D01*
X91147700Y-128854569D01*
X91147700Y-127965431D01*
X90807441Y-127143974D01*
X90178726Y-126515259D01*
X89357269Y-126175000D01*
X88468131Y-126175000D01*
X87646674Y-126515259D01*
X87017959Y-127143974D01*
X86677700Y-127965431D01*
X83315319Y-127965431D01*
X83326000Y-127954750D01*
X83326000Y-127264190D01*
X83229327Y-127030801D01*
X83050698Y-126852173D01*
X82817309Y-126755500D01*
X82126750Y-126755500D01*
X81968000Y-126914250D01*
X81714000Y-126914250D01*
X81555250Y-126755500D01*
X80864691Y-126755500D01*
X80631302Y-126852173D01*
X80452673Y-127030801D01*
X80356000Y-127264190D01*
X76276901Y-127264190D01*
X64408000Y-115395290D01*
X64408000Y-84874434D01*
X64428276Y-84772500D01*
X64347948Y-84368663D01*
X64260602Y-84237940D01*
X64119193Y-84026307D01*
X64032776Y-83968565D01*
X62838440Y-82774230D01*
X62838440Y-81890500D01*
X62789157Y-81642735D01*
X62648809Y-81432691D01*
X62438765Y-81292343D01*
X62191000Y-81243060D01*
X60491000Y-81243060D01*
X60243235Y-81292343D01*
X60033191Y-81432691D01*
X59892843Y-81642735D01*
X59843560Y-81890500D01*
X59843560Y-83590500D01*
X59892843Y-83838265D01*
X60033191Y-84048309D01*
X60243235Y-84188657D01*
X60491000Y-84237940D01*
X61374730Y-84237940D01*
X62338001Y-85201212D01*
X62338000Y-115722066D01*
X62317724Y-115824000D01*
X62338000Y-115925934D01*
X62398052Y-116227836D01*
X62626807Y-116570193D01*
X62713227Y-116627937D01*
X79642001Y-133556712D01*
X79642000Y-136093954D01*
X79634809Y-136083191D01*
X79424765Y-135942843D01*
X79177000Y-135893560D01*
X78177000Y-135893560D01*
X77929235Y-135942843D01*
X77719191Y-136083191D01*
X77578843Y-136293235D01*
X77529560Y-136541000D01*
X77529560Y-136979849D01*
X76414937Y-135865227D01*
X76357193Y-135778807D01*
X76014837Y-135550052D01*
X75712935Y-135490000D01*
X75712934Y-135490000D01*
X75611000Y-135469724D01*
X75509066Y-135490000D01*
X74497677Y-135490000D01*
X74821577Y-135273577D01*
X75138740Y-134798909D01*
X75250113Y-134239000D01*
X75138740Y-133679091D01*
X74821577Y-133204423D01*
X74346909Y-132887260D01*
X73928333Y-132804000D01*
X73645667Y-132804000D01*
X73227091Y-132887260D01*
X72752423Y-133204423D01*
X72435260Y-133679091D01*
X72323887Y-134239000D01*
X72435260Y-134798909D01*
X72752423Y-135273577D01*
X73076323Y-135490000D01*
X72342934Y-135490000D01*
X72241000Y-135469724D01*
X72139065Y-135490000D01*
X71837163Y-135550052D01*
X71494807Y-135778807D01*
X71437065Y-135865224D01*
X70206227Y-137096063D01*
X70119807Y-137153807D01*
X69930953Y-137436448D01*
X69891052Y-137496164D01*
X69810724Y-137900000D01*
X69831000Y-138001935D01*
X69831000Y-138434796D01*
X69721477Y-138507977D01*
X69586841Y-138709474D01*
X69192924Y-138324027D01*
X68698980Y-138109437D01*
X68453000Y-138229406D01*
X68453000Y-139573000D01*
X68473000Y-139573000D01*
X68473000Y-139827000D01*
X68453000Y-139827000D01*
X68453000Y-141170594D01*
X68698980Y-141290563D01*
X69192924Y-141075973D01*
X69586841Y-140690526D01*
X69721477Y-140892023D01*
X70246589Y-141242891D01*
X70866000Y-141366100D01*
X71485410Y-141242891D01*
X71877491Y-140980912D01*
X71995691Y-141157809D01*
X72168807Y-141273482D01*
X72046790Y-141395500D01*
X67675211Y-141395500D01*
X67265500Y-140985790D01*
X67265500Y-140886559D01*
X67459076Y-141075973D01*
X67953020Y-141290563D01*
X68199000Y-141170594D01*
X68199000Y-139827000D01*
X68179000Y-139827000D01*
X68179000Y-139573000D01*
X68199000Y-139573000D01*
X68199000Y-138229406D01*
X67953020Y-138109437D01*
X67459076Y-138324027D01*
X67265500Y-138513441D01*
X67265500Y-135928434D01*
X67285776Y-135826500D01*
X67244421Y-135618596D01*
X67205448Y-135422663D01*
X67202000Y-135417503D01*
X67202000Y-135233396D01*
X67383534Y-135051862D01*
X67602000Y-134524439D01*
X67602000Y-133953561D01*
X67383534Y-133426138D01*
X66979862Y-133022466D01*
X66452439Y-132804000D01*
X65881561Y-132804000D01*
X65498501Y-132962669D01*
X65498501Y-127727300D01*
X68048302Y-125177500D01*
X68214374Y-125177500D01*
X68594780Y-125019931D01*
X68885931Y-124728780D01*
X69043500Y-124348374D01*
X69043500Y-123936626D01*
X68885931Y-123556220D01*
X68594780Y-123265069D01*
X68214374Y-123107500D01*
X67802626Y-123107500D01*
X67422220Y-123265069D01*
X67131069Y-123556220D01*
X66973500Y-123936626D01*
X66973500Y-124102698D01*
X64254029Y-126822170D01*
X64190573Y-126864570D01*
X64148173Y-126928026D01*
X64148172Y-126928027D01*
X64022598Y-127115962D01*
X63963613Y-127412499D01*
X63978502Y-127487351D01*
X63978501Y-137760457D01*
X63709756Y-137707000D01*
X63417244Y-137707000D01*
X62984082Y-137793161D01*
X62492875Y-138121375D01*
X62293500Y-138419761D01*
X62094125Y-138121375D01*
X61602918Y-137793161D01*
X61494596Y-137771615D01*
X62000776Y-137265435D01*
X62087193Y-137207693D01*
X62315948Y-136865337D01*
X62365764Y-136614893D01*
X62396276Y-136461501D01*
X62376000Y-136359566D01*
X62376000Y-129701142D01*
X62438765Y-129688657D01*
X62648809Y-129548309D01*
X62789157Y-129338265D01*
X62838440Y-129090500D01*
X62838440Y-127390500D01*
X62789157Y-127142735D01*
X62648809Y-126932691D01*
X62438765Y-126792343D01*
X62191000Y-126743060D01*
X60491000Y-126743060D01*
X60243235Y-126792343D01*
X60033191Y-126932691D01*
X59892843Y-127142735D01*
X59843560Y-127390500D01*
X59843560Y-129090500D01*
X59892843Y-129338265D01*
X60033191Y-129548309D01*
X60243235Y-129688657D01*
X60306001Y-129701142D01*
X60306000Y-136032789D01*
X59384000Y-136954790D01*
X59384000Y-80291958D01*
X60222647Y-80291958D01*
X60302920Y-80543259D01*
X60858279Y-80744718D01*
X61448458Y-80718315D01*
X61871080Y-80543259D01*
X61951353Y-80291958D01*
X61087000Y-79427605D01*
X60222647Y-80291958D01*
X59384000Y-80291958D01*
X59384000Y-79019279D01*
X59590282Y-79019279D01*
X59616685Y-79609458D01*
X59791741Y-80032080D01*
X60043042Y-80112353D01*
X60907395Y-79248000D01*
X61266605Y-79248000D01*
X62130958Y-80112353D01*
X62382259Y-80032080D01*
X62583718Y-79476721D01*
X62557315Y-78886542D01*
X62382259Y-78463920D01*
X62130958Y-78383647D01*
X61266605Y-79248000D01*
X60907395Y-79248000D01*
X60043042Y-78383647D01*
X59791741Y-78463920D01*
X59590282Y-79019279D01*
X59384000Y-79019279D01*
X59384000Y-66252615D01*
X59602000Y-66252615D01*
X59602000Y-66843385D01*
X59828078Y-67389185D01*
X60245815Y-67806922D01*
X60272560Y-67818000D01*
X60245815Y-67829078D01*
X59828078Y-68246815D01*
X59602000Y-68792615D01*
X59602000Y-69383385D01*
X59828078Y-69929185D01*
X60245815Y-70346922D01*
X60272560Y-70358000D01*
X60245815Y-70369078D01*
X59828078Y-70786815D01*
X59602000Y-71332615D01*
X59602000Y-71923385D01*
X59828078Y-72469185D01*
X60245815Y-72886922D01*
X60272560Y-72898000D01*
X60245815Y-72909078D01*
X59828078Y-73326815D01*
X59602000Y-73872615D01*
X59602000Y-74463385D01*
X59828078Y-75009185D01*
X60245815Y-75426922D01*
X60272560Y-75438000D01*
X60245815Y-75449078D01*
X59828078Y-75866815D01*
X59602000Y-76412615D01*
X59602000Y-77003385D01*
X59828078Y-77549185D01*
X60245815Y-77966922D01*
X60292247Y-77986155D01*
X60222647Y-78204042D01*
X61087000Y-79068395D01*
X61951353Y-78204042D01*
X61881753Y-77986155D01*
X61928185Y-77966922D01*
X62345922Y-77549185D01*
X62572000Y-77003385D01*
X62572000Y-76412615D01*
X62345922Y-75866815D01*
X61928185Y-75449078D01*
X61901440Y-75438000D01*
X61928185Y-75426922D01*
X62345922Y-75009185D01*
X62572000Y-74463385D01*
X62572000Y-73872615D01*
X62345922Y-73326815D01*
X61928185Y-72909078D01*
X61901440Y-72898000D01*
X61928185Y-72886922D01*
X62345922Y-72469185D01*
X62572000Y-71923385D01*
X62572000Y-71332615D01*
X62345922Y-70786815D01*
X61928185Y-70369078D01*
X61901440Y-70358000D01*
X61928185Y-70346922D01*
X62345922Y-69929185D01*
X62572000Y-69383385D01*
X62572000Y-68792615D01*
X62345922Y-68246815D01*
X61928185Y-67829078D01*
X61901440Y-67818000D01*
X61928185Y-67806922D01*
X62345922Y-67389185D01*
X62572000Y-66843385D01*
X62572000Y-66252615D01*
X62345922Y-65706815D01*
X61928185Y-65289078D01*
X61881753Y-65269845D01*
X61951353Y-65051958D01*
X61087000Y-64187605D01*
X60222647Y-65051958D01*
X60292247Y-65269845D01*
X60245815Y-65289078D01*
X59828078Y-65706815D01*
X59602000Y-66252615D01*
X59384000Y-66252615D01*
X59384000Y-63779279D01*
X59590282Y-63779279D01*
X59616685Y-64369458D01*
X59791741Y-64792080D01*
X60043042Y-64872353D01*
X60907395Y-64008000D01*
X60043042Y-63143647D01*
X59791741Y-63223920D01*
X59590282Y-63779279D01*
X59384000Y-63779279D01*
X59384000Y-32678000D01*
X59589560Y-32678000D01*
X59589560Y-34378000D01*
X59638843Y-34625765D01*
X59779191Y-34835809D01*
X59989235Y-34976157D01*
X60063887Y-34991006D01*
X59828078Y-35226815D01*
X59602000Y-35772615D01*
X59602000Y-36363385D01*
X59828078Y-36909185D01*
X60245815Y-37326922D01*
X60272560Y-37338000D01*
X60245815Y-37349078D01*
X59828078Y-37766815D01*
X59602000Y-38312615D01*
X59602000Y-38903385D01*
X59828078Y-39449185D01*
X60245815Y-39866922D01*
X60272560Y-39878000D01*
X60245815Y-39889078D01*
X59828078Y-40306815D01*
X59602000Y-40852615D01*
X59602000Y-41443385D01*
X59828078Y-41989185D01*
X60245815Y-42406922D01*
X60272560Y-42418000D01*
X60245815Y-42429078D01*
X59828078Y-42846815D01*
X59602000Y-43392615D01*
X59602000Y-43983385D01*
X59828078Y-44529185D01*
X60245815Y-44946922D01*
X60272560Y-44958000D01*
X60245815Y-44969078D01*
X59828078Y-45386815D01*
X59602000Y-45932615D01*
X59602000Y-46523385D01*
X59828078Y-47069185D01*
X60245815Y-47486922D01*
X60272560Y-47498000D01*
X60245815Y-47509078D01*
X59828078Y-47926815D01*
X59602000Y-48472615D01*
X59602000Y-49063385D01*
X59828078Y-49609185D01*
X60245815Y-50026922D01*
X60272560Y-50038000D01*
X60245815Y-50049078D01*
X59828078Y-50466815D01*
X59602000Y-51012615D01*
X59602000Y-51603385D01*
X59828078Y-52149185D01*
X60245815Y-52566922D01*
X60272560Y-52578000D01*
X60245815Y-52589078D01*
X59828078Y-53006815D01*
X59602000Y-53552615D01*
X59602000Y-54143385D01*
X59828078Y-54689185D01*
X60245815Y-55106922D01*
X60272560Y-55118000D01*
X60245815Y-55129078D01*
X59828078Y-55546815D01*
X59602000Y-56092615D01*
X59602000Y-56683385D01*
X59828078Y-57229185D01*
X60245815Y-57646922D01*
X60272560Y-57658000D01*
X60245815Y-57669078D01*
X59828078Y-58086815D01*
X59602000Y-58632615D01*
X59602000Y-59223385D01*
X59828078Y-59769185D01*
X60245815Y-60186922D01*
X60272560Y-60198000D01*
X60245815Y-60209078D01*
X59828078Y-60626815D01*
X59602000Y-61172615D01*
X59602000Y-61763385D01*
X59828078Y-62309185D01*
X60245815Y-62726922D01*
X60292247Y-62746155D01*
X60222647Y-62964042D01*
X61087000Y-63828395D01*
X61101143Y-63814253D01*
X61280748Y-63993858D01*
X61266605Y-64008000D01*
X62130958Y-64872353D01*
X62382259Y-64792080D01*
X62583718Y-64236721D01*
X62574483Y-64030284D01*
X68963001Y-70418803D01*
X68963001Y-70808776D01*
X68595374Y-70656500D01*
X68183626Y-70656500D01*
X67803220Y-70814069D01*
X67512069Y-71105220D01*
X67354500Y-71485626D01*
X67354500Y-71897374D01*
X67512069Y-72277780D01*
X67629501Y-72395212D01*
X67629501Y-73912790D01*
X67388280Y-73671569D01*
X67007874Y-73514000D01*
X66596126Y-73514000D01*
X66215720Y-73671569D01*
X65924569Y-73962720D01*
X65767000Y-74343126D01*
X65767000Y-74754874D01*
X65924569Y-75135280D01*
X66042001Y-75252712D01*
X66042000Y-95556153D01*
X66027112Y-95631000D01*
X66042000Y-95705847D01*
X66042000Y-95705851D01*
X66086096Y-95927536D01*
X66254071Y-96178929D01*
X66317530Y-96221331D01*
X92204001Y-122107803D01*
X92204000Y-136525898D01*
X91222575Y-137507323D01*
X91056422Y-137438500D01*
X90405978Y-137438500D01*
X89805047Y-137687414D01*
X89345114Y-138147347D01*
X89096200Y-138748278D01*
X89096200Y-139398722D01*
X89345114Y-139999653D01*
X89805047Y-140459586D01*
X90405978Y-140708500D01*
X91056422Y-140708500D01*
X91657353Y-140459586D01*
X92117286Y-139999653D01*
X92186109Y-139833500D01*
X95776291Y-139833500D01*
X95845114Y-139999653D01*
X96305047Y-140459586D01*
X96905978Y-140708500D01*
X97556422Y-140708500D01*
X98157353Y-140459586D01*
X98617286Y-139999653D01*
X98800850Y-139556491D01*
X98984414Y-139999653D01*
X99444347Y-140459586D01*
X100045278Y-140708500D01*
X100695722Y-140708500D01*
X101296653Y-140459586D01*
X101756586Y-139999653D01*
X101825409Y-139833500D01*
X105415591Y-139833500D01*
X105484414Y-139999653D01*
X105944347Y-140459586D01*
X106545278Y-140708500D01*
X107195722Y-140708500D01*
X107796653Y-140459586D01*
X108256586Y-139999653D01*
X108505500Y-139398722D01*
X108505500Y-138748278D01*
X108256586Y-138147347D01*
X107796653Y-137687414D01*
X107195722Y-137438500D01*
X106545278Y-137438500D01*
X105944347Y-137687414D01*
X105484414Y-138147347D01*
X105415591Y-138313500D01*
X101825409Y-138313500D01*
X101756586Y-138147347D01*
X101296653Y-137687414D01*
X101130500Y-137618591D01*
X101130500Y-129703624D01*
X108904501Y-137477625D01*
X108904500Y-139534431D01*
X108794993Y-139579790D01*
X108363190Y-140011593D01*
X108129500Y-140575770D01*
X108129500Y-141186430D01*
X108363190Y-141750607D01*
X108794993Y-142182410D01*
X109359170Y-142416100D01*
X109653500Y-142416100D01*
X109653500Y-142710430D01*
X109887190Y-143274607D01*
X110318993Y-143706410D01*
X110883170Y-143940100D01*
X111493830Y-143940100D01*
X112058007Y-143706410D01*
X112489810Y-143274607D01*
X112723500Y-142710430D01*
X112723500Y-142416100D01*
X112943060Y-142416100D01*
X112943060Y-142855100D01*
X113026598Y-143275072D01*
X113264493Y-143631107D01*
X113620528Y-143869002D01*
X114040500Y-143952540D01*
X114940500Y-143952540D01*
X115360472Y-143869002D01*
X115716507Y-143631107D01*
X115954402Y-143275072D01*
X116037940Y-142855100D01*
X116037940Y-141955100D01*
X115954402Y-141535128D01*
X115716507Y-141179093D01*
X115360472Y-140941198D01*
X115250500Y-140919323D01*
X115250500Y-137550938D01*
X115265388Y-137476090D01*
X115250500Y-137401242D01*
X115250500Y-137401238D01*
X115206404Y-137179553D01*
X115206404Y-137179552D01*
X115080829Y-136991617D01*
X115038429Y-136928161D01*
X114974973Y-136885761D01*
X114921352Y-136832141D01*
X115282134Y-136661389D01*
X115658041Y-136246423D01*
X115818904Y-135858039D01*
X115696915Y-135636000D01*
X114554000Y-135636000D01*
X114554000Y-135656000D01*
X114300000Y-135656000D01*
X114300000Y-135636000D01*
X114280000Y-135636000D01*
X114280000Y-135382000D01*
X114300000Y-135382000D01*
X114300000Y-134238371D01*
X114554000Y-134238371D01*
X114554000Y-135382000D01*
X115696915Y-135382000D01*
X115818904Y-135159961D01*
X115658041Y-134771577D01*
X115282134Y-134356611D01*
X114776041Y-134117086D01*
X114554000Y-134238371D01*
X114300000Y-134238371D01*
X114077959Y-134117086D01*
X113887661Y-134207151D01*
X113872904Y-134132963D01*
X113704929Y-133881571D01*
X113641473Y-133839171D01*
X112477331Y-132675030D01*
X112434929Y-132611571D01*
X112183537Y-132443596D01*
X111961852Y-132399500D01*
X111961847Y-132399500D01*
X111887000Y-132384612D01*
X111812153Y-132399500D01*
X107248802Y-132399500D01*
X95118302Y-120269000D01*
X112898608Y-120269000D01*
X113013861Y-120848418D01*
X113342075Y-121339625D01*
X113833282Y-121667839D01*
X114266444Y-121754000D01*
X114558956Y-121754000D01*
X114992118Y-121667839D01*
X115483325Y-121339625D01*
X115811539Y-120848418D01*
X115926792Y-120269000D01*
X115811539Y-119689582D01*
X115483325Y-119198375D01*
X115465081Y-119186184D01*
X115510465Y-119177157D01*
X115720509Y-119036809D01*
X115860857Y-118826765D01*
X115910140Y-118579000D01*
X115910140Y-116879000D01*
X115860857Y-116631235D01*
X115720509Y-116421191D01*
X115510465Y-116280843D01*
X115262700Y-116231560D01*
X113562700Y-116231560D01*
X113314935Y-116280843D01*
X113104891Y-116421191D01*
X112964543Y-116631235D01*
X112915260Y-116879000D01*
X112915260Y-118579000D01*
X112964543Y-118826765D01*
X113104891Y-119036809D01*
X113314935Y-119177157D01*
X113360319Y-119186184D01*
X113342075Y-119198375D01*
X113013861Y-119689582D01*
X112898608Y-120269000D01*
X95118302Y-120269000D01*
X85303260Y-110453958D01*
X88048347Y-110453958D01*
X88128620Y-110705259D01*
X88683979Y-110906718D01*
X89274158Y-110880315D01*
X89696780Y-110705259D01*
X89777053Y-110453958D01*
X113548347Y-110453958D01*
X113628620Y-110705259D01*
X114183979Y-110906718D01*
X114774158Y-110880315D01*
X115196780Y-110705259D01*
X115277053Y-110453958D01*
X114412700Y-109589605D01*
X113548347Y-110453958D01*
X89777053Y-110453958D01*
X88912700Y-109589605D01*
X88048347Y-110453958D01*
X85303260Y-110453958D01*
X84030581Y-109181279D01*
X87415982Y-109181279D01*
X87442385Y-109771458D01*
X87617441Y-110194080D01*
X87868742Y-110274353D01*
X88733095Y-109410000D01*
X89092305Y-109410000D01*
X89956658Y-110274353D01*
X90207959Y-110194080D01*
X90409418Y-109638721D01*
X90388954Y-109181279D01*
X112915982Y-109181279D01*
X112942385Y-109771458D01*
X113117441Y-110194080D01*
X113368742Y-110274353D01*
X114233095Y-109410000D01*
X114592305Y-109410000D01*
X115456658Y-110274353D01*
X115707959Y-110194080D01*
X115909418Y-109638721D01*
X115883015Y-109048542D01*
X115707959Y-108625920D01*
X115456658Y-108545647D01*
X114592305Y-109410000D01*
X114233095Y-109410000D01*
X113368742Y-108545647D01*
X113117441Y-108625920D01*
X112915982Y-109181279D01*
X90388954Y-109181279D01*
X90383015Y-109048542D01*
X90207959Y-108625920D01*
X89956658Y-108545647D01*
X89092305Y-109410000D01*
X88733095Y-109410000D01*
X87868742Y-108545647D01*
X87617441Y-108625920D01*
X87415982Y-109181279D01*
X84030581Y-109181279D01*
X80869302Y-106020000D01*
X87415260Y-106020000D01*
X87415260Y-107720000D01*
X87464543Y-107967765D01*
X87604891Y-108177809D01*
X87814935Y-108318157D01*
X88048785Y-108364672D01*
X88048347Y-108366042D01*
X88912700Y-109230395D01*
X89777053Y-108366042D01*
X89776615Y-108364672D01*
X90010465Y-108318157D01*
X90220509Y-108177809D01*
X90360857Y-107967765D01*
X90410140Y-107720000D01*
X90410140Y-106020000D01*
X112915260Y-106020000D01*
X112915260Y-107720000D01*
X112964543Y-107967765D01*
X113104891Y-108177809D01*
X113314935Y-108318157D01*
X113548785Y-108364672D01*
X113548347Y-108366042D01*
X114412700Y-109230395D01*
X115277053Y-108366042D01*
X115276615Y-108364672D01*
X115510465Y-108318157D01*
X115720509Y-108177809D01*
X115860857Y-107967765D01*
X115910140Y-107720000D01*
X115910140Y-106020000D01*
X115860857Y-105772235D01*
X115720509Y-105562191D01*
X115510465Y-105421843D01*
X115262700Y-105372560D01*
X113562700Y-105372560D01*
X113314935Y-105421843D01*
X113104891Y-105562191D01*
X112964543Y-105772235D01*
X112915260Y-106020000D01*
X90410140Y-106020000D01*
X90360857Y-105772235D01*
X90220509Y-105562191D01*
X90010465Y-105421843D01*
X89762700Y-105372560D01*
X88062700Y-105372560D01*
X87814935Y-105421843D01*
X87604891Y-105562191D01*
X87464543Y-105772235D01*
X87415260Y-106020000D01*
X80869302Y-106020000D01*
X71499000Y-96649699D01*
X71499000Y-87913958D01*
X88048347Y-87913958D01*
X88128620Y-88165259D01*
X88683979Y-88366718D01*
X89274158Y-88340315D01*
X89696780Y-88165259D01*
X89777053Y-87913958D01*
X113548347Y-87913958D01*
X113628620Y-88165259D01*
X114183979Y-88366718D01*
X114774158Y-88340315D01*
X115196780Y-88165259D01*
X115277053Y-87913958D01*
X114412700Y-87049605D01*
X113548347Y-87913958D01*
X89777053Y-87913958D01*
X88912700Y-87049605D01*
X88048347Y-87913958D01*
X71499000Y-87913958D01*
X71499000Y-86641279D01*
X87415982Y-86641279D01*
X87442385Y-87231458D01*
X87617441Y-87654080D01*
X87868742Y-87734353D01*
X88733095Y-86870000D01*
X89092305Y-86870000D01*
X89956658Y-87734353D01*
X90207959Y-87654080D01*
X90409418Y-87098721D01*
X90388954Y-86641279D01*
X112915982Y-86641279D01*
X112942385Y-87231458D01*
X113117441Y-87654080D01*
X113368742Y-87734353D01*
X114233095Y-86870000D01*
X114592305Y-86870000D01*
X115456658Y-87734353D01*
X115707959Y-87654080D01*
X115909418Y-87098721D01*
X115883015Y-86508542D01*
X115707959Y-86085920D01*
X115456658Y-86005647D01*
X114592305Y-86870000D01*
X114233095Y-86870000D01*
X113368742Y-86005647D01*
X113117441Y-86085920D01*
X112915982Y-86641279D01*
X90388954Y-86641279D01*
X90383015Y-86508542D01*
X90207959Y-86085920D01*
X89956658Y-86005647D01*
X89092305Y-86870000D01*
X88733095Y-86870000D01*
X87868742Y-86005647D01*
X87617441Y-86085920D01*
X87415982Y-86641279D01*
X71499000Y-86641279D01*
X71499000Y-83026250D01*
X80356000Y-83026250D01*
X80356000Y-83716810D01*
X80452673Y-83950199D01*
X80631302Y-84128827D01*
X80864691Y-84225500D01*
X81555250Y-84225500D01*
X81714000Y-84066750D01*
X81714000Y-82867500D01*
X81968000Y-82867500D01*
X81968000Y-84066750D01*
X82126750Y-84225500D01*
X82817309Y-84225500D01*
X83050698Y-84128827D01*
X83229327Y-83950199D01*
X83326000Y-83716810D01*
X83326000Y-83480000D01*
X87415260Y-83480000D01*
X87415260Y-85180000D01*
X87464543Y-85427765D01*
X87604891Y-85637809D01*
X87814935Y-85778157D01*
X88048785Y-85824672D01*
X88048347Y-85826042D01*
X88912700Y-86690395D01*
X89777053Y-85826042D01*
X89776615Y-85824672D01*
X90010465Y-85778157D01*
X90220509Y-85637809D01*
X90360857Y-85427765D01*
X90410140Y-85180000D01*
X90410140Y-83480000D01*
X112915260Y-83480000D01*
X112915260Y-85180000D01*
X112964543Y-85427765D01*
X113104891Y-85637809D01*
X113314935Y-85778157D01*
X113548785Y-85824672D01*
X113548347Y-85826042D01*
X114412700Y-86690395D01*
X115277053Y-85826042D01*
X115276615Y-85824672D01*
X115510465Y-85778157D01*
X115720509Y-85637809D01*
X115860857Y-85427765D01*
X115910140Y-85180000D01*
X115910140Y-83480000D01*
X115860857Y-83232235D01*
X115720509Y-83022191D01*
X115510465Y-82881843D01*
X115262700Y-82832560D01*
X113562700Y-82832560D01*
X113314935Y-82881843D01*
X113104891Y-83022191D01*
X112964543Y-83232235D01*
X112915260Y-83480000D01*
X90410140Y-83480000D01*
X90360857Y-83232235D01*
X90220509Y-83022191D01*
X90010465Y-82881843D01*
X89762700Y-82832560D01*
X88062700Y-82832560D01*
X87814935Y-82881843D01*
X87604891Y-83022191D01*
X87464543Y-83232235D01*
X87415260Y-83480000D01*
X83326000Y-83480000D01*
X83326000Y-83026250D01*
X83167250Y-82867500D01*
X81968000Y-82867500D01*
X81714000Y-82867500D01*
X80514750Y-82867500D01*
X80356000Y-83026250D01*
X71499000Y-83026250D01*
X71499000Y-81764190D01*
X80356000Y-81764190D01*
X80356000Y-82454750D01*
X80514750Y-82613500D01*
X81714000Y-82613500D01*
X81714000Y-81414250D01*
X81968000Y-81414250D01*
X81968000Y-82613500D01*
X83167250Y-82613500D01*
X83326000Y-82454750D01*
X83326000Y-81764190D01*
X83229327Y-81530801D01*
X83050698Y-81352173D01*
X82817309Y-81255500D01*
X82126750Y-81255500D01*
X81968000Y-81414250D01*
X81714000Y-81414250D01*
X81555250Y-81255500D01*
X80864691Y-81255500D01*
X80631302Y-81352173D01*
X80452673Y-81530801D01*
X80356000Y-81764190D01*
X71499000Y-81764190D01*
X71499000Y-66114846D01*
X71513888Y-66039999D01*
X71499000Y-65965152D01*
X71499000Y-65965148D01*
X71454904Y-65743463D01*
X71359900Y-65601279D01*
X71329329Y-65555526D01*
X71329327Y-65555524D01*
X71286929Y-65492071D01*
X71223476Y-65449673D01*
X62538372Y-56764571D01*
X62572000Y-56683385D01*
X62572000Y-56092615D01*
X62345922Y-55546815D01*
X61928185Y-55129078D01*
X61901440Y-55118000D01*
X61928185Y-55106922D01*
X62345922Y-54689185D01*
X62572000Y-54143385D01*
X62572000Y-53552615D01*
X62345922Y-53006815D01*
X61928185Y-52589078D01*
X61901440Y-52578000D01*
X61928185Y-52566922D01*
X62345922Y-52149185D01*
X62572000Y-51603385D01*
X62572000Y-51012615D01*
X62345922Y-50466815D01*
X61928185Y-50049078D01*
X61901440Y-50038000D01*
X61928185Y-50026922D01*
X62345922Y-49609185D01*
X62572000Y-49063385D01*
X62572000Y-48472615D01*
X62345922Y-47926815D01*
X61928185Y-47509078D01*
X61901440Y-47498000D01*
X61928185Y-47486922D01*
X62345922Y-47069185D01*
X62572000Y-46523385D01*
X62572000Y-45999279D01*
X82450282Y-45999279D01*
X82476685Y-46589458D01*
X82651741Y-47012080D01*
X82903042Y-47092353D01*
X83767395Y-46228000D01*
X82903042Y-45363647D01*
X82651741Y-45443920D01*
X82450282Y-45999279D01*
X62572000Y-45999279D01*
X62572000Y-45932615D01*
X62345922Y-45386815D01*
X61928185Y-44969078D01*
X61901440Y-44958000D01*
X61928185Y-44946922D01*
X62345922Y-44529185D01*
X62572000Y-43983385D01*
X62572000Y-43392615D01*
X62345922Y-42846815D01*
X61928185Y-42429078D01*
X61901440Y-42418000D01*
X61928185Y-42406922D01*
X62345922Y-41989185D01*
X62572000Y-41443385D01*
X62572000Y-40852615D01*
X62345922Y-40306815D01*
X61928185Y-39889078D01*
X61901440Y-39878000D01*
X61928185Y-39866922D01*
X62345922Y-39449185D01*
X62572000Y-38903385D01*
X62572000Y-38312615D01*
X62345922Y-37766815D01*
X61928185Y-37349078D01*
X61901440Y-37338000D01*
X61928185Y-37326922D01*
X62345922Y-36909185D01*
X62572000Y-36363385D01*
X62572000Y-35772615D01*
X62345922Y-35226815D01*
X62110113Y-34991006D01*
X62184765Y-34976157D01*
X62394809Y-34835809D01*
X62535157Y-34625765D01*
X62584440Y-34378000D01*
X62584440Y-33232615D01*
X82462000Y-33232615D01*
X82462000Y-33823385D01*
X82688078Y-34369185D01*
X83105815Y-34786922D01*
X83132560Y-34798000D01*
X83105815Y-34809078D01*
X82688078Y-35226815D01*
X82462000Y-35772615D01*
X82462000Y-36363385D01*
X82688078Y-36909185D01*
X83105815Y-37326922D01*
X83132560Y-37338000D01*
X83105815Y-37349078D01*
X82688078Y-37766815D01*
X82462000Y-38312615D01*
X82462000Y-38903385D01*
X82688078Y-39449185D01*
X83105815Y-39866922D01*
X83132560Y-39878000D01*
X83105815Y-39889078D01*
X82688078Y-40306815D01*
X82462000Y-40852615D01*
X82462000Y-41443385D01*
X82688078Y-41989185D01*
X83105815Y-42406922D01*
X83132560Y-42418000D01*
X83105815Y-42429078D01*
X82688078Y-42846815D01*
X82462000Y-43392615D01*
X82462000Y-43983385D01*
X82688078Y-44529185D01*
X83105815Y-44946922D01*
X83152247Y-44966155D01*
X83082647Y-45184042D01*
X83947000Y-46048395D01*
X84811353Y-45184042D01*
X84741753Y-44966155D01*
X84788185Y-44946922D01*
X85205922Y-44529185D01*
X85432000Y-43983385D01*
X85432000Y-43392615D01*
X85398372Y-43311430D01*
X87690803Y-41019000D01*
X113134522Y-41019000D01*
X113342075Y-41329625D01*
X113640461Y-41529000D01*
X113342075Y-41728375D01*
X113134522Y-42039000D01*
X89990848Y-42039000D01*
X89916000Y-42024112D01*
X89841152Y-42039000D01*
X89841148Y-42039000D01*
X89667605Y-42073520D01*
X89619462Y-42083096D01*
X89440014Y-42203000D01*
X89368071Y-42251071D01*
X89325671Y-42314527D01*
X85432574Y-46207625D01*
X85417315Y-45866542D01*
X85242259Y-45443920D01*
X84990958Y-45363647D01*
X84126605Y-46228000D01*
X84140748Y-46242143D01*
X83961143Y-46421748D01*
X83947000Y-46407605D01*
X83082647Y-47271958D01*
X83152247Y-47489845D01*
X83105815Y-47509078D01*
X82688078Y-47926815D01*
X82462000Y-48472615D01*
X82462000Y-49063385D01*
X82688078Y-49609185D01*
X83105815Y-50026922D01*
X83132560Y-50038000D01*
X83105815Y-50049078D01*
X82688078Y-50466815D01*
X82462000Y-51012615D01*
X82462000Y-51603385D01*
X82688078Y-52149185D01*
X83105815Y-52566922D01*
X83132560Y-52578000D01*
X83105815Y-52589078D01*
X82688078Y-53006815D01*
X82462000Y-53552615D01*
X82462000Y-54143385D01*
X82688078Y-54689185D01*
X83105815Y-55106922D01*
X83132560Y-55118000D01*
X83105815Y-55129078D01*
X82688078Y-55546815D01*
X82462000Y-56092615D01*
X82462000Y-56683385D01*
X82688078Y-57229185D01*
X83105815Y-57646922D01*
X83132560Y-57658000D01*
X83105815Y-57669078D01*
X82688078Y-58086815D01*
X82462000Y-58632615D01*
X82462000Y-59223385D01*
X82688078Y-59769185D01*
X83105815Y-60186922D01*
X83132560Y-60198000D01*
X83105815Y-60209078D01*
X82688078Y-60626815D01*
X82462000Y-61172615D01*
X82462000Y-61763385D01*
X82688078Y-62309185D01*
X83105815Y-62726922D01*
X83132560Y-62738000D01*
X83105815Y-62749078D01*
X82688078Y-63166815D01*
X82462000Y-63712615D01*
X82462000Y-64303385D01*
X82688078Y-64849185D01*
X83105815Y-65266922D01*
X83132560Y-65278000D01*
X83105815Y-65289078D01*
X82688078Y-65706815D01*
X82462000Y-66252615D01*
X82462000Y-66843385D01*
X82688078Y-67389185D01*
X83105815Y-67806922D01*
X83132560Y-67818000D01*
X83105815Y-67829078D01*
X82688078Y-68246815D01*
X82462000Y-68792615D01*
X82462000Y-69383385D01*
X82688078Y-69929185D01*
X83105815Y-70346922D01*
X83132560Y-70358000D01*
X83105815Y-70369078D01*
X82688078Y-70786815D01*
X82462000Y-71332615D01*
X82462000Y-71923385D01*
X82688078Y-72469185D01*
X83105815Y-72886922D01*
X83132560Y-72898000D01*
X83105815Y-72909078D01*
X82688078Y-73326815D01*
X82462000Y-73872615D01*
X82462000Y-74463385D01*
X82688078Y-75009185D01*
X83105815Y-75426922D01*
X83132560Y-75438000D01*
X83105815Y-75449078D01*
X82688078Y-75866815D01*
X82462000Y-76412615D01*
X82462000Y-77003385D01*
X82688078Y-77549185D01*
X83105815Y-77966922D01*
X83132560Y-77978000D01*
X83105815Y-77989078D01*
X82688078Y-78406815D01*
X82462000Y-78952615D01*
X82462000Y-79543385D01*
X82688078Y-80089185D01*
X83105815Y-80506922D01*
X83651615Y-80733000D01*
X84242385Y-80733000D01*
X84788185Y-80506922D01*
X85205922Y-80089185D01*
X85432000Y-79543385D01*
X85432000Y-78952615D01*
X85205922Y-78406815D01*
X84788185Y-77989078D01*
X84761440Y-77978000D01*
X84788185Y-77966922D01*
X85205922Y-77549185D01*
X85432000Y-77003385D01*
X85432000Y-76412615D01*
X85205922Y-75866815D01*
X84788185Y-75449078D01*
X84761440Y-75438000D01*
X84788185Y-75426922D01*
X85205922Y-75009185D01*
X85432000Y-74463385D01*
X85432000Y-73872615D01*
X85205922Y-73326815D01*
X84788185Y-72909078D01*
X84761440Y-72898000D01*
X84788185Y-72886922D01*
X85205922Y-72469185D01*
X85432000Y-71923385D01*
X85432000Y-71332615D01*
X85205922Y-70786815D01*
X84788185Y-70369078D01*
X84761440Y-70358000D01*
X84788185Y-70346922D01*
X85205922Y-69929185D01*
X85432000Y-69383385D01*
X85432000Y-68792615D01*
X85205922Y-68246815D01*
X84788185Y-67829078D01*
X84761440Y-67818000D01*
X84788185Y-67806922D01*
X85205922Y-67389185D01*
X85419336Y-66873958D01*
X88048347Y-66873958D01*
X88128620Y-67125259D01*
X88683979Y-67326718D01*
X89274158Y-67300315D01*
X89696780Y-67125259D01*
X89777053Y-66873958D01*
X113548347Y-66873958D01*
X113628620Y-67125259D01*
X114183979Y-67326718D01*
X114774158Y-67300315D01*
X115196780Y-67125259D01*
X115277053Y-66873958D01*
X114412700Y-66009605D01*
X113548347Y-66873958D01*
X89777053Y-66873958D01*
X88912700Y-66009605D01*
X88048347Y-66873958D01*
X85419336Y-66873958D01*
X85432000Y-66843385D01*
X85432000Y-66252615D01*
X85205922Y-65706815D01*
X85100386Y-65601279D01*
X87415982Y-65601279D01*
X87442385Y-66191458D01*
X87617441Y-66614080D01*
X87868742Y-66694353D01*
X88733095Y-65830000D01*
X89092305Y-65830000D01*
X89956658Y-66694353D01*
X90207959Y-66614080D01*
X90409418Y-66058721D01*
X90388954Y-65601279D01*
X112915982Y-65601279D01*
X112942385Y-66191458D01*
X113117441Y-66614080D01*
X113368742Y-66694353D01*
X114233095Y-65830000D01*
X114592305Y-65830000D01*
X115456658Y-66694353D01*
X115707959Y-66614080D01*
X115909418Y-66058721D01*
X115883015Y-65468542D01*
X115707959Y-65045920D01*
X115456658Y-64965647D01*
X114592305Y-65830000D01*
X114233095Y-65830000D01*
X113368742Y-64965647D01*
X113117441Y-65045920D01*
X112915982Y-65601279D01*
X90388954Y-65601279D01*
X90383015Y-65468542D01*
X90207959Y-65045920D01*
X89956658Y-64965647D01*
X89092305Y-65830000D01*
X88733095Y-65830000D01*
X87868742Y-64965647D01*
X87617441Y-65045920D01*
X87415982Y-65601279D01*
X85100386Y-65601279D01*
X84788185Y-65289078D01*
X84761440Y-65278000D01*
X84788185Y-65266922D01*
X85205922Y-64849185D01*
X85432000Y-64303385D01*
X85432000Y-63712615D01*
X85398372Y-63631429D01*
X86589801Y-62440000D01*
X87415260Y-62440000D01*
X87415260Y-64140000D01*
X87464543Y-64387765D01*
X87604891Y-64597809D01*
X87814935Y-64738157D01*
X88048785Y-64784672D01*
X88048347Y-64786042D01*
X88912700Y-65650395D01*
X89777053Y-64786042D01*
X89776615Y-64784672D01*
X90010465Y-64738157D01*
X90220509Y-64597809D01*
X90360857Y-64387765D01*
X90410140Y-64140000D01*
X90410140Y-62440000D01*
X112915260Y-62440000D01*
X112915260Y-64140000D01*
X112964543Y-64387765D01*
X113104891Y-64597809D01*
X113314935Y-64738157D01*
X113548785Y-64784672D01*
X113548347Y-64786042D01*
X114412700Y-65650395D01*
X115277053Y-64786042D01*
X115276615Y-64784672D01*
X115510465Y-64738157D01*
X115720509Y-64597809D01*
X115860857Y-64387765D01*
X115910140Y-64140000D01*
X115910140Y-62440000D01*
X115860857Y-62192235D01*
X115720509Y-61982191D01*
X115510465Y-61841843D01*
X115262700Y-61792560D01*
X113562700Y-61792560D01*
X113314935Y-61841843D01*
X113104891Y-61982191D01*
X112964543Y-62192235D01*
X112915260Y-62440000D01*
X90410140Y-62440000D01*
X90360857Y-62192235D01*
X90220509Y-61982191D01*
X90010465Y-61841843D01*
X89762700Y-61792560D01*
X88062700Y-61792560D01*
X87814935Y-61841843D01*
X87604891Y-61982191D01*
X87464543Y-62192235D01*
X87415260Y-62440000D01*
X86589801Y-62440000D01*
X90230802Y-58799000D01*
X112915260Y-58799000D01*
X112915260Y-58889000D01*
X112964543Y-59136765D01*
X113104891Y-59346809D01*
X113314935Y-59487157D01*
X113562700Y-59536440D01*
X115262700Y-59536440D01*
X115510465Y-59487157D01*
X115720509Y-59346809D01*
X115860857Y-59136765D01*
X115910140Y-58889000D01*
X115910140Y-57189000D01*
X115860857Y-56941235D01*
X115720509Y-56731191D01*
X115510465Y-56590843D01*
X115465081Y-56581816D01*
X115483325Y-56569625D01*
X115811539Y-56078418D01*
X115926792Y-55499000D01*
X115811539Y-54919582D01*
X115483325Y-54428375D01*
X115184939Y-54229000D01*
X115483325Y-54029625D01*
X115811539Y-53538418D01*
X115926792Y-52959000D01*
X115811539Y-52379582D01*
X115483325Y-51888375D01*
X115184939Y-51689000D01*
X115483325Y-51489625D01*
X115811539Y-50998418D01*
X115926792Y-50419000D01*
X115811539Y-49839582D01*
X115483325Y-49348375D01*
X115184939Y-49149000D01*
X115483325Y-48949625D01*
X115811539Y-48458418D01*
X115926792Y-47879000D01*
X115811539Y-47299582D01*
X115483325Y-46808375D01*
X115184939Y-46609000D01*
X115483325Y-46409625D01*
X115811539Y-45918418D01*
X115926792Y-45339000D01*
X115811539Y-44759582D01*
X115483325Y-44268375D01*
X115184939Y-44069000D01*
X115483325Y-43869625D01*
X115811539Y-43378418D01*
X115926792Y-42799000D01*
X115811539Y-42219582D01*
X115483325Y-41728375D01*
X115184939Y-41529000D01*
X115483325Y-41329625D01*
X115811539Y-40838418D01*
X115926792Y-40259000D01*
X115811539Y-39679582D01*
X115483325Y-39188375D01*
X114992118Y-38860161D01*
X114558956Y-38774000D01*
X114266444Y-38774000D01*
X113833282Y-38860161D01*
X113342075Y-39188375D01*
X113134522Y-39499000D01*
X87450846Y-39499000D01*
X87375999Y-39484112D01*
X87301152Y-39499000D01*
X87301148Y-39499000D01*
X87079463Y-39543096D01*
X87079461Y-39543097D01*
X87079462Y-39543097D01*
X86891526Y-39668671D01*
X86891524Y-39668673D01*
X86828071Y-39711071D01*
X86785673Y-39774524D01*
X85432000Y-41128198D01*
X85432000Y-40852615D01*
X85205922Y-40306815D01*
X84788185Y-39889078D01*
X84761440Y-39878000D01*
X84788185Y-39866922D01*
X85205922Y-39449185D01*
X85432000Y-38903385D01*
X85432000Y-38312615D01*
X85205922Y-37766815D01*
X84788185Y-37349078D01*
X84761440Y-37338000D01*
X84788185Y-37326922D01*
X85205922Y-36909185D01*
X85432000Y-36363385D01*
X85432000Y-35772615D01*
X85205922Y-35226815D01*
X84788185Y-34809078D01*
X84761440Y-34798000D01*
X84788185Y-34786922D01*
X85205922Y-34369185D01*
X85422868Y-33845431D01*
X86677700Y-33845431D01*
X86677700Y-34734569D01*
X87017959Y-35556026D01*
X87646674Y-36184741D01*
X88468131Y-36525000D01*
X89357269Y-36525000D01*
X90178726Y-36184741D01*
X90807441Y-35556026D01*
X91147700Y-34734569D01*
X91147700Y-33845431D01*
X90807441Y-33023974D01*
X90178726Y-32395259D01*
X89357269Y-32055000D01*
X88468131Y-32055000D01*
X87646674Y-32395259D01*
X87017959Y-33023974D01*
X86677700Y-33845431D01*
X85422868Y-33845431D01*
X85432000Y-33823385D01*
X85432000Y-33232615D01*
X85205922Y-32686815D01*
X84788185Y-32269078D01*
X84242385Y-32043000D01*
X83651615Y-32043000D01*
X83105815Y-32269078D01*
X82688078Y-32686815D01*
X82462000Y-33232615D01*
X62584440Y-33232615D01*
X62584440Y-32678000D01*
X62535157Y-32430235D01*
X62394809Y-32220191D01*
X62184765Y-32079843D01*
X61937000Y-32030560D01*
X60237000Y-32030560D01*
X59989235Y-32079843D01*
X59779191Y-32220191D01*
X59638843Y-32430235D01*
X59589560Y-32678000D01*
X59384000Y-32678000D01*
X59384000Y-32073926D01*
X59400808Y-31989426D01*
X59409067Y-31977067D01*
X59421426Y-31968808D01*
X59505927Y-31952000D01*
X116130000Y-31952000D01*
X116130000Y-33802700D01*
M02*
