M48
;DRILL file {KiCad (5.0.2)-1} date 3/22/2019 12:13:26 PM
;FORMAT={-:-/ absolute / metric / decimal}
FMAT,2
METRIC,TZ
T1C0.400
T2C0.762
T3C0.800
T4C0.900
T5C1.000
T6C1.100
%
G90
G05
T1
X66.802Y-74.549
X68.008Y-124.142
X68.389Y-71.691
T2
X61.341Y-82.74
X61.341Y-128.24
X81.841Y-82.74
X81.841Y-128.24
T3
X66.167Y-134.239
X73.787Y-134.239
X111.887Y-135.509
X114.427Y-135.509
T4
X109.664Y-140.881
X111.188Y-142.405
X112.712Y-140.881
X114.49Y-142.405
T5
X61.023Y-139.192
X61.023Y-141.732
X61.023Y-144.272
X63.563Y-139.192
X63.563Y-141.732
X63.563Y-144.272
X114.413Y-40.259
X114.413Y-42.799
X114.413Y-45.339
X114.413Y-47.879
X114.413Y-50.419
X114.413Y-52.959
X114.413Y-55.499
X114.413Y-58.039
X114.413Y-117.729
X114.413Y-120.269
X61.087Y-33.528
X61.087Y-36.068
X61.087Y-38.608
X61.087Y-41.148
X61.087Y-43.688
X61.087Y-46.228
X61.087Y-48.768
X61.087Y-51.308
X61.087Y-53.848
X61.087Y-56.388
X61.087Y-58.928
X61.087Y-61.468
X61.087Y-64.008
X61.087Y-66.548
X61.087Y-69.088
X61.087Y-71.628
X61.087Y-74.168
X61.087Y-76.708
X61.087Y-79.248
X83.947Y-33.528
X83.947Y-36.068
X83.947Y-38.608
X83.947Y-41.148
X83.947Y-43.688
X83.947Y-46.228
X83.947Y-48.768
X83.947Y-51.308
X83.947Y-53.848
X83.947Y-56.388
X83.947Y-58.928
X83.947Y-61.468
X83.947Y-64.008
X83.947Y-66.548
X83.947Y-69.088
X83.947Y-71.628
X83.947Y-74.168
X83.947Y-76.708
X83.947Y-79.248
X88.913Y-63.29
X88.913Y-65.83
X88.913Y-84.33
X88.913Y-86.87
X88.913Y-106.87
X88.913Y-109.41
X114.413Y-63.29
X114.413Y-65.83
X114.413Y-84.33
X114.413Y-86.87
X114.413Y-106.87
X114.413Y-109.41
T6
X68.326Y-139.7
X70.866Y-139.7
X73.406Y-139.7
X87.211Y-138.722
X87.211Y-143.802
X100.37Y-139.073
X100.37Y-143.573
X106.87Y-139.073
X106.87Y-143.573
X90.731Y-139.073
X90.731Y-143.573
X97.231Y-139.073
X97.231Y-143.573
T0
M30
