%TF.GenerationSoftware,KiCad,Pcbnew,(5.0.2)-1*%
%TF.CreationDate,2019-03-22T12:12:08-04:00*%
%TF.ProjectId,Door_Lock,446f6f72-5f4c-46f6-936b-2e6b69636164,rev?*%
%TF.SameCoordinates,Original*%
%TF.FileFunction,Soldermask,Top*%
%TF.FilePolarity,Negative*%
%FSLAX46Y46*%
G04 Gerber Fmt 4.6, Leading zero omitted, Abs format (unit mm)*
G04 Created by KiCad (PCBNEW (5.0.2)-1) date 3/22/2019 12:12:08 PM*
%MOMM*%
%LPD*%
G01*
G04 APERTURE LIST*
%ADD10C,0.150000*%
%ADD11C,0.100000*%
G04 APERTURE END LIST*
D10*
X59436000Y-146050000D02*
G75*
G02X58674000Y-145288000I0J762000D01*
G01*
X116840000Y-145288000D02*
G75*
G02X116078000Y-146050000I-762000J0D01*
G01*
X58674000Y-32004000D02*
G75*
G02X59436000Y-31242000I762000J0D01*
G01*
X58674000Y-145288000D02*
X58674000Y-32004000D01*
X116078000Y-146050000D02*
X59436000Y-146050000D01*
X116840000Y-31242000D02*
X116840000Y-145288000D01*
X59436000Y-31242000D02*
X116840000Y-31242000D01*
D11*
G36*
X63673942Y-143377518D02*
X63740127Y-143384037D01*
X63853353Y-143418384D01*
X63909967Y-143435557D01*
X63974374Y-143469984D01*
X64066491Y-143519222D01*
X64102229Y-143548552D01*
X64203686Y-143631814D01*
X64286948Y-143733271D01*
X64316278Y-143769009D01*
X64316279Y-143769011D01*
X64399943Y-143925533D01*
X64399943Y-143925534D01*
X64451463Y-144095373D01*
X64468859Y-144272000D01*
X64451463Y-144448627D01*
X64434397Y-144504885D01*
X64399943Y-144618467D01*
X64399167Y-144619918D01*
X64316278Y-144774991D01*
X64286948Y-144810729D01*
X64203686Y-144912186D01*
X64102229Y-144995448D01*
X64066491Y-145024778D01*
X64066489Y-145024779D01*
X63909967Y-145108443D01*
X63853353Y-145125616D01*
X63740127Y-145159963D01*
X63673942Y-145166482D01*
X63607760Y-145173000D01*
X63519240Y-145173000D01*
X63453058Y-145166482D01*
X63386873Y-145159963D01*
X63273647Y-145125616D01*
X63217033Y-145108443D01*
X63060511Y-145024779D01*
X63060509Y-145024778D01*
X63024771Y-144995448D01*
X62923314Y-144912186D01*
X62840052Y-144810729D01*
X62810722Y-144774991D01*
X62727833Y-144619918D01*
X62727057Y-144618467D01*
X62692603Y-144504885D01*
X62675537Y-144448627D01*
X62658141Y-144272000D01*
X62675537Y-144095373D01*
X62727057Y-143925534D01*
X62727057Y-143925533D01*
X62810721Y-143769011D01*
X62810722Y-143769009D01*
X62840052Y-143733271D01*
X62923314Y-143631814D01*
X63024771Y-143548552D01*
X63060509Y-143519222D01*
X63152626Y-143469984D01*
X63217033Y-143435557D01*
X63273647Y-143418384D01*
X63386873Y-143384037D01*
X63453058Y-143377518D01*
X63519240Y-143371000D01*
X63607760Y-143371000D01*
X63673942Y-143377518D01*
X63673942Y-143377518D01*
G37*
G36*
X61924500Y-145173000D02*
X60122500Y-145173000D01*
X60122500Y-143371000D01*
X61924500Y-143371000D01*
X61924500Y-145173000D01*
X61924500Y-145173000D01*
G37*
G36*
X87335080Y-142657762D02*
X87436535Y-142667754D01*
X87653500Y-142733570D01*
X87653502Y-142733571D01*
X87653505Y-142733572D01*
X87853456Y-142840447D01*
X88028718Y-142984282D01*
X88172553Y-143159544D01*
X88279428Y-143359495D01*
X88279429Y-143359498D01*
X88279430Y-143359500D01*
X88345246Y-143576465D01*
X88367469Y-143802100D01*
X88345246Y-144027735D01*
X88279802Y-144243473D01*
X88279428Y-144244705D01*
X88172553Y-144444656D01*
X88028718Y-144619918D01*
X87853456Y-144763753D01*
X87653505Y-144870628D01*
X87653502Y-144870629D01*
X87653500Y-144870630D01*
X87436535Y-144936446D01*
X87335080Y-144946438D01*
X87267445Y-144953100D01*
X87154355Y-144953100D01*
X87086720Y-144946438D01*
X86985265Y-144936446D01*
X86768300Y-144870630D01*
X86768298Y-144870629D01*
X86768295Y-144870628D01*
X86568344Y-144763753D01*
X86393082Y-144619918D01*
X86249247Y-144444656D01*
X86142372Y-144244705D01*
X86141998Y-144243473D01*
X86076554Y-144027735D01*
X86054331Y-143802100D01*
X86076554Y-143576465D01*
X86142370Y-143359500D01*
X86142371Y-143359498D01*
X86142372Y-143359495D01*
X86249247Y-143159544D01*
X86393082Y-142984282D01*
X86568344Y-142840447D01*
X86768295Y-142733572D01*
X86768298Y-142733571D01*
X86768300Y-142733570D01*
X86985265Y-142667754D01*
X87086720Y-142657762D01*
X87154355Y-142651100D01*
X87267445Y-142651100D01*
X87335080Y-142657762D01*
X87335080Y-142657762D01*
G37*
G36*
X107177065Y-142562889D02*
X107368334Y-142642115D01*
X107540476Y-142757137D01*
X107686863Y-142903524D01*
X107801885Y-143075666D01*
X107881111Y-143266935D01*
X107921500Y-143469984D01*
X107921500Y-143677016D01*
X107881111Y-143880065D01*
X107801885Y-144071334D01*
X107686863Y-144243476D01*
X107540476Y-144389863D01*
X107368334Y-144504885D01*
X107177065Y-144584111D01*
X106974016Y-144624500D01*
X106766984Y-144624500D01*
X106563935Y-144584111D01*
X106372666Y-144504885D01*
X106200524Y-144389863D01*
X106054137Y-144243476D01*
X105939115Y-144071334D01*
X105859889Y-143880065D01*
X105819500Y-143677016D01*
X105819500Y-143469984D01*
X105859889Y-143266935D01*
X105939115Y-143075666D01*
X106054137Y-142903524D01*
X106200524Y-142757137D01*
X106372666Y-142642115D01*
X106563935Y-142562889D01*
X106766984Y-142522500D01*
X106974016Y-142522500D01*
X107177065Y-142562889D01*
X107177065Y-142562889D01*
G37*
G36*
X100677065Y-142562889D02*
X100868334Y-142642115D01*
X101040476Y-142757137D01*
X101186863Y-142903524D01*
X101301885Y-143075666D01*
X101381111Y-143266935D01*
X101421500Y-143469984D01*
X101421500Y-143677016D01*
X101381111Y-143880065D01*
X101301885Y-144071334D01*
X101186863Y-144243476D01*
X101040476Y-144389863D01*
X100868334Y-144504885D01*
X100677065Y-144584111D01*
X100474016Y-144624500D01*
X100266984Y-144624500D01*
X100063935Y-144584111D01*
X99872666Y-144504885D01*
X99700524Y-144389863D01*
X99554137Y-144243476D01*
X99439115Y-144071334D01*
X99359889Y-143880065D01*
X99319500Y-143677016D01*
X99319500Y-143469984D01*
X99359889Y-143266935D01*
X99439115Y-143075666D01*
X99554137Y-142903524D01*
X99700524Y-142757137D01*
X99872666Y-142642115D01*
X100063935Y-142562889D01*
X100266984Y-142522500D01*
X100474016Y-142522500D01*
X100677065Y-142562889D01*
X100677065Y-142562889D01*
G37*
G36*
X91037765Y-142562889D02*
X91229034Y-142642115D01*
X91401176Y-142757137D01*
X91547563Y-142903524D01*
X91662585Y-143075666D01*
X91741811Y-143266935D01*
X91782200Y-143469984D01*
X91782200Y-143677016D01*
X91741811Y-143880065D01*
X91662585Y-144071334D01*
X91547563Y-144243476D01*
X91401176Y-144389863D01*
X91229034Y-144504885D01*
X91037765Y-144584111D01*
X90834716Y-144624500D01*
X90627684Y-144624500D01*
X90424635Y-144584111D01*
X90233366Y-144504885D01*
X90061224Y-144389863D01*
X89914837Y-144243476D01*
X89799815Y-144071334D01*
X89720589Y-143880065D01*
X89680200Y-143677016D01*
X89680200Y-143469984D01*
X89720589Y-143266935D01*
X89799815Y-143075666D01*
X89914837Y-142903524D01*
X90061224Y-142757137D01*
X90233366Y-142642115D01*
X90424635Y-142562889D01*
X90627684Y-142522500D01*
X90834716Y-142522500D01*
X91037765Y-142562889D01*
X91037765Y-142562889D01*
G37*
G36*
X97537765Y-142562889D02*
X97729034Y-142642115D01*
X97901176Y-142757137D01*
X98047563Y-142903524D01*
X98162585Y-143075666D01*
X98241811Y-143266935D01*
X98282200Y-143469984D01*
X98282200Y-143677016D01*
X98241811Y-143880065D01*
X98162585Y-144071334D01*
X98047563Y-144243476D01*
X97901176Y-144389863D01*
X97729034Y-144504885D01*
X97537765Y-144584111D01*
X97334716Y-144624500D01*
X97127684Y-144624500D01*
X96924635Y-144584111D01*
X96733366Y-144504885D01*
X96561224Y-144389863D01*
X96414837Y-144243476D01*
X96299815Y-144071334D01*
X96220589Y-143880065D01*
X96180200Y-143677016D01*
X96180200Y-143469984D01*
X96220589Y-143266935D01*
X96299815Y-143075666D01*
X96414837Y-142903524D01*
X96561224Y-142757137D01*
X96733366Y-142642115D01*
X96924635Y-142562889D01*
X97127684Y-142522500D01*
X97334716Y-142522500D01*
X97537765Y-142562889D01*
X97537765Y-142562889D01*
G37*
G36*
X111465896Y-141490646D02*
X111638966Y-141562334D01*
X111794730Y-141666412D01*
X111927188Y-141798870D01*
X112031266Y-141954634D01*
X112102954Y-142127704D01*
X112139500Y-142311433D01*
X112139500Y-142498767D01*
X112102954Y-142682496D01*
X112031266Y-142855566D01*
X111927188Y-143011330D01*
X111794730Y-143143788D01*
X111638966Y-143247866D01*
X111465896Y-143319554D01*
X111282167Y-143356100D01*
X111094833Y-143356100D01*
X110911104Y-143319554D01*
X110738034Y-143247866D01*
X110582270Y-143143788D01*
X110449812Y-143011330D01*
X110345734Y-142855566D01*
X110274046Y-142682496D01*
X110237500Y-142498767D01*
X110237500Y-142311433D01*
X110274046Y-142127704D01*
X110345734Y-141954634D01*
X110449812Y-141798870D01*
X110582270Y-141666412D01*
X110738034Y-141562334D01*
X110911104Y-141490646D01*
X111094833Y-141454100D01*
X111282167Y-141454100D01*
X111465896Y-141490646D01*
X111465896Y-141490646D01*
G37*
G36*
X112989896Y-139966646D02*
X113162966Y-140038334D01*
X113318730Y-140142412D01*
X113451188Y-140274870D01*
X113555266Y-140430634D01*
X113626954Y-140603704D01*
X113663500Y-140787433D01*
X113663500Y-140974767D01*
X113626954Y-141158496D01*
X113555265Y-141331570D01*
X113534312Y-141362928D01*
X113522761Y-141384539D01*
X113515648Y-141407988D01*
X113513246Y-141432374D01*
X113515648Y-141456760D01*
X113522762Y-141480210D01*
X113534313Y-141501820D01*
X113549858Y-141520762D01*
X113568801Y-141536307D01*
X113590412Y-141547858D01*
X113613861Y-141554971D01*
X113638247Y-141557373D01*
X113662633Y-141554971D01*
X113686083Y-141547857D01*
X113707693Y-141536306D01*
X113717548Y-141528997D01*
X113723389Y-141524203D01*
X113794679Y-141486098D01*
X113872047Y-141462629D01*
X113958641Y-141454100D01*
X115022359Y-141454100D01*
X115108953Y-141462629D01*
X115186321Y-141486098D01*
X115257611Y-141524203D01*
X115320107Y-141575493D01*
X115371397Y-141637989D01*
X115409502Y-141709279D01*
X115432971Y-141786647D01*
X115441500Y-141873241D01*
X115441500Y-142936959D01*
X115432971Y-143023553D01*
X115409502Y-143100921D01*
X115371397Y-143172211D01*
X115320107Y-143234707D01*
X115257611Y-143285997D01*
X115186321Y-143324102D01*
X115108953Y-143347571D01*
X115022359Y-143356100D01*
X113958641Y-143356100D01*
X113872047Y-143347571D01*
X113794679Y-143324102D01*
X113723389Y-143285997D01*
X113660893Y-143234707D01*
X113609603Y-143172211D01*
X113571498Y-143100921D01*
X113548029Y-143023553D01*
X113539500Y-142936959D01*
X113539500Y-141873241D01*
X113548029Y-141786647D01*
X113574100Y-141700704D01*
X113576649Y-141694549D01*
X113581430Y-141670516D01*
X113581430Y-141646012D01*
X113576650Y-141621978D01*
X113567273Y-141599339D01*
X113553659Y-141578964D01*
X113536333Y-141561637D01*
X113515958Y-141548023D01*
X113493319Y-141538645D01*
X113469286Y-141533864D01*
X113444782Y-141533864D01*
X113420748Y-141538644D01*
X113398109Y-141548021D01*
X113377734Y-141561635D01*
X113368644Y-141569874D01*
X113318730Y-141619788D01*
X113162966Y-141723866D01*
X112989896Y-141795554D01*
X112806167Y-141832100D01*
X112618833Y-141832100D01*
X112435104Y-141795554D01*
X112262034Y-141723866D01*
X112106270Y-141619788D01*
X111973812Y-141487330D01*
X111869734Y-141331566D01*
X111798046Y-141158496D01*
X111761500Y-140974767D01*
X111761500Y-140787433D01*
X111798046Y-140603704D01*
X111869734Y-140430634D01*
X111973812Y-140274870D01*
X112106270Y-140142412D01*
X112262034Y-140038334D01*
X112435104Y-139966646D01*
X112618833Y-139930100D01*
X112806167Y-139930100D01*
X112989896Y-139966646D01*
X112989896Y-139966646D01*
G37*
G36*
X61133943Y-140837519D02*
X61200127Y-140844037D01*
X61313353Y-140878384D01*
X61369967Y-140895557D01*
X61508587Y-140969652D01*
X61526491Y-140979222D01*
X61562229Y-141008552D01*
X61663686Y-141091814D01*
X61746948Y-141193271D01*
X61776278Y-141229009D01*
X61776279Y-141229011D01*
X61859943Y-141385533D01*
X61874152Y-141432374D01*
X61911463Y-141555373D01*
X61928859Y-141732000D01*
X61911463Y-141908627D01*
X61897507Y-141954633D01*
X61859943Y-142078467D01*
X61833625Y-142127704D01*
X61776278Y-142234991D01*
X61746948Y-142270729D01*
X61663686Y-142372186D01*
X61562229Y-142455448D01*
X61526491Y-142484778D01*
X61526489Y-142484779D01*
X61369967Y-142568443D01*
X61313353Y-142585616D01*
X61200127Y-142619963D01*
X61133942Y-142626482D01*
X61067760Y-142633000D01*
X60979240Y-142633000D01*
X60913058Y-142626482D01*
X60846873Y-142619963D01*
X60733647Y-142585616D01*
X60677033Y-142568443D01*
X60520511Y-142484779D01*
X60520509Y-142484778D01*
X60484771Y-142455448D01*
X60383314Y-142372186D01*
X60300052Y-142270729D01*
X60270722Y-142234991D01*
X60213375Y-142127704D01*
X60187057Y-142078467D01*
X60149493Y-141954633D01*
X60135537Y-141908627D01*
X60118141Y-141732000D01*
X60135537Y-141555373D01*
X60172848Y-141432374D01*
X60187057Y-141385533D01*
X60270721Y-141229011D01*
X60270722Y-141229009D01*
X60300052Y-141193271D01*
X60383314Y-141091814D01*
X60484771Y-141008552D01*
X60520509Y-140979222D01*
X60538413Y-140969652D01*
X60677033Y-140895557D01*
X60733647Y-140878384D01*
X60846873Y-140844037D01*
X60913057Y-140837519D01*
X60979240Y-140831000D01*
X61067760Y-140831000D01*
X61133943Y-140837519D01*
X61133943Y-140837519D01*
G37*
G36*
X63673943Y-140837519D02*
X63740127Y-140844037D01*
X63853353Y-140878384D01*
X63909967Y-140895557D01*
X64048587Y-140969652D01*
X64066491Y-140979222D01*
X64102229Y-141008552D01*
X64203686Y-141091814D01*
X64286948Y-141193271D01*
X64316278Y-141229009D01*
X64316279Y-141229011D01*
X64399943Y-141385533D01*
X64414152Y-141432374D01*
X64451463Y-141555373D01*
X64468859Y-141732000D01*
X64451463Y-141908627D01*
X64437507Y-141954633D01*
X64399943Y-142078467D01*
X64373625Y-142127704D01*
X64316278Y-142234991D01*
X64286948Y-142270729D01*
X64203686Y-142372186D01*
X64102229Y-142455448D01*
X64066491Y-142484778D01*
X64066489Y-142484779D01*
X63909967Y-142568443D01*
X63853353Y-142585616D01*
X63740127Y-142619963D01*
X63673942Y-142626482D01*
X63607760Y-142633000D01*
X63519240Y-142633000D01*
X63453058Y-142626482D01*
X63386873Y-142619963D01*
X63273647Y-142585616D01*
X63217033Y-142568443D01*
X63060511Y-142484779D01*
X63060509Y-142484778D01*
X63024771Y-142455448D01*
X62923314Y-142372186D01*
X62840052Y-142270729D01*
X62810722Y-142234991D01*
X62753375Y-142127704D01*
X62727057Y-142078467D01*
X62689493Y-141954633D01*
X62675537Y-141908627D01*
X62658141Y-141732000D01*
X62675537Y-141555373D01*
X62712848Y-141432374D01*
X62727057Y-141385533D01*
X62810721Y-141229011D01*
X62810722Y-141229009D01*
X62840052Y-141193271D01*
X62923314Y-141091814D01*
X63024771Y-141008552D01*
X63060509Y-140979222D01*
X63078413Y-140969652D01*
X63217033Y-140895557D01*
X63273647Y-140878384D01*
X63386873Y-140844037D01*
X63453057Y-140837519D01*
X63519240Y-140831000D01*
X63607760Y-140831000D01*
X63673943Y-140837519D01*
X63673943Y-140837519D01*
G37*
G36*
X109941896Y-139966646D02*
X110114966Y-140038334D01*
X110270730Y-140142412D01*
X110403188Y-140274870D01*
X110507266Y-140430634D01*
X110578954Y-140603704D01*
X110615500Y-140787433D01*
X110615500Y-140974767D01*
X110578954Y-141158496D01*
X110507266Y-141331566D01*
X110403188Y-141487330D01*
X110270730Y-141619788D01*
X110114966Y-141723866D01*
X109941896Y-141795554D01*
X109758167Y-141832100D01*
X109570833Y-141832100D01*
X109387104Y-141795554D01*
X109214034Y-141723866D01*
X109058270Y-141619788D01*
X108925812Y-141487330D01*
X108821734Y-141331566D01*
X108750046Y-141158496D01*
X108713500Y-140974767D01*
X108713500Y-140787433D01*
X108750046Y-140603704D01*
X108821734Y-140430634D01*
X108925812Y-140274870D01*
X109058270Y-140142412D01*
X109214034Y-140038334D01*
X109387104Y-139966646D01*
X109570833Y-139930100D01*
X109758167Y-139930100D01*
X109941896Y-139966646D01*
X109941896Y-139966646D01*
G37*
G36*
X68522720Y-138663520D02*
X68711881Y-138720901D01*
X68886212Y-138814083D01*
X69039015Y-138939485D01*
X69164417Y-139092288D01*
X69257599Y-139266620D01*
X69314980Y-139455781D01*
X69329500Y-139603207D01*
X69329500Y-139796794D01*
X69314980Y-139944220D01*
X69257599Y-140133381D01*
X69164417Y-140307712D01*
X69039015Y-140460515D01*
X68886212Y-140585917D01*
X68711880Y-140679099D01*
X68522719Y-140736480D01*
X68326000Y-140755855D01*
X68129280Y-140736480D01*
X67940119Y-140679099D01*
X67765788Y-140585917D01*
X67612985Y-140460515D01*
X67487583Y-140307712D01*
X67394401Y-140133380D01*
X67337020Y-139944219D01*
X67322500Y-139796793D01*
X67322500Y-139603206D01*
X67337020Y-139455780D01*
X67394401Y-139266619D01*
X67487583Y-139092288D01*
X67612985Y-138939485D01*
X67765788Y-138814083D01*
X67940120Y-138720901D01*
X68129281Y-138663520D01*
X68326000Y-138644145D01*
X68522720Y-138663520D01*
X68522720Y-138663520D01*
G37*
G36*
X71062720Y-138663520D02*
X71251881Y-138720901D01*
X71426212Y-138814083D01*
X71579015Y-138939485D01*
X71704417Y-139092288D01*
X71797599Y-139266620D01*
X71854980Y-139455781D01*
X71869500Y-139603207D01*
X71869500Y-139796794D01*
X71854980Y-139944220D01*
X71797599Y-140133381D01*
X71704417Y-140307712D01*
X71579015Y-140460515D01*
X71426212Y-140585917D01*
X71251880Y-140679099D01*
X71062719Y-140736480D01*
X70866000Y-140755855D01*
X70669280Y-140736480D01*
X70480119Y-140679099D01*
X70305788Y-140585917D01*
X70152985Y-140460515D01*
X70027583Y-140307712D01*
X69934401Y-140133380D01*
X69877020Y-139944219D01*
X69862500Y-139796793D01*
X69862500Y-139603206D01*
X69877020Y-139455780D01*
X69934401Y-139266619D01*
X70027583Y-139092288D01*
X70152985Y-138939485D01*
X70305788Y-138814083D01*
X70480120Y-138720901D01*
X70669281Y-138663520D01*
X70866000Y-138644145D01*
X71062720Y-138663520D01*
X71062720Y-138663520D01*
G37*
G36*
X74409500Y-140751000D02*
X72402500Y-140751000D01*
X72402500Y-138649000D01*
X74409500Y-138649000D01*
X74409500Y-140751000D01*
X74409500Y-140751000D01*
G37*
G36*
X107177065Y-138062889D02*
X107368334Y-138142115D01*
X107540476Y-138257137D01*
X107686863Y-138403524D01*
X107801885Y-138575666D01*
X107881111Y-138766935D01*
X107921500Y-138969984D01*
X107921500Y-139177016D01*
X107881111Y-139380065D01*
X107801885Y-139571334D01*
X107686863Y-139743476D01*
X107540476Y-139889863D01*
X107368334Y-140004885D01*
X107177065Y-140084111D01*
X106974016Y-140124500D01*
X106766984Y-140124500D01*
X106563935Y-140084111D01*
X106372666Y-140004885D01*
X106200524Y-139889863D01*
X106054137Y-139743476D01*
X105939115Y-139571334D01*
X105859889Y-139380065D01*
X105819500Y-139177016D01*
X105819500Y-138969984D01*
X105859889Y-138766935D01*
X105939115Y-138575666D01*
X106054137Y-138403524D01*
X106200524Y-138257137D01*
X106372666Y-138142115D01*
X106563935Y-138062889D01*
X106766984Y-138022500D01*
X106974016Y-138022500D01*
X107177065Y-138062889D01*
X107177065Y-138062889D01*
G37*
G36*
X100677065Y-138062889D02*
X100868334Y-138142115D01*
X101040476Y-138257137D01*
X101186863Y-138403524D01*
X101301885Y-138575666D01*
X101381111Y-138766935D01*
X101421500Y-138969984D01*
X101421500Y-139177016D01*
X101381111Y-139380065D01*
X101301885Y-139571334D01*
X101186863Y-139743476D01*
X101040476Y-139889863D01*
X100868334Y-140004885D01*
X100677065Y-140084111D01*
X100474016Y-140124500D01*
X100266984Y-140124500D01*
X100063935Y-140084111D01*
X99872666Y-140004885D01*
X99700524Y-139889863D01*
X99554137Y-139743476D01*
X99439115Y-139571334D01*
X99359889Y-139380065D01*
X99319500Y-139177016D01*
X99319500Y-138969984D01*
X99359889Y-138766935D01*
X99439115Y-138575666D01*
X99554137Y-138403524D01*
X99700524Y-138257137D01*
X99872666Y-138142115D01*
X100063935Y-138062889D01*
X100266984Y-138022500D01*
X100474016Y-138022500D01*
X100677065Y-138062889D01*
X100677065Y-138062889D01*
G37*
G36*
X97537765Y-138062889D02*
X97729034Y-138142115D01*
X97901176Y-138257137D01*
X98047563Y-138403524D01*
X98162585Y-138575666D01*
X98241811Y-138766935D01*
X98282200Y-138969984D01*
X98282200Y-139177016D01*
X98241811Y-139380065D01*
X98162585Y-139571334D01*
X98047563Y-139743476D01*
X97901176Y-139889863D01*
X97729034Y-140004885D01*
X97537765Y-140084111D01*
X97334716Y-140124500D01*
X97127684Y-140124500D01*
X96924635Y-140084111D01*
X96733366Y-140004885D01*
X96561224Y-139889863D01*
X96414837Y-139743476D01*
X96299815Y-139571334D01*
X96220589Y-139380065D01*
X96180200Y-139177016D01*
X96180200Y-138969984D01*
X96220589Y-138766935D01*
X96299815Y-138575666D01*
X96414837Y-138403524D01*
X96561224Y-138257137D01*
X96733366Y-138142115D01*
X96924635Y-138062889D01*
X97127684Y-138022500D01*
X97334716Y-138022500D01*
X97537765Y-138062889D01*
X97537765Y-138062889D01*
G37*
G36*
X91037765Y-138062889D02*
X91229034Y-138142115D01*
X91401176Y-138257137D01*
X91547563Y-138403524D01*
X91662585Y-138575666D01*
X91741811Y-138766935D01*
X91782200Y-138969984D01*
X91782200Y-139177016D01*
X91741811Y-139380065D01*
X91662585Y-139571334D01*
X91547563Y-139743476D01*
X91401176Y-139889863D01*
X91229034Y-140004885D01*
X91037765Y-140084111D01*
X90834716Y-140124500D01*
X90627684Y-140124500D01*
X90424635Y-140084111D01*
X90233366Y-140004885D01*
X90061224Y-139889863D01*
X89914837Y-139743476D01*
X89799815Y-139571334D01*
X89720589Y-139380065D01*
X89680200Y-139177016D01*
X89680200Y-138969984D01*
X89720589Y-138766935D01*
X89799815Y-138575666D01*
X89914837Y-138403524D01*
X90061224Y-138257137D01*
X90233366Y-138142115D01*
X90424635Y-138062889D01*
X90627684Y-138022500D01*
X90834716Y-138022500D01*
X91037765Y-138062889D01*
X91037765Y-138062889D01*
G37*
G36*
X61133943Y-138297519D02*
X61200127Y-138304037D01*
X61313353Y-138338384D01*
X61369967Y-138355557D01*
X61459711Y-138403527D01*
X61526491Y-138439222D01*
X61562229Y-138468552D01*
X61663686Y-138551814D01*
X61739459Y-138644145D01*
X61776278Y-138689009D01*
X61776279Y-138689011D01*
X61859943Y-138845533D01*
X61859943Y-138845534D01*
X61911463Y-139015373D01*
X61928859Y-139192000D01*
X61911463Y-139368627D01*
X61885024Y-139455784D01*
X61859943Y-139538467D01*
X61825338Y-139603207D01*
X61776278Y-139694991D01*
X61746948Y-139730729D01*
X61663686Y-139832186D01*
X61562229Y-139915448D01*
X61526491Y-139944778D01*
X61526489Y-139944779D01*
X61369967Y-140028443D01*
X61313353Y-140045616D01*
X61200127Y-140079963D01*
X61133943Y-140086481D01*
X61067760Y-140093000D01*
X60979240Y-140093000D01*
X60913057Y-140086481D01*
X60846873Y-140079963D01*
X60733647Y-140045616D01*
X60677033Y-140028443D01*
X60520511Y-139944779D01*
X60520509Y-139944778D01*
X60484771Y-139915448D01*
X60383314Y-139832186D01*
X60300052Y-139730729D01*
X60270722Y-139694991D01*
X60221662Y-139603207D01*
X60187057Y-139538467D01*
X60161976Y-139455784D01*
X60135537Y-139368627D01*
X60118141Y-139192000D01*
X60135537Y-139015373D01*
X60187057Y-138845534D01*
X60187057Y-138845533D01*
X60270721Y-138689011D01*
X60270722Y-138689009D01*
X60307541Y-138644145D01*
X60383314Y-138551814D01*
X60484771Y-138468552D01*
X60520509Y-138439222D01*
X60587289Y-138403527D01*
X60677033Y-138355557D01*
X60733647Y-138338384D01*
X60846873Y-138304037D01*
X60913057Y-138297519D01*
X60979240Y-138291000D01*
X61067760Y-138291000D01*
X61133943Y-138297519D01*
X61133943Y-138297519D01*
G37*
G36*
X63673943Y-138297519D02*
X63740127Y-138304037D01*
X63853353Y-138338384D01*
X63909967Y-138355557D01*
X63999711Y-138403527D01*
X64066491Y-138439222D01*
X64102229Y-138468552D01*
X64203686Y-138551814D01*
X64279459Y-138644145D01*
X64316278Y-138689009D01*
X64316279Y-138689011D01*
X64399943Y-138845533D01*
X64399943Y-138845534D01*
X64451463Y-139015373D01*
X64468859Y-139192000D01*
X64451463Y-139368627D01*
X64425024Y-139455784D01*
X64399943Y-139538467D01*
X64365338Y-139603207D01*
X64316278Y-139694991D01*
X64286948Y-139730729D01*
X64203686Y-139832186D01*
X64102229Y-139915448D01*
X64066491Y-139944778D01*
X64066489Y-139944779D01*
X63909967Y-140028443D01*
X63853353Y-140045616D01*
X63740127Y-140079963D01*
X63673943Y-140086481D01*
X63607760Y-140093000D01*
X63519240Y-140093000D01*
X63453057Y-140086481D01*
X63386873Y-140079963D01*
X63273647Y-140045616D01*
X63217033Y-140028443D01*
X63060511Y-139944779D01*
X63060509Y-139944778D01*
X63024771Y-139915448D01*
X62923314Y-139832186D01*
X62840052Y-139730729D01*
X62810722Y-139694991D01*
X62761662Y-139603207D01*
X62727057Y-139538467D01*
X62701976Y-139455784D01*
X62675537Y-139368627D01*
X62658141Y-139192000D01*
X62675537Y-139015373D01*
X62727057Y-138845534D01*
X62727057Y-138845533D01*
X62810721Y-138689011D01*
X62810722Y-138689009D01*
X62847541Y-138644145D01*
X62923314Y-138551814D01*
X63024771Y-138468552D01*
X63060509Y-138439222D01*
X63127289Y-138403527D01*
X63217033Y-138355557D01*
X63273647Y-138338384D01*
X63386873Y-138304037D01*
X63453057Y-138297519D01*
X63519240Y-138291000D01*
X63607760Y-138291000D01*
X63673943Y-138297519D01*
X63673943Y-138297519D01*
G37*
G36*
X88361900Y-139873100D02*
X86059900Y-139873100D01*
X86059900Y-137571100D01*
X88361900Y-137571100D01*
X88361900Y-139873100D01*
X88361900Y-139873100D01*
G37*
G36*
X112135228Y-134690703D02*
X112290100Y-134754853D01*
X112429481Y-134847985D01*
X112548015Y-134966519D01*
X112641147Y-135105900D01*
X112705297Y-135260772D01*
X112738000Y-135425184D01*
X112738000Y-135592816D01*
X112705297Y-135757228D01*
X112641147Y-135912100D01*
X112548015Y-136051481D01*
X112429481Y-136170015D01*
X112290100Y-136263147D01*
X112135228Y-136327297D01*
X111970816Y-136360000D01*
X111803184Y-136360000D01*
X111638772Y-136327297D01*
X111483900Y-136263147D01*
X111344519Y-136170015D01*
X111225985Y-136051481D01*
X111132853Y-135912100D01*
X111068703Y-135757228D01*
X111036000Y-135592816D01*
X111036000Y-135425184D01*
X111068703Y-135260772D01*
X111132853Y-135105900D01*
X111225985Y-134966519D01*
X111344519Y-134847985D01*
X111483900Y-134754853D01*
X111638772Y-134690703D01*
X111803184Y-134658000D01*
X111970816Y-134658000D01*
X112135228Y-134690703D01*
X112135228Y-134690703D01*
G37*
G36*
X114593821Y-134670313D02*
X114593824Y-134670314D01*
X114593825Y-134670314D01*
X114754239Y-134718975D01*
X114754241Y-134718976D01*
X114754244Y-134718977D01*
X114902078Y-134797995D01*
X115031659Y-134904341D01*
X115138005Y-135033922D01*
X115217023Y-135181756D01*
X115217024Y-135181759D01*
X115217025Y-135181761D01*
X115265686Y-135342175D01*
X115265687Y-135342179D01*
X115282117Y-135509000D01*
X115265687Y-135675821D01*
X115265686Y-135675824D01*
X115265686Y-135675825D01*
X115240993Y-135757228D01*
X115217023Y-135836244D01*
X115138005Y-135984078D01*
X115031659Y-136113659D01*
X114902078Y-136220005D01*
X114754244Y-136299023D01*
X114754241Y-136299024D01*
X114754239Y-136299025D01*
X114593825Y-136347686D01*
X114593824Y-136347686D01*
X114593821Y-136347687D01*
X114468804Y-136360000D01*
X114385196Y-136360000D01*
X114260179Y-136347687D01*
X114260176Y-136347686D01*
X114260175Y-136347686D01*
X114099761Y-136299025D01*
X114099759Y-136299024D01*
X114099756Y-136299023D01*
X113951922Y-136220005D01*
X113822341Y-136113659D01*
X113715995Y-135984078D01*
X113636977Y-135836244D01*
X113613008Y-135757228D01*
X113588314Y-135675825D01*
X113588314Y-135675824D01*
X113588313Y-135675821D01*
X113571883Y-135509000D01*
X113588313Y-135342179D01*
X113588314Y-135342175D01*
X113636975Y-135181761D01*
X113636976Y-135181759D01*
X113636977Y-135181756D01*
X113715995Y-135033922D01*
X113822341Y-134904341D01*
X113951922Y-134797995D01*
X114099756Y-134718977D01*
X114099759Y-134718976D01*
X114099761Y-134718975D01*
X114260175Y-134670314D01*
X114260176Y-134670314D01*
X114260179Y-134670313D01*
X114385196Y-134658000D01*
X114468804Y-134658000D01*
X114593821Y-134670313D01*
X114593821Y-134670313D01*
G37*
G36*
X73953821Y-133400313D02*
X73953824Y-133400314D01*
X73953825Y-133400314D01*
X74114239Y-133448975D01*
X74114241Y-133448976D01*
X74114244Y-133448977D01*
X74262078Y-133527995D01*
X74391659Y-133634341D01*
X74498005Y-133763922D01*
X74577023Y-133911756D01*
X74577024Y-133911759D01*
X74577025Y-133911761D01*
X74625686Y-134072175D01*
X74625687Y-134072179D01*
X74642117Y-134239000D01*
X74625687Y-134405821D01*
X74625686Y-134405824D01*
X74625686Y-134405825D01*
X74600993Y-134487228D01*
X74577023Y-134566244D01*
X74498005Y-134714078D01*
X74391659Y-134843659D01*
X74262078Y-134950005D01*
X74114244Y-135029023D01*
X74114241Y-135029024D01*
X74114239Y-135029025D01*
X73953825Y-135077686D01*
X73953824Y-135077686D01*
X73953821Y-135077687D01*
X73828804Y-135090000D01*
X73745196Y-135090000D01*
X73620179Y-135077687D01*
X73620176Y-135077686D01*
X73620175Y-135077686D01*
X73459761Y-135029025D01*
X73459759Y-135029024D01*
X73459756Y-135029023D01*
X73311922Y-134950005D01*
X73182341Y-134843659D01*
X73075995Y-134714078D01*
X72996977Y-134566244D01*
X72973008Y-134487228D01*
X72948314Y-134405825D01*
X72948314Y-134405824D01*
X72948313Y-134405821D01*
X72931883Y-134239000D01*
X72948313Y-134072179D01*
X72948314Y-134072175D01*
X72996975Y-133911761D01*
X72996976Y-133911759D01*
X72996977Y-133911756D01*
X73075995Y-133763922D01*
X73182341Y-133634341D01*
X73311922Y-133527995D01*
X73459756Y-133448977D01*
X73459759Y-133448976D01*
X73459761Y-133448975D01*
X73620175Y-133400314D01*
X73620176Y-133400314D01*
X73620179Y-133400313D01*
X73745196Y-133388000D01*
X73828804Y-133388000D01*
X73953821Y-133400313D01*
X73953821Y-133400313D01*
G37*
G36*
X66415228Y-133420703D02*
X66570100Y-133484853D01*
X66709481Y-133577985D01*
X66828015Y-133696519D01*
X66921147Y-133835900D01*
X66985297Y-133990772D01*
X67018000Y-134155184D01*
X67018000Y-134322816D01*
X66985297Y-134487228D01*
X66921147Y-134642100D01*
X66828015Y-134781481D01*
X66709481Y-134900015D01*
X66570100Y-134993147D01*
X66415228Y-135057297D01*
X66250816Y-135090000D01*
X66083184Y-135090000D01*
X65918772Y-135057297D01*
X65763900Y-134993147D01*
X65624519Y-134900015D01*
X65505985Y-134781481D01*
X65412853Y-134642100D01*
X65348703Y-134487228D01*
X65316000Y-134322816D01*
X65316000Y-134155184D01*
X65348703Y-133990772D01*
X65412853Y-133835900D01*
X65505985Y-133696519D01*
X65624519Y-133577985D01*
X65763900Y-133484853D01*
X65918772Y-133420703D01*
X66083184Y-133388000D01*
X66250816Y-133388000D01*
X66415228Y-133420703D01*
X66415228Y-133420703D01*
G37*
G36*
X114287956Y-126801298D02*
X114394279Y-126822447D01*
X114694742Y-126946903D01*
X114961552Y-127125180D01*
X114965154Y-127127587D01*
X115195113Y-127357546D01*
X115375798Y-127627960D01*
X115500253Y-127928422D01*
X115563700Y-128247389D01*
X115563700Y-128572611D01*
X115500253Y-128891578D01*
X115375798Y-129192040D01*
X115195113Y-129462454D01*
X114965154Y-129692413D01*
X114965151Y-129692415D01*
X114694742Y-129873097D01*
X114394279Y-129997553D01*
X114287956Y-130018702D01*
X114075311Y-130061000D01*
X113750089Y-130061000D01*
X113537444Y-130018702D01*
X113431121Y-129997553D01*
X113130658Y-129873097D01*
X112860249Y-129692415D01*
X112860246Y-129692413D01*
X112630287Y-129462454D01*
X112449602Y-129192040D01*
X112325147Y-128891578D01*
X112261700Y-128572611D01*
X112261700Y-128247389D01*
X112325147Y-127928422D01*
X112449602Y-127627960D01*
X112630287Y-127357546D01*
X112860246Y-127127587D01*
X112863848Y-127125180D01*
X113130658Y-126946903D01*
X113431121Y-126822447D01*
X113537444Y-126801298D01*
X113750089Y-126759000D01*
X114075311Y-126759000D01*
X114287956Y-126801298D01*
X114287956Y-126801298D01*
G37*
G36*
X89287956Y-126801298D02*
X89394279Y-126822447D01*
X89694742Y-126946903D01*
X89961552Y-127125180D01*
X89965154Y-127127587D01*
X90195113Y-127357546D01*
X90375798Y-127627960D01*
X90500253Y-127928422D01*
X90563700Y-128247389D01*
X90563700Y-128572611D01*
X90500253Y-128891578D01*
X90375798Y-129192040D01*
X90195113Y-129462454D01*
X89965154Y-129692413D01*
X89965151Y-129692415D01*
X89694742Y-129873097D01*
X89394279Y-129997553D01*
X89287956Y-130018702D01*
X89075311Y-130061000D01*
X88750089Y-130061000D01*
X88537444Y-130018702D01*
X88431121Y-129997553D01*
X88130658Y-129873097D01*
X87860249Y-129692415D01*
X87860246Y-129692413D01*
X87630287Y-129462454D01*
X87449602Y-129192040D01*
X87325147Y-128891578D01*
X87261700Y-128572611D01*
X87261700Y-128247389D01*
X87325147Y-127928422D01*
X87449602Y-127627960D01*
X87630287Y-127357546D01*
X87860246Y-127127587D01*
X87863848Y-127125180D01*
X88130658Y-126946903D01*
X88431121Y-126822447D01*
X88537444Y-126801298D01*
X88750089Y-126759000D01*
X89075311Y-126759000D01*
X89287956Y-126801298D01*
X89287956Y-126801298D01*
G37*
G36*
X62242000Y-129141500D02*
X60440000Y-129141500D01*
X60440000Y-127339500D01*
X62242000Y-127339500D01*
X62242000Y-129141500D01*
X62242000Y-129141500D01*
G37*
G36*
X82742000Y-129141500D02*
X80940000Y-129141500D01*
X80940000Y-127339500D01*
X82742000Y-127339500D01*
X82742000Y-129141500D01*
X82742000Y-129141500D01*
G37*
G36*
X114523142Y-119374518D02*
X114589327Y-119381037D01*
X114702553Y-119415384D01*
X114759167Y-119432557D01*
X114897787Y-119506652D01*
X114915691Y-119516222D01*
X114951429Y-119545552D01*
X115052886Y-119628814D01*
X115136148Y-119730271D01*
X115165478Y-119766009D01*
X115165479Y-119766011D01*
X115249143Y-119922533D01*
X115249143Y-119922534D01*
X115300663Y-120092373D01*
X115318059Y-120269000D01*
X115300663Y-120445627D01*
X115266316Y-120558853D01*
X115249143Y-120615467D01*
X115175048Y-120754087D01*
X115165478Y-120771991D01*
X115136148Y-120807729D01*
X115052886Y-120909186D01*
X114951429Y-120992448D01*
X114915691Y-121021778D01*
X114915689Y-121021779D01*
X114759167Y-121105443D01*
X114702553Y-121122616D01*
X114589327Y-121156963D01*
X114523142Y-121163482D01*
X114456960Y-121170000D01*
X114368440Y-121170000D01*
X114302258Y-121163482D01*
X114236073Y-121156963D01*
X114122847Y-121122616D01*
X114066233Y-121105443D01*
X113909711Y-121021779D01*
X113909709Y-121021778D01*
X113873971Y-120992448D01*
X113772514Y-120909186D01*
X113689252Y-120807729D01*
X113659922Y-120771991D01*
X113650352Y-120754087D01*
X113576257Y-120615467D01*
X113559084Y-120558853D01*
X113524737Y-120445627D01*
X113507341Y-120269000D01*
X113524737Y-120092373D01*
X113576257Y-119922534D01*
X113576257Y-119922533D01*
X113659921Y-119766011D01*
X113659922Y-119766009D01*
X113689252Y-119730271D01*
X113772514Y-119628814D01*
X113873971Y-119545552D01*
X113909709Y-119516222D01*
X113927613Y-119506652D01*
X114066233Y-119432557D01*
X114122847Y-119415384D01*
X114236073Y-119381037D01*
X114302258Y-119374518D01*
X114368440Y-119368000D01*
X114456960Y-119368000D01*
X114523142Y-119374518D01*
X114523142Y-119374518D01*
G37*
G36*
X115313700Y-118630000D02*
X113511700Y-118630000D01*
X113511700Y-116828000D01*
X115313700Y-116828000D01*
X115313700Y-118630000D01*
X115313700Y-118630000D01*
G37*
G36*
X114675512Y-108543624D02*
X114839484Y-108611544D01*
X114987054Y-108710147D01*
X115112553Y-108835646D01*
X115211156Y-108983216D01*
X115279076Y-109147188D01*
X115313700Y-109321259D01*
X115313700Y-109498741D01*
X115279076Y-109672812D01*
X115211156Y-109836784D01*
X115112553Y-109984354D01*
X114987054Y-110109853D01*
X114839484Y-110208456D01*
X114675512Y-110276376D01*
X114501441Y-110311000D01*
X114323959Y-110311000D01*
X114149888Y-110276376D01*
X113985916Y-110208456D01*
X113838346Y-110109853D01*
X113712847Y-109984354D01*
X113614244Y-109836784D01*
X113546324Y-109672812D01*
X113511700Y-109498741D01*
X113511700Y-109321259D01*
X113546324Y-109147188D01*
X113614244Y-108983216D01*
X113712847Y-108835646D01*
X113838346Y-108710147D01*
X113985916Y-108611544D01*
X114149888Y-108543624D01*
X114323959Y-108509000D01*
X114501441Y-108509000D01*
X114675512Y-108543624D01*
X114675512Y-108543624D01*
G37*
G36*
X89175512Y-108543624D02*
X89339484Y-108611544D01*
X89487054Y-108710147D01*
X89612553Y-108835646D01*
X89711156Y-108983216D01*
X89779076Y-109147188D01*
X89813700Y-109321259D01*
X89813700Y-109498741D01*
X89779076Y-109672812D01*
X89711156Y-109836784D01*
X89612553Y-109984354D01*
X89487054Y-110109853D01*
X89339484Y-110208456D01*
X89175512Y-110276376D01*
X89001441Y-110311000D01*
X88823959Y-110311000D01*
X88649888Y-110276376D01*
X88485916Y-110208456D01*
X88338346Y-110109853D01*
X88212847Y-109984354D01*
X88114244Y-109836784D01*
X88046324Y-109672812D01*
X88011700Y-109498741D01*
X88011700Y-109321259D01*
X88046324Y-109147188D01*
X88114244Y-108983216D01*
X88212847Y-108835646D01*
X88338346Y-108710147D01*
X88485916Y-108611544D01*
X88649888Y-108543624D01*
X88823959Y-108509000D01*
X89001441Y-108509000D01*
X89175512Y-108543624D01*
X89175512Y-108543624D01*
G37*
G36*
X89813700Y-107771000D02*
X88011700Y-107771000D01*
X88011700Y-105969000D01*
X89813700Y-105969000D01*
X89813700Y-107771000D01*
X89813700Y-107771000D01*
G37*
G36*
X115313700Y-107771000D02*
X113511700Y-107771000D01*
X113511700Y-105969000D01*
X115313700Y-105969000D01*
X115313700Y-107771000D01*
X115313700Y-107771000D01*
G37*
G36*
X114675512Y-86003624D02*
X114839484Y-86071544D01*
X114987054Y-86170147D01*
X115112553Y-86295646D01*
X115211156Y-86443216D01*
X115279076Y-86607188D01*
X115313700Y-86781259D01*
X115313700Y-86958741D01*
X115279076Y-87132812D01*
X115211156Y-87296784D01*
X115112553Y-87444354D01*
X114987054Y-87569853D01*
X114839484Y-87668456D01*
X114675512Y-87736376D01*
X114501441Y-87771000D01*
X114323959Y-87771000D01*
X114149888Y-87736376D01*
X113985916Y-87668456D01*
X113838346Y-87569853D01*
X113712847Y-87444354D01*
X113614244Y-87296784D01*
X113546324Y-87132812D01*
X113511700Y-86958741D01*
X113511700Y-86781259D01*
X113546324Y-86607188D01*
X113614244Y-86443216D01*
X113712847Y-86295646D01*
X113838346Y-86170147D01*
X113985916Y-86071544D01*
X114149888Y-86003624D01*
X114323959Y-85969000D01*
X114501441Y-85969000D01*
X114675512Y-86003624D01*
X114675512Y-86003624D01*
G37*
G36*
X89175512Y-86003624D02*
X89339484Y-86071544D01*
X89487054Y-86170147D01*
X89612553Y-86295646D01*
X89711156Y-86443216D01*
X89779076Y-86607188D01*
X89813700Y-86781259D01*
X89813700Y-86958741D01*
X89779076Y-87132812D01*
X89711156Y-87296784D01*
X89612553Y-87444354D01*
X89487054Y-87569853D01*
X89339484Y-87668456D01*
X89175512Y-87736376D01*
X89001441Y-87771000D01*
X88823959Y-87771000D01*
X88649888Y-87736376D01*
X88485916Y-87668456D01*
X88338346Y-87569853D01*
X88212847Y-87444354D01*
X88114244Y-87296784D01*
X88046324Y-87132812D01*
X88011700Y-86958741D01*
X88011700Y-86781259D01*
X88046324Y-86607188D01*
X88114244Y-86443216D01*
X88212847Y-86295646D01*
X88338346Y-86170147D01*
X88485916Y-86071544D01*
X88649888Y-86003624D01*
X88823959Y-85969000D01*
X89001441Y-85969000D01*
X89175512Y-86003624D01*
X89175512Y-86003624D01*
G37*
G36*
X115313700Y-85231000D02*
X113511700Y-85231000D01*
X113511700Y-83429000D01*
X115313700Y-83429000D01*
X115313700Y-85231000D01*
X115313700Y-85231000D01*
G37*
G36*
X89813700Y-85231000D02*
X88011700Y-85231000D01*
X88011700Y-83429000D01*
X89813700Y-83429000D01*
X89813700Y-85231000D01*
X89813700Y-85231000D01*
G37*
G36*
X62242000Y-83641500D02*
X60440000Y-83641500D01*
X60440000Y-81839500D01*
X62242000Y-81839500D01*
X62242000Y-83641500D01*
X62242000Y-83641500D01*
G37*
G36*
X82742000Y-83641500D02*
X80940000Y-83641500D01*
X80940000Y-81839500D01*
X82742000Y-81839500D01*
X82742000Y-83641500D01*
X82742000Y-83641500D01*
G37*
G36*
X84209812Y-78381624D02*
X84373784Y-78449544D01*
X84521354Y-78548147D01*
X84646853Y-78673646D01*
X84745456Y-78821216D01*
X84813376Y-78985188D01*
X84848000Y-79159259D01*
X84848000Y-79336741D01*
X84813376Y-79510812D01*
X84745456Y-79674784D01*
X84646853Y-79822354D01*
X84521354Y-79947853D01*
X84373784Y-80046456D01*
X84209812Y-80114376D01*
X84035741Y-80149000D01*
X83858259Y-80149000D01*
X83684188Y-80114376D01*
X83520216Y-80046456D01*
X83372646Y-79947853D01*
X83247147Y-79822354D01*
X83148544Y-79674784D01*
X83080624Y-79510812D01*
X83046000Y-79336741D01*
X83046000Y-79159259D01*
X83080624Y-78985188D01*
X83148544Y-78821216D01*
X83247147Y-78673646D01*
X83372646Y-78548147D01*
X83520216Y-78449544D01*
X83684188Y-78381624D01*
X83858259Y-78347000D01*
X84035741Y-78347000D01*
X84209812Y-78381624D01*
X84209812Y-78381624D01*
G37*
G36*
X61349812Y-78381624D02*
X61513784Y-78449544D01*
X61661354Y-78548147D01*
X61786853Y-78673646D01*
X61885456Y-78821216D01*
X61953376Y-78985188D01*
X61988000Y-79159259D01*
X61988000Y-79336741D01*
X61953376Y-79510812D01*
X61885456Y-79674784D01*
X61786853Y-79822354D01*
X61661354Y-79947853D01*
X61513784Y-80046456D01*
X61349812Y-80114376D01*
X61175741Y-80149000D01*
X60998259Y-80149000D01*
X60824188Y-80114376D01*
X60660216Y-80046456D01*
X60512646Y-79947853D01*
X60387147Y-79822354D01*
X60288544Y-79674784D01*
X60220624Y-79510812D01*
X60186000Y-79336741D01*
X60186000Y-79159259D01*
X60220624Y-78985188D01*
X60288544Y-78821216D01*
X60387147Y-78673646D01*
X60512646Y-78548147D01*
X60660216Y-78449544D01*
X60824188Y-78381624D01*
X60998259Y-78347000D01*
X61175741Y-78347000D01*
X61349812Y-78381624D01*
X61349812Y-78381624D01*
G37*
G36*
X84209812Y-75841624D02*
X84373784Y-75909544D01*
X84521354Y-76008147D01*
X84646853Y-76133646D01*
X84745456Y-76281216D01*
X84813376Y-76445188D01*
X84848000Y-76619259D01*
X84848000Y-76796741D01*
X84813376Y-76970812D01*
X84745456Y-77134784D01*
X84646853Y-77282354D01*
X84521354Y-77407853D01*
X84373784Y-77506456D01*
X84209812Y-77574376D01*
X84035741Y-77609000D01*
X83858259Y-77609000D01*
X83684188Y-77574376D01*
X83520216Y-77506456D01*
X83372646Y-77407853D01*
X83247147Y-77282354D01*
X83148544Y-77134784D01*
X83080624Y-76970812D01*
X83046000Y-76796741D01*
X83046000Y-76619259D01*
X83080624Y-76445188D01*
X83148544Y-76281216D01*
X83247147Y-76133646D01*
X83372646Y-76008147D01*
X83520216Y-75909544D01*
X83684188Y-75841624D01*
X83858259Y-75807000D01*
X84035741Y-75807000D01*
X84209812Y-75841624D01*
X84209812Y-75841624D01*
G37*
G36*
X61349812Y-75841624D02*
X61513784Y-75909544D01*
X61661354Y-76008147D01*
X61786853Y-76133646D01*
X61885456Y-76281216D01*
X61953376Y-76445188D01*
X61988000Y-76619259D01*
X61988000Y-76796741D01*
X61953376Y-76970812D01*
X61885456Y-77134784D01*
X61786853Y-77282354D01*
X61661354Y-77407853D01*
X61513784Y-77506456D01*
X61349812Y-77574376D01*
X61175741Y-77609000D01*
X60998259Y-77609000D01*
X60824188Y-77574376D01*
X60660216Y-77506456D01*
X60512646Y-77407853D01*
X60387147Y-77282354D01*
X60288544Y-77134784D01*
X60220624Y-76970812D01*
X60186000Y-76796741D01*
X60186000Y-76619259D01*
X60220624Y-76445188D01*
X60288544Y-76281216D01*
X60387147Y-76133646D01*
X60512646Y-76008147D01*
X60660216Y-75909544D01*
X60824188Y-75841624D01*
X60998259Y-75807000D01*
X61175741Y-75807000D01*
X61349812Y-75841624D01*
X61349812Y-75841624D01*
G37*
G36*
X84209812Y-73301624D02*
X84373784Y-73369544D01*
X84521354Y-73468147D01*
X84646853Y-73593646D01*
X84745456Y-73741216D01*
X84813376Y-73905188D01*
X84848000Y-74079259D01*
X84848000Y-74256741D01*
X84813376Y-74430812D01*
X84745456Y-74594784D01*
X84646853Y-74742354D01*
X84521354Y-74867853D01*
X84373784Y-74966456D01*
X84209812Y-75034376D01*
X84035741Y-75069000D01*
X83858259Y-75069000D01*
X83684188Y-75034376D01*
X83520216Y-74966456D01*
X83372646Y-74867853D01*
X83247147Y-74742354D01*
X83148544Y-74594784D01*
X83080624Y-74430812D01*
X83046000Y-74256741D01*
X83046000Y-74079259D01*
X83080624Y-73905188D01*
X83148544Y-73741216D01*
X83247147Y-73593646D01*
X83372646Y-73468147D01*
X83520216Y-73369544D01*
X83684188Y-73301624D01*
X83858259Y-73267000D01*
X84035741Y-73267000D01*
X84209812Y-73301624D01*
X84209812Y-73301624D01*
G37*
G36*
X61349812Y-73301624D02*
X61513784Y-73369544D01*
X61661354Y-73468147D01*
X61786853Y-73593646D01*
X61885456Y-73741216D01*
X61953376Y-73905188D01*
X61988000Y-74079259D01*
X61988000Y-74256741D01*
X61953376Y-74430812D01*
X61885456Y-74594784D01*
X61786853Y-74742354D01*
X61661354Y-74867853D01*
X61513784Y-74966456D01*
X61349812Y-75034376D01*
X61175741Y-75069000D01*
X60998259Y-75069000D01*
X60824188Y-75034376D01*
X60660216Y-74966456D01*
X60512646Y-74867853D01*
X60387147Y-74742354D01*
X60288544Y-74594784D01*
X60220624Y-74430812D01*
X60186000Y-74256741D01*
X60186000Y-74079259D01*
X60220624Y-73905188D01*
X60288544Y-73741216D01*
X60387147Y-73593646D01*
X60512646Y-73468147D01*
X60660216Y-73369544D01*
X60824188Y-73301624D01*
X60998259Y-73267000D01*
X61175741Y-73267000D01*
X61349812Y-73301624D01*
X61349812Y-73301624D01*
G37*
G36*
X84209812Y-70761624D02*
X84373784Y-70829544D01*
X84521354Y-70928147D01*
X84646853Y-71053646D01*
X84745456Y-71201216D01*
X84813376Y-71365188D01*
X84848000Y-71539259D01*
X84848000Y-71716741D01*
X84813376Y-71890812D01*
X84745456Y-72054784D01*
X84646853Y-72202354D01*
X84521354Y-72327853D01*
X84373784Y-72426456D01*
X84209812Y-72494376D01*
X84035741Y-72529000D01*
X83858259Y-72529000D01*
X83684188Y-72494376D01*
X83520216Y-72426456D01*
X83372646Y-72327853D01*
X83247147Y-72202354D01*
X83148544Y-72054784D01*
X83080624Y-71890812D01*
X83046000Y-71716741D01*
X83046000Y-71539259D01*
X83080624Y-71365188D01*
X83148544Y-71201216D01*
X83247147Y-71053646D01*
X83372646Y-70928147D01*
X83520216Y-70829544D01*
X83684188Y-70761624D01*
X83858259Y-70727000D01*
X84035741Y-70727000D01*
X84209812Y-70761624D01*
X84209812Y-70761624D01*
G37*
G36*
X61349812Y-70761624D02*
X61513784Y-70829544D01*
X61661354Y-70928147D01*
X61786853Y-71053646D01*
X61885456Y-71201216D01*
X61953376Y-71365188D01*
X61988000Y-71539259D01*
X61988000Y-71716741D01*
X61953376Y-71890812D01*
X61885456Y-72054784D01*
X61786853Y-72202354D01*
X61661354Y-72327853D01*
X61513784Y-72426456D01*
X61349812Y-72494376D01*
X61175741Y-72529000D01*
X60998259Y-72529000D01*
X60824188Y-72494376D01*
X60660216Y-72426456D01*
X60512646Y-72327853D01*
X60387147Y-72202354D01*
X60288544Y-72054784D01*
X60220624Y-71890812D01*
X60186000Y-71716741D01*
X60186000Y-71539259D01*
X60220624Y-71365188D01*
X60288544Y-71201216D01*
X60387147Y-71053646D01*
X60512646Y-70928147D01*
X60660216Y-70829544D01*
X60824188Y-70761624D01*
X60998259Y-70727000D01*
X61175741Y-70727000D01*
X61349812Y-70761624D01*
X61349812Y-70761624D01*
G37*
G36*
X84209812Y-68221624D02*
X84373784Y-68289544D01*
X84521354Y-68388147D01*
X84646853Y-68513646D01*
X84745456Y-68661216D01*
X84813376Y-68825188D01*
X84848000Y-68999259D01*
X84848000Y-69176741D01*
X84813376Y-69350812D01*
X84745456Y-69514784D01*
X84646853Y-69662354D01*
X84521354Y-69787853D01*
X84373784Y-69886456D01*
X84209812Y-69954376D01*
X84035741Y-69989000D01*
X83858259Y-69989000D01*
X83684188Y-69954376D01*
X83520216Y-69886456D01*
X83372646Y-69787853D01*
X83247147Y-69662354D01*
X83148544Y-69514784D01*
X83080624Y-69350812D01*
X83046000Y-69176741D01*
X83046000Y-68999259D01*
X83080624Y-68825188D01*
X83148544Y-68661216D01*
X83247147Y-68513646D01*
X83372646Y-68388147D01*
X83520216Y-68289544D01*
X83684188Y-68221624D01*
X83858259Y-68187000D01*
X84035741Y-68187000D01*
X84209812Y-68221624D01*
X84209812Y-68221624D01*
G37*
G36*
X61349812Y-68221624D02*
X61513784Y-68289544D01*
X61661354Y-68388147D01*
X61786853Y-68513646D01*
X61885456Y-68661216D01*
X61953376Y-68825188D01*
X61988000Y-68999259D01*
X61988000Y-69176741D01*
X61953376Y-69350812D01*
X61885456Y-69514784D01*
X61786853Y-69662354D01*
X61661354Y-69787853D01*
X61513784Y-69886456D01*
X61349812Y-69954376D01*
X61175741Y-69989000D01*
X60998259Y-69989000D01*
X60824188Y-69954376D01*
X60660216Y-69886456D01*
X60512646Y-69787853D01*
X60387147Y-69662354D01*
X60288544Y-69514784D01*
X60220624Y-69350812D01*
X60186000Y-69176741D01*
X60186000Y-68999259D01*
X60220624Y-68825188D01*
X60288544Y-68661216D01*
X60387147Y-68513646D01*
X60512646Y-68388147D01*
X60660216Y-68289544D01*
X60824188Y-68221624D01*
X60998259Y-68187000D01*
X61175741Y-68187000D01*
X61349812Y-68221624D01*
X61349812Y-68221624D01*
G37*
G36*
X84209812Y-65681624D02*
X84373784Y-65749544D01*
X84521354Y-65848147D01*
X84646853Y-65973646D01*
X84745456Y-66121216D01*
X84813376Y-66285188D01*
X84848000Y-66459259D01*
X84848000Y-66636741D01*
X84813376Y-66810812D01*
X84745456Y-66974784D01*
X84646853Y-67122354D01*
X84521354Y-67247853D01*
X84373784Y-67346456D01*
X84209812Y-67414376D01*
X84035741Y-67449000D01*
X83858259Y-67449000D01*
X83684188Y-67414376D01*
X83520216Y-67346456D01*
X83372646Y-67247853D01*
X83247147Y-67122354D01*
X83148544Y-66974784D01*
X83080624Y-66810812D01*
X83046000Y-66636741D01*
X83046000Y-66459259D01*
X83080624Y-66285188D01*
X83148544Y-66121216D01*
X83247147Y-65973646D01*
X83372646Y-65848147D01*
X83520216Y-65749544D01*
X83684188Y-65681624D01*
X83858259Y-65647000D01*
X84035741Y-65647000D01*
X84209812Y-65681624D01*
X84209812Y-65681624D01*
G37*
G36*
X61349812Y-65681624D02*
X61513784Y-65749544D01*
X61661354Y-65848147D01*
X61786853Y-65973646D01*
X61885456Y-66121216D01*
X61953376Y-66285188D01*
X61988000Y-66459259D01*
X61988000Y-66636741D01*
X61953376Y-66810812D01*
X61885456Y-66974784D01*
X61786853Y-67122354D01*
X61661354Y-67247853D01*
X61513784Y-67346456D01*
X61349812Y-67414376D01*
X61175741Y-67449000D01*
X60998259Y-67449000D01*
X60824188Y-67414376D01*
X60660216Y-67346456D01*
X60512646Y-67247853D01*
X60387147Y-67122354D01*
X60288544Y-66974784D01*
X60220624Y-66810812D01*
X60186000Y-66636741D01*
X60186000Y-66459259D01*
X60220624Y-66285188D01*
X60288544Y-66121216D01*
X60387147Y-65973646D01*
X60512646Y-65848147D01*
X60660216Y-65749544D01*
X60824188Y-65681624D01*
X60998259Y-65647000D01*
X61175741Y-65647000D01*
X61349812Y-65681624D01*
X61349812Y-65681624D01*
G37*
G36*
X89175512Y-64963624D02*
X89339484Y-65031544D01*
X89487054Y-65130147D01*
X89612553Y-65255646D01*
X89711156Y-65403216D01*
X89779076Y-65567188D01*
X89813700Y-65741259D01*
X89813700Y-65918741D01*
X89779076Y-66092812D01*
X89711156Y-66256784D01*
X89612553Y-66404354D01*
X89487054Y-66529853D01*
X89339484Y-66628456D01*
X89175512Y-66696376D01*
X89001441Y-66731000D01*
X88823959Y-66731000D01*
X88649888Y-66696376D01*
X88485916Y-66628456D01*
X88338346Y-66529853D01*
X88212847Y-66404354D01*
X88114244Y-66256784D01*
X88046324Y-66092812D01*
X88011700Y-65918741D01*
X88011700Y-65741259D01*
X88046324Y-65567188D01*
X88114244Y-65403216D01*
X88212847Y-65255646D01*
X88338346Y-65130147D01*
X88485916Y-65031544D01*
X88649888Y-64963624D01*
X88823959Y-64929000D01*
X89001441Y-64929000D01*
X89175512Y-64963624D01*
X89175512Y-64963624D01*
G37*
G36*
X114675512Y-64963624D02*
X114839484Y-65031544D01*
X114987054Y-65130147D01*
X115112553Y-65255646D01*
X115211156Y-65403216D01*
X115279076Y-65567188D01*
X115313700Y-65741259D01*
X115313700Y-65918741D01*
X115279076Y-66092812D01*
X115211156Y-66256784D01*
X115112553Y-66404354D01*
X114987054Y-66529853D01*
X114839484Y-66628456D01*
X114675512Y-66696376D01*
X114501441Y-66731000D01*
X114323959Y-66731000D01*
X114149888Y-66696376D01*
X113985916Y-66628456D01*
X113838346Y-66529853D01*
X113712847Y-66404354D01*
X113614244Y-66256784D01*
X113546324Y-66092812D01*
X113511700Y-65918741D01*
X113511700Y-65741259D01*
X113546324Y-65567188D01*
X113614244Y-65403216D01*
X113712847Y-65255646D01*
X113838346Y-65130147D01*
X113985916Y-65031544D01*
X114149888Y-64963624D01*
X114323959Y-64929000D01*
X114501441Y-64929000D01*
X114675512Y-64963624D01*
X114675512Y-64963624D01*
G37*
G36*
X84209812Y-63141624D02*
X84373784Y-63209544D01*
X84521354Y-63308147D01*
X84646853Y-63433646D01*
X84745456Y-63581216D01*
X84813376Y-63745188D01*
X84848000Y-63919259D01*
X84848000Y-64096741D01*
X84813376Y-64270812D01*
X84745456Y-64434784D01*
X84646853Y-64582354D01*
X84521354Y-64707853D01*
X84373784Y-64806456D01*
X84209812Y-64874376D01*
X84035741Y-64909000D01*
X83858259Y-64909000D01*
X83684188Y-64874376D01*
X83520216Y-64806456D01*
X83372646Y-64707853D01*
X83247147Y-64582354D01*
X83148544Y-64434784D01*
X83080624Y-64270812D01*
X83046000Y-64096741D01*
X83046000Y-63919259D01*
X83080624Y-63745188D01*
X83148544Y-63581216D01*
X83247147Y-63433646D01*
X83372646Y-63308147D01*
X83520216Y-63209544D01*
X83684188Y-63141624D01*
X83858259Y-63107000D01*
X84035741Y-63107000D01*
X84209812Y-63141624D01*
X84209812Y-63141624D01*
G37*
G36*
X61349812Y-63141624D02*
X61513784Y-63209544D01*
X61661354Y-63308147D01*
X61786853Y-63433646D01*
X61885456Y-63581216D01*
X61953376Y-63745188D01*
X61988000Y-63919259D01*
X61988000Y-64096741D01*
X61953376Y-64270812D01*
X61885456Y-64434784D01*
X61786853Y-64582354D01*
X61661354Y-64707853D01*
X61513784Y-64806456D01*
X61349812Y-64874376D01*
X61175741Y-64909000D01*
X60998259Y-64909000D01*
X60824188Y-64874376D01*
X60660216Y-64806456D01*
X60512646Y-64707853D01*
X60387147Y-64582354D01*
X60288544Y-64434784D01*
X60220624Y-64270812D01*
X60186000Y-64096741D01*
X60186000Y-63919259D01*
X60220624Y-63745188D01*
X60288544Y-63581216D01*
X60387147Y-63433646D01*
X60512646Y-63308147D01*
X60660216Y-63209544D01*
X60824188Y-63141624D01*
X60998259Y-63107000D01*
X61175741Y-63107000D01*
X61349812Y-63141624D01*
X61349812Y-63141624D01*
G37*
G36*
X89813700Y-64191000D02*
X88011700Y-64191000D01*
X88011700Y-62389000D01*
X89813700Y-62389000D01*
X89813700Y-64191000D01*
X89813700Y-64191000D01*
G37*
G36*
X115313700Y-64191000D02*
X113511700Y-64191000D01*
X113511700Y-62389000D01*
X115313700Y-62389000D01*
X115313700Y-64191000D01*
X115313700Y-64191000D01*
G37*
G36*
X84209812Y-60601624D02*
X84373784Y-60669544D01*
X84521354Y-60768147D01*
X84646853Y-60893646D01*
X84745456Y-61041216D01*
X84813376Y-61205188D01*
X84848000Y-61379259D01*
X84848000Y-61556741D01*
X84813376Y-61730812D01*
X84745456Y-61894784D01*
X84646853Y-62042354D01*
X84521354Y-62167853D01*
X84373784Y-62266456D01*
X84209812Y-62334376D01*
X84035741Y-62369000D01*
X83858259Y-62369000D01*
X83684188Y-62334376D01*
X83520216Y-62266456D01*
X83372646Y-62167853D01*
X83247147Y-62042354D01*
X83148544Y-61894784D01*
X83080624Y-61730812D01*
X83046000Y-61556741D01*
X83046000Y-61379259D01*
X83080624Y-61205188D01*
X83148544Y-61041216D01*
X83247147Y-60893646D01*
X83372646Y-60768147D01*
X83520216Y-60669544D01*
X83684188Y-60601624D01*
X83858259Y-60567000D01*
X84035741Y-60567000D01*
X84209812Y-60601624D01*
X84209812Y-60601624D01*
G37*
G36*
X61349812Y-60601624D02*
X61513784Y-60669544D01*
X61661354Y-60768147D01*
X61786853Y-60893646D01*
X61885456Y-61041216D01*
X61953376Y-61205188D01*
X61988000Y-61379259D01*
X61988000Y-61556741D01*
X61953376Y-61730812D01*
X61885456Y-61894784D01*
X61786853Y-62042354D01*
X61661354Y-62167853D01*
X61513784Y-62266456D01*
X61349812Y-62334376D01*
X61175741Y-62369000D01*
X60998259Y-62369000D01*
X60824188Y-62334376D01*
X60660216Y-62266456D01*
X60512646Y-62167853D01*
X60387147Y-62042354D01*
X60288544Y-61894784D01*
X60220624Y-61730812D01*
X60186000Y-61556741D01*
X60186000Y-61379259D01*
X60220624Y-61205188D01*
X60288544Y-61041216D01*
X60387147Y-60893646D01*
X60512646Y-60768147D01*
X60660216Y-60669544D01*
X60824188Y-60601624D01*
X60998259Y-60567000D01*
X61175741Y-60567000D01*
X61349812Y-60601624D01*
X61349812Y-60601624D01*
G37*
G36*
X61349812Y-58061624D02*
X61513784Y-58129544D01*
X61661354Y-58228147D01*
X61786853Y-58353646D01*
X61885456Y-58501216D01*
X61953376Y-58665188D01*
X61988000Y-58839259D01*
X61988000Y-59016741D01*
X61953376Y-59190812D01*
X61885456Y-59354784D01*
X61786853Y-59502354D01*
X61661354Y-59627853D01*
X61513784Y-59726456D01*
X61349812Y-59794376D01*
X61175741Y-59829000D01*
X60998259Y-59829000D01*
X60824188Y-59794376D01*
X60660216Y-59726456D01*
X60512646Y-59627853D01*
X60387147Y-59502354D01*
X60288544Y-59354784D01*
X60220624Y-59190812D01*
X60186000Y-59016741D01*
X60186000Y-58839259D01*
X60220624Y-58665188D01*
X60288544Y-58501216D01*
X60387147Y-58353646D01*
X60512646Y-58228147D01*
X60660216Y-58129544D01*
X60824188Y-58061624D01*
X60998259Y-58027000D01*
X61175741Y-58027000D01*
X61349812Y-58061624D01*
X61349812Y-58061624D01*
G37*
G36*
X84209812Y-58061624D02*
X84373784Y-58129544D01*
X84521354Y-58228147D01*
X84646853Y-58353646D01*
X84745456Y-58501216D01*
X84813376Y-58665188D01*
X84848000Y-58839259D01*
X84848000Y-59016741D01*
X84813376Y-59190812D01*
X84745456Y-59354784D01*
X84646853Y-59502354D01*
X84521354Y-59627853D01*
X84373784Y-59726456D01*
X84209812Y-59794376D01*
X84035741Y-59829000D01*
X83858259Y-59829000D01*
X83684188Y-59794376D01*
X83520216Y-59726456D01*
X83372646Y-59627853D01*
X83247147Y-59502354D01*
X83148544Y-59354784D01*
X83080624Y-59190812D01*
X83046000Y-59016741D01*
X83046000Y-58839259D01*
X83080624Y-58665188D01*
X83148544Y-58501216D01*
X83247147Y-58353646D01*
X83372646Y-58228147D01*
X83520216Y-58129544D01*
X83684188Y-58061624D01*
X83858259Y-58027000D01*
X84035741Y-58027000D01*
X84209812Y-58061624D01*
X84209812Y-58061624D01*
G37*
G36*
X115313700Y-58940000D02*
X113511700Y-58940000D01*
X113511700Y-57138000D01*
X115313700Y-57138000D01*
X115313700Y-58940000D01*
X115313700Y-58940000D01*
G37*
G36*
X61349812Y-55521624D02*
X61513784Y-55589544D01*
X61661354Y-55688147D01*
X61786853Y-55813646D01*
X61885456Y-55961216D01*
X61953376Y-56125188D01*
X61988000Y-56299259D01*
X61988000Y-56476741D01*
X61953376Y-56650812D01*
X61885456Y-56814784D01*
X61786853Y-56962354D01*
X61661354Y-57087853D01*
X61513784Y-57186456D01*
X61349812Y-57254376D01*
X61175741Y-57289000D01*
X60998259Y-57289000D01*
X60824188Y-57254376D01*
X60660216Y-57186456D01*
X60512646Y-57087853D01*
X60387147Y-56962354D01*
X60288544Y-56814784D01*
X60220624Y-56650812D01*
X60186000Y-56476741D01*
X60186000Y-56299259D01*
X60220624Y-56125188D01*
X60288544Y-55961216D01*
X60387147Y-55813646D01*
X60512646Y-55688147D01*
X60660216Y-55589544D01*
X60824188Y-55521624D01*
X60998259Y-55487000D01*
X61175741Y-55487000D01*
X61349812Y-55521624D01*
X61349812Y-55521624D01*
G37*
G36*
X84209812Y-55521624D02*
X84373784Y-55589544D01*
X84521354Y-55688147D01*
X84646853Y-55813646D01*
X84745456Y-55961216D01*
X84813376Y-56125188D01*
X84848000Y-56299259D01*
X84848000Y-56476741D01*
X84813376Y-56650812D01*
X84745456Y-56814784D01*
X84646853Y-56962354D01*
X84521354Y-57087853D01*
X84373784Y-57186456D01*
X84209812Y-57254376D01*
X84035741Y-57289000D01*
X83858259Y-57289000D01*
X83684188Y-57254376D01*
X83520216Y-57186456D01*
X83372646Y-57087853D01*
X83247147Y-56962354D01*
X83148544Y-56814784D01*
X83080624Y-56650812D01*
X83046000Y-56476741D01*
X83046000Y-56299259D01*
X83080624Y-56125188D01*
X83148544Y-55961216D01*
X83247147Y-55813646D01*
X83372646Y-55688147D01*
X83520216Y-55589544D01*
X83684188Y-55521624D01*
X83858259Y-55487000D01*
X84035741Y-55487000D01*
X84209812Y-55521624D01*
X84209812Y-55521624D01*
G37*
G36*
X114523142Y-54604518D02*
X114589327Y-54611037D01*
X114702553Y-54645384D01*
X114759167Y-54662557D01*
X114856110Y-54714375D01*
X114915691Y-54746222D01*
X114951429Y-54775552D01*
X115052886Y-54858814D01*
X115136148Y-54960271D01*
X115165478Y-54996009D01*
X115165479Y-54996011D01*
X115249143Y-55152533D01*
X115249143Y-55152534D01*
X115300663Y-55322373D01*
X115318059Y-55499000D01*
X115300663Y-55675627D01*
X115296865Y-55688147D01*
X115249143Y-55845467D01*
X115187273Y-55961216D01*
X115165478Y-56001991D01*
X115136148Y-56037729D01*
X115052886Y-56139186D01*
X114951429Y-56222448D01*
X114915691Y-56251778D01*
X114915689Y-56251779D01*
X114759167Y-56335443D01*
X114702553Y-56352616D01*
X114589327Y-56386963D01*
X114523142Y-56393482D01*
X114456960Y-56400000D01*
X114368440Y-56400000D01*
X114302258Y-56393482D01*
X114236073Y-56386963D01*
X114122847Y-56352616D01*
X114066233Y-56335443D01*
X113909711Y-56251779D01*
X113909709Y-56251778D01*
X113873971Y-56222448D01*
X113772514Y-56139186D01*
X113689252Y-56037729D01*
X113659922Y-56001991D01*
X113638127Y-55961216D01*
X113576257Y-55845467D01*
X113528535Y-55688147D01*
X113524737Y-55675627D01*
X113507341Y-55499000D01*
X113524737Y-55322373D01*
X113576257Y-55152534D01*
X113576257Y-55152533D01*
X113659921Y-54996011D01*
X113659922Y-54996009D01*
X113689252Y-54960271D01*
X113772514Y-54858814D01*
X113873971Y-54775552D01*
X113909709Y-54746222D01*
X113969290Y-54714375D01*
X114066233Y-54662557D01*
X114122847Y-54645384D01*
X114236073Y-54611037D01*
X114302258Y-54604518D01*
X114368440Y-54598000D01*
X114456960Y-54598000D01*
X114523142Y-54604518D01*
X114523142Y-54604518D01*
G37*
G36*
X61349812Y-52981624D02*
X61513784Y-53049544D01*
X61661354Y-53148147D01*
X61786853Y-53273646D01*
X61885456Y-53421216D01*
X61953376Y-53585188D01*
X61988000Y-53759259D01*
X61988000Y-53936741D01*
X61953376Y-54110812D01*
X61885456Y-54274784D01*
X61786853Y-54422354D01*
X61661354Y-54547853D01*
X61513784Y-54646456D01*
X61349812Y-54714376D01*
X61175741Y-54749000D01*
X60998259Y-54749000D01*
X60824188Y-54714376D01*
X60660216Y-54646456D01*
X60512646Y-54547853D01*
X60387147Y-54422354D01*
X60288544Y-54274784D01*
X60220624Y-54110812D01*
X60186000Y-53936741D01*
X60186000Y-53759259D01*
X60220624Y-53585188D01*
X60288544Y-53421216D01*
X60387147Y-53273646D01*
X60512646Y-53148147D01*
X60660216Y-53049544D01*
X60824188Y-52981624D01*
X60998259Y-52947000D01*
X61175741Y-52947000D01*
X61349812Y-52981624D01*
X61349812Y-52981624D01*
G37*
G36*
X84209812Y-52981624D02*
X84373784Y-53049544D01*
X84521354Y-53148147D01*
X84646853Y-53273646D01*
X84745456Y-53421216D01*
X84813376Y-53585188D01*
X84848000Y-53759259D01*
X84848000Y-53936741D01*
X84813376Y-54110812D01*
X84745456Y-54274784D01*
X84646853Y-54422354D01*
X84521354Y-54547853D01*
X84373784Y-54646456D01*
X84209812Y-54714376D01*
X84035741Y-54749000D01*
X83858259Y-54749000D01*
X83684188Y-54714376D01*
X83520216Y-54646456D01*
X83372646Y-54547853D01*
X83247147Y-54422354D01*
X83148544Y-54274784D01*
X83080624Y-54110812D01*
X83046000Y-53936741D01*
X83046000Y-53759259D01*
X83080624Y-53585188D01*
X83148544Y-53421216D01*
X83247147Y-53273646D01*
X83372646Y-53148147D01*
X83520216Y-53049544D01*
X83684188Y-52981624D01*
X83858259Y-52947000D01*
X84035741Y-52947000D01*
X84209812Y-52981624D01*
X84209812Y-52981624D01*
G37*
G36*
X114523143Y-52064519D02*
X114589327Y-52071037D01*
X114702553Y-52105384D01*
X114759167Y-52122557D01*
X114856110Y-52174375D01*
X114915691Y-52206222D01*
X114951429Y-52235552D01*
X115052886Y-52318814D01*
X115136148Y-52420271D01*
X115165478Y-52456009D01*
X115165479Y-52456011D01*
X115249143Y-52612533D01*
X115249143Y-52612534D01*
X115300663Y-52782373D01*
X115318059Y-52959000D01*
X115300663Y-53135627D01*
X115296865Y-53148147D01*
X115249143Y-53305467D01*
X115187273Y-53421216D01*
X115165478Y-53461991D01*
X115136148Y-53497729D01*
X115052886Y-53599186D01*
X114951429Y-53682448D01*
X114915691Y-53711778D01*
X114915689Y-53711779D01*
X114759167Y-53795443D01*
X114702553Y-53812616D01*
X114589327Y-53846963D01*
X114523143Y-53853481D01*
X114456960Y-53860000D01*
X114368440Y-53860000D01*
X114302257Y-53853481D01*
X114236073Y-53846963D01*
X114122847Y-53812616D01*
X114066233Y-53795443D01*
X113909711Y-53711779D01*
X113909709Y-53711778D01*
X113873971Y-53682448D01*
X113772514Y-53599186D01*
X113689252Y-53497729D01*
X113659922Y-53461991D01*
X113638127Y-53421216D01*
X113576257Y-53305467D01*
X113528535Y-53148147D01*
X113524737Y-53135627D01*
X113507341Y-52959000D01*
X113524737Y-52782373D01*
X113576257Y-52612534D01*
X113576257Y-52612533D01*
X113659921Y-52456011D01*
X113659922Y-52456009D01*
X113689252Y-52420271D01*
X113772514Y-52318814D01*
X113873971Y-52235552D01*
X113909709Y-52206222D01*
X113969290Y-52174375D01*
X114066233Y-52122557D01*
X114122847Y-52105384D01*
X114236073Y-52071037D01*
X114302257Y-52064519D01*
X114368440Y-52058000D01*
X114456960Y-52058000D01*
X114523143Y-52064519D01*
X114523143Y-52064519D01*
G37*
G36*
X61349812Y-50441624D02*
X61513784Y-50509544D01*
X61661354Y-50608147D01*
X61786853Y-50733646D01*
X61885456Y-50881216D01*
X61953376Y-51045188D01*
X61988000Y-51219259D01*
X61988000Y-51396741D01*
X61953376Y-51570812D01*
X61885456Y-51734784D01*
X61786853Y-51882354D01*
X61661354Y-52007853D01*
X61513784Y-52106456D01*
X61349812Y-52174376D01*
X61175741Y-52209000D01*
X60998259Y-52209000D01*
X60824188Y-52174376D01*
X60660216Y-52106456D01*
X60512646Y-52007853D01*
X60387147Y-51882354D01*
X60288544Y-51734784D01*
X60220624Y-51570812D01*
X60186000Y-51396741D01*
X60186000Y-51219259D01*
X60220624Y-51045188D01*
X60288544Y-50881216D01*
X60387147Y-50733646D01*
X60512646Y-50608147D01*
X60660216Y-50509544D01*
X60824188Y-50441624D01*
X60998259Y-50407000D01*
X61175741Y-50407000D01*
X61349812Y-50441624D01*
X61349812Y-50441624D01*
G37*
G36*
X84209812Y-50441624D02*
X84373784Y-50509544D01*
X84521354Y-50608147D01*
X84646853Y-50733646D01*
X84745456Y-50881216D01*
X84813376Y-51045188D01*
X84848000Y-51219259D01*
X84848000Y-51396741D01*
X84813376Y-51570812D01*
X84745456Y-51734784D01*
X84646853Y-51882354D01*
X84521354Y-52007853D01*
X84373784Y-52106456D01*
X84209812Y-52174376D01*
X84035741Y-52209000D01*
X83858259Y-52209000D01*
X83684188Y-52174376D01*
X83520216Y-52106456D01*
X83372646Y-52007853D01*
X83247147Y-51882354D01*
X83148544Y-51734784D01*
X83080624Y-51570812D01*
X83046000Y-51396741D01*
X83046000Y-51219259D01*
X83080624Y-51045188D01*
X83148544Y-50881216D01*
X83247147Y-50733646D01*
X83372646Y-50608147D01*
X83520216Y-50509544D01*
X83684188Y-50441624D01*
X83858259Y-50407000D01*
X84035741Y-50407000D01*
X84209812Y-50441624D01*
X84209812Y-50441624D01*
G37*
G36*
X114523142Y-49524518D02*
X114589327Y-49531037D01*
X114702553Y-49565384D01*
X114759167Y-49582557D01*
X114856110Y-49634375D01*
X114915691Y-49666222D01*
X114951429Y-49695552D01*
X115052886Y-49778814D01*
X115136148Y-49880271D01*
X115165478Y-49916009D01*
X115165479Y-49916011D01*
X115249143Y-50072533D01*
X115249143Y-50072534D01*
X115300663Y-50242373D01*
X115318059Y-50419000D01*
X115300663Y-50595627D01*
X115296865Y-50608147D01*
X115249143Y-50765467D01*
X115187273Y-50881216D01*
X115165478Y-50921991D01*
X115136148Y-50957729D01*
X115052886Y-51059186D01*
X114951429Y-51142448D01*
X114915691Y-51171778D01*
X114915689Y-51171779D01*
X114759167Y-51255443D01*
X114702553Y-51272616D01*
X114589327Y-51306963D01*
X114523143Y-51313481D01*
X114456960Y-51320000D01*
X114368440Y-51320000D01*
X114302257Y-51313481D01*
X114236073Y-51306963D01*
X114122847Y-51272616D01*
X114066233Y-51255443D01*
X113909711Y-51171779D01*
X113909709Y-51171778D01*
X113873971Y-51142448D01*
X113772514Y-51059186D01*
X113689252Y-50957729D01*
X113659922Y-50921991D01*
X113638127Y-50881216D01*
X113576257Y-50765467D01*
X113528535Y-50608147D01*
X113524737Y-50595627D01*
X113507341Y-50419000D01*
X113524737Y-50242373D01*
X113576257Y-50072534D01*
X113576257Y-50072533D01*
X113659921Y-49916011D01*
X113659922Y-49916009D01*
X113689252Y-49880271D01*
X113772514Y-49778814D01*
X113873971Y-49695552D01*
X113909709Y-49666222D01*
X113969290Y-49634375D01*
X114066233Y-49582557D01*
X114122847Y-49565384D01*
X114236073Y-49531037D01*
X114302258Y-49524518D01*
X114368440Y-49518000D01*
X114456960Y-49518000D01*
X114523142Y-49524518D01*
X114523142Y-49524518D01*
G37*
G36*
X61349812Y-47901624D02*
X61513784Y-47969544D01*
X61661354Y-48068147D01*
X61786853Y-48193646D01*
X61885456Y-48341216D01*
X61953376Y-48505188D01*
X61988000Y-48679259D01*
X61988000Y-48856741D01*
X61953376Y-49030812D01*
X61885456Y-49194784D01*
X61786853Y-49342354D01*
X61661354Y-49467853D01*
X61513784Y-49566456D01*
X61349812Y-49634376D01*
X61175741Y-49669000D01*
X60998259Y-49669000D01*
X60824188Y-49634376D01*
X60660216Y-49566456D01*
X60512646Y-49467853D01*
X60387147Y-49342354D01*
X60288544Y-49194784D01*
X60220624Y-49030812D01*
X60186000Y-48856741D01*
X60186000Y-48679259D01*
X60220624Y-48505188D01*
X60288544Y-48341216D01*
X60387147Y-48193646D01*
X60512646Y-48068147D01*
X60660216Y-47969544D01*
X60824188Y-47901624D01*
X60998259Y-47867000D01*
X61175741Y-47867000D01*
X61349812Y-47901624D01*
X61349812Y-47901624D01*
G37*
G36*
X84209812Y-47901624D02*
X84373784Y-47969544D01*
X84521354Y-48068147D01*
X84646853Y-48193646D01*
X84745456Y-48341216D01*
X84813376Y-48505188D01*
X84848000Y-48679259D01*
X84848000Y-48856741D01*
X84813376Y-49030812D01*
X84745456Y-49194784D01*
X84646853Y-49342354D01*
X84521354Y-49467853D01*
X84373784Y-49566456D01*
X84209812Y-49634376D01*
X84035741Y-49669000D01*
X83858259Y-49669000D01*
X83684188Y-49634376D01*
X83520216Y-49566456D01*
X83372646Y-49467853D01*
X83247147Y-49342354D01*
X83148544Y-49194784D01*
X83080624Y-49030812D01*
X83046000Y-48856741D01*
X83046000Y-48679259D01*
X83080624Y-48505188D01*
X83148544Y-48341216D01*
X83247147Y-48193646D01*
X83372646Y-48068147D01*
X83520216Y-47969544D01*
X83684188Y-47901624D01*
X83858259Y-47867000D01*
X84035741Y-47867000D01*
X84209812Y-47901624D01*
X84209812Y-47901624D01*
G37*
G36*
X114523143Y-46984519D02*
X114589327Y-46991037D01*
X114702553Y-47025384D01*
X114759167Y-47042557D01*
X114856110Y-47094375D01*
X114915691Y-47126222D01*
X114951429Y-47155552D01*
X115052886Y-47238814D01*
X115136148Y-47340271D01*
X115165478Y-47376009D01*
X115165479Y-47376011D01*
X115249143Y-47532533D01*
X115249143Y-47532534D01*
X115300663Y-47702373D01*
X115318059Y-47879000D01*
X115300663Y-48055627D01*
X115296865Y-48068147D01*
X115249143Y-48225467D01*
X115187273Y-48341216D01*
X115165478Y-48381991D01*
X115136148Y-48417729D01*
X115052886Y-48519186D01*
X114951429Y-48602448D01*
X114915691Y-48631778D01*
X114915689Y-48631779D01*
X114759167Y-48715443D01*
X114702553Y-48732616D01*
X114589327Y-48766963D01*
X114523143Y-48773481D01*
X114456960Y-48780000D01*
X114368440Y-48780000D01*
X114302257Y-48773481D01*
X114236073Y-48766963D01*
X114122847Y-48732616D01*
X114066233Y-48715443D01*
X113909711Y-48631779D01*
X113909709Y-48631778D01*
X113873971Y-48602448D01*
X113772514Y-48519186D01*
X113689252Y-48417729D01*
X113659922Y-48381991D01*
X113638127Y-48341216D01*
X113576257Y-48225467D01*
X113528535Y-48068147D01*
X113524737Y-48055627D01*
X113507341Y-47879000D01*
X113524737Y-47702373D01*
X113576257Y-47532534D01*
X113576257Y-47532533D01*
X113659921Y-47376011D01*
X113659922Y-47376009D01*
X113689252Y-47340271D01*
X113772514Y-47238814D01*
X113873971Y-47155552D01*
X113909709Y-47126222D01*
X113969290Y-47094375D01*
X114066233Y-47042557D01*
X114122847Y-47025384D01*
X114236073Y-46991037D01*
X114302258Y-46984518D01*
X114368440Y-46978000D01*
X114456960Y-46978000D01*
X114523143Y-46984519D01*
X114523143Y-46984519D01*
G37*
G36*
X61349812Y-45361624D02*
X61513784Y-45429544D01*
X61661354Y-45528147D01*
X61786853Y-45653646D01*
X61885456Y-45801216D01*
X61953376Y-45965188D01*
X61988000Y-46139259D01*
X61988000Y-46316741D01*
X61953376Y-46490812D01*
X61885456Y-46654784D01*
X61786853Y-46802354D01*
X61661354Y-46927853D01*
X61513784Y-47026456D01*
X61349812Y-47094376D01*
X61175741Y-47129000D01*
X60998259Y-47129000D01*
X60824188Y-47094376D01*
X60660216Y-47026456D01*
X60512646Y-46927853D01*
X60387147Y-46802354D01*
X60288544Y-46654784D01*
X60220624Y-46490812D01*
X60186000Y-46316741D01*
X60186000Y-46139259D01*
X60220624Y-45965188D01*
X60288544Y-45801216D01*
X60387147Y-45653646D01*
X60512646Y-45528147D01*
X60660216Y-45429544D01*
X60824188Y-45361624D01*
X60998259Y-45327000D01*
X61175741Y-45327000D01*
X61349812Y-45361624D01*
X61349812Y-45361624D01*
G37*
G36*
X84209812Y-45361624D02*
X84373784Y-45429544D01*
X84521354Y-45528147D01*
X84646853Y-45653646D01*
X84745456Y-45801216D01*
X84813376Y-45965188D01*
X84848000Y-46139259D01*
X84848000Y-46316741D01*
X84813376Y-46490812D01*
X84745456Y-46654784D01*
X84646853Y-46802354D01*
X84521354Y-46927853D01*
X84373784Y-47026456D01*
X84209812Y-47094376D01*
X84035741Y-47129000D01*
X83858259Y-47129000D01*
X83684188Y-47094376D01*
X83520216Y-47026456D01*
X83372646Y-46927853D01*
X83247147Y-46802354D01*
X83148544Y-46654784D01*
X83080624Y-46490812D01*
X83046000Y-46316741D01*
X83046000Y-46139259D01*
X83080624Y-45965188D01*
X83148544Y-45801216D01*
X83247147Y-45653646D01*
X83372646Y-45528147D01*
X83520216Y-45429544D01*
X83684188Y-45361624D01*
X83858259Y-45327000D01*
X84035741Y-45327000D01*
X84209812Y-45361624D01*
X84209812Y-45361624D01*
G37*
G36*
X114523142Y-44444518D02*
X114589327Y-44451037D01*
X114702553Y-44485384D01*
X114759167Y-44502557D01*
X114856110Y-44554375D01*
X114915691Y-44586222D01*
X114951429Y-44615552D01*
X115052886Y-44698814D01*
X115136148Y-44800271D01*
X115165478Y-44836009D01*
X115165479Y-44836011D01*
X115249143Y-44992533D01*
X115249143Y-44992534D01*
X115300663Y-45162373D01*
X115318059Y-45339000D01*
X115300663Y-45515627D01*
X115296865Y-45528147D01*
X115249143Y-45685467D01*
X115187273Y-45801216D01*
X115165478Y-45841991D01*
X115136148Y-45877729D01*
X115052886Y-45979186D01*
X114951429Y-46062448D01*
X114915691Y-46091778D01*
X114915689Y-46091779D01*
X114759167Y-46175443D01*
X114702553Y-46192616D01*
X114589327Y-46226963D01*
X114523142Y-46233482D01*
X114456960Y-46240000D01*
X114368440Y-46240000D01*
X114302257Y-46233481D01*
X114236073Y-46226963D01*
X114122847Y-46192616D01*
X114066233Y-46175443D01*
X113909711Y-46091779D01*
X113909709Y-46091778D01*
X113873971Y-46062448D01*
X113772514Y-45979186D01*
X113689252Y-45877729D01*
X113659922Y-45841991D01*
X113638127Y-45801216D01*
X113576257Y-45685467D01*
X113528535Y-45528147D01*
X113524737Y-45515627D01*
X113507341Y-45339000D01*
X113524737Y-45162373D01*
X113576257Y-44992534D01*
X113576257Y-44992533D01*
X113659921Y-44836011D01*
X113659922Y-44836009D01*
X113689252Y-44800271D01*
X113772514Y-44698814D01*
X113873971Y-44615552D01*
X113909709Y-44586222D01*
X113969290Y-44554375D01*
X114066233Y-44502557D01*
X114122847Y-44485384D01*
X114236073Y-44451037D01*
X114302258Y-44444518D01*
X114368440Y-44438000D01*
X114456960Y-44438000D01*
X114523142Y-44444518D01*
X114523142Y-44444518D01*
G37*
G36*
X61349812Y-42821624D02*
X61513784Y-42889544D01*
X61661354Y-42988147D01*
X61786853Y-43113646D01*
X61885456Y-43261216D01*
X61953376Y-43425188D01*
X61988000Y-43599259D01*
X61988000Y-43776741D01*
X61953376Y-43950812D01*
X61885456Y-44114784D01*
X61786853Y-44262354D01*
X61661354Y-44387853D01*
X61513784Y-44486456D01*
X61349812Y-44554376D01*
X61175741Y-44589000D01*
X60998259Y-44589000D01*
X60824188Y-44554376D01*
X60660216Y-44486456D01*
X60512646Y-44387853D01*
X60387147Y-44262354D01*
X60288544Y-44114784D01*
X60220624Y-43950812D01*
X60186000Y-43776741D01*
X60186000Y-43599259D01*
X60220624Y-43425188D01*
X60288544Y-43261216D01*
X60387147Y-43113646D01*
X60512646Y-42988147D01*
X60660216Y-42889544D01*
X60824188Y-42821624D01*
X60998259Y-42787000D01*
X61175741Y-42787000D01*
X61349812Y-42821624D01*
X61349812Y-42821624D01*
G37*
G36*
X84209812Y-42821624D02*
X84373784Y-42889544D01*
X84521354Y-42988147D01*
X84646853Y-43113646D01*
X84745456Y-43261216D01*
X84813376Y-43425188D01*
X84848000Y-43599259D01*
X84848000Y-43776741D01*
X84813376Y-43950812D01*
X84745456Y-44114784D01*
X84646853Y-44262354D01*
X84521354Y-44387853D01*
X84373784Y-44486456D01*
X84209812Y-44554376D01*
X84035741Y-44589000D01*
X83858259Y-44589000D01*
X83684188Y-44554376D01*
X83520216Y-44486456D01*
X83372646Y-44387853D01*
X83247147Y-44262354D01*
X83148544Y-44114784D01*
X83080624Y-43950812D01*
X83046000Y-43776741D01*
X83046000Y-43599259D01*
X83080624Y-43425188D01*
X83148544Y-43261216D01*
X83247147Y-43113646D01*
X83372646Y-42988147D01*
X83520216Y-42889544D01*
X83684188Y-42821624D01*
X83858259Y-42787000D01*
X84035741Y-42787000D01*
X84209812Y-42821624D01*
X84209812Y-42821624D01*
G37*
G36*
X114523143Y-41904519D02*
X114589327Y-41911037D01*
X114702553Y-41945384D01*
X114759167Y-41962557D01*
X114856110Y-42014375D01*
X114915691Y-42046222D01*
X114951429Y-42075552D01*
X115052886Y-42158814D01*
X115136148Y-42260271D01*
X115165478Y-42296009D01*
X115165479Y-42296011D01*
X115249143Y-42452533D01*
X115249143Y-42452534D01*
X115300663Y-42622373D01*
X115318059Y-42799000D01*
X115300663Y-42975627D01*
X115296865Y-42988147D01*
X115249143Y-43145467D01*
X115187273Y-43261216D01*
X115165478Y-43301991D01*
X115136148Y-43337729D01*
X115052886Y-43439186D01*
X114951429Y-43522448D01*
X114915691Y-43551778D01*
X114915689Y-43551779D01*
X114759167Y-43635443D01*
X114702553Y-43652616D01*
X114589327Y-43686963D01*
X114523142Y-43693482D01*
X114456960Y-43700000D01*
X114368440Y-43700000D01*
X114302257Y-43693481D01*
X114236073Y-43686963D01*
X114122847Y-43652616D01*
X114066233Y-43635443D01*
X113909711Y-43551779D01*
X113909709Y-43551778D01*
X113873971Y-43522448D01*
X113772514Y-43439186D01*
X113689252Y-43337729D01*
X113659922Y-43301991D01*
X113638127Y-43261216D01*
X113576257Y-43145467D01*
X113528535Y-42988147D01*
X113524737Y-42975627D01*
X113507341Y-42799000D01*
X113524737Y-42622373D01*
X113576257Y-42452534D01*
X113576257Y-42452533D01*
X113659921Y-42296011D01*
X113659922Y-42296009D01*
X113689252Y-42260271D01*
X113772514Y-42158814D01*
X113873971Y-42075552D01*
X113909709Y-42046222D01*
X113969290Y-42014375D01*
X114066233Y-41962557D01*
X114122847Y-41945384D01*
X114236073Y-41911037D01*
X114302257Y-41904519D01*
X114368440Y-41898000D01*
X114456960Y-41898000D01*
X114523143Y-41904519D01*
X114523143Y-41904519D01*
G37*
G36*
X61349812Y-40281624D02*
X61513784Y-40349544D01*
X61661354Y-40448147D01*
X61786853Y-40573646D01*
X61885456Y-40721216D01*
X61953376Y-40885188D01*
X61988000Y-41059259D01*
X61988000Y-41236741D01*
X61953376Y-41410812D01*
X61885456Y-41574784D01*
X61786853Y-41722354D01*
X61661354Y-41847853D01*
X61513784Y-41946456D01*
X61349812Y-42014376D01*
X61175741Y-42049000D01*
X60998259Y-42049000D01*
X60824188Y-42014376D01*
X60660216Y-41946456D01*
X60512646Y-41847853D01*
X60387147Y-41722354D01*
X60288544Y-41574784D01*
X60220624Y-41410812D01*
X60186000Y-41236741D01*
X60186000Y-41059259D01*
X60220624Y-40885188D01*
X60288544Y-40721216D01*
X60387147Y-40573646D01*
X60512646Y-40448147D01*
X60660216Y-40349544D01*
X60824188Y-40281624D01*
X60998259Y-40247000D01*
X61175741Y-40247000D01*
X61349812Y-40281624D01*
X61349812Y-40281624D01*
G37*
G36*
X84209812Y-40281624D02*
X84373784Y-40349544D01*
X84521354Y-40448147D01*
X84646853Y-40573646D01*
X84745456Y-40721216D01*
X84813376Y-40885188D01*
X84848000Y-41059259D01*
X84848000Y-41236741D01*
X84813376Y-41410812D01*
X84745456Y-41574784D01*
X84646853Y-41722354D01*
X84521354Y-41847853D01*
X84373784Y-41946456D01*
X84209812Y-42014376D01*
X84035741Y-42049000D01*
X83858259Y-42049000D01*
X83684188Y-42014376D01*
X83520216Y-41946456D01*
X83372646Y-41847853D01*
X83247147Y-41722354D01*
X83148544Y-41574784D01*
X83080624Y-41410812D01*
X83046000Y-41236741D01*
X83046000Y-41059259D01*
X83080624Y-40885188D01*
X83148544Y-40721216D01*
X83247147Y-40573646D01*
X83372646Y-40448147D01*
X83520216Y-40349544D01*
X83684188Y-40281624D01*
X83858259Y-40247000D01*
X84035741Y-40247000D01*
X84209812Y-40281624D01*
X84209812Y-40281624D01*
G37*
G36*
X114523143Y-39364519D02*
X114589327Y-39371037D01*
X114702553Y-39405384D01*
X114759167Y-39422557D01*
X114856110Y-39474375D01*
X114915691Y-39506222D01*
X114951429Y-39535552D01*
X115052886Y-39618814D01*
X115136148Y-39720271D01*
X115165478Y-39756009D01*
X115165479Y-39756011D01*
X115249143Y-39912533D01*
X115249143Y-39912534D01*
X115300663Y-40082373D01*
X115318059Y-40259000D01*
X115300663Y-40435627D01*
X115296865Y-40448147D01*
X115249143Y-40605467D01*
X115187273Y-40721216D01*
X115165478Y-40761991D01*
X115136148Y-40797729D01*
X115052886Y-40899186D01*
X114951429Y-40982448D01*
X114915691Y-41011778D01*
X114915689Y-41011779D01*
X114759167Y-41095443D01*
X114702553Y-41112616D01*
X114589327Y-41146963D01*
X114523142Y-41153482D01*
X114456960Y-41160000D01*
X114368440Y-41160000D01*
X114302258Y-41153482D01*
X114236073Y-41146963D01*
X114122847Y-41112616D01*
X114066233Y-41095443D01*
X113909711Y-41011779D01*
X113909709Y-41011778D01*
X113873971Y-40982448D01*
X113772514Y-40899186D01*
X113689252Y-40797729D01*
X113659922Y-40761991D01*
X113638127Y-40721216D01*
X113576257Y-40605467D01*
X113528535Y-40448147D01*
X113524737Y-40435627D01*
X113507341Y-40259000D01*
X113524737Y-40082373D01*
X113576257Y-39912534D01*
X113576257Y-39912533D01*
X113659921Y-39756011D01*
X113659922Y-39756009D01*
X113689252Y-39720271D01*
X113772514Y-39618814D01*
X113873971Y-39535552D01*
X113909709Y-39506222D01*
X113969290Y-39474375D01*
X114066233Y-39422557D01*
X114122847Y-39405384D01*
X114236073Y-39371037D01*
X114302257Y-39364519D01*
X114368440Y-39358000D01*
X114456960Y-39358000D01*
X114523143Y-39364519D01*
X114523143Y-39364519D01*
G37*
G36*
X84209812Y-37741624D02*
X84373784Y-37809544D01*
X84521354Y-37908147D01*
X84646853Y-38033646D01*
X84745456Y-38181216D01*
X84813376Y-38345188D01*
X84848000Y-38519259D01*
X84848000Y-38696741D01*
X84813376Y-38870812D01*
X84745456Y-39034784D01*
X84646853Y-39182354D01*
X84521354Y-39307853D01*
X84373784Y-39406456D01*
X84209812Y-39474376D01*
X84035741Y-39509000D01*
X83858259Y-39509000D01*
X83684188Y-39474376D01*
X83520216Y-39406456D01*
X83372646Y-39307853D01*
X83247147Y-39182354D01*
X83148544Y-39034784D01*
X83080624Y-38870812D01*
X83046000Y-38696741D01*
X83046000Y-38519259D01*
X83080624Y-38345188D01*
X83148544Y-38181216D01*
X83247147Y-38033646D01*
X83372646Y-37908147D01*
X83520216Y-37809544D01*
X83684188Y-37741624D01*
X83858259Y-37707000D01*
X84035741Y-37707000D01*
X84209812Y-37741624D01*
X84209812Y-37741624D01*
G37*
G36*
X61349812Y-37741624D02*
X61513784Y-37809544D01*
X61661354Y-37908147D01*
X61786853Y-38033646D01*
X61885456Y-38181216D01*
X61953376Y-38345188D01*
X61988000Y-38519259D01*
X61988000Y-38696741D01*
X61953376Y-38870812D01*
X61885456Y-39034784D01*
X61786853Y-39182354D01*
X61661354Y-39307853D01*
X61513784Y-39406456D01*
X61349812Y-39474376D01*
X61175741Y-39509000D01*
X60998259Y-39509000D01*
X60824188Y-39474376D01*
X60660216Y-39406456D01*
X60512646Y-39307853D01*
X60387147Y-39182354D01*
X60288544Y-39034784D01*
X60220624Y-38870812D01*
X60186000Y-38696741D01*
X60186000Y-38519259D01*
X60220624Y-38345188D01*
X60288544Y-38181216D01*
X60387147Y-38033646D01*
X60512646Y-37908147D01*
X60660216Y-37809544D01*
X60824188Y-37741624D01*
X60998259Y-37707000D01*
X61175741Y-37707000D01*
X61349812Y-37741624D01*
X61349812Y-37741624D01*
G37*
G36*
X84209812Y-35201624D02*
X84373784Y-35269544D01*
X84521354Y-35368147D01*
X84646853Y-35493646D01*
X84745456Y-35641216D01*
X84813376Y-35805188D01*
X84848000Y-35979259D01*
X84848000Y-36156741D01*
X84813376Y-36330812D01*
X84745456Y-36494784D01*
X84646853Y-36642354D01*
X84521354Y-36767853D01*
X84373784Y-36866456D01*
X84209812Y-36934376D01*
X84035741Y-36969000D01*
X83858259Y-36969000D01*
X83684188Y-36934376D01*
X83520216Y-36866456D01*
X83372646Y-36767853D01*
X83247147Y-36642354D01*
X83148544Y-36494784D01*
X83080624Y-36330812D01*
X83046000Y-36156741D01*
X83046000Y-35979259D01*
X83080624Y-35805188D01*
X83148544Y-35641216D01*
X83247147Y-35493646D01*
X83372646Y-35368147D01*
X83520216Y-35269544D01*
X83684188Y-35201624D01*
X83858259Y-35167000D01*
X84035741Y-35167000D01*
X84209812Y-35201624D01*
X84209812Y-35201624D01*
G37*
G36*
X61349812Y-35201624D02*
X61513784Y-35269544D01*
X61661354Y-35368147D01*
X61786853Y-35493646D01*
X61885456Y-35641216D01*
X61953376Y-35805188D01*
X61988000Y-35979259D01*
X61988000Y-36156741D01*
X61953376Y-36330812D01*
X61885456Y-36494784D01*
X61786853Y-36642354D01*
X61661354Y-36767853D01*
X61513784Y-36866456D01*
X61349812Y-36934376D01*
X61175741Y-36969000D01*
X60998259Y-36969000D01*
X60824188Y-36934376D01*
X60660216Y-36866456D01*
X60512646Y-36767853D01*
X60387147Y-36642354D01*
X60288544Y-36494784D01*
X60220624Y-36330812D01*
X60186000Y-36156741D01*
X60186000Y-35979259D01*
X60220624Y-35805188D01*
X60288544Y-35641216D01*
X60387147Y-35493646D01*
X60512646Y-35368147D01*
X60660216Y-35269544D01*
X60824188Y-35201624D01*
X60998259Y-35167000D01*
X61175741Y-35167000D01*
X61349812Y-35201624D01*
X61349812Y-35201624D01*
G37*
G36*
X89287956Y-32681298D02*
X89394279Y-32702447D01*
X89694742Y-32826903D01*
X89696608Y-32828150D01*
X89965154Y-33007587D01*
X90195113Y-33237546D01*
X90195115Y-33237549D01*
X90329894Y-33439259D01*
X90375798Y-33507960D01*
X90500253Y-33808422D01*
X90563700Y-34127389D01*
X90563700Y-34452611D01*
X90500253Y-34771578D01*
X90375798Y-35072040D01*
X90195113Y-35342454D01*
X89965154Y-35572413D01*
X89965151Y-35572415D01*
X89694742Y-35753097D01*
X89394279Y-35877553D01*
X89287956Y-35898702D01*
X89075311Y-35941000D01*
X88750089Y-35941000D01*
X88537444Y-35898702D01*
X88431121Y-35877553D01*
X88130658Y-35753097D01*
X87860249Y-35572415D01*
X87860246Y-35572413D01*
X87630287Y-35342454D01*
X87449602Y-35072040D01*
X87325147Y-34771578D01*
X87261700Y-34452611D01*
X87261700Y-34127389D01*
X87325147Y-33808422D01*
X87449602Y-33507960D01*
X87495507Y-33439259D01*
X87630285Y-33237549D01*
X87630287Y-33237546D01*
X87860246Y-33007587D01*
X88128792Y-32828150D01*
X88130658Y-32826903D01*
X88431121Y-32702447D01*
X88537444Y-32681298D01*
X88750089Y-32639000D01*
X89075311Y-32639000D01*
X89287956Y-32681298D01*
X89287956Y-32681298D01*
G37*
G36*
X114287956Y-32681298D02*
X114394279Y-32702447D01*
X114694742Y-32826903D01*
X114696608Y-32828150D01*
X114965154Y-33007587D01*
X115195113Y-33237546D01*
X115195115Y-33237549D01*
X115329894Y-33439259D01*
X115375798Y-33507960D01*
X115500253Y-33808422D01*
X115563700Y-34127389D01*
X115563700Y-34452611D01*
X115500253Y-34771578D01*
X115375798Y-35072040D01*
X115195113Y-35342454D01*
X114965154Y-35572413D01*
X114965151Y-35572415D01*
X114694742Y-35753097D01*
X114394279Y-35877553D01*
X114287956Y-35898702D01*
X114075311Y-35941000D01*
X113750089Y-35941000D01*
X113537444Y-35898702D01*
X113431121Y-35877553D01*
X113130658Y-35753097D01*
X112860249Y-35572415D01*
X112860246Y-35572413D01*
X112630287Y-35342454D01*
X112449602Y-35072040D01*
X112325147Y-34771578D01*
X112261700Y-34452611D01*
X112261700Y-34127389D01*
X112325147Y-33808422D01*
X112449602Y-33507960D01*
X112495507Y-33439259D01*
X112630285Y-33237549D01*
X112630287Y-33237546D01*
X112860246Y-33007587D01*
X113128792Y-32828150D01*
X113130658Y-32826903D01*
X113431121Y-32702447D01*
X113537444Y-32681298D01*
X113750089Y-32639000D01*
X114075311Y-32639000D01*
X114287956Y-32681298D01*
X114287956Y-32681298D01*
G37*
G36*
X84209812Y-32661624D02*
X84373784Y-32729544D01*
X84521354Y-32828147D01*
X84646853Y-32953646D01*
X84745456Y-33101216D01*
X84813376Y-33265188D01*
X84848000Y-33439259D01*
X84848000Y-33616741D01*
X84813376Y-33790812D01*
X84745456Y-33954784D01*
X84646853Y-34102354D01*
X84521354Y-34227853D01*
X84373784Y-34326456D01*
X84209812Y-34394376D01*
X84035741Y-34429000D01*
X83858259Y-34429000D01*
X83684188Y-34394376D01*
X83520216Y-34326456D01*
X83372646Y-34227853D01*
X83247147Y-34102354D01*
X83148544Y-33954784D01*
X83080624Y-33790812D01*
X83046000Y-33616741D01*
X83046000Y-33439259D01*
X83080624Y-33265188D01*
X83148544Y-33101216D01*
X83247147Y-32953646D01*
X83372646Y-32828147D01*
X83520216Y-32729544D01*
X83684188Y-32661624D01*
X83858259Y-32627000D01*
X84035741Y-32627000D01*
X84209812Y-32661624D01*
X84209812Y-32661624D01*
G37*
G36*
X61988000Y-34429000D02*
X60186000Y-34429000D01*
X60186000Y-32627000D01*
X61988000Y-32627000D01*
X61988000Y-34429000D01*
X61988000Y-34429000D01*
G37*
M02*
